<?xml version="1.0" standalone="no"?><!DOCTYPE svg PUBLIC " -//W3C//DTD SVG 1.1//EN" "http://www.w3.org/Graphics/SVG/1.1/DTD/svg11.dtd"><svg t="1637636643032" class="icon" viewBox="0 0 1024 1024" version="1.1" xmlns="http://www.w3.org/2000/svg" p-id="2537" xmlns:xlink="http://www.w3.org/1999/xlink" width="256" height="256"><defs><style type="text/css"></style></defs><path d="M213.333333 981.333333c-46.933333 0-85.333333-38.4-85.333333-85.333333V170.666667c0-46.933333 38.4-85.333333 85.333333-85.333334h85.333334c0-25.6 17.066667-42.666667 42.666666-42.666666s42.666667 17.066667 42.666667 42.666666h256c0-25.6 17.066667-42.666667 42.666667-42.666666s42.666667 17.066667 42.666666 42.666666h85.333334c46.933333 0 85.333333 38.4 85.333333 85.333334v725.333333c0 46.933333-38.4 85.333333-85.333333 85.333333H213.333333z m0-106.666666c0 12.8 8.533333 21.333333 21.333334 21.333333h554.666666c12.8 0 21.333333-8.533333 21.333334-21.333333V384H213.333333v490.666667z m0-682.666667V298.666667h597.333334V192c0-12.8-8.533333-21.333333-21.333334-21.333333H725.333333c0 25.6-17.066667 42.666667-42.666666 42.666666s-42.666667-17.066667-42.666667-42.666666H384c0 25.6-17.066667 42.666667-42.666667 42.666666s-42.666667-17.066667-42.666666-42.666666H234.666667c-12.8 0-21.333333 8.533333-21.333334 21.333333zM341.333333 768c-25.6 0-42.666667-17.066667-42.666666-42.666667s17.066667-42.666667 42.666666-42.666666h341.333334c25.6 0 42.666667 17.066667 42.666666 42.666666s-17.066667 42.666667-42.666666 42.666667H341.333333z m0-170.666667c-25.6 0-42.666667-17.066667-42.666666-42.666666s17.066667-42.666667 42.666666-42.666667h341.333334c25.6 0 42.666667 17.066667 42.666666 42.666667s-17.066667 42.666667-42.666666 42.666666H341.333333z"></path></svg>