<?xml version="1.0" standalone="no"?><!DOCTYPE svg PUBLIC " -//W3C//DTD SVG 1.1//EN" "http://www.w3.org/Graphics/SVG/1.1/DTD/svg11.dtd"><svg t="1637636643032" class="icon" viewBox="0 0 1024 1024" version="1.1" xmlns="http://www.w3.org/2000/svg" p-id="2537" xmlns:xlink="http://www.w3.org/1999/xlink" width="256" height="256"><defs><style type="text/css"></style></defs><path d="M419.45718113 789.15219931v-197.64693374c61.8539653 0.05953216 123.76746277 0 185.62142806-0.05953217v197.70646591H419.45718113zM934.41078949 918.57522192a4405.75257514 4405.75257514 0 0 0-844.28578949 1e-8v-58.99641888c281.34922028-18.39545233 562.93656922-18.39545233 844.28578949-1e-8v58.99641888zM887.9756666 213.71386627c-0.05953216-4.58398004-0.23812867-9.16796008-0.65485383-13.69240795-0.53578949-5.8936885-1.4287728-11.90644217-3.0361429-17.91919501-1.36924063-5.0007052-3.39333591-10.7753302-6.66760749-16.49042221-1.84549878-3.21473941-4.52444787-7.14386482-8.27497678-10.83486237a54.10287158 54.10287158 0 0 0-10.83486236-8.27497678c-5.65555985-3.27427158-11.43018402-5.35789902-16.49042222-6.66760747-5.95322067-1.60736929-12.0255065-2.5003526-17.919195-3.03614292-4.58398004-0.41672516-9.16796008-0.59532248-13.69240796-0.65485382-3.69099673-0.05953216-7.38199429-0.05953216-11.13252319-0.05953217H225.26311463c-3.69099673 0-7.38199429 0-11.1325232 0.05953217-4.58398004 0.05953216-9.16796008 0.23812867-13.69240796 0.65485382-5.8936885 0.53578949-11.90644217 1.4287728-17.91919501 3.03614292-5.0007052 1.36924063-10.7753302 3.39333591-16.4904222 6.66760747-3.21473941 1.84549878-7.14386482 4.52444787-10.83486155 8.27497678-3.7505289 3.7505289-6.36994666 7.62012295-8.2749776 10.83486237-3.21473941 5.65555985-5.29836685 11.43018402-6.60807449 16.49042221-1.60736929 5.95322067-2.5003526 12.0255065-3.03614292 17.91919501-0.41672516 4.58398004-0.59532248 9.16796008-0.65485464 13.69240796-0.05953216 3.69099673-0.05953216 7.38199429-0.05953216 11.07299102V446.12761023c0 3.69099673 0 7.38199429 0.05953216 11.13252319 0.05953216 4.58398004 0.23812867 9.16796008 0.65485464 13.69240879 0.53578949 5.8936885 1.4287728 11.90644217 3.03614292 17.91919418 1.36924063 5.0007052 3.39333591 10.7753302 6.66760748 16.49042221 1.84549878 3.21473941 4.52444787 7.14386482 8.27497677 10.83486237 3.7505289 3.7505289 7.62012295 6.36994666 10.83486237 8.27497677 5.65555985 3.27427158 11.43018402 5.35789902 16.49042139 6.66760749 5.95322067 1.60736929 12.0255065 2.5003526 17.919195 3.03614291 4.58398004 0.41672516 9.16796008 0.59532248 13.69240796 0.65485382 3.69099673 0.05953216 7.38199429 0.05953216 11.1325232 0.05953217h574.00956024c3.69099673 0 7.38199429 0 11.1325232-0.05953217 4.58398004-0.05953216 9.16796008-0.23812867 13.69240795-0.65485382 5.8936885-0.53578949 11.90644217-1.4287728 17.91919501-3.03614291 5.0007052-1.36924063 10.7753302-3.39333591 16.49042221-6.66760749 3.21473941-1.84549878 7.14386482-4.52444787 10.83486237-8.27497677 3.7505289-3.7505289 6.36994666-7.62012295 8.27497676-10.83486237 3.27427158-5.65555985 5.35789902-11.43018402 6.6676075-16.49042221 1.60736929-5.95322067 2.5003526-12.0255065 3.03614291-17.91919418 0.41672516-4.58398004 0.59532248-9.16796008 0.65485382-13.69240879 0.05953216-3.69099673 0.05953216-7.38199429 0.05953217-11.13252319V224.7868573c-0.05953216-3.69099673-0.05953216-7.38199429-0.11906433-11.07299103zM395.28710379 399.99014817c0 1.01204764-0.05953216 1.96456311-0.11906433 2.97661074-0.11906433 1.30970847-0.29766083 2.61941693-0.65485382 3.92912622-0.29766083 1.07157981-0.71438681 2.38128827-1.42877362 3.5719324-0.41672516 0.71438681-1.01204764 1.54783713-1.78596579 2.38128827a13.13875882 13.13875882 0 0 1-5.9532215 3.21473941c-1.30970847 0.35719299-2.61941693 0.53578949-3.92912539 0.65485382-1.01204764 0.05953216-1.96456311 0.11906433-2.97661075 0.11906433h-53.10273038c-1.01204764 0-1.96456311-0.05953216-2.97661075-0.11906433-1.25017629-0.11906433-2.61941693-0.29766083-3.92912539-0.65485382-1.07157981-0.29766083-2.38128827-0.71438681-3.5719324-1.42877362-0.71438681-0.41672516-1.54783713-1.01204764-2.38128828-1.78596579a13.13875882 13.13875882 0 0 1-3.2147394-5.95322067 22.56270722 22.56270722 0 0 1-0.65485465-3.92912622c-0.05953216-1.01204764-0.11906433-1.96456311-0.11906433-2.97661074v-2.44082044-125.07717124-2.44082043c0-1.01204764 0.05953216-1.96456311 0.11906433-2.97661075 0.11906433-1.25017629 0.29766083-2.61941693 0.65485465-3.9291254 0.29766083-1.07157981 0.71438681-2.38128827 1.42877279-3.5719324 0.41672516-0.71438681 1.01204764-1.54783713 1.78596661-2.38128909a13.13875882 13.13875882 0 0 1 5.95322068-3.21473859c1.30970847-0.35719299 2.61941693-0.53578949 3.92912539-0.65485464 1.01204764-0.05953216 1.96456311-0.11906433 2.97661075-0.11906434h53.10273037c1.01204764 0 1.96456311 0.05953216 2.97661076 0.11906434 1.30970847 0.11906433 2.61941693 0.29766083 3.92912539 0.65485464 1.07157981 0.29766083 2.38128827 0.71438681 3.57193323 1.42877279 0.71438681 0.41672516 1.54783713 1.01204764 2.38128826 1.7859658a13.13875882 13.13875882 0 0 1 3.21473942 5.95322149c0.35719299 1.30970847 0.53578949 2.61941693 0.65485382 3.9291254 0.05953216 1.01204764 0.11906433 1.96456311 0.11906433 2.97661075V399.99014817z m320.87860702-2.44082044v2.44082044c0 1.01204764-0.05953216 1.96456311-0.11906433 2.97661074-0.11906433 1.30970847-0.29766083 2.61941693-0.65485382 3.92912622-0.29766083 1.07157981-0.71438681 2.38128827-1.42877279 3.5719324-0.41672516 0.71438681-1.01204764 1.54783713-1.78596662 2.38128827a13.13875882 13.13875882 0 0 1-5.95322068 3.21473941c-1.30970847 0.35719299-2.61941693 0.53578949-3.92912622 0.65485382-1.01204764 0.05953216-1.96456311 0.11906433-2.97660992 0.11906433h-53.1027312c-1.01204764 0-1.96456311-0.05953216-2.97660992-0.11906433-1.25017629-0.11906433-2.61941693-0.29766083-3.92912623-0.65485382-1.07157981-0.29766083-2.38128827-0.71438681-3.5719324-1.42877362-0.71438681-0.41672516-1.54783713-1.01204764-2.38128826-1.78596579a13.13875882 13.13875882 0 0 1-3.21473942-5.95322067 22.56270722 22.56270722 0 0 1-0.65485464-3.92912622c-0.05953216-1.01204764-0.11906433-1.96456311-0.11906433-2.97661074v-2.44082044-125.07717124-2.44082043c0-1.01204764 0.05953216-1.96456311 0.11906433-2.97661075 0.11906433-1.25017629 0.29766083-2.61941693 0.65485464-3.9291254 0.29766083-1.07157981 0.71438681-2.38128827 1.4287728-3.5719324 0.41672516-0.71438681 1.01204764-1.54783713 1.78596662-2.38128909a13.13875882 13.13875882 0 0 1 5.95322066-3.21473859c1.30970847-0.35719299 2.61941693-0.53578949 3.92912623-0.65485464 1.01204764-0.05953216 1.96456311-0.11906433 2.97660992-0.11906434h53.1027312c1.01204764 0 1.96456311 0.05953216 2.97660992 0.11906434 1.25017629 0.11906433 2.61941693 0.29766083 3.92912622 0.65485464 1.07157981 0.29766083 2.38128827 0.71438681 3.57193242 1.42877279 0.71438681 0.41672516 1.54783713 1.01204764 2.38128826 1.7859658a13.13875882 13.13875882 0 0 1 3.21473941 5.95322149c0.35719299 1.30970847 0.53578949 2.61941693 0.65485382 3.9291254 0.05953216 1.01204764 0.11906433 1.96456311 0.11906433 2.97661075v127.51799167z"></path></svg>