<?xml version="1.0" standalone="no"?><!DOCTYPE svg PUBLIC " -//W3C//DTD SVG 1.1//EN" "http://www.w3.org/Graphics/SVG/1.1/DTD/svg11.dtd"><svg t="1637636643032" class="icon" viewBox="0 0 1024 1024" version="1.1" xmlns="http://www.w3.org/2000/svg" p-id="2537" xmlns:xlink="http://www.w3.org/1999/xlink" width="256" height="256"><defs><style type="text/css"></style></defs><path d="M404.82801455 579.81301559c21.68329065 0 39.316784 17.63349335 39.31678483 39.35896985v275.34404471a39.316784 39.316784 0 0 1-39.35896985 39.31678482H129.441784A39.316784 39.316784 0 0 1 90.125 894.51603015V619.12979959c0-21.7254765 17.59130832-39.35896985 39.316784-39.35896902H404.82801455z m432.65336738 0c21.7254765 0 39.316784 17.63349335 39.31678482 39.35896985v275.34404471a39.316784 39.316784 0 0 1-39.31678483 39.31678482h-275.3440447a39.316784 39.316784 0 0 1-39.31678482-39.31678482V619.12979959c0-21.7254765 17.59130832-39.35896985 39.31678482-39.35896902h275.3440447z m-472.05452224 78.67575385H168.84293887v196.66829169h196.66829169v-196.66829169z m432.69555321 0h-196.66829168v196.66829169h196.66829168v-196.66829169zM727.63062454 101.64161155l194.68557807 194.68557805a39.316784 39.316784 0 0 1 0 55.64253077l-194.68557807 194.68557806a39.316784 39.316784 0 0 1-55.64252993 0L477.30251572 351.96972037a39.316784 39.316784 0 0 1 0-55.64253077L671.98809461 101.64161155a39.316784 39.316784 0 0 1 55.64252993 0zM404.78582953 147.15964822c21.7254765 0 39.35896985 17.59130832 39.35896984 39.31678401v275.34404552a39.316784 39.316784 0 0 1-39.35896985 39.316784H129.441784A39.316784 39.316784 0 0 1 90.125 461.82047775V186.47643222c0-21.7254765 17.59130832-39.316784 39.316784-39.316784H404.82801455z m295.00243754 37.92466654l-139.04304813 139.08523315 139.04304813 139.0430473 139.08523315-139.0430473-139.08523315-139.08523315z m-334.31922154 40.75108731H168.80075384v196.66829169h196.66829169V225.83540207z"></path></svg>