<?xml version="1.0" standalone="no"?><!DOCTYPE svg PUBLIC " -//W3C//DTD SVG 1.1//EN" "http://www.w3.org/Graphics/SVG/1.1/DTD/svg11.dtd"><svg t="1637636643032" class="icon" viewBox="0 0 1024 1024" version="1.1" xmlns="http://www.w3.org/2000/svg" p-id="2537" xmlns:xlink="http://www.w3.org/1999/xlink" width="256" height="256"><defs><style type="text/css"></style></defs><path d="M810.666667 128l-178.56 0c-17.493333-49.493333-64.426667-85.333333-120.106667-85.333333s-102.613333 35.84-120.106667 85.333333l-178.56 0c-47.146667 0-85.333333 38.186667-85.333333 85.333333l0 597.333333c0 47.146667 38.186667 85.333333 85.333333 85.333333l597.333333 0c47.146667 0 85.333333-38.186667 85.333333-85.333333l0-597.333333c0-47.146667-38.186667-85.333333-85.333333-85.333333zM512 128c23.466667 0 42.666667 18.986667 42.666667 42.666667s-19.2 42.666667-42.666667 42.666667-42.666667-18.986667-42.666667-42.666667 19.2-42.666667 42.666667-42.666667zM426.666667 725.333333l-170.666667-170.666667 60.373333-60.373333 110.293333 110.293333 280.96-280.96 60.373333 60.373333-341.333333 341.333333z"></path></svg>