<?xml version="1.0" standalone="no"?><!DOCTYPE svg PUBLIC " -//W3C//DTD SVG 1.1//EN" "http://www.w3.org/Graphics/SVG/1.1/DTD/svg11.dtd"><svg t="1637636643032" class="icon" viewBox="0 0 1024 1024" version="1.1" xmlns="http://www.w3.org/2000/svg" p-id="2537" xmlns:xlink="http://www.w3.org/1999/xlink" width="256" height="256"><defs><style type="text/css"></style></defs><path d="M169.2265625 606.921875c0 21.09375-15.8203125 36.9140625-36.9140625 36.9140625-26.3671875 0-42.1875-15.8203125-42.1875-36.9140625V417.078125c0-21.09375 15.8203125-36.9140625 36.9140625-36.9140625 21.09375 0 36.9140625 15.8203125 36.9140625 36.9140625v189.84375z m616.9921875-326.953125c-10.546875-10.546875-58.0078125 21.09375-31.640625 52.734375 142.3828125 121.2890625 147.65625 237.3046875 0 363.8671875-21.09375 21.09375 5.2734375 58.0078125 31.640625 52.734375 200.390625-94.921875 189.84375-384.9609375 0-469.3359375z m-36.9140625 348.046875c73.828125-58.0078125 68.5546875-174.0234375 0-221.484375-26.3671875-15.8203125-42.1875 36.9140625-42.1875 36.9140625s68.5546875 84.375 0 147.65625c-15.8203125 15.8203125 10.546875 52.734375 42.1875 36.9140625zM617.46875 817.859375c0 73.828125-58.0078125 36.9140625-58.0078125 36.9140625l-253.125-210.9375h-36.9140625c-26.3671875 0-42.1875-21.09375-42.1875-47.4609375V422.3515625c0-26.3671875 21.09375-42.1875 42.1875-42.1875h47.4609375l242.578125-205.6640625s58.0078125-36.9140625 58.0078125 36.9140625v606.4453125z m0 0"></path></svg>