<?xml version="1.0" standalone="no"?><!DOCTYPE svg PUBLIC " -//W3C//DTD SVG 1.1//EN" "http://www.w3.org/Graphics/SVG/1.1/DTD/svg11.dtd"><svg t="1637636643032" class="icon" viewBox="0 0 1024 1024" version="1.1" xmlns="http://www.w3.org/2000/svg" p-id="2537" xmlns:xlink="http://www.w3.org/1999/xlink" width="256" height="256"><defs><style type="text/css"></style></defs><path d="M900.65131543 349.33552627c-21.29934238-50.08223722-51.72697375-95.14802637-90.46052627-133.88157888s-83.7993425-69.16118391-133.8815789-90.46052628C624.41776294 102.95394766 569.4013161 91.76973655 512.82236868 91.76973655c-56.57894741 0-111.59539507 11.1842103-163.4868424 33.22368456-50.08223722 21.29934238-95.14802637 51.72697375-133.88157889 90.46052628s-69.16118391 83.7993425-90.46052628 133.88157888C102.95394766 401.22697361 91.76973655 456.24342127 91.76973655 512.82236868c0 56.57894741 11.1842103 111.59539507 33.22368456 163.48684158 21.29934238 50.08223722 51.72697375 95.14802637 90.46052628 133.8815789s83.7993425 69.16118391 133.88157888 90.46052626c51.89144733 22.03947345 106.90789499 33.22368458 163.48684241 33.22368458 56.57894741 0 111.59539507-11.1842103 163.48684159-33.22368457 50.08223722-21.29934238 95.14802637-51.72697375 133.88157889-90.46052627s69.16118391-83.7993425 90.46052626-133.88157889c22.03947345-51.89144733 33.22368458-106.90789499 33.22368458-163.48684159 0-56.57894741-11.1842103-111.59539507-33.22368457-163.4868424zM645.2236846 827.37828976c-42.02302643 17.8453949-86.59539487 26.89144712-132.40131592 26.89144711s-90.37828949-9.04605305-132.40131591-26.89144711c-40.70723703-17.35197336-77.30263147-42.10526321-108.71710511-73.43750006-31.41447364-31.41447364-56.08552671-67.92763128-73.43750006-108.7171051-17.8453949-42.02302643-26.89144712-86.59539487-26.89144793-132.40131592s9.04605305-90.37828949 26.89144793-132.40131591c17.35197336-40.70723703 42.10526321-77.30263147 73.43750006-108.71710511 31.41447364-31.41447364 67.92763128-56.08552671 108.71710511-73.43750006 42.02302643-17.8453949 86.59539487-26.89144712 132.40131591-26.89144793s90.37828949 9.04605305 132.40131592 26.89144793c40.70723703 17.35197336 77.30263147 42.10526321 108.7171051 73.43750006 31.41447364 31.41447364 56.08552671 67.92763128 73.43750006 108.71710511 17.8453949 42.02302643 26.89144712 86.59539487 26.89144712 132.40131591s-9.04605305 90.37828949-26.89144712 132.40131592c-17.35197336 40.70723703-42.10526321 77.30263147-73.43750006 108.7171051-31.41447364 31.33223684-68.00986807 56.08552671-108.7171051 73.43750006z"></path><path d="M483.05263159 756.5723685h61.43092109c6.82565817 0 12.33552612-5.50986877 12.33552612-12.33552612v-56.33223706c0-6.82565817-5.50986877-12.33552612-12.33552612-12.33552612h-61.43092109c-6.82565817 0-12.33552612 5.50986877-12.33552612 12.33552612v56.33223706c0 6.82565817 5.50986877 12.33552612 12.33552612 12.33552612zM656.65460525 397.69078933c-2.71381558-42.26973679-15.87171038-74.91776303-38.98026287-97.12171005-23.10855249-22.20394702-56.25000027-33.88157886-98.51973706-34.78618432h-0.82236869c-48.27302627 1.80921094-85.77302617 16.03618396-111.43092068 42.10526321-25.57565771 26.06907925-39.47368442 64.14473666-41.28289453 113.15789484-0.24671035 6.99013175 5.34539438 12.74671087 12.33552612 12.74671006h53.78289423c6.6611846 0 12.17105256-5.34539438 12.33552694-12.00657899 1.56249976-59.78618454 25.08223701-88.56907854 74.17763114-90.3782895h1.06907904c40.29605228 1.72697332 60.69078919 22.20394702 63.89802631 64.22697346 0 0.41118393 0.08223679 0.90460547 0 1.31579022-0.49342072 21.87499988-16.44736872 48.68421021-47.53289439 79.7697367-42.10526321 40.29605228-62.58223691 76.72697397-62.5822369 111.26644711v46.1348682c0 6.82565817 5.50986877 12.33552612 12.33552612 12.33552694h56.33223706c6.82565817 0 12.33552612-5.50986877 12.33552612-12.33552694v-53.78289423c0-9.37500018 6.49671021-26.9736839 37.25328956-57.81250003 43.25657904-41.44736811 65.21381571-83.22368418 65.2138157-124.09539477l0.08223678-0.74013191z"></path></svg>