<?xml version="1.0" standalone="no"?><!DOCTYPE svg PUBLIC " -//W3C//DTD SVG 1.1//EN" "http://www.w3.org/Graphics/SVG/1.1/DTD/svg11.dtd"><svg t="1637636643032" class="icon" viewBox="0 0 1024 1024" version="1.1" xmlns="http://www.w3.org/2000/svg" p-id="2537" xmlns:xlink="http://www.w3.org/1999/xlink" width="256" height="256"><defs><style type="text/css"></style></defs><path d="M265.37 764.928a30.72 30.72 0 0 1-30.72-30.72V328.755a30.72 30.72 0 0 1 61.44 0v405.453a30.72 30.72 0 0 1-30.72 30.72z m163.276 0a30.72 30.72 0 0 1-30.72-30.72V328.755a30.72 30.72 0 0 1 61.44 0v405.453a30.72 30.72 0 0 1-30.72 30.72z m163.277 0a30.72 30.72 0 0 1-30.72-30.72V328.755a30.72 30.72 0 1 1 61.44 0v405.453a30.72 30.72 0 0 1-30.72 30.72z m163.277 0a30.72 30.72 0 0 1-30.72-30.72V328.755a30.72 30.72 0 1 1 61.44 0v405.453a30.72 30.72 0 0 1-30.72 30.72z"></path><path d="M407.86 938.547H193.893a92.16 92.16 0 0 1-92.16-92.16v-212.48a30.72 30.72 0 0 1 61.44 0v212.48a30.72 30.72 0 0 0 30.72 30.72H407.86a30.72 30.72 0 1 1 0 61.44z m418.815 0H612.71a30.72 30.72 0 0 1 0-61.44h213.965a30.72 30.72 0 0 0 30.72-30.72v-212.48a30.72 30.72 0 1 1 61.44 0v212.48a92.16 92.16 0 0 1-92.16 92.16z m-694.22-478.771a30.72 30.72 0 0 1-30.72-30.72v-212.48a92.16 92.16 0 0 1 92.16-92.16h213.964a30.72 30.72 0 1 1 0 61.44H193.894a30.72 30.72 0 0 0-30.72 30.72v212.48a30.72 30.72 0 0 1-30.72 30.72z m755.66 0a30.72 30.72 0 0 1-30.72-30.72v-212.48a30.72 30.72 0 0 0-30.72-30.72H612.71a30.72 30.72 0 0 1 0-61.44h213.965a92.16 92.16 0 0 1 92.16 92.16v212.48a30.72 30.72 0 0 1-30.72 30.72z"></path></svg>