<?xml version="1.0" standalone="no"?><!DOCTYPE svg PUBLIC " -//W3C//DTD SVG 1.1//EN" "http://www.w3.org/Graphics/SVG/1.1/DTD/svg11.dtd"><svg t="1637636643032" class="icon" viewBox="0 0 1024 1024" version="1.1" xmlns="http://www.w3.org/2000/svg" p-id="2537" xmlns:xlink="http://www.w3.org/1999/xlink" width="256" height="256"><defs><style type="text/css"></style></defs><path d="M717.71428531 992H306.28571469a171.42857156 171.42857156 0 0 1-171.42857156-171.42857156v-480A171.42857156 171.42857156 0 0 1 306.28571469 169.14285687h411.42857062a171.42857156 171.42857156 0 0 1 171.42857158 171.42857157v480A171.42857156 171.42857156 0 0 1 717.71428531 992zM527.36 344.20571469L374.85714313 614.85714313h137.14285687l-15.29142844 202.14857156L649.14285687 546.28571469H512zM649.14285687 100.57142844H374.85714313a34.28571469 34.28571469 0 1 1 0-68.57142844h274.28571376a34.28571469 34.28571469 0 1 1-2e-8 68.57142844z"></path></svg>