<?xml version="1.0" standalone="no"?><!DOCTYPE svg PUBLIC " -//W3C//DTD SVG 1.1//EN" "http://www.w3.org/Graphics/SVG/1.1/DTD/svg11.dtd"><svg t="1637636643032" class="icon" viewBox="0 0 1024 1024" version="1.1" xmlns="http://www.w3.org/2000/svg" p-id="2537" xmlns:xlink="http://www.w3.org/1999/xlink" width="256" height="256"><defs><style type="text/css"></style></defs><path d="M512 396.43129884a65.40710449 65.40710449 0 0 0 10.02908936-0.72674561l67.5873413-10.46513672a65.40710449 65.40710449 0 0 0 36.19193116-18.31398925l187.79106445-187.93641358a65.40710449 65.40710449 0 0 0 0-92.44204101l-57.12220459-57.12220459a65.40710449 65.40710449 0 0 0-92.44204102 0L476.24411621 217.21583253a65.40710449 65.40710449 0 0 0-18.31398926 36.19193115l-10.46513672 67.58734131A65.40710449 65.40710449 0 0 0 512 396.43129884z m255.37840576-263.66330567l-34.4477417 34.30239258-56.97685547-56.97685547 34.30239258-34.30239257z m-244.91326904 130.81420899l107.26765137-107.26765137L686.41894531 213.29140626l-107.26765136 107.26765137-67.15129395 10.46513672z"></path><path d="M875.37280273 171.57620851v268.89587402l-107.99439697-83.43039551-46.07567139 47.5291626L875.37280273 525.50131837V724.92031251a80.95946045 80.95946045 0 0 1-4.94187011 26.1628418L194.41217041 223.75654298a80.95946045 80.95946045 0 0 1 35.46518555-10.46513672h169.91312256v-67.29664307h-170.05847168a148.54680176 148.54680176 0 0 0-148.25610352 148.25610352V724.92031251a148.54680176 148.54680176 0 0 0 147.38400879 149.70959473h565.26273193a148.54680176 148.54680176 0 0 0 148.25610352-148.8375V294.83226319A147.96540527 147.96540527 0 0 0 875.37280273 171.57620851zM230.1680542 808.06000978A81.83155518 81.83155518 0 0 1 148.62719727 726.2284546v-109.59323731l244.33187255 191.42479249zM148.62719727 533.05947267V294.83226319a80.95946045 80.95946045 0 0 1 3.05233154-21.07562256l436.04736328 341.13438721-128.92467041 159.88403321z m646.22219238 276.16333007h-276.16333008L642.81420898 657.04227296l186.046875 145.34912109a81.25015869 81.25015869 0 0 1-34.59309082 5.95931397z"></path></svg>