<?xml version="1.0" standalone="no"?><!DOCTYPE svg PUBLIC " -//W3C//DTD SVG 1.1//EN" "http://www.w3.org/Graphics/SVG/1.1/DTD/svg11.dtd"><svg t="1637636643032" class="icon" viewBox="0 0 1024 1024" version="1.1" xmlns="http://www.w3.org/2000/svg" p-id="2537" xmlns:xlink="http://www.w3.org/1999/xlink" width="256" height="256"><defs><style type="text/css"></style></defs><path d="M357.11696538 557.12323199c-0.517172 0.646465-1.16363601 1.42222201-1.29292899 2.32727301l-42.537374 155.92727298c-2.45656598 9.050505 0.12929302 18.87676799 6.723232 25.72929303 5.042424 4.913131 11.636364 7.62828301 18.74747501 7.62828301 2.32727301 0 4.65454499-0.25858598 6.98181799-0.90505102l154.76363699-42.149495c0.25858598 0 0.38787902 0.25858598 0.51717101 0.258586 1.810101 0 3.49090899-0.646465 4.78383899-1.939394l413.866667-413.737374c12.282828-12.282828 19.006061-29.090909 19.00606001-47.32121199 0-20.68686901-8.791919-41.37373701-24.17777801-56.63030301l-39.046464-39.175757c-15.25656599-15.51515199-35.94343402-24.307071-56.63030298-24.30707101-18.23030301 0-35.03838399 6.72323198-47.32121201 19.00606001l-413.737374 413.86666698c-0.517172 0.38787902-0.38787902 1.03434302-0.64646501 1.42222201M879.20181439 249.535354l-41.11515201 41.11515099-66.585858-67.74949501 40.468686-40.46868697c6.46464598-6.46464598 18.87676799-5.55959601 26.117172 1.93939399l39.17575802 39.175758c4.13737402 4.13737402 6.46464598 9.438384 6.46464599 14.86868698-0.12929302 4.26666699-1.680808 8.274747-4.525252 11.11919202M430.68464239 563.58787901l298.66666699-298.66666702 66.71515102 67.749495-298.14949501 298.14949499-67.232323-67.23232297z m-54.432323 121.147475l21.59191901-79.25656601 57.535353 57.53535299-79.12727201 21.721213z m0-2e-8"></path><path d="M905.44827838 413.47878801c-15.644444 0-28.573737 12.80000001-28.57373699 28.57373699v385.81010099c0 20.169697-16.42020201 36.71919201-36.71919199 36.71919202H187.48464238C167.31494541 864.58181801 150.76545038 848.16161599 150.76545038 827.86262599v-629.656565c0-20.29899002 16.549495-36.71919201 36.719192-36.71919199h420.33131301c15.77373701 0 28.573737-12.80000001 28.57373699-28.57373801 0-15.77373701-12.80000001-28.573737-28.57373699-28.573737H183.21797538c-49.26060598 0-89.47070698 40.080808-89.470707 89.470707v638.31919201c0 49.38989901 40.080808 89.47070698 89.470707 89.470707h661.333334c49.38989901 0 89.47070698-40.080808 89.47070702-89.470707V441.923232c-0.12929302-15.644444-12.929293-28.44444399-28.57373802-28.44444399"></path></svg>