<?xml version="1.0" standalone="no"?><!DOCTYPE svg PUBLIC " -//W3C//DTD SVG 1.1//EN" "http://www.w3.org/Graphics/SVG/1.1/DTD/svg11.dtd"><svg t="1637636643032" class="icon" viewBox="0 0 1024 1024" version="1.1" xmlns="http://www.w3.org/2000/svg" p-id="2537" xmlns:xlink="http://www.w3.org/1999/xlink" width="256" height="256"><defs><style type="text/css"></style></defs><path d="M802.98074193 137.88059678c45.72580645 0 83.13866129 37.41285485 83.13866129 83.13866129v581.96148386c0 45.72580645-37.41285485 83.13866129-83.13866129 83.13866129H221.01925807c-45.72580645 0-83.13866129-37.41285485-83.13866129-83.13866129V221.01925807c0-45.72580645 37.41285485-83.13866129 83.13866129-83.13866129h581.96148386z m0-83.13866129H221.01925807C129.56764517 54.74193549 54.74193549 129.56764517 54.74193549 221.01925807v581.96148386C54.74193549 894.43235483 129.56764517 969.25806451 221.01925807 969.25806451h581.96148386c91.45161291 0 166.27732258-74.82570967 166.27732258-166.27732258V221.01925807C969.25806451 129.56764517 894.43235483 54.74193549 802.98074193 54.74193549z"></path><path d="M466.27419355 699.0642742l205.76612903-145.49951613c29.09990322-20.78237903 29.09990322-64.42766129 0-85.21004033L466.27419355 322.8597742c-35.33233064-24.93885483-83.13866129 0-83.13866129 43.64985483v290.98074194c0 41.56933064 47.80633064 66.51275807 83.13866129 41.56933065z"></path></svg>