<?xml version="1.0" standalone="no"?><!DOCTYPE svg PUBLIC " -//W3C//DTD SVG 1.1//EN" "http://www.w3.org/Graphics/SVG/1.1/DTD/svg11.dtd"><svg t="1637636643032" class="icon" viewBox="0 0 1024 1024" version="1.1" xmlns="http://www.w3.org/2000/svg" p-id="2537" xmlns:xlink="http://www.w3.org/1999/xlink" width="256" height="256"><defs><style type="text/css"></style></defs><path d="M883.2 268.8c-42.666667 55.466667-162.133333 209.066667-260.266667 332.8l-119.466666-128c110.933333-102.4 243.2-226.133333 294.4-273.066667 85.333333-81.066667 162.133333-128 179.2-106.666666 12.8 8.533333-17.066667 76.8-93.866667 174.933333z m-277.333333 358.4l-89.6 110.933333-145.066667-145.066666 106.666667-98.133334 128 132.266667zM42.666667 904.533333s153.6 21.333333 153.6-132.266666c0-85.333333 64-157.866667 149.333333-162.133334l145.066667 149.333334C413.866667 1096.533333 42.666667 904.533333 42.666667 904.533333z"></path></svg>