<?xml version="1.0" standalone="no"?><!DOCTYPE svg PUBLIC " -//W3C//DTD SVG 1.1//EN" "http://www.w3.org/Graphics/SVG/1.1/DTD/svg11.dtd"><svg t="1637636643032" class="icon" viewBox="0 0 1024 1024" version="1.1" xmlns="http://www.w3.org/2000/svg" p-id="2537" xmlns:xlink="http://www.w3.org/1999/xlink" width="256" height="256"><defs><style type="text/css"></style></defs><path d="M873.55392 501.76C868.16768 309.46304 712.0896 154.28608 519.424 150.3744L519.424 71.68l-20.48 0 0 78.83776C308.87936 157.30688 155.78112 311.33696 150.44608 501.76L58.624 501.76l0 20.48 91.82208 0c5.33504 190.42304 158.43328 344.45312 348.49792 351.24224L498.944 952.32l20.48 0 0-78.6944C712.0896 869.71392 868.16768 714.53696 873.55392 522.24l65.71008 0 0-20.48L873.55392 501.76zM498.944 170.99776l0 104.51968C377.26208 281.73312 279.87968 379.81184 274.688 501.76L170.92608 501.76C176.24064 322.62144 320.17408 177.75616 498.944 170.99776zM498.944 853.00224C320.17408 846.24384 176.24064 701.37856 170.92608 522.24l103.76192 0c5.19168 121.94816 102.57408 220.02688 224.256 226.24256L498.944 853.00224zM498.944 591.22688l0-68.13696-67.28704 0 0-22.19008 67.28704 0 0-66.43712 22.19008 0 0 66.43712 67.28704 0 0 22.19008-67.28704 0 0 68.13696L498.944 591.22688zM519.424 853.1456l0-104.5504C642.99008 744.37632 742.52288 645.55008 747.76576 522.24l105.30816 0C847.69792 703.25248 700.79488 849.24416 519.424 853.1456zM747.76576 501.76c-5.25312-123.31008-104.77568-222.13632-228.34176-226.34496l0-104.5504C700.79488 174.75584 847.69792 320.74752 853.07392 501.76L747.76576 501.76zM521.12384 523.08992l-22.19008 0 0-22.19008 22.19008 0L521.12384 523.08992z"></path></svg>