<?xml version="1.0" standalone="no"?><!DOCTYPE svg PUBLIC " -//W3C//DTD SVG 1.1//EN" "http://www.w3.org/Graphics/SVG/1.1/DTD/svg11.dtd"><svg t="1637636643032" class="icon" viewBox="0 0 1024 1024" version="1.1" xmlns="http://www.w3.org/2000/svg" p-id="2537" xmlns:xlink="http://www.w3.org/1999/xlink" width="256" height="256"><defs><style type="text/css"></style></defs><path d="M304 608c0 114.88 93.12 208 208 208s208-93.12 208-208-93.12-208-208-208-208 93.12-208 208zM960 256l-224 0c-16-64-32-128-96-128l-256 0c-64 0-80 64-96 128l-224 0c-35.2 0-64 28.8-64 64l0 576c0 35.2 28.8 64 64 64l896 0c35.2 0 64-28.8 64-64l0-576c0-35.2-28.8-64-64-64zM512 892c-156.864 0-284-127.136-284-284s127.136-284 284-284c156.864 0 284 127.136 284 284s-127.136 284-284 284zM960 448l-128 0 0-64 128 0 0 64z"></path></svg>