<?xml version="1.0" standalone="no"?><!DOCTYPE svg PUBLIC " -//W3C//DTD SVG 1.1//EN" "http://www.w3.org/Graphics/SVG/1.1/DTD/svg11.dtd"><svg t="1637636643032" class="icon" viewBox="0 0 1024 1024" version="1.1" xmlns="http://www.w3.org/2000/svg" p-id="2537" xmlns:xlink="http://www.w3.org/1999/xlink" width="256" height="256"><defs><style type="text/css"></style></defs><path d="M75.434101 374.19154l-29.439779 39.935701a20.010517 20.010517 0 0 0 4.181302 27.989123l1.194657 0.853327L744.101086 879.06242c8.575936 5.418626 19.797185 3.839971 26.538468-3.669305l89.257997-99.412588a20.778511 20.778511 0 0 0-0.426664-28.245122l-2.133317-2.261316a20.735844 20.735844 0 0 0-27.818458-2.090651l-61.652871 47.786308a20.821177 20.821177 0 0 1-24.191819 0.853327L102.527231 369.455576a20.010517 20.010517 0 0 0-27.09313 4.821297m938.403629 160.126799L249.299464 28.338134 203.56114 2.567661a20.053183 20.053183 0 0 0-26.111804 5.802623L4.479966 250.544468a20.010517 20.010517 0 0 0 5.461293 28.458453l23.210492 14.890555 694.096128 425.81014a108.244521 108.244521 0 0 0 80.639395-15.914548l205.950456-136.062979a20.010517 20.010517 0 0 0 0-33.365083m-922.617081 13.653231l-67.412828-13.183902a20.010517 20.010517 0 0 0-23.807821 19.62652V987.306942l107.391195-37.759717v-139.476287c0-11.050584 8.959933-19.96785 19.96785-19.96785h143.316258c6.399952 0 12.373241-3.114643 16.127879-8.191939l75.519434-103.252559a19.96785 19.96785 0 0 0-6.613284-29.439779L272.979286 604.589812a20.053183 20.053183 0 0 0-28.50112 11.349248l-21.034508 64.084853a19.96785 19.96785 0 0 1-18.986525 13.738564H127.401711a19.96785 19.96785 0 0 1-20.010516-19.96785v-106.153871a20.010517 20.010517 0 0 0-16.170546-19.626519"></path></svg>