<?xml version="1.0" standalone="no"?><!DOCTYPE svg PUBLIC " -//W3C//DTD SVG 1.1//EN" "http://www.w3.org/Graphics/SVG/1.1/DTD/svg11.dtd"><svg t="1637636643032" class="icon" viewBox="0 0 1024 1024" version="1.1" xmlns="http://www.w3.org/2000/svg" p-id="2537" xmlns:xlink="http://www.w3.org/1999/xlink" width="256" height="256"><defs><style type="text/css"></style></defs><path d="M869.06979248 226.00347734h-24.09911279v-45.82024189c0-30.76088291-24.92834854-55.70182266-55.68923144-55.70182266H604.8375708c-30.76088291 0-55.68923144 24.94004062-55.68923145 55.70182266v45.82024189H154.94819521c-47.86994883 0-86.81616474 38.94711592-86.81616474 86.80987003v403.8226998c0 47.86275323 38.94711592 86.79817705 86.81616474 86.79817793h161.2918213c45.39303281 58.41347871 116.23426084 96.08526211 195.76807821 96.08526123 79.52932002 0 150.38943487-37.6717834 195.77527296-96.08526123h161.2864248c47.86365234 0 86.79817705-38.93542383 86.79817705-86.79817793V312.81334737c0-47.86275323-38.93452471-86.80986914-86.79817705-86.80987003z m-264.23222168-45.82024189H789.28144825v45.82024189H604.8375708v-45.82024189zM512.00809472 843.81676455c-105.98572969 0-192.22088994-86.22796464-192.22088993-192.20739873 0-105.99382442 86.23516026-192.21009697 192.22088994-192.21009697 105.99382442 0 192.22178906 86.21627256 192.22178905 192.21009697 0 105.97943408-86.22796464 192.20739873-192.22178905 192.20739873z m357.06169776-96.0726709H740.51301114c12.50779482-29.58538183 19.41779619-62.06769404 19.41779618-96.13472783 0-136.70524072-111.20577979-247.91191963-247.9227126-247.91192051-136.69714599 0-247.91551787 111.20577979-247.91551787 247.91192051 0 34.06703467 6.91629697 66.54934687 19.40520498 96.13472783h-128.54958662c-17.14504131 0-31.11434209-13.96840166-31.11434208-31.10804648v-353.89135371h573.23689892c10.25302763 0 18.56427627-8.29775742 18.56427627-18.55078506 0-10.25392763-8.31034863-18.57596836-18.56427627-18.57596836H123.83385313v-12.80459267c0-17.16392812 13.96840166-31.10804648 31.11434208-31.10804737h714.12159727c17.15133692 0 31.09545527 13.94411836 31.09545528 31.10804737v12.80459267H801.41689619c-10.25302763 0-18.56337715 8.32204073-18.56337627 18.57596836 0 10.25302763 8.30944951 18.55078506 18.56337627 18.55078506h98.74835157v353.89045459c0 17.13964482-13.94411836 31.1089456-31.09545528 31.1089456z"></path><path d="M661.363521 609.60889c-4.424767-10.792789-16.766839-15.935916-27.560651-11.526498-10.792789 4.424767-15.964568 16.766839-11.538778 27.546324 5.875812 14.356957 8.861814 29.560187 8.861814 45.215718 0 65.672591-53.42978 119.101347-119.116696 119.101347-65.679754 0-119.122836-53.428756-119.122837-119.101347 0-65.68794 53.444106-119.116697 119.122837-119.116697 16.091458 0 31.674333 3.141544 46.356701 9.341744 10.736507 4.563937 23.15021-0.493233 27.700844-11.244066 4.523004-10.750833-0.506536-23.13486-11.258393-27.672191-19.908382-8.412583-41.042683-12.667482-62.799152-12.667482-88.977319 0-161.357669 72.366023-161.357669 161.359715 0 88.977319 72.379326 161.370972 161.357669 161.370972 88.979366 0 161.358692-72.393652 161.358692-161.370972 0-21.193652-4.028748-41.792765-12.004381-61.236567z"></path><path d="M512.00921 612.975561c-31.955742 0-57.881153 25.897782-57.881153 57.868873 0 31.955742 25.925411 57.8525 57.881153 57.8525 31.956765 0 57.882176-25.897782 57.882176-57.8525 0.001023-31.971092-25.925411-57.868873-57.882176-57.868873z"></path></svg>