<?xml version="1.0" standalone="no"?><!DOCTYPE svg PUBLIC " -//W3C//DTD SVG 1.1//EN" "http://www.w3.org/Graphics/SVG/1.1/DTD/svg11.dtd"><svg t="1637636643032" class="icon" viewBox="0 0 1024 1024" version="1.1" xmlns="http://www.w3.org/2000/svg" p-id="2537" xmlns:xlink="http://www.w3.org/1999/xlink" width="256" height="256"><defs><style type="text/css"></style></defs><path d="M658.707 161.339a49.63 49.63 0 0 1 47.2 34.095l27.151 82.046c6.74 20.36 25.765 34.096 47.198 34.096h79.182c27.412 0 49.71 22.31 49.71 49.717v447.442c0 27.413-22.298 49.717-49.71 49.717H163.414c-27.418 0-49.716-22.304-49.716-49.717V361.294c0-27.408 22.303-49.712 49.716-49.712h79.176c21.439 0 40.463-13.743 47.2-34.102l27.15-82.046a49.636 49.636 0 0 1 47.199-34.095h294.568m0-49.719h-294.57c-42.878 0-80.925 27.487-94.401 68.195l-27.146 82.052h-79.176c-54.69 0-99.432 44.743-99.432 99.427v447.442c0 54.684 44.743 99.433 99.432 99.433h696.02c54.683 0 99.432-44.744 99.432-99.433V361.294c0-54.684-44.748-99.427-99.433-99.427h-79.176l-27.152-82.052c-13.465-40.708-51.519-68.195-94.398-68.195z m0 0"></path><path d="M511.428 410.458c82.24 0 149.138 66.91 149.138 149.15s-66.898 149.148-149.138 149.148c-82.245 0-149.148-66.91-149.148-149.149s66.904-149.149 149.148-149.149m0-49.71c-109.834 0-198.87 89.03-198.87 198.865 0 109.823 89.036 198.86 198.87 198.86 109.824 0 198.86-89.037 198.86-198.86 0-109.834-89.035-198.866-198.86-198.866z m0 0"></path></svg>