<?xml version="1.0" standalone="no"?><!DOCTYPE svg PUBLIC " -//W3C//DTD SVG 1.1//EN" "http://www.w3.org/Graphics/SVG/1.1/DTD/svg11.dtd"><svg t="1637636643032" class="icon" viewBox="0 0 1024 1024" version="1.1" xmlns="http://www.w3.org/2000/svg" p-id="2537" xmlns:xlink="http://www.w3.org/1999/xlink" width="256" height="256"><defs><style type="text/css"></style></defs><path d="M907.32305761 195.38260156L814.10092935 102.79391861a43.15350476 43.15350476 0 0 0-61.02195941 61.02195941l60.44130039 60.59966254-44.60515192 46.55827661a38.75897378 38.75897378 0 0 0 0 53.94848016 35.49936649 35.49936649 0 0 0 26.49915527 11.34924005l50.46452683-0.10557422v395.53420606a26.39358105 26.39358105 0 0 1-52.78716211 0V485.60641895a114.244616 114.244616 0 0 0-114.17863129-114.23141922h-26.39358106V160.43749973A70.28610617 70.28610617 0 0 0 582.20692551 90.125H213.17187473a70.28610617 70.28610617 0 0 0-70.31249973 70.31249973V846.03716184h-8.76266922a43.91891867 43.91891867 0 0 0 0 87.83783816h527.34375a43.91891867 43.91891867 0 0 0 0-87.83783816h-8.92102973v-386.66596262h26.39358106a26.39358105 26.39358105 0 0 1 26.39358105 26.39358105v245.98817606a114.23141922 114.23141922 0 1 0 228.46283762 0V258.516047a88.41849637 88.41849637 0 0 0-26.44636816-63.13344544zM502.63027903 646.39611478l-131.33445997 186.07474677a6.59839526 6.59839526 0 0 1-4.79043512 2.04550213 2.79771926 2.79771926 0 0 1-2.04550213-0.68623242c-3.19362341-0.92377524-4.32854709-2.73173538-3.41796863-5.46347159l21.20724261-125.22434546h-92.37753451a4.90920611 4.90920611 0 0 1-4.79043429-2.74493216q-2.03230537-2.70534183 0.68623242-6.14970483l142.27459908-186.07474677c1.8343537-2.73173538 3.87985666-3.18042664 6.16290161-1.31967855 2.28304495 0.46188803 3.41796863 2.29624173 3.41796863 5.47666753l-21.20724261 125.18475513h81.39780423a4.9224029 4.9224029 0 0 1 4.79043512 2.7317362 13.77744955 13.77744955 0 0 1 0.02639356 6.14970402z m62.0249153-243.29603019a38.52143179 38.52143179 0 0 1-38.64020278 38.64020279h-256.67757642a38.52143179 38.52143179 0 0 1-38.64020197-38.6929899V216.70861518a38.52143179 38.52143179 0 0 1 38.64020198-38.6402028h256.65118285a38.52143179 38.52143179 0 0 1 38.64020279 38.64020279z"></path></svg>