<?xml version="1.0" standalone="no"?><!DOCTYPE svg PUBLIC " -//W3C//DTD SVG 1.1//EN" "http://www.w3.org/Graphics/SVG/1.1/DTD/svg11.dtd"><svg t="1637636643032" class="icon" viewBox="0 0 1024 1024" version="1.1" xmlns="http://www.w3.org/2000/svg" p-id="2537" xmlns:xlink="http://www.w3.org/1999/xlink" width="256" height="256"><defs><style type="text/css"></style></defs><path d="M512 90.4540625C280.14874973 90.4540625 90.4540625 280.14874973 90.4540625 512S280.14874973 933.5459375 512 933.5459375 933.5459375 743.85125027 933.5459375 512 743.85125027 90.4540625 512 90.4540625z m-76.06687473 716.31l48.06562446-230.191875c-0.084375-2.73656223-1.90124973-4.34812473-5.45624947-4.83749973l-199.06875053 5.24249973c-12.79687527-2.0671875-15.4659375-8.06343777-8.00999972-17.98593777L555.07906277 209.10781277c7.84406277-6.19593723 12.96-4.978125 15.3478125 3.65624973l-50.94281277 208.85906277c-0.30093777 4.00218723 0.9534375 5.84437527 3.76593723 5.53218696h222.18750054c10.31343723 1.25156223 13.47749973 6.54468777 9.49781196 15.88218804L453.77000027 813.4971875c-11.8040625 7.12687527-17.74968777 4.88250027-17.836875-6.733125z"></path></svg>