<?xml version="1.0" standalone="no"?><!DOCTYPE svg PUBLIC " -//W3C//DTD SVG 1.1//EN" "http://www.w3.org/Graphics/SVG/1.1/DTD/svg11.dtd"><svg t="1637636643032" class="icon" viewBox="0 0 1024 1024" version="1.1" xmlns="http://www.w3.org/2000/svg" p-id="2537" xmlns:xlink="http://www.w3.org/1999/xlink" width="256" height="256"><defs><style type="text/css"></style></defs><path d="M429.3 68.5c-46.7 0-93.4 2.6-139.8 8.8-36.3 4.9-72.5 11.9-107.3 23.5-45.2 15.1-100 40.2-116.6 89C60.1 206.3 62 225 62 242v36.8c0 7.7 0 15 1.2 22.6 3.1 20.1 15.3 38.1 30 51.6 20 18.4 44.4 30.8 69.4 40.9 31.6 12.7 65.1 20.7 98.6 26.4 44.4 7.6 89.5 11.4 134.5 12.7 89.3 2.4 180.9-3.1 267.8-25.2 31.3-8 62.6-18.5 91.2-33.8 21.3-11.4 42-26.4 55.3-46.9 5.2-8.1 9.1-17.4 10.6-26.9 1.2-7.7 1.1-15.1 1.1-22.9 0-21.3 0.1-42.6 0-63.9-0.3-48.7-49-79.1-88.7-96.1C660.2 86.1 579.3 75 500.8 70.4c-23.8-1.3-47.6-1.9-71.5-1.9-9.4 0-18.4 8.3-18 18 0.4 9.8 7.9 18 18 18 45.9 0 91.7 2.4 137.3 8 2.7 0.3 5.3 0.7 8 1-4-0.5 2.7 0.4 3.9 0.6 5.1 0.7 10.3 1.5 15.4 2.4 9.6 1.6 19.2 3.3 28.7 5.2 17.4 3.5 34.8 7.7 51.8 12.7 7.5 2.2 15 4.6 22.4 7.2 3.7 1.3 7.4 2.7 11 4.1 1.4 0.5 2.8 1.1 4.2 1.7 1 0.4 2.1 0.9 3.1 1.3 3.2 1.3-3.6-1.6-0.2-0.1 12 5.2 23.8 11 34.9 18 2.3 1.4 4.5 2.9 6.7 4.5 1.2 0.8 2.4 1.7 3.5 2.5 0.5 0.3 0.9 0.7 1.4 1 2.7 2-3.5-2.9-1-0.8 4 3.3 7.8 6.6 11.4 10.3 1.6 1.7 3.2 3.4 4.6 5.2 0.3 0.4 0.6 0.7 0.9 1.1 1.9 2.2-2.5-3.5-1.3-1.7 0.7 1 1.5 2 2.2 3.1 1.1 1.6 2.2 3.3 3.1 5.1 0.5 0.9 1 1.9 1.5 2.9 1.4 2.9 0.8 2.3-0.1-0.6 1.3 3.8 2 7.7 3.2 11.5-1.6-5.1-0.5-3.9-0.3-1.5 0.1 0.9 0.1 1.8 0.1 2.7V289.6c0 0.9 0 1.8-0.1 2.7-0.2 2.6-1.6 4.6 0.2-0.9-1.2 3.7-1.9 7.7-3.2 11.4-0.7 2 2.2-4.7 1-2.3-0.2 0.4-0.3 0.8-0.5 1.2-0.5 1-0.9 1.9-1.5 2.9-1.1 1.9-2.2 3.8-3.4 5.7-0.6 0.9-1.2 1.7-1.8 2.5-2 2.8 3.1-3.7 0.5-0.6-1.6 1.9-3.1 3.7-4.8 5.5-3.6 3.8-7.6 7.2-11.7 10.6-2.1 1.7 1.6-1.3 1.7-1.3-0.6 0.4-1.1 0.9-1.7 1.3-1 0.8-2.1 1.5-3.1 2.3-2.4 1.7-4.9 3.4-7.4 5-5.4 3.4-11 6.6-16.7 9.5-5.9 3.1-12 5.8-18.1 8.5-3.5 1.5 3.1-1.2 0.7-0.3-0.9 0.3-1.7 0.7-2.6 1.1-1.6 0.6-3.2 1.3-4.8 1.9-3.8 1.5-7.7 2.9-11.5 4.3-33.3 11.8-68 19.6-102.9 25.3-4.9 0.8-9.7 1.5-14.6 2.2-2.4 0.3-4.7 0.7-7.1 1-3.1 0.4 4.4-0.5-0.8 0.1l-4.8 0.6c-10.4 1.3-20.8 2.4-31.3 3.4-22.8 2.1-45.7 3.4-68.6 4.1-46.7 1.4-93.5 0.4-140-4-10.3-1-20.6-2.1-30.9-3.5-1-0.1-4.5-0.6-0.6-0.1-1-0.1-2-0.3-3-0.4-2.5-0.4-5-0.7-7.5-1.1-4.9-0.7-9.7-1.5-14.6-2.4-17.5-3-34.8-6.7-52-11.3-14.9-4-29.6-8.6-43.9-14.3-1.3-0.5-2.7-1.1-4-1.6-4.7-1.9 3 1.3-1.6-0.7-3.1-1.4-6.3-2.8-9.4-4.3-5.7-2.7-11.2-5.6-16.6-8.8-5-2.9-9.8-6-14.5-9.3-1.1-0.8-2.2-1.7-3.4-2.5-2.2-1.6 3.6 2.9 0.4 0.3-2.1-1.8-4.2-3.5-6.3-5.4-3.5-3.2-6.8-6.7-9.9-10.3-0.3-0.4-0.6-0.7-0.9-1.1-1.9-2.3 2.9 3.9 1.1 1.5-0.5-0.7-1.1-1.5-1.6-2.2-1.3-1.9-2.6-3.8-3.7-5.8-1-1.8-1.9-3.6-2.8-5.4-1.6-3.3 0.2 0.5 0.5 1.1-0.4-1.1-0.8-2.1-1.2-3.2-0.6-1.7-1.1-3.5-1.5-5.3l-0.6-3c-0.9-4.2 0.3 3.3 0.1 1.2-0.5-6-0.4-12-0.4-18.1 0-21.1-0.1-42.2 0-63.3 0-2.7 0.2-5.3 0.4-8-0.5 6.5-0.1 1.2 0.5-1.4 0.5-2 1-3.9 1.7-5.8 0.3-0.9 0.7-1.7 1-2.6-0.2 0.6-2.1 4.5-0.5 1.1 0.9-1.9 1.9-3.8 3-5.7 1.1-1.9 2.3-3.8 3.6-5.6 0.5-0.7 1.1-1.5 1.6-2.2 1.7-2.4-3.1 3.7-1.1 1.5 0.5-0.5 0.9-1.1 1.3-1.6 3-3.6 6.3-6.9 9.7-10 1.8-1.7 3.7-3.3 5.7-4.9 3.7-3-2.2 1.6-0.1 0.1 1.3-1 2.7-2 4-3 9.7-6.9 20.2-12.7 30.9-17.8 2.9-1.4 5.9-2.7 8.9-4 4.5-2-2.8 1.1 1.1-0.5 1.9-0.7 3.7-1.5 5.6-2.2 6.9-2.7 14-5.2 21-7.4 15.6-5 31.5-9.1 47.5-12.6 9.2-2 18.5-3.7 27.7-5.3 4.4-0.7 8.8-1.4 13.1-2.1 2.5-0.4 5-0.7 7.5-1.1 1-0.1 2-0.3 3-0.4-4.2 0.6 0.4-0.1 1.3-0.2 21.2-2.7 42.4-4.6 63.7-5.9 23-1.4 46-2 69.1-2 9.4 0 18.4-8.3 18-18-0.3-9.7-7.8-18-17.9-17.9zM398.5 725c-28.2-1.1-56.5-3.1-84.5-6.5l-4.8-0.6c-5.3-0.7 3.7 0.5-1.6-0.2-3.1-0.4-6.2-0.9-9.3-1.3-6-0.9-12-1.9-18-3-11.3-2-22.5-4.3-33.6-6.9-19.6-4.6-38.9-10.3-57.7-17.5-2.1-0.8-4.2-1.7-6.4-2.5-1-0.4-2.1-1-3.1-1.3 4.8 1.4 1.4 0.6 0.2 0.1-4-1.7-7.9-3.5-11.7-5.4-7.3-3.5-14.4-7.3-21.4-11.5-7.2-4.3-14-9-20.8-14-2.8-2 3.5 2.8 0.8 0.7-0.7-0.6-1.4-1.1-2.1-1.6-1.6-1.3-3.1-2.5-4.6-3.9-3-2.5-5.8-5.2-8.6-7.9-7-6.8-18.5-6.9-25.5 0C72.5 654.9 63.2 671 62 689.9c-0.2 3.6-0.1 7.3-0.1 10.9v92.4c0 12.6 2.7 24.1 8.1 35.5 13.7 29.2 44.3 48.9 72.5 62.1 44.2 20.7 92.5 31.9 140.6 39 67 9.9 135.1 12.7 202.8 10.5 9.2-0.3 18.5-0.7 27.7-1.2 7.7-0.4 15.6-5.3 17.4-13.2 1.9-8.2-1.4-15.6-8.3-20.3-2.7-1.9-5.4-3.8-8.1-5.8-0.7-0.5-4.7-3.7-1.8-1.4l-4.2-3.3c-5.3-4.3-10.5-8.9-15.4-13.6-9.9-9.4-19.1-19.6-27.5-30.4 2.1 2.7-0.6-0.9-1.3-1.8-0.9-1.2-1.8-2.5-2.7-3.7-2.1-2.9-4.1-5.8-6-8.8-3.8-5.7-7.3-11.6-10.7-17.6-3.4-6-6.5-12.1-9.4-18.4-0.8-1.6-1.5-3.2-2.2-4.9-0.5-1.1-1.8-4.2-0.6-1.3-1.4-3.3-2.7-6.6-4-10-5.6-15-9.9-30.5-13-46.3-1.8-9.3-13.4-15.4-22.1-12.6-9.9 3.2-14.5 12.2-12.6 22.1 11.4 58.7 40.7 113.9 83.4 155.8 12.3 12.1 25.9 23.1 40.1 32.9 3-11.2 6.1-22.4 9.1-33.5-66.8 3.4-134.1 2.5-200.6-5.3-3.3-0.4-6.7-0.8-10-1.2-1-0.1-2-0.3-3-0.4 0.2 0 3.1 0.4 1 0.1-2-0.3-4-0.6-6-0.8-6.8-1-13.6-2.1-20.4-3.2-12.5-2.1-24.9-4.6-37.2-7.5-21.7-5-43.2-11.2-63.9-19.4l-3-1.2c-0.6-0.2-4.7-1.9-1.7-0.7 2.8 1.2-0.9-0.4-1.6-0.7-1.2-0.5-2.5-1.1-3.7-1.7-4.1-1.9-8.2-3.9-12.3-6-7.2-3.8-14.3-7.9-21-12.5-1.6-1.1-3.1-2.2-4.7-3.3-0.6-0.5-3.1-2.3-0.4-0.3 2.8 2.1-0.3-0.3-1-0.8-2.7-2.2-5.4-4.6-7.9-7-2.4-2.3-4.6-4.7-6.8-7.2-0.4-0.5-0.9-1-1.3-1.6-2.1-2.5 0.2 0 1 1.3-0.8-1.4-1.9-2.7-2.8-4-1.6-2.4-3-4.8-4.3-7.3-0.3-0.6-0.6-1.3-0.9-1.9-1.3-2.7 0.4 0.5 0.7 1.8-0.4-1.3-1-2.6-1.5-3.9-0.9-2.6-1.5-5.3-2-7.9-1-4.7 0.4 4.9 0 0.2-0.1-1.4-0.2-2.7-0.2-4.1-0.2-9.9 0-19.8 0-29.6v-53.2-17.2-3.4c0-1.6 0.7-6.4-0.1-2.4 0.3-1.4 0.5-2.8 0.9-4.2 0.3-1.1 2.2-6 0.6-2.6 1.5-3.4 3.4-6.5 5.5-9.5 0.1-0.1 1.7-2.2 0.6-0.9-1.1 1.4 0.7-0.8 0.8-0.8 1.6-1.8 3.3-3.6 5-5.3H86c24.6 23.9 54.6 40.6 86.1 53.6 40.7 16.7 84.2 26 127.6 31.9 32.8 4.5 65.8 7.2 98.9 8.4 9.4 0.4 18.4-8.5 18-18-0.6-10.4-8.1-17.9-18.1-18.3z"></path><path d="M455.9 469.1c-27.6 0.2-55.2-0.2-82.8-1.7-16.5-0.9-33.1-2.3-49.6-4.1-3.6-0.4-7.1-0.8-10.7-1.3-1.7-0.2-3.5-0.5-5.2-0.7-2.7-0.3 3.1 0.4 0.3 0-1.2-0.2-2.4-0.3-3.7-0.5-7.1-1-14.2-2.1-21.3-3.3-25.2-4.4-50.3-10.2-74.6-18.2-5.3-1.7-10.6-3.6-15.8-5.6-2.5-0.9-5-1.9-7.5-2.9-1.1-0.5-2.3-0.9-3.4-1.4-3.7-1.5 3.2 1.4-0.5-0.2-9.2-4-18.2-8.3-26.9-13.2-8.7-4.8-17.1-10.2-25.1-16-1-0.7-2-1.6-3-2.3 0 0 3.8 3 1.7 1.3-0.4-0.3-0.9-0.7-1.3-1-1.8-1.4-3.6-2.9-5.3-4.4-3.5-3-6.8-6.1-10.1-9.3-6.9-6.8-18.6-7-25.5 0-10.7 10.8-19.8 24.2-22.5 39.5-1 5.4-1.2 10.7-1.2 16.2V523.2c0 7.4-0.4 15 0.4 22.4 3.3 29.8 22.6 52.3 46 69.5 29.7 21.9 66.3 34.8 101.6 44.3 58.7 15.8 120.1 22.3 180.7 24.9 9.8 0.4 17.9-8.6 18-18 0.1-8.1 0.4-16.3 1.1-24.4 0.2-1.9 0.4-3.9 0.6-5.8 0.1-0.7 1-7.5 0.4-3.5 0.5-3.9 1.2-7.7 1.9-11.5 2.8-15.2 6.8-30.3 12.1-44.8 1.3-3.6 2.7-7.2 4.1-10.8 0.8-1.9 0.8-2 0.1-0.3 0.3-0.8 0.7-1.5 1-2.3 0.8-1.8 1.6-3.5 2.4-5.3 3.2-7 6.8-13.9 10.6-20.6 3.8-6.7 7.9-13.3 12.3-19.6 2.2-3.2 4.5-6.3 6.8-9.4 1.3-1.7 1.3-1.8 0.2-0.3 0.7-0.9 1.4-1.7 2.1-2.6 1.4-1.7 2.8-3.4 4.2-5.2 6-7.2 7.6-18.5 0-25.5-6.7-6.1-19-7.7-25.5 0-45 53.9-69.9 121.7-70.4 191.9l18-18c-28.4-1.2-56.7-3.3-84.9-6.9-1.6-0.2-3.3-0.4-4.9-0.6 3.6 0.5 0 0-0.9-0.1-2.9-0.4-5.8-0.8-8.7-1.3-6.4-1-12.9-2-19.3-3.1-11.3-2-22.6-4.3-33.9-6.9-20.1-4.7-40-10.3-59.3-17.7l-5.4-2.1c-1.1-0.4-2.1-0.8-3.2-1.3-1.3-0.5-4.1-2.4 0.2 0.1-3.6-2.1-8-3.5-11.8-5.4-7.2-3.5-14.2-7.2-21-11.4-2.9-1.8-5.7-3.6-8.4-5.5-1.4-1-2.8-2.1-4.3-3.1-2.7-2 3.5 2.9 0.9 0.7-0.9-0.7-1.7-1.4-2.6-2.1-4.6-3.9-9-8-13-12.6-1-1.1-1.9-2.3-2.8-3.4-2-2.4 2.8 3.9 1.1 1.4-0.4-0.6-0.8-1.1-1.2-1.7-1.6-2.2-3-4.6-4.4-7-0.6-1.2-1.2-2.4-1.8-3.5-2.1-4.2 0.9 2.6 0.2 0.7-0.9-2.6-1.9-5.2-2.6-7.9-0.3-1-0.5-2-0.7-3.1-0.1-0.6-0.2-1.2-0.3-1.9-0.6-2.8 0.5 5.2 0.3 2.3-0.1-2.1-0.3-4.2-0.3-6.3v-7.7-39.3-46.5-9.4-1.5c0-1 0.1-1.9 0.2-2.9-0.4 2.4-0.4 2.6 0 0.5 0.7-2.9 1.4-5.7 2.5-8.4-1.6 3.9 0.5-0.7 0.8-1.2 1-1.9 2.2-3.6 3.4-5.5 2.7-4.3-2.2 2.2 1.3-1.7 1.6-1.8 3.2-3.6 4.9-5.3H85.2c28.9 28.6 65.6 47.5 103.6 61 54 19.3 111.8 27.5 168.7 31.6 32.6 2.3 65.2 3 97.9 2.7 9.4-0.1 18.4-8.2 18-18 0.1-9.6-7.4-18-17.5-17.9z"></path><path d="M921.7 949.9c4.9 4.9 4.9 12.8 0 17.6-4.2 4.2-10.6 4.6-15.5 1.5l-0.1 0.1-0.6-0.6c-0.5-0.4-1-0.6-1.5-1-0.5-0.5-0.6-1-1-1.5l-94.9-94.9c-76 57-184.2 51.1-253.2-18-75.8-75.8-75.8-198.6 0-274.3 75.8-75.8 198.6-75.8 274.3 0s75.8 198.6 0 274.3c-0.9 0.9-1.8 1.7-2.8 2.5l92.5 92.4c0.9 0.5 2 1 2.8 1.9zM815.6 592.5c-68.1-68-178.4-68-246.4 0s-68 178.3 0 246.4c68 68 178.3 68 246.4 0 68-68 68-178.3 0-246.4z m0 0"></path><path d="M913.2 958.3c-0.9-1 0.1 1.6 0.1 0.3 0-1.2-0.9 0.9-0.2 0.4 1-0.7 0.1 0.8-0.8 0.1-0.3-0.2 3.4 1.4-0.1-0.6-4.6-2.6-10.7-1.9-14.5 1.9l-0.1 0.1h17c-1.4-1.2-3-2.3-4.5-3.4l4.3 4.3c-3.3-4.6-7.3-8.3-11.3-12.3l-22.5-22.5-52-52-12-12c-3.4-3.4-10.3-5-14.5-1.9-61.3 45.6-144.5 49.5-208.8 8.1-31-20-56.4-50.6-69.8-84.1-13.5-33.9-17-70.6-9.8-105.2 15.3-73.7 75.2-130.9 149.4-143.3 7.7-1.3 16.5-2 25.5-2.2 9.1-0.2 18.3 0.3 27.4 1.4-1.9-0.2 2.5 0.4 2.3 0.3 0.9 0.1 1.8 0.3 2.7 0.4 2.3 0.4 4.5 0.8 6.8 1.3 4.5 0.9 9 2 13.4 3.2 8.3 2.3 17.6 5.6 24.5 8.7 34.8 15.7 63.9 41.5 83.2 74.2 37.2 63 32.6 143.7-11.9 202.6-5.2 6.9-12.1 14.8-19 21-4.9 4.3-4.4 12.6 0 17 27.2 27.2 54.4 54.4 81.7 81.6 4.4 4.4 8.7 8.9 13.5 12.6 5.1 4 12 5 17 0 4.2-4.2 5.1-12.9 0-17-1.1-0.8-5.4-4.3-2.8-1.9l-0.3-0.3-1.8-1.8-6.4-6.4-22.1-22.1c-16.7-16.7-33.4-33.3-50-50-3.9-3.9-7.9-7.8-11.8-11.8v17c15.9-13.9 29-32.5 38.8-51 9.4-17.7 16.4-36.7 20.2-56.4 7.8-39.6 4.2-81.2-11.2-118.6-16.3-39.4-44.2-73.1-80.2-96.1-33.9-21.7-74.5-33-114.7-32.1-40.4 0.9-80.5 13.6-113.5 36.9-34.8 24.5-61.4 59-76.1 99-28.6 78.1-5.3 169 56.9 224 31.8 28.1 71.1 45.5 113.2 50.5 41.1 5 83.4-3.3 119.9-22.6 9-4.8 17.7-10.3 25.9-16.4-4.8-0.6-9.7-1.3-14.5-1.9l85.2 85.2 7.8 7.8c0.5 0.5 1 1.2 1.7 1.7 1.3 1-3.7-2.5-1.2-1.4 0.9 0.4 1.7 2.5 2.4 3.2 1 0.8 2.1 1.6 3.2 2.4-1.5-1.2-1.8-1.5-1.1-0.9 4.9 4.2 12.1 4.9 17 0l0.1-0.1c-4.8 0.6-9.7 1.3-14.5 1.9 10.7 6.1 24.2 4.3 32-5.6 7.8-10 6.3-23.1-1.9-32.3-4.3-4.8-12.6-4.4-17 0-5 5-4.5 12.3-0.2 17.1z"></path><path d="M824.1 584c-27.2-27-62.6-45.7-100.5-51.8-37.5-6.1-75.6-1-110.2 14.9-70.2 32.2-113.8 108.9-106.3 185.7 3.8 38.6 19.1 74.8 44.2 104.3 24.8 29.1 59.2 50.3 96.4 59.3 35.9 8.8 74.6 6.9 109.2-6.1 37.2-13.9 69.1-39.2 91.1-72.3 42.1-63.4 40.3-150.4-4.9-211.7-5.8-7.9-12.1-15.4-19-22.3-10.9-11-27.9 6-17 17 24.1 24.4 39.7 54.6 45.4 88.5 0.6 3.8 0.9 6 1.3 10.4 0.4 4.3 0.6 8.7 0.7 13 0.1 8.4-0.3 17-1.4 25.3-1.9 13.9-7.2 32.3-13.4 45.5-14.7 31.3-38.5 56.9-68.6 73.7-28.8 16.1-61.3 22.6-94.5 19.6-31.6-2.9-64.4-16.5-89.2-37.8-26.3-22.6-44.5-52.1-52.6-85.4-7.7-31.5-5.7-64.7 5.9-95.8 11.4-30.6 33.9-58.9 61.5-77.3 56.7-37.7 131.1-36 186.4 4.1 6.3 4.6 12.7 10.2 18.6 16.1 10.9 10.9 27.9-6 16.9-16.9z"></path><path d="M815.6 604.5c15.4 0 15.5-24 0-24-15.4 0-15.5 24 0 24z"></path></svg>