<?xml version="1.0" standalone="no"?><!DOCTYPE svg PUBLIC " -//W3C//DTD SVG 1.1//EN" "http://www.w3.org/Graphics/SVG/1.1/DTD/svg11.dtd"><svg t="1637636643032" class="icon" viewBox="0 0 1024 1024" version="1.1" xmlns="http://www.w3.org/2000/svg" p-id="2537" xmlns:xlink="http://www.w3.org/1999/xlink" width="256" height="256"><defs><style type="text/css"></style></defs><path d="M943.281 788.429H786.547V112.713a30.688 30.688 0 1 0-61.375 0v491.43h-69.94l-87.785-263.578A153.261 153.261 0 0 0 421.894 235.57H264.861a30.7 30.7 0 0 0-30.689 30.714v276.43H80.736a30.7 30.7 0 0 0-30.689 30.714v245.716a30.7 30.7 0 0 0 30.689 30.714h30.688a92.062 92.062 0 1 0 184.124 0h127.108C436.381 902.693 484.021 942 541.047 942c67.683 0 122.75-55.115 122.75-122.857v-30.714h61.375v30.715a30.7 30.7 0 0 0 30.689 30.714h187.42a30.715 30.715 0 0 0 0-61.429zM509.221 360l81.31 244.139H488.979L416.516 555.8c-7.679-66.093-55.759-119.73-120.969-132.838V297h126.347a91.935 91.935 0 0 1 87.327 63zM295.547 486.948c26.852 9.276 46.452 29.747 55.721 55.768h-55.721v-55.768z m-92.06 393.624a30.714 30.714 0 1 1 30.688-30.714 30.741 30.741 0 0 1-30.689 30.714z m68.117-92.143c-16.863-18.716-41.016-30.714-68.119-30.714s-51.256 12-68.118 30.714h-23.945V604.143h266.9l84.347 56.27a30.727 30.727 0 0 0 17.021 5.16h122.731v47.8a118.862 118.862 0 0 0-61.374-17.085c-57.025 0-104.665 39.308-118.39 92.143H271.603z m269.443 92.143a61.429 61.429 0 1 1 61.375-61.428 61.464 61.464 0 0 1-61.375 61.428zM663.796 727v-61.429h61.375V727h-61.375z"></path></svg>