<?xml version="1.0" standalone="no"?><!DOCTYPE svg PUBLIC "-//W3C//DTD SVG 1.1//EN" "http://www.w3.org/Graphics/SVG/1.1/DTD/svg11.dtd"><svg t="1641806991105" class="icon" viewBox="0 0 1024 1024" version="1.1" xmlns="http://www.w3.org/2000/svg" p-id="4397" xmlns:xlink="http://www.w3.org/1999/xlink" width="256" height="256"><defs><style type="text/css"></style></defs><path d="M192 384h96v64h-96zM192 544h96v64h-96zM192 224h96v64h-96z" fill="#497CAD" p-id="4398"></path><path d="M128 128h353.9l45.9 64h78.8L514.7 64H64v704h223v-64H128V128z m677.1 128H352v704h608V407.9L805.1 256zM896 896H416V320h298v180h182v396z m0-460H778V320h0.9L896 434.8v1.2z" fill="#727272" p-id="4399"></path><path d="M480 412.9h192v64H480zM481 576h354v64H481zM481 734h354v64H481z" fill="#497CAD" p-id="4400"></path></svg>