<?xml version="1.0" standalone="no"?><!DOCTYPE svg PUBLIC "-//W3C//DTD SVG 1.1//EN" "http://www.w3.org/Graphics/SVG/1.1/DTD/svg11.dtd"><svg t="1641806973761" class="icon" viewBox="0 0 1024 1024" version="1.1" xmlns="http://www.w3.org/2000/svg" p-id="4253" xmlns:xlink="http://www.w3.org/1999/xlink" width="256" height="256"><defs><style type="text/css"></style></defs><path d="M569.7 388.3L743.2 143c16-27.7 6.5-63-21.2-79L512 318.3 302 64c-27.8 16-37.3 51.3-21.2 79l173.5 245.3L273 607.9l95.9 60.1 61.5-82.7L512 469.9l81.6 115.4 61.5 82.7 95.9-60.1-181.3-219.6z" fill="#7F8080" p-id="4254"></path><path d="M273 606c-97.6 0-177 79.4-177 177s79.4 177 177 177 177-79.4 177-177-79.4-177-177-177z m1 290c-62.3 0-113-50.7-113-113s50.7-113 113-113 113 50.7 113 113-50.7 113-113 113zM751 606c-97.6 0-177 79.4-177 177s79.4 177 177 177 177-79.4 177-177-79.4-177-177-177z m0 290c-62.3 0-113-50.7-113-113s50.7-113 113-113 113 50.7 113 113-50.7 113-113 113z" fill="#497CAD" p-id="4255"></path></svg>