<?xml version="1.0" standalone="no"?><!DOCTYPE svg PUBLIC "-//W3C//DTD SVG 1.1//EN" "http://www.w3.org/Graphics/SVG/1.1/DTD/svg11.dtd"><svg t="1641806967826" class="icon" viewBox="0 0 1024 1024" version="1.1" xmlns="http://www.w3.org/2000/svg" p-id="4108" xmlns:xlink="http://www.w3.org/1999/xlink" width="256" height="256"><defs><style type="text/css"></style></defs><path d="M480.1 192.2v-0.2h-288v64H544v-63.8h-63.9z" fill="#030000" p-id="4109"></path><path d="M672 274.7V448H544.1v416H150.4c-47.6 0-86.4-37.1-86.4-82.7V274.7c0-45.6 38.8-82.7 86.4-82.7h41.7v155.8l351.9 0.2 0.1-92v-63.8h-63.9v-0.2h105.5c47.5 0.1 86.3 37.1 86.3 82.7z" fill="#E6C27C" p-id="4110"></path><path d="M480.1 192.2v-0.2l0.1-127.9-224-0.1-0.1 128h-64v155.8l351.9 0.2 0.1-92v-63.8h-64z m-160-0.2v-64l95.9 0.1v64h-48l-47.9-0.1z" fill="#727272" p-id="4111"></path><path d="M480.1 384v576h329L960 783.4V384H480.1z m64 64H896v256H722.1v192h-178V448z m242 440.4V768H889L786.1 888.4z" fill="#727272" p-id="4112"></path><path d="M607.1 512H831v64H607.1zM607.1 608H831v64H607.1z" fill="#727272" p-id="4113"></path></svg>