<?xml version="1.0" standalone="no"?><!DOCTYPE svg PUBLIC " -//W3C//DTD SVG 1.1//EN" "http://www.w3.org/Graphics/SVG/1.1/DTD/svg11.dtd"><svg t="1637636643032" class="icon" viewBox="0 0 1024 1024" version="1.1" xmlns="http://www.w3.org/2000/svg" p-id="2537" xmlns:xlink="http://www.w3.org/1999/xlink" width="256" height="256"><defs><style type="text/css"></style></defs><path d="M24.05030573 391.43286984a504.99321529 504.99321529 0 1 1 367.38256411 608.51682443 501.8370077 501.8370077 0 0 1-367.38256411-608.51682443"></path><path d="M543.56207596 495.5877205l-23.35593621 28.40586836L486.11909772 512l19.56848709 30.93083444-23.35593621 28.40586836 35.34952507-8.83738127 20.19972861 30.93083444v-36.61200811l35.9807666-9.46862278-34.08704204-13.2560719z m136.34816812-77.01146533h-36.61200811L631.93588863 385.75169617l-11.36234735 35.34952508h-36.6120081l29.6683514 21.46221164-11.36234734 35.34952508 29.66835139-22.09345318 29.6683514 22.09345318-11.36234735-35.34952508z m-59.96794432-135.08568509l5.68117368 39.13697419 17.04352102-32.824559 36.61200811 5.68117368-26.51214381-25.88090228L669.81037977 236.77869767l-31.56207594 13.88731342-25.88090229-25.88090228 5.68117367 36.61200811-32.82455899 16.41227949z m-75.74898228-168.54148561l-23.35593622 28.40586837-34.71828354-13.88731342 20.19972861 31.56207596-23.98717773 27.77462684 35.98076659-8.83738128 19.56848709 30.93083444V174.28578728l37.24324962-8.83738127-34.08704203-13.88731342zM287.2780192 277.17815489l-34.71828355-106.67981673-34.71828355 106.67981673h-111.72974889L196.37924045 342.82727289 161.6609569 448.8758481l90.89877875-63.12415193 90.26753724 63.12415193-34.71828356-106.04857521 90.89877875-63.12415192z"></path></svg>