<?xml version="1.0" standalone="no"?><!DOCTYPE svg PUBLIC " -//W3C//DTD SVG 1.1//EN" "http://www.w3.org/Graphics/SVG/1.1/DTD/svg11.dtd"><svg t="1637636643032" class="icon" viewBox="0 0 1024 1024" version="1.1" xmlns="http://www.w3.org/2000/svg" p-id="2537" xmlns:xlink="http://www.w3.org/1999/xlink" width="256" height="256"><defs><style type="text/css"></style></defs><path d="M917.333333 311.466667l-204.8-204.8a74.069333 74.069333 0 0 0-104.661333 0.256l-77.824 78.165333 51.882667 51.626667 1.109333-0.213334 204.373333 204.288 35.072 35.157334 17.066667 17.066666L916.906667 416a74.026667 74.026667 0 0 0 0.426666-104.533333z m-640 569.130666l-15.744-15.786666-102.186666-102.4-16.298667-16.384-46.933333-50.218667L85.333333 684.373333v180.650667A73.728 73.728 0 0 0 159.018667 938.666667h178.389333l-13.482667-12.8L277.333333 880.597333z m253.44-591.786666l-52.352-52.138667-370.389333 370.432 52.352 52.352 204.245333 204.416 52.266667 52.096 369.024-369.024-50.816-53.802667z"></path><path d="M682.666667 810.666667h192a64 64 0 0 1 0 128H554.666667z"></path></svg>