<?xml version="1.0" standalone="no"?><!DOCTYPE svg PUBLIC " -//W3C//DTD SVG 1.1//EN" "http://www.w3.org/Graphics/SVG/1.1/DTD/svg11.dtd"><svg t="1637636643032" class="icon" viewBox="0 0 1024 1024" version="1.1" xmlns="http://www.w3.org/2000/svg" p-id="2537" xmlns:xlink="http://www.w3.org/1999/xlink" width="256" height="256"><defs><style type="text/css"></style></defs><path d="M218.38681041 184.13663045H39.10563067c-18.25017997 0-33.81650995-15.02955998-33.81650996-33.81650996 0-18.25017997 15.02955998-33.81650995 33.81650996-33.81650995h179.28117974c18.25017997 0 33.81650995 15.02955998 33.81650995 33.81650995s-15.02955998 33.81650995-33.81650995 33.81650996z m766.50755892 0H489.99243002c-18.25017997 0-33.81650995-15.02955998-33.81650993-33.81650996 0-18.25017997 15.02955998-33.81650995 33.81650995-33.81650995h494.90193929c18.25017997 0 33.81650995 15.02955998 33.81650996 33.81650995s-15.02955998 33.81650995-33.81650996 33.81650996z"></path><path d="M489.99243002 272.70368032H218.38681041c-18.25017997 0-33.81650995-15.02955998-33.81650994-33.81650995V60.14276062c0-18.25017997 15.02955998-33.81650995 33.81650994-33.81650994h269.99530963c18.25017997 0 33.27973996 15.02955998 33.27973994 33.81650994v179.28117976c2.14708001 18.25017997-12.88247998 33.27973996-31.66942994 33.27973994z"></path><path d="M984.89436933 544.84606994h-179.28117974c-18.25017997 0-33.81650995-15.02955998-33.81650995-33.81650995 0-18.25017997 15.02955998-33.81650995 33.81650995-33.81650995h179.28117974c18.25017997 0 33.81650995 15.02955998 33.81650996 33.81650995s-15.02955998 33.81650995-33.81650996 33.81650995z m-450.88679935 0H39.10563067c-18.25017997 0-33.81650995-15.02955998-33.81650996-33.81650995 0-18.25017997 15.02955998-33.81650995 33.81650996-33.81650995h494.90193929c18.25017997 0 33.81650995 15.02955998 33.81650995 33.81650995-0.53676999 18.78694997-15.56632998 33.81650995-33.81650993 33.81650995z"></path><path d="M805.61318959 633.41311983h-271.60561963c-18.25017997 0-33.81650995-15.02955998-33.81650995-33.81650996V420.31543012c0-18.25017997 15.02955998-33.81650995 33.81650995-33.81650996h269.99530963c18.25017997 0 33.81650995 15.02955998 33.81650995 33.81650996v179.28117975c1.07354 18.78694997-13.95601998 33.81650995-32.20619995 33.81650994z"></path><path d="M218.38681041 905.55550943H39.10563067c-18.25017997 0-33.81650995-15.02955998-33.81650996-33.81650995 0-18.25017997 15.02955998-33.81650995 33.81650996-33.81650995h179.28117974c18.25017997 0 33.81650995 15.02955998 33.81650995 33.81650995 0 18.25017997-15.02955998 33.81650995-33.81650995 33.81650995z m766.50755892 0H489.99243002c-18.25017997 0-33.81650995-15.02955998-33.81650993-33.81650995 0-18.25017997 15.02955998-33.81650995 33.81650995-33.81650995h494.90193929c18.25017997 0 33.81650995 15.02955998 33.81650996 33.81650995 0 18.25017997-15.02955998 33.81650995-33.81650996 33.81650995z"></path><path d="M489.99243002 994.1225593H218.38681041c-18.25017997 0-33.81650995-15.02955998-33.81650994-33.81650995v-179.28117974c0-18.25017997 15.02955998-33.81650995 33.81650994-33.81650996h269.99530963c18.25017997 0 33.27973996 15.02955998 33.27973994 33.81650996v179.28117974c2.14708001 18.78694997-12.88247998 33.81650995-31.66942994 33.81650997z"></path></svg>