<?xml version="1.0" standalone="no"?><!DOCTYPE svg PUBLIC " -//W3C//DTD SVG 1.1//EN" "http://www.w3.org/Graphics/SVG/1.1/DTD/svg11.dtd"><svg t="1637636643032" class="icon" viewBox="0 0 1024 1024" version="1.1" xmlns="http://www.w3.org/2000/svg" p-id="2537" xmlns:xlink="http://www.w3.org/1999/xlink" width="256" height="256"><defs><style type="text/css"></style></defs><path d="M837.45606201 78.02531519H186.53812402c-59.89352783 0-108.50796387 48.61443604-108.50796386 108.50214989v650.94506983c0 59.94197754 48.61443604 108.5021499 108.50796386 108.5021499h650.91890698c59.90321777 0 108.51280884-48.56017236 108.51280884-108.5021499V186.52746508c0-59.82763623-48.56114136-108.5021499-108.51377783-108.50214989zM512.05135668 822.00641943c-26.95935498 0-68.57765332-22.65798999-68.57765332-49.62412793 0-26.84598266 41.61829834-47.87800049 68.57765333-47.87800048 26.91187427 0 68.47493994 21.03201782 68.47493995 47.87800048 0 26.96613794-41.56306568 49.62412793-68.47493995 49.62412793z m48.66385475-213.41417651c0 26.9070293-21.75198047 48.77335107-48.66288575 48.77335108-26.96032397 0-48.76753711-21.86632178-48.76753711-48.77335108L443.47370337 295.01314209c0-26.96613794 41.61829834-49.60765502 68.57765332-49.60765502 26.91187427 0 68.47493994 22.64248609 68.47493995 49.60765502l-19.81108521 313.57910082z"></path></svg>