<?xml version="1.0" standalone="no"?><!DOCTYPE svg PUBLIC " -//W3C//DTD SVG 1.1//EN" "http://www.w3.org/Graphics/SVG/1.1/DTD/svg11.dtd"><svg t="1637636643032" class="icon" viewBox="0 0 1024 1024" version="1.1" xmlns="http://www.w3.org/2000/svg" p-id="2537" xmlns:xlink="http://www.w3.org/1999/xlink" width="256" height="256"><defs><style type="text/css"></style></defs><path d="M512 90.125C278.95624999 90.125 90.125 279.040625 90.125 512c0 233.04375001 188.915625 421.875 421.875 421.875 233.04375001 0 421.875-188.915625 421.875-421.875C933.875 278.95624999 744.959375 90.125 512 90.125z m200.221875 239.9625L524.99375001 752.30000001a14.02031277 14.02031277 0 0 1-12.825 8.35312499c-0.675 0-1.26562501-0.084375-1.94062501-0.08437502a13.9640625 13.9640625 0 0 1-11.98125-11.98124998l-27.3375-195.4125-195.075-27.421875a13.9640625 13.9640625 0 0 1-11.98125-11.98125 14.20312473 14.20312473 0 0 1 8.184375-14.85l421.621875-187.48125a14.090625 14.090625 0 0 1 15.60937499 2.95312499c4.13437499 4.13437499 5.315625 10.29375001 2.95312501 15.69375001z"></path></svg>