<?xml version="1.0" standalone="no"?><!DOCTYPE svg PUBLIC " -//W3C//DTD SVG 1.1//EN" "http://www.w3.org/Graphics/SVG/1.1/DTD/svg11.dtd"><svg t="1637636643032" class="icon" viewBox="0 0 1024 1024" version="1.1" xmlns="http://www.w3.org/2000/svg" p-id="2537" xmlns:xlink="http://www.w3.org/1999/xlink" width="256" height="256"><defs><style type="text/css"></style></defs><path d="M898.25045776 882.78857422H187.55999756C161.97558594 882.78857422 141.21142578 862.02441406 141.21142578 836.44000244V604.69714356a46.34857177 46.34857177 0 0 1 92.69714356-1e-8v185.39428712h617.99331665v-185.39428712a46.34857177 46.34857177 0 0 1 92.69714355 1e-8v231.74285888c0 25.58441162-20.76416016 46.34857177-46.34857178 46.34857178M716.45281982 465.76266479l-139.04571532 154.47052003a46.31149292 46.31149292 0 0 1-68.96667481 0l-139.04571534-154.47052003a46.34857177 46.34857177 0 0 1 68.96667481-61.99584961l58.21380615 64.66552735V187.55999756a46.34857177 46.34857177 0 1 1 92.69714356 0v280.87234497l58.21380615-64.66552735a46.38565063 46.38565063 0 1 1 68.9666748 61.99584961z"></path></svg>