<?xml version="1.0" standalone="no"?><!DOCTYPE svg PUBLIC " -//W3C//DTD SVG 1.1//EN" "http://www.w3.org/Graphics/SVG/1.1/DTD/svg11.dtd"><svg t="1637636643032" class="icon" viewBox="0 0 1024 1024" version="1.1" xmlns="http://www.w3.org/2000/svg" p-id="2537" xmlns:xlink="http://www.w3.org/1999/xlink" width="256" height="256"><defs><style type="text/css"></style></defs><path d="M31.872 690.112a512.192 512.192 0 0 0 960.256 0L512 645.568l-480.128 44.544z"></path><path d="M512 0A512.192 512.192 0 0 0 31.872 333.888L512 378.432l480.128-44.544A512.192 512.192 0 0 0 512 0z"></path><path d="M31.872 333.888A510.912 510.912 0 0 0 0 512c0 62.656 11.264 122.624 31.872 178.112h960.256A510.912 510.912 0 0 0 1024 512c0-62.656-11.264-122.624-31.872-178.112H31.872z"></path></svg>