<?xml version="1.0" standalone="no"?><!DOCTYPE svg PUBLIC " -//W3C//DTD SVG 1.1//EN" "http://www.w3.org/Graphics/SVG/1.1/DTD/svg11.dtd"><svg t="1637636643032" class="icon" viewBox="0 0 1024 1024" version="1.1" xmlns="http://www.w3.org/2000/svg" p-id="2537" xmlns:xlink="http://www.w3.org/1999/xlink" width="256" height="256"><defs><style type="text/css"></style></defs><path d="M298.666667 981.333333c-72.533333 0-128-55.466667-128-128V298.666667h682.666666v554.666666c0 72.533333-55.466667 128-128 128H298.666667z m256-512v256c0 25.6 17.066667 42.666667 42.666666 42.666667s42.666667-17.066667 42.666667-42.666667v-256c0-25.6-17.066667-42.666667-42.666667-42.666666s-42.666667 17.066667-42.666666 42.666666z m-170.666667 0v256c0 25.6 17.066667 42.666667 42.666667 42.666667s42.666667-17.066667 42.666666-42.666667v-256c0-25.6-17.066667-42.666667-42.666666-42.666666s-42.666667 17.066667-42.666667 42.666666zM128 256c-25.6 0-42.666667-17.066667-42.666667-42.666667s17.066667-42.666667 42.666667-42.666666h170.666667c0-72.533333 55.466667-128 128-128h170.666666c72.533333 0 128 55.466667 128 128h170.666667c25.6 0 42.666667 17.066667 42.666667 42.666666s-17.066667 42.666667-42.666667 42.666667H128z"></path></svg>