<?xml version="1.0" standalone="no"?><!DOCTYPE svg PUBLIC " -//W3C//DTD SVG 1.1//EN" "http://www.w3.org/Graphics/SVG/1.1/DTD/svg11.dtd"><svg t="1637636643032" class="icon" viewBox="0 0 1024 1024" version="1.1" xmlns="http://www.w3.org/2000/svg" p-id="2537" xmlns:xlink="http://www.w3.org/1999/xlink" width="256" height="256"><defs><style type="text/css"></style></defs><path d="M821.8 903c0 30.8-25.2 55.9-55.9 55.9H262.5c-30.8 0-55.9-25.2-55.9-55.9v-28h615.3l-0.1 28zM206.5 120c0-30.8 25.2-55.9 55.9-55.9h503.4c30.8 0 55.9 25.2 55.9 55.9v28H206.5v-28z"></path><path d="M821.8 259.8V147.9H206.5v111.9c0 139.8 111.9 251.7 251.7 251.7-139.8 0-251.7 111.9-251.7 251.7v111.9h615.3V763.2c0-139.8-111.9-251.7-251.7-251.7 139.8 0 251.7-111.9 251.7-251.7zM709.9 257c0 11.2 0 22.4-2.8 30.8h-386c-2.8-11.2-2.8-22.4-2.8-30.8v-81.1h391.5V257z"></path></svg>