<?xml version="1.0" standalone="no"?><!DOCTYPE svg PUBLIC " -//W3C//DTD SVG 1.1//EN" "http://www.w3.org/Graphics/SVG/1.1/DTD/svg11.dtd"><svg t="1637636643032" class="icon" viewBox="0 0 1024 1024" version="1.1" xmlns="http://www.w3.org/2000/svg" p-id="2537" xmlns:xlink="http://www.w3.org/1999/xlink" width="256" height="256"><defs><style type="text/css"></style></defs><path d="M 580.72 1013.79 V 453.9 l 421.47 -329.24 V 652.5 l -421.47 361.29 Z m 213.96 -623.91 L 661.2 504.96 v 147.9 l 133.49 -114.08 v -148.9 Z m -2 218.28 L 661.2 726.8 v 147.89 l 131.49 -113.64 V 608.16 Z m 154.44 -346.17 l -116.49 96.64 v 149.89 l 116.49 -98.64 V 261.99 Z m 0 211.28 L 830.63 574.9 v 151.9 l 116.49 -105.64 V 473.27 Z m -381.23 529.95 l -180.03 -80.71 V 378.19 L 819.22 82.84 l 170.26 29.85 l -419.35 330.64 l -4.24 559.89 Z m -211.8 -94.83 L 189.84 839 V 306.8 L 635.38 51.14 l 154.08 25.69 l -435.37 289.36 v 542.2 Z m -195.02 -86.51 L 25.81 762.36 V 245.79 L 457.06 19.21 l 144.96 25.93 l -442.95 249.1 v 527.64 Z"></path></svg>