<?xml version="1.0" standalone="no"?><!DOCTYPE svg PUBLIC " -//W3C//DTD SVG 1.1//EN" "http://www.w3.org/Graphics/SVG/1.1/DTD/svg11.dtd"><svg t="1637636643032" class="icon" viewBox="0 0 1024 1024" version="1.1" xmlns="http://www.w3.org/2000/svg" p-id="2537" xmlns:xlink="http://www.w3.org/1999/xlink" width="256" height="256"><defs><style type="text/css"></style></defs><path d="M948.8 280.64v21.6c0 3.84 0 12.48-1.92 18.72-4.32 25.44-13.44 49.44-26.88 71.52-9.12 14.88-20.16 28.32-32.64 40.32-6.24 5.28-12 10.56-18.24 15.84-14.4 10.08-30.24 18.24-47.04 24-10.56 4.32-21.12 7.68-32.16 10.08-10.56 2.4-21.12 3.84-32.16 3.84h-30.72c-6.24 0-12.48 2.4-17.28 7.2l-89.28 89.76-326.4 328.32-9.6 9.12c-8.16 7.2-17.28 13.44-26.88 18.72-11.04 5.76-23.04 9.6-35.52 11.52h-42.24c-12.48-2.4-24.48-6.24-35.52-12.48-13.92-7.68-25.92-18.24-35.52-30.72-9.6-12-16.8-25.92-21.6-40.8-3.84-12-5.28-24.96-4.8-37.92 0.48-6.24 1.44-12.96 2.4-19.2 2.4-12 7.2-23.52 12.96-34.08 5.28-9.6 12-18.72 19.68-26.88L535.52 329.6h1.92c4.8-5.28 7.2-12.48 6.24-19.68 0-8.64 0-16.8-1.92-25.44-0.48-6.24-0.48-12.48 0-18.72 0.96-9.12 1.92-17.76 3.84-26.88 4.32-18.24 11.52-36 20.64-52.32 8.64-15.84 19.2-30.24 31.68-43.2 5.76-6.24 12.48-12 19.2-17.28 8.16-6.24 17.28-12 25.44-17.28 10.56-6.72 21.6-12 33.6-15.84 9.6-3.36 19.68-6.24 29.76-8.16 10.08-2.4 20.64-3.84 31.2-4.8 12-0.48 24 0.48 35.52 2.4 6.72 0.48 12.48 3.36 17.28 7.68 7.68 7.2 9.6 18.72 5.76 28.32-3.36 7.68-7.68 14.4-13.92 20.16l-34.08 35.52-35.52 35.52c-5.28 5.28-10.08 11.04-14.4 17.28-5.76 9.6-7.68 20.64-5.28 31.68 2.4 10.08 7.68 19.2 15.36 26.4 14.88 15.36 30.24 29.76 45.6 45.12 4.8 4.8 10.56 9.12 17.28 12 7.2 3.36 14.88 4.32 22.56 3.36 10.56-2.4 20.16-8.16 26.88-15.84l43.68-44.64 35.52-35.52c6.24-6.24 15.36-9.12 24-7.68 10.56 1.44 18.72 9.12 20.64 19.2 0.48 5.28 0.48 11.04 0 16.32v2.88M198.08 776c-24.96-0.48-48 13.92-58.08 36.96-10.08 23.04-5.28 49.92 12.48 67.68 17.28 17.76 44.16 23.52 67.2 14.4 23.04-9.12 38.4-31.68 38.88-56.64 0-16.32-6.24-32.16-17.76-44.16-11.52-11.52-27.36-18.24-43.68-18.24"></path><path d="M191.36 80l10.56 1.92c5.76 1.44 11.52 3.36 17.28 5.76 12.48 5.28 24 13.44 33.12 23.52l17.28 16.8 17.28 16.32 43.68 45.12 35.52 35.52 23.04 23.52 21.6 22.56 24 23.04 28.32 28.8 9.6 10.56-32.64 32.16-11.04-12-43.2-43.2-169.44-169.92c-3.84-4.32-8.64-7.68-13.92-10.08-6.72-0.96-13.44 3.36-14.88 10.56-0.48 5.76 1.92 12 6.24 15.84l24 24 185.76 185.28 18.72 18.24-39.36 39.36-3.36-4.8-3.84-4.8-162.72-163.68-54.72-54.72c-2.88-3.36-6.24-6.24-9.6-8.64-3.84-1.92-8.64-1.92-12.48 0s-6.24 6.24-6.72 10.56c0 3.84 0.96 7.2 3.36 10.56 1.44 1.92 2.88 3.36 4.8 4.8l219.84 221.28c2.88 2.88 6.24 5.28 9.12 7.68l-21.12 20.16-12 10.08s-3.36 1.92-3.36 0L311.36 454.4 110.72 254.24C95.36 238.88 84.8 219.2 80 198.08v-31.2c1.44-8.16 3.84-16.32 7.2-24.48 4.8-9.6 11.04-18.72 18.72-26.88 6.72-8.64 15.36-16.32 24.48-22.08 9.6-6.24 20.16-11.04 31.2-13.44h29.76m415.68 576.96l48.48-48.48h1.92l19.68 19.2 76.8 76.8 23.52 24c4.8 5.28 10.56 9.12 16.8 11.52 3.36 0.96 7.2 1.92 10.56 1.92 10.08 1.44 19.68 4.32 28.32 9.6 8.16 4.8 15.36 11.04 21.6 18.24 4.32 5.28 8.64 11.04 12.48 16.8 9.6 14.4 19.68 28.32 28.8 42.72 9.12 14.4 20.64 32.64 30.72 48.96 3.84 6.24 8.16 12.96 12 19.68 6.24 9.12 6.24 21.6 0 30.72-4.8 6.24-11.04 11.04-18.72 14.4-4.32 1.44-9.12 1.44-12.96 0-8.16-2.4-15.84-6.24-23.04-10.56l-17.28-9.6-24.96-14.88c-9.12-6.24-18.72-12-27.84-18.72-9.12-6.24-18.72-13.44-27.36-20.64-9.12-7.2-15.36-12-22.08-18.72-11.52-11.52-19.68-25.92-23.04-41.76 0-4.8-1.92-10.08-3.36-14.88-1.44-4.8-4.32-9.12-8.16-12.96L608 657.92l-1.92-1.92"></path></svg>