<?xml version="1.0" standalone="no"?><!DOCTYPE svg PUBLIC " -//W3C//DTD SVG 1.1//EN" "http://www.w3.org/Graphics/SVG/1.1/DTD/svg11.dtd"><svg t="1637636643032" class="icon" viewBox="0 0 1024 1024" version="1.1" xmlns="http://www.w3.org/2000/svg" p-id="2537" xmlns:xlink="http://www.w3.org/1999/xlink" width="256" height="256"><defs><style type="text/css"></style></defs><path d="M810.82812527 933.875H213.17187473c-68.5546875 0-123.04687473-54.49218723-123.04687473-123.04687473V213.17187473c0-68.5546875 54.49218723-123.04687473 123.04687473-123.04687473h597.65625054c68.5546875 0 123.04687473 54.49218723 123.04687473 123.04687473v597.65625054c0 68.5546875-54.49218723 123.04687473-123.04687473 123.04687473zM213.17187473 160.43749973C183.28906277 160.43749973 160.43749973 183.28906277 160.43749973 213.17187473v597.65625054c0 29.88281277 22.85156223 52.734375 52.734375 52.734375h597.65625054c29.88281277 0 52.734375-22.85156223 52.734375-52.734375V213.17187473c0-29.88281277-22.85156223-52.734375-52.734375-52.734375H213.17187473z"></path><path d="M724.69531223 346.76562527h-35.15624946c-14.06250027-31.640625-43.94531223-52.734375-80.85937554-52.734375s-66.79687527 21.09375-80.85937473 52.734375h-228.51562473c-19.33593777 0-33.39843723 15.8203125-33.39843804 33.39843723v1.75781223c0 19.33593777 15.8203125 33.39843723 33.39843804 33.39843804h228.51562473c14.06250027 31.640625 43.94531223 52.734375 80.85937473 52.734375s66.79687527-21.09375 80.85937554-52.734375h35.15624946c19.33593777 0 33.39843723-15.8203125 33.39843804-33.39843804v-1.75781223c0-17.57812473-15.8203125-33.39843723-33.39843804-33.39843723zM724.69531223 610.43750027h-228.51562473c-14.06250027-31.640625-43.94531223-52.734375-80.85937473-52.734375s-66.79687527 21.09375-80.85937554 52.734375h-35.15624946c-19.33593777 0-33.39843723 15.8203125-33.39843804 33.39843723v1.75781223c0 19.33593777 15.8203125 33.39843723 33.39843804 33.39843804h35.15624946c14.06250027 31.640625 43.94531223 52.734375 80.85937554 52.734375s66.79687527-21.09375 80.85937473-52.734375h228.51562473c19.33593777 0 33.39843723-15.8203125 33.39843804-33.39843804v-1.75781223c0-17.57812473-15.8203125-33.39843723-33.39843804-33.39843723z"></path></svg>