<?xml version="1.0" standalone="no"?><!DOCTYPE svg PUBLIC " -//W3C//DTD SVG 1.1//EN" "http://www.w3.org/Graphics/SVG/1.1/DTD/svg11.dtd"><svg t="1637636643032" class="icon" viewBox="0 0 1024 1024" version="1.1" xmlns="http://www.w3.org/2000/svg" p-id="2537" xmlns:xlink="http://www.w3.org/1999/xlink" width="256" height="256"><defs><style type="text/css"></style></defs><path d="M674.507676 598.338391 287.079856 598.338391c-14.136975 0-25.638937 11.499915-25.638937 25.63689 0 14.137998 11.501962 25.640983 25.638937 25.640983l387.42782 0c14.137998 0 25.640983-11.501962 25.640983-25.640983C700.148659 609.838306 688.646698 598.338391 674.507676 598.338391zM794.746154 384.583029c-14.137998 0-25.640983 11.501962-25.640983 25.63996l0 494.299873c0 0.130983 0 0.280386-0.001023 0.433882-0.899486 0.279363-2.665713 0.644683-5.764284 0.644683L200.047664 905.601426c-4.312212 0-7.564279-2.971681-7.564279-6.913457L192.483384 191.851493c0-4.493338 0.974188-8.28878 1.811252-9.821693l373.337917 0c14.136975 0 25.63996-11.501962 25.63996-25.63996 0-14.136975-11.501962-25.638937-25.63996-25.638937l-374.069581 0c-30.336936 0-52.357462 25.696242-52.357462 61.099566l0 706.836477c0 32.086789 26.396183 58.19133 58.84113 58.19133l563.293223 0c34.119075 0 57.042157-21.041222 57.042157-52.356438L820.382021 410.224012C820.383044 396.086014 808.883129 384.583029 794.746154 384.583029zM674.507676 745.295394 287.079856 745.295394c-14.136975 0-25.638937 11.499915-25.638937 25.63689 0 14.137998 11.501962 25.640983 25.638937 25.640983l387.42782 0c14.137998 0 25.640983-11.501962 25.640983-25.640983C700.148659 756.795309 688.646698 745.295394 674.507676 745.295394zM879.595634 157.107177c-3.77293-14.409175-12.871145-28.250414-24.964578-37.975916l-43.827181-35.240619c-12.880355-10.352789-29.27679-16.290011-44.986587-16.290011-16.876366 0-31.594579 6.747681-41.439808 18.995633l-19.624966 24.381293c-6.380314 7.968485-7.987928 17.577331-5.222955 26.916023l-114.241904 142.063553-2.486634 3.090385-22.812565 85.303828c-9.749038 30.859845 4.449335 48.075949 13.806447 55.608505 6.783497 5.450129 14.468526 8.728802 22.851451 9.754155 0.984421 0.246617 2.125407 0.488117 3.440355 0.632403 1.003863 0.110517 2.053776 0.167822 3.118014 0.167822l0.014326 0c4.588505 0 10.047844-0.9967 17.180288-3.13541l2.877537-1.065262 83.402525-41.897226 119.874181-149.07934c0.440022 0.017396 0.880043 0.032746 1.320065 0.032746 9.218966 0 17.411555-3.862981 23.077601-10.892071l19.562545-24.342408C880.924909 191.1976 884.15037 174.495196 879.595634 157.107177zM674.469813 348.564697l-56.738235 28.537963c-2.958378 0.579191-5.734608 1.684362-8.277524 3.296069-0.313132 0.198521-0.615007 0.385786-0.905626 0.562818 0.12382-0.318248 0.25378-0.639566 0.39295-0.971118 0.99977-2.437515 1.588171-5.022387 1.753947-7.702426l17.732873-66.078974 105.73209-131.488707 48.647977 39.113833L674.469813 348.564697zM831.385633 172.919305l-7.679913 9.550517-68.139913-54.779627 7.687076-9.56382c0.291642-0.132006 1.144056-0.38374 2.604314-0.38374 4.28356 0 9.735735 2.071172 13.570063 5.15644l43.832298 35.245735c3.493567 2.805906 6.421246 7.018857 7.642051 10.993378C831.497173 171.081447 831.492056 172.446537 831.385633 172.919305zM487.474932 291.067168l-200.394053 0c-14.136975 0-25.638937 11.501962-25.638937 25.63996 0 14.136975 11.501962 25.637913 25.638937 25.637913l200.394053 0c14.137998 0 25.63996-11.500938 25.63996-25.637913C513.114892 302.56913 501.611907 291.067168 487.474932 291.067168zM674.507676 438.023148 287.079856 438.023148c-14.136975 0-25.638937 11.500938-25.638937 25.638937s11.501962 25.638937 25.638937 25.638937l387.42782 0c14.137998 0 25.640983-11.501962 25.640983-25.638937S688.646698 438.023148 674.507676 438.023148z"></path></svg>