<?xml version="1.0" standalone="no"?><!DOCTYPE svg PUBLIC " -//W3C//DTD SVG 1.1//EN" "http://www.w3.org/Graphics/SVG/1.1/DTD/svg11.dtd"><svg t="1637636643032" class="icon" viewBox="0 0 1024 1024" version="1.1" xmlns="http://www.w3.org/2000/svg" p-id="2537" xmlns:xlink="http://www.w3.org/1999/xlink" width="256" height="256"><defs><style type="text/css"></style></defs><path d="M853.074152 4.333135 170.557919 4.333135C137.04869 4.333135 109.631842 32.550804 109.631842 67.037386L109.631842 910.464959C109.631842 944.952703 137.049819 973.169211 170.557919 973.169211L607.521341 973.169211C591.861028 951.826297 579.183632 928.039079 570.13658 902.452935L198.322773 902.452935C181.833118 902.452935 168.341069 888.569694 168.341069 871.597929L168.34107 105.90209C168.34107 88.931486 181.833119 75.045919 198.322774 75.045919L825.308171 75.045919C841.801216 75.045919 855.291004 88.93265 855.291004 105.90209L855.291004 540.251383C875.699125 543.182923 895.362652 548.506441 913.999101 555.950991L913.999101 67.037386C914.000228 32.550805 886.58564 4.333135 853.074152 4.333135L853.074152 4.333135ZM783.427562 349.589669 783.427562 309.776081C783.427562 302.444324 777.656072 296.503334 770.53323 296.503334L254.707812 296.503335C247.587227 296.503335 241.812345 302.445489 241.812345 309.776082L241.812345 349.589671C241.812345 356.919101 247.586098 362.862417 254.707812 362.862417L770.53323 362.862417C777.65494 362.862416 783.427562 356.9191 783.427562 349.589669L783.427562 349.589669ZM254.707812 222.763658 770.53323 222.763658C777.656072 222.763658 783.427562 216.820342 783.427562 209.490912L783.427562 169.677323C783.427562 162.347892 777.656072 156.404576 770.53323 156.404576L254.707812 156.404576C247.587227 156.404576 241.812345 162.34673 241.812345 169.677323L241.812345 209.490912C241.812345 216.820342 247.586098 222.763658 254.707812 222.763658L254.707812 222.763658ZM568.491457 449.873677C568.491457 442.54192 562.717705 436.599768 555.593732 436.599768L254.707812 436.599768C247.587227 436.599768 241.812345 442.544247 241.812345 449.873677L241.812345 489.688428C241.812345 497.016697 247.586098 502.960013 254.707812 502.960013L555.593731 502.960013C562.717705 502.960013 568.491456 497.017859 568.491456 489.688428L568.491457 449.873677 568.491457 449.873677ZM555.593731 576.698524 254.707812 576.698524C247.587227 576.698524 241.812345 582.639514 241.812345 589.972437L241.812345 629.782533C241.812345 637.115457 247.586098 643.055282 254.707812 643.055282L555.593731 643.055282C562.717705 643.055282 568.491456 637.115457 568.491456 629.782533L568.491456 589.972437C568.491457 582.639519 562.717705 576.698524 555.593731 576.698524L555.593731 576.698524ZM827.903531 488.751173 604.050311 790.022985 717.742376 790.022985 690.148136 1020.405259 914.000228 719.134607 800.308159 719.134607 827.903531 488.751173Z"></path></svg>