<?xml version="1.0" standalone="no"?><!DOCTYPE svg PUBLIC " -//W3C//DTD SVG 1.1//EN" "http://www.w3.org/Graphics/SVG/1.1/DTD/svg11.dtd"><svg t="1637636643032" class="icon" viewBox="0 0 1024 1024" version="1.1" xmlns="http://www.w3.org/2000/svg" p-id="2537" xmlns:xlink="http://www.w3.org/1999/xlink" width="256" height="256"><defs><style type="text/css"></style></defs><path d="M917.59932509 193.11314386c-6.88649309-5.85430108-16.05110691-8.33573237-24.92900073-6.72488728l-221.22376843 39.80716218-56.49947928-18.99650327c-16.10845092-5.42161455-33.28037237 3.37286982-38.60293817 19.54909089-5.30171346 16.17622109 3.33637819 33.65050182 19.3301411 39.02519857l63.85515053 21.46750836c1.48051781 0.49524364 2.99752728 0.86537311 4.530176 1.13124072v250.5526179L537.80271476 499.613696c-10.74418036-3.3311651-22.11393163 2.77336436-25.42945745 13.60616728-3.29467346 10.86408145 2.72123346 22.38501236 13.47062691 25.72139056l138.21572189 43.03406544v258.31595287l-264.46635753-75.12585309V648.87595753c0-11.36453817-9.10205673-20.57606982-20.34669383-20.57606982s-20.34669382 9.21153164-20.34669379 20.57606982v116.80555754l-203.43670226 32.29509815V216.7753635c0-17.05202037-13.66872436-30.86671128-30.51222109-30.86671128-16.84870982 0-30.51743419 13.81469091-30.51743418 30.86671128v617.2914781c0 9.01864727 3.88896582 17.58896873 10.68683637 23.45890909 6.77180509 5.85430108 15.77481308 8.46605965 24.55365817 7.02724654l252.81092887-40.12516073 283.5264605 80.53704147c2.67431563 0.76111128 5.45810618 1.14688001 8.24189674 1.14687999 1.82458181 0 3.65437673-0.17203199 5.46331926-0.50045674l223.76254373-41.18863125c14.50281891-2.65867636 25.04890183-15.45160146 25.04890181-30.35582837V216.7753635c0.00312786-9.13333528-3.99009979-17.79749238-10.92872379-23.66221964z m-50.10301672 615.20102865l-162.7537408 29.94920727V584.10747344l162.7537408-28.65114762v252.85784669z m0-294.63555724l-162.7537408 28.65114765V282.89925119l162.7537408-29.27671853V513.67861527zM230.32210152 377.32917993c9.96742982 19.99220363 101.66152844 150.69064845 129.53071244 190.2788608 5.72397382 8.12720874 14.97721019 12.95453091 24.85080437 12.9545309h0.08862254c9.91008583-0.02606547 19.16332219-4.91073164 24.86644364-13.10049745 27.77534836-39.90099781 119.12538298-171.54822517 128.50373352-189.8148957 12.31853381-23.96979201 19.09033892-51.89110692 19.09033891-78.60819783 0-96.43801134-77.58121891-174.89502952-172.91926806-174.89502952-95.34326226 0-172.92448116 78.45701818-172.92448117 174.89502952 0 26.69623854 6.35997091 53.01713454 18.91309382 78.25892073v0.03127855z m154.01138736-191.45701935c61.68129163 0 111.8896128 50.77029236 111.88961279 113.16682007 0 16.7496611-4.45197964 35.037184-12.17778036 50.09780364-5.3277789 9.96742982-51.49491199 77.74282473-99.47724335 147.03627169-44.05061819-63.02626909-93.95136697-135.50491462-99.75353716-146.66614223-8.2054051-16.53592437-12.37587782-33.51496145-12.37587782-50.4679331 0-62.39652771 50.20206546-113.16682007 111.8948259-113.16682007z m-25.42424437 157.7595997a50.35324509 50.35324509 0 0 0 50.8589149 0c15.73310836-9.18546618 25.42424436-26.16971636 25.42424437-44.5510749 0-18.37614546-9.69113599-35.35518255-25.42424437-44.54586181a50.37826793 50.37826793 0 0 0-50.8589149 0c-15.73832145 9.19067928-25.43467055 26.16971636-25.43467053 44.54586181-0.00104263 18.38135854 9.69530647 35.36560872 25.43467053 44.5510749z"></path></svg>