<?xml version="1.0" standalone="no"?><!DOCTYPE svg PUBLIC " -//W3C//DTD SVG 1.1//EN" "http://www.w3.org/Graphics/SVG/1.1/DTD/svg11.dtd"><svg t="1637636643032" class="icon" viewBox="0 0 1024 1024" version="1.1" xmlns="http://www.w3.org/2000/svg" p-id="2537" xmlns:xlink="http://www.w3.org/1999/xlink" width="256" height="256"><defs><style type="text/css"></style></defs><path d="M698.3 715.9h-28.6c-0.9 0-1.7 0.8-1.7 1.7v12.6c0 0.9-0.8 1.7-1.7 1.7h-44.6c-0.9 0-1.7 0.8-1.7 1.7v28.6c0 0.9 0.8 1.7 1.7 1.7h44.6c0.9 0 1.7 0.8 1.7 1.7v12.6c0 0.9 0.8 1.7 1.7 1.7h28.6c0.9 0 1.7-0.8 1.7-1.7v-12.6c0-0.9 0.8-1.7 1.7-1.7h191.6c0.9 0 1.7-0.8 1.7-1.7v-28.6c0-0.9-0.8-1.7-1.7-1.7H701.7c-0.9 0-1.7-0.8-1.7-1.7v-12.6c0-1-0.8-1.7-1.7-1.7zM854.3 804h-28.6c-0.9 0-1.7 0.8-1.7 1.7v12.6c0 0.9-0.8 1.7-1.7 1.7H621.7c-0.9 0-1.7 0.8-1.7 1.7v28.6c0 0.9 0.8 1.7 1.7 1.7h200.6c0.9 0 1.7 0.8 1.7 1.7v12.6c0 0.9 0.8 1.7 1.7 1.7h28.6c0.9 0 1.7-0.8 1.7-1.7v-12.6c0-0.9 0.8-1.7 1.7-1.7h35.6c0.9 0 1.7-0.8 1.7-1.7v-28.6c0-0.9-0.8-1.7-1.7-1.7h-35.6c-0.9 0-1.7-0.8-1.7-1.7v-12.6c0-0.9-0.8-1.7-1.7-1.7zM854.3 627.8h-28.6c-0.9 0-1.7 0.8-1.7 1.7v12.6c0 0.9-0.8 1.7-1.7 1.7H621.7c-0.9 0-1.7 0.8-1.7 1.7v28.6c0 0.9 0.8 1.7 1.7 1.7h200.6c0.9 0 1.7 0.8 1.7 1.7v12.6c0 0.9 0.8 1.7 1.7 1.7h28.6c0.9 0 1.7-0.8 1.7-1.7v-12.6c0-0.9 0.8-1.7 1.7-1.7h35.6c0.9 0 1.7-0.8 1.7-1.7v-28.6c0-0.9-0.8-1.7-1.7-1.7h-35.6c-0.9 0-1.7-0.8-1.7-1.7v-12.6c0-1-0.8-1.7-1.7-1.7z"></path><path d="M893.3 129H130.7c-0.9 0-1.7 0.8-1.7 1.7v762.6c0 0.9 0.8 1.7 1.7 1.7h442.6c0.9 0 1.7-0.8 1.7-1.7v-44.6c0-0.9-0.8-1.7-1.7-1.7H351.4h0.1l-62-290.5c-0.2-0.9 0.4-1.8 1.2-2l554.3-138c1.1-0.3 2.1 0.5 2.1 1.6v156.2c0 0.9 0.8 1.7 1.7 1.7h44.6c0.9 0 1.7-0.8 1.7-1.7V130.7c-0.1-0.9-0.9-1.7-1.8-1.7z m-402.8 49.3l55.8 261.3c0.2 0.9-0.4 1.8-1.2 2l-366 91.1c-1.1 0.3-2.1-0.5-2.1-1.6V178.7c0-0.9 0.8-1.7 1.7-1.7h310.2c0.8 0 1.5 0.6 1.6 1.3zM300.3 847H178.7c-0.9 0-1.7-0.8-1.7-1.7V584.1c0-0.8 0.5-1.4 1.3-1.6l62.5-15.6c0.9-0.2 1.9 0.4 2 1.3L302 845c0.2 1-0.6 2-1.7 2z m292.6-419l-53.1-249c-0.2-1 0.6-2 1.6-2h303.9c0.9 0 1.7 0.8 1.7 1.7v186.5c0 0.8-0.5 1.4-1.3 1.6L595 429.2c-1 0.3-1.9-0.3-2.1-1.2z"></path></svg>