<?xml version="1.0" standalone="no"?><!DOCTYPE svg PUBLIC " -//W3C//DTD SVG 1.1//EN" "http://www.w3.org/Graphics/SVG/1.1/DTD/svg11.dtd"><svg t="1637636643032" class="icon" viewBox="0 0 1024 1024" version="1.1" xmlns="http://www.w3.org/2000/svg" p-id="2537" xmlns:xlink="http://www.w3.org/1999/xlink" width="256" height="256"><defs><style type="text/css"></style></defs><path d="M119.92074613 112.28991728H948.04736328v690.59001159h-116.78801908l-9.0843195-23.7645813c11.6279294-19.69480563 18.67736234-41.42449951 21.22097139-63.6992526h17.18753329V199.75375033H163.41647061V714.39865084h340.73467685c2.5436099 22.78347473 9.62937956 44.51316862 21.25730896 64.20797425l-9.08432035 23.76458129H75.95263672V112.28991728h43.96810941z m553.59846441 470.67679109a114.68045654 114.68045654 0 0 0-114.75313083 114.75313082c0 28.34307861 10.61048613 54.61493225 27.28929777 74.85479793l-40.95211543 107.66736117 57.12220459-3.05233155 41.46083707 40.44339295 30.34162931-78.85189847 35.90123235 93.53215942 41.42449951-40.44339294 57.15854215 3.01599482-46.51171846-121.83890132a113.95371122 113.95371122 0 0 0 27.28929691-74.30973787c-0.50872164-64.20797425-52.07132235-115.77057495-115.77057494-115.77057496z m65.22541837 154.68780212c-17.18753329 9.62937956-38.91722718 15.18898343-62.17308683 15.18898345-27.83435697 0-52.58004483-8.10321378-71.2937439-20.71224976a72.67456026 72.67456026 0 0 0 67.73269071 46.51171846 72.31118802 72.31118802 0 0 0 65.73414002-40.98845215zM657.34912138 619.37666321c17.69625577 5.05088224 35.9012332 15.66136751 51.05387822 31.32273588 18.20497741 18.20497741 29.83290683 40.44339294 33.35762329 61.19197942 11.15554532-24.78202543 6.57704801-55.59603882-14.17153931-75.83590365a67.91437683 67.91437683 0 0 0-70.2399622-16.71514921zM238.74365263 489.9432706v47.52916259h551.59991455v-47.52916259H238.74365263z m275.03687439-111.73713685v47.5291626h276.01798095V378.20613375H513.81686373z m0-111.19207763v47.49282588h276.01798095V266.9777194H513.81686373z m-274.01943111-0.54505921v169.87678557h206.75912532V266.46899691h-206.75912532z"></path></svg>