<?xml version="1.0" standalone="no"?><!DOCTYPE svg PUBLIC "-//W3C//DTD SVG 1.1//EN" "http://www.w3.org/Graphics/SVG/1.1/DTD/svg11.dtd"><svg t="1641896585759" class="icon" viewBox="0 0 1024 1024" version="1.1" xmlns="http://www.w3.org/2000/svg" p-id="24484" xmlns:xlink="http://www.w3.org/1999/xlink" width="256" height="256"><defs><style type="text/css"></style></defs><path d="M610.1 409.3H418.3c-17.7 0-32 14.3-32 32v32c0 17.7 14.3 32 32 32h119.5v-0.9l0.9 0.9h71.4c10.9 0 20.5-5.5 26.3-13.8v-31h5.7v-19.2c0-17.7-14.3-32-32-32z m-15.9 68c-11 0-20-9-20-20s8.9-20 20-20c11 0 20 9 20 20 0 11.1-8.9 20-20 20z m-207.9 188v32c0 17.7 14.3 32 32 32h119.5v-96H418.3c-17.6 0-32 14.3-32 32z m0-112v32c0 17.7 14.3 32 32 32h119.5v-96H418.3c-17.6 0-32 14.3-32 32z m223.8-32h-55.4l30.3 30.3c2.8-1.5 5.9-2.3 9.3-2.3 11 0 20 9 20 20 0 3.4-0.8 6.5-2.3 9.3l24.5 24.6v-68c-5.8-8.4-15.4-13.9-26.4-13.9z" fill="#E6C27C" p-id="24485"></path><path d="M473.1 242.7H281.2c-17.7 0-32 14.3-32 32v32c0 17.7 14.3 32 32 32H473c17.7 0 32-14.3 32-32v-32c0-17.7-14.3-32-31.9-32z m-15.9 68c-11 0-20-9-20-20s8.9-20 20-20c11 0 20 9 20 20-0.1 11-9 20-20 20z m-207.9 188v32c0 17.7 14.3 32 32 32H357v-96h-75.7c-17.7 0-32 14.3-32 32z m223.8-144H281.2c-17.7 0-32 14.3-32 32v32c0 17.7 14.3 32 32 32h75.7v-9.4c0-35.3 28.7-64 63.9-64h82.8c-4-13.1-16.1-22.6-30.5-22.6z" fill="#E6C27C" p-id="24486"></path><path d="M654.7 64H97v832h448v-64H161V128h415.6v227h223.8v36l-0.1 89 63.9 0.1 0.1-89v-86.8L654.7 64z m-14.2 81l127.4 146H640.5V145z" fill="#727272" p-id="24487"></path><path d="M927 797.3L764.4 960 601.8 797.3V659.1l98.7 98.8V524.5h127.8v233.4l98.7-98.8z" fill="#5280C1" p-id="24488"></path></svg>