<?xml version="1.0" standalone="no"?><!DOCTYPE svg PUBLIC " -//W3C//DTD SVG 1.1//EN" "http://www.w3.org/Graphics/SVG/1.1/DTD/svg11.dtd"><svg t="1637636643032" class="icon" viewBox="0 0 1024 1024" version="1.1" xmlns="http://www.w3.org/2000/svg" p-id="2537" xmlns:xlink="http://www.w3.org/1999/xlink" width="256" height="256"><defs><style type="text/css"></style></defs><path d="M312.6640625 954.96875c-66.4453125 0-124.03125-26.578125-172.7578125-70.875-44.296875-44.296875-70.875-106.3125-70.875-172.7578125s26.578125-124.03125 70.875-172.7578125L246.21875 436.6953125l39.8671875 39.8671875-106.3125 106.3125c-35.4375 35.4375-53.15625 79.734375-53.15625 128.4609375 0 48.7265625 17.71875 97.453125 53.15625 137.3203125 35.4375 35.4375 84.1640625 53.15625 132.890625 53.15625s97.453125-22.1484375 132.890625-53.15625l106.3125-106.3125 39.8671875 39.8671875-106.3125 106.3125C436.6953125 928.390625 379.109375 954.96875 312.6640625 954.96875zM166.484375 206.3515625l39.8671875-39.8671875 651.1640625 651.1640625-39.8671875 39.8671875zM737.9140625 547.4375l106.3125-106.3125c35.4375-35.4375 53.15625-79.734375 53.15625-128.4609375 0-48.7265625-17.71875-97.453125-53.15625-137.3203125-35.4375-35.4375-84.1640625-53.15625-132.890625-53.15625s-97.453125 22.1484375-132.890625 53.15625L476.5625 286.0859375 436.6953125 246.21875l106.3125-106.3125c44.296875-44.296875 106.3125-70.875 172.7578125-70.875s124.03125 26.578125 172.7578125 70.875c93.0234375 93.0234375 93.0234375 248.0625 0 345.515625L777.78125 587.3046875l-39.8671875-39.8671875z"></path></svg>