<?xml version="1.0" standalone="no"?><!DOCTYPE svg PUBLIC " -//W3C//DTD SVG 1.1//EN" "http://www.w3.org/Graphics/SVG/1.1/DTD/svg11.dtd"><svg t="1637636643032" class="icon" viewBox="0 0 1024 1024" version="1.1" xmlns="http://www.w3.org/2000/svg" p-id="2537" xmlns:xlink="http://www.w3.org/1999/xlink" width="256" height="256"><defs><style type="text/css"></style></defs><path d="M857.8408682 110.21428571H166.1591318A55.94484609 55.94484609 0 0 0 110.21428571 166.1591318v691.6817364a55.94484609 55.94484609 0 0 0 55.94484609 55.94484609h691.68173639a55.94484609 55.94484609 0 0 0 55.9448461-55.94484609V166.1591318A55.94484609 55.94484609 0 0 0 857.8408682 110.21428571z m-5.08589541 61.0307415v310.23960204H171.24502721V171.24502721zM171.24502721 852.75497279V542.51537075h681.50994558v310.23960204z"></path><path d="M358.40596766 672.71428571H295.84945749a30.51537075 30.51537075 0 0 0-1e-8 61.0307415h62.55651017a30.51537075 30.51537075 0 0 0 0-61.0307415zM543.53254935 672.71428571H480.97603994a30.51537075 30.51537075 0 0 0 0 61.0307415h62.55650941a30.51537075 30.51537075 0 0 0 1e-8-61.0307415zM728.15054251 672.71428571h-62.55651016a30.51537075 30.51537075 0 0 0 0 61.0307415h62.55651016a30.51537075 30.51537075 0 0 0 1e-8-61.0307415zM295.84945749 351.28571429h432.30108502a30.51537075 30.51537075 0 1 0 0-61.0307415h-432.30108503a30.51537075 30.51537075 0 0 0 0 61.0307415z"></path></svg>