<?xml version="1.0" standalone="no"?><!DOCTYPE svg PUBLIC " -//W3C//DTD SVG 1.1//EN" "http://www.w3.org/Graphics/SVG/1.1/DTD/svg11.dtd"><svg t="1637636643032" class="icon" viewBox="0 0 1024 1024" version="1.1" xmlns="http://www.w3.org/2000/svg" p-id="2537" xmlns:xlink="http://www.w3.org/1999/xlink" width="256" height="256"><defs><style type="text/css"></style></defs><path d="M562.21428544 588.99999973H247.50000027a30.10714286 30.10714286 0 1 0 0 60.28571483h314.71428517a30.10714286 30.10714286 0 1 0 0-60.28571483z m103.78571483-231.03571374v522.32142857H143.71428544V357.99999973h522.35714313z m0-60.25000028H143.71428544C110.39285687 297.71428571 83.42857143 324.67857115 83.42857143 357.99999973v522.32142857C83.42857143 913.57142857 110.39285687 940.57142857 143.71428544 940.57142857h522.28571483c33.32142857 0 60.28571401-26.96428544 60.28571402-60.28571401V357.99999973C726.28571429 324.67857115 699.32142885 297.71428571 666.00000027 297.71428571z m214.28571429-214.28571428H384.5a30.10714286 30.10714286 0 1 0 0 60.28571401h495.8214283v498.85714286a30.10714286 30.10714286 0 1 0 60.25000027 0V143.6785717C940.57142857 110.39285687 913.60714313 83.42857143 880.28571456 83.42857143z m-107.14285714 107.14285714H220.74999973a30.10714286 30.10714286 0 1 0 0 60.28571401h552.46428598v552.42857143a30.10714286 30.10714286 0 1 0 60.25000028 0V250.85714258C833.42857143 217.53571401 806.46428599 190.57142857 773.14285742 190.57142857z"></path></svg>