<?xml version="1.0" standalone="no"?><!DOCTYPE svg PUBLIC " -//W3C//DTD SVG 1.1//EN" "http://www.w3.org/Graphics/SVG/1.1/DTD/svg11.dtd"><svg t="1637636643032" class="icon" viewBox="0 0 1024 1024" version="1.1" xmlns="http://www.w3.org/2000/svg" p-id="2537" xmlns:xlink="http://www.w3.org/1999/xlink" width="256" height="256"><defs><style type="text/css"></style></defs><path d="M948.906667 931.84h92.16V1024h-92.16zM948.906667 559.786667v184.32H853.333333v-184.32H576.853333V1024h92.16V651.946667h92.16v184.32h279.893334v-276.48z"></path><path d="M761.173333 931.84H853.333333V1024h-92.16zM187.733333 187.733333h92.16v92.16H187.733333z"></path><path d="M0 464.213333h464.213333V0H0v464.213333zM92.16 92.16h279.893333v279.893333H92.16V92.16zM187.733333 744.106667h92.16v92.16H187.733333z"></path><path d="M0 1024h464.213333V559.786667H0V1024z m92.16-372.053333h279.893333v279.893333H92.16v-279.893333zM761.173333 187.733333H853.333333v92.16h-92.16z"></path><path d="M1041.066667 0H576.853333v464.213333h464.213334V0z m-92.16 372.053333h-279.893334V92.16h279.893334v279.893333z"></path></svg>