<?xml version="1.0" standalone="no"?><!DOCTYPE svg PUBLIC " -//W3C//DTD SVG 1.1//EN" "http://www.w3.org/Graphics/SVG/1.1/DTD/svg11.dtd"><svg t="1637636643032" class="icon" viewBox="0 0 1024 1024" version="1.1" xmlns="http://www.w3.org/2000/svg" p-id="2537" xmlns:xlink="http://www.w3.org/1999/xlink" width="256" height="256"><defs><style type="text/css"></style></defs><path d="M355.23078096 370.43078094c0-3.99349841 1.52289524-7.98709841 4.57092064-11.03288889 3.04690794-3.04690794 7.04040635-4.57092063 11.03288889-4.57092063h281.90882539c3.99349841 0 7.98709841 1.52289524 11.03288889 4.57092063 3.04690794 3.04690794 4.57092063 7.04040635 4.57092064 11.03288889v281.9088254c0 3.99349841-1.5240127 7.98709841-4.57092064 11.03288889s-7.04040635 4.57092063-11.03288889 4.57092063h-281.90882539c-3.99349841 0-7.98709841-1.5240127-11.03288889-4.57092063-3.04690794-3.04690794-4.57092063-7.04040635-4.57092064-11.03288889V370.4307972z"></path><path d="M966.9001143 98.95568253c0-23.57211429-19.10948571-42.6816-42.6816-42.6816H99.35948395c-23.57211429 0-42.6816 19.10948571-42.6816 42.6816v824.86002184c0 23.57109841 19.10948571 42.68058413 42.6816 42.68058413h824.85794133c23.57008254 0 42.67956825-19.10948571 42.67956825-42.68058413L966.9001143 98.95568253 966.9001143 98.95568253zM881.5992889 866.96899047c0 7.85808254-6.36952381 14.22750476-14.22750476 14.22750476H156.20624255c-7.85808254 0-14.22750476-6.36952381-14.22750476-14.22750476V155.8024777c0-7.85808254 6.36952381-14.22750476 14.22750476-14.22750476h711.16546438c7.85808254 0 14.22750476 6.36952381 14.22750476 14.22750476V866.96898234z"></path></svg>