<?xml version="1.0" standalone="no"?><!DOCTYPE svg PUBLIC " -//W3C//DTD SVG 1.1//EN" "http://www.w3.org/Graphics/SVG/1.1/DTD/svg11.dtd"><svg t="1637636643032" class="icon" viewBox="0 0 1024 1024" version="1.1" xmlns="http://www.w3.org/2000/svg" p-id="2537" xmlns:xlink="http://www.w3.org/1999/xlink" width="256" height="256"><defs><style type="text/css"></style></defs><path d="M866.797037 1013.342815H153.524148c-44.828444 0-81.313185-37.05363-81.313185-82.640593V94.701037c0-45.549037 36.484741-82.640593 81.313185-82.640593h713.272889c44.86637 0 81.351111 37.091556 81.351111 82.678519V930.702222c0 45.586963-36.484741 82.640593-81.351111 82.640593zM147.986963 89.770667a5.006222 5.006222 0 0 0-4.854519 4.93037V930.702222c0 2.654815 2.275556 4.93037 4.854519 4.930371h731.287704c2.578963 0 4.854519-1.365333 4.854518-4.930371V94.701037c0-2.616889-2.275556-4.93037-4.854518-4.93037H147.986963z m-39.442963 282.472296l0.151704-77.748148 797.696 1.820444-0.18963 77.710222-797.658074-1.782518z m369.967407-137.216h59.733334v247.580444h-59.733334V235.026963z m-38.229333-33.867852c0-38.153481 30.454519-69.101037 68.001185-69.101037 37.546667 0 67.963259 30.947556 67.96326 69.101037 0 24.651852-12.932741 47.483259-33.98163 59.809185a67.053037 67.053037 0 0 1-68.001185 0 69.290667 69.290667 0 0 1-33.98163-59.809185z m0 276.29037c0-24.651852 12.970667-47.483259 33.98163-59.809185a67.053037 67.053037 0 0 1 68.001185 0c21.048889 12.325926 33.98163 35.157333 33.98163 59.809185 0 38.153481-30.416593 69.101037-67.96326 69.101038s-68.001185-30.947556-68.001185-69.101038z"></path></svg>