<?xml version="1.0" standalone="no"?><!DOCTYPE svg PUBLIC " -//W3C//DTD SVG 1.1//EN" "http://www.w3.org/Graphics/SVG/1.1/DTD/svg11.dtd"><svg t="1637636643032" class="icon" viewBox="0 0 1024 1024" version="1.1" xmlns="http://www.w3.org/2000/svg" p-id="2537" xmlns:xlink="http://www.w3.org/1999/xlink" width="256" height="256"><defs><style type="text/css"></style></defs><path d="M512.256128 176.551724c-185.251374 0-335.192404 149.941029-335.192404 335.192404s149.941029 335.192404 335.192404 335.192404 335.192404-149.941029 335.192404-335.192404-149.941029-335.192404-335.192404-335.192404zM514.303104 0c13.305347 0 24.563718 10.746627 24.563719 24.563718v81.879061c0 13.305347-10.746627 24.563718-24.563719 24.563718-13.305347 0-24.563718-10.746627-24.563718-24.563718v-81.879061c0.511744-13.817091 11.258371-24.563718 24.563718-24.563718zM290.159176 171.434283c6.652674 11.770115 21.493253 15.352324 33.263369 8.69965s15.864068-21.493253 8.69965-33.263368l-40.93953-71.132434c-6.652674-11.770115-21.493253-15.352324-33.263369-8.69965-11.258371 6.652674-15.352324 21.493253-8.69965 33.263368l40.93953 71.132434zM79.320596 287.088456l71.132433 40.93953c11.770115 6.652674 26.610695 2.558721 33.263369-8.69965 6.652674-11.770115 2.558721-26.610695-8.69965-33.263368l-71.132434-40.939531c-11.770115-6.14093-26.610695-1.535232-32.751624 10.234883-6.652674 11.258371-2.558721 25.075462 8.187906 31.728136z m51.686157 222.608695c0-13.305347-10.746627-24.563718-24.563719-24.563718h-81.87906c-13.305347 0-24.563718 10.746627-24.563718 24.563718 0 13.305347 10.746627 24.563718 24.563718 24.563719h81.87906c13.817091-0.511744 24.563718-11.258371 24.563719-24.563719z m16.887556 181.669166l-71.132434 40.93953c-11.770115 6.652674-15.352324 21.493253-8.69965 33.263368 6.652674 11.258371 21.493253 15.352324 33.263368 8.699651l71.132434-40.939531c11.770115-6.652674 15.352324-21.493253 8.69965-33.263368-7.164418-11.258371-22.004998-15.352324-33.263368-8.69965z m171.946027 149.429285c-11.770115-6.652674-26.610695-2.558721-33.263368 8.69965l-40.939531 71.132434c-6.652674 11.770115-2.558721 26.610695 9.211395 33.263368 11.770115 6.652674 26.098951 2.558721 33.263368-8.69965l40.93953-71.132433c6.14093-11.770115 2.558721-26.610695-9.211394-33.263369z m190.368815 52.197901c-13.305347 0-24.563718 10.746627-24.563718 24.563718v81.879061c0 13.305347 10.746627 24.563718 24.563718 24.563718 13.305347 0 24.563718-10.746627 24.563719-24.563718v-81.879061c-0.511744-13.817091-11.258371-24.563718-24.563719-24.563718z m224.143928-40.93953c-6.652674-11.770115-21.493253-15.864068-33.263368-8.69965-11.770115 6.652674-15.864068 21.493253-8.69965 33.263368l40.93953 71.132434c6.652674 11.770115 21.493253 15.352324 33.263369 8.69965 11.258371-6.652674 15.352324-21.493253 8.69965-33.263368l-40.939531-71.132434z m210.838581-115.654173l-71.132434-40.93953c-11.770115-6.652674-26.610695-2.558721-33.263368 8.69965-6.652674 11.770115-2.558721 26.610695 8.69965 33.263368l70.62069 40.939531c11.770115 6.652674 26.610695 2.558721 33.263368-8.699651 7.676162-11.770115 3.582209-26.610695-8.187906-33.263368z m-27.634183-246.66067h81.879061c13.305347 0 24.563718 10.746627 24.563718 24.563719 0 13.305347-10.746627 24.563718-24.563718 24.563718h-81.879061c-13.305347 0-24.563718-10.746627-24.563718-24.563718 0.511744-13.817091 11.258371-24.563718 24.563718-24.563719z m-74.202898-166.828585c6.652674 11.770115 21.493253 15.864068 33.263368 8.69965l71.132434-40.93953c11.770115-6.652674 15.352324-21.493253 8.69965-33.263369-6.652674-11.258371-21.493253-15.352324-33.263368-8.69965l-71.132434 40.93953c-11.258371 6.652674-15.352324 22.004998-8.69965 33.263369z m-138.682659-140.217891c11.770115 6.652674 26.610695 2.558721 33.263368-8.699651l40.939531-71.132433c6.652674-11.770115 2.558721-26.610695-8.699651-33.263369-11.770115-6.652674-26.610695-2.558721-33.263368 8.699651l-40.93953 71.132433c-6.652674 11.770115-3.070465 26.610695 8.69965 33.263369z"></path></svg>