<?xml version="1.0" standalone="no"?><!DOCTYPE svg PUBLIC " -//W3C//DTD SVG 1.1//EN" "http://www.w3.org/Graphics/SVG/1.1/DTD/svg11.dtd"><svg t="1637636643032" class="icon" viewBox="0 0 1024 1024" version="1.1" xmlns="http://www.w3.org/2000/svg" p-id="2537" xmlns:xlink="http://www.w3.org/1999/xlink" width="256" height="256"><defs><style type="text/css"></style></defs><path d="M370.928 506.046c19.518-6.469 35.436-14.906 47.867-25.2 12.263-10.35 22.613-22.33 30.994-35.774 8.38-13.5 14.287-26.83 17.606-39.937 3.487-13.05 5.174-26.1 5.174-39.093v-89.154H303.991v53.661h105.355v37.406c0 26.437-9.731 48.205-29.081 65.305-19.35 17.1-44.268 25.706-74.699 25.706-36.336 0-63.955-12.6-82.686-37.687-18.73-25.087-28.124-59.849-28.124-104.286v-58.33c0-46.799 10.406-81.786 31.162-104.96 20.756-23.175 47.586-34.818 80.38-34.818 26.605 0 49.217 7.424 67.78 22.218 18.618 14.793 29.643 36.45 33.074 64.967h64.461a155.022 155.022 0 0 0-12.88-54.28 155.81 155.81 0 0 0-31.219-45.899 140.566 140.566 0 0 0-50.961-32.062 193.496 193.496 0 0 0-69.074-11.812c-54.674 0-98.098 17.493-130.329 52.424C145.088 149.37 129 197.35 129 258.438v58.387c0 61.48 14.963 110.023 44.888 145.572 29.868 35.55 73.798 53.324 131.678 53.324 23.962 0 45.787-3.206 65.362-9.675m476.484-391.155c-31.724-35.268-75.148-52.874-130.103-52.874s-98.492 17.662-130.554 53.043c-32.062 35.324-48.093 83.754-48.093 145.234v61.312c0 61.086 15.806 108.729 47.474 142.872 31.668 34.2 75.036 51.3 130.216 51.3s98.774-17.1 130.78-51.3c31.949-34.143 47.867-81.786 47.867-142.872v-61.312c-0.056-61.705-15.862-110.191-47.587-145.403m-18.224 206.996c0 45-10.35 79.142-31.05 102.26-20.643 23.175-47.811 34.762-81.504 34.762-33.468 0-60.58-11.587-81.168-34.761-20.7-23.119-31.049-57.262-31.049-102.261v-62.155c0-45 10.406-79.761 31.218-104.173 20.756-24.468 47.812-36.674 80.999-36.674 33.524 0 60.636 12.206 81.392 36.674 20.812 24.412 31.162 59.174 31.162 104.173v62.155zM686.709 672.093H215.57v163.29h471.14V962L895 753.71 686.71 545.477z"></path></svg>