<?xml version="1.0" standalone="no"?><!DOCTYPE svg PUBLIC " -//W3C//DTD SVG 1.1//EN" "http://www.w3.org/Graphics/SVG/1.1/DTD/svg11.dtd"><svg t="1637636643032" class="icon" viewBox="0 0 1024 1024" version="1.1" xmlns="http://www.w3.org/2000/svg" p-id="2537" xmlns:xlink="http://www.w3.org/1999/xlink" width="256" height="256"><defs><style type="text/css"></style></defs><path d="M512 781.824c81.408 0 128-52.736 128-144.384 0-98.816-104.448-219.136-108.544-224.256l-19.456-22.016-19.456 22.016c-4.608 5.12-108.544 125.952-108.544 224.256 0 91.648 46.592 144.384 128 144.384z m0-311.296c31.744 41.472 76.8 113.152 76.8 166.912 0 82.944-40.96 93.184-76.8 93.184s-76.8-10.752-76.8-93.184c0-53.248 45.568-124.928 76.8-166.912z"></path><path d="M509.44 710.656h2.048c28.672-3.072 48.128-22.528 54.272-53.248 2.048-3.584 3.072-8.192 2.56-12.8-0.512-2.56-0.512-4.096-0.512-5.12-2.048-19.968-20.48-19.968-20.992-19.968-7.68 0-19.456 5.632-19.968 20.48-1.024 18.944-7.68 29.184-19.456 30.208-11.264 1.024-19.456 11.264-17.92 22.528 0.512 10.24 9.728 17.92 19.968 17.92z"></path><path d="M949.248 410.624h-66.56c-35.328-72.192-91.136-132.608-159.744-174.08 54.784-36.352 88.576-72.704 88.576-72.704S677.376 20.48 512 20.48 212.48 164.352 212.48 164.352s33.792 36.352 88.576 72.704c-68.608 40.96-124.416 101.376-159.744 174.08h-66.56C33.792 410.624 0 444.416 0 485.888v268.8c0 41.472 33.792 74.752 74.752 74.752h100.864c74.752 104.96 197.632 174.08 336.384 174.08s261.632-68.608 336.384-174.08h100.864c41.472 0 74.752-33.792 74.752-74.752V485.888c0-41.472-33.792-75.264-74.752-75.264z m-310.784-184.32c9.216-18.432 14.336-39.424 14.336-61.952 0-22.016-5.12-43.008-14.336-61.44 39.424 18.432 72.704 42.496 96.768 61.44-23.552 19.456-57.344 43.008-96.768 61.952zM497.152 307.712c5.12 0 9.728 0.512 14.848 0.512s9.728 0 14.848-0.512c-5.12 0-9.728 0.512-14.848 0.512s-9.728 0-14.848-0.512zM783.36 593.92c0 149.504-121.856 271.36-271.36 271.36s-271.36-121.856-271.36-271.36 121.856-271.36 271.36-271.36 271.36 121.344 271.36 271.36zM512 74.752c49.152 0 89.6 40.448 89.6 89.6s-40.448 89.6-89.6 89.6-89.6-40.448-89.6-89.6 40.448-89.6 89.6-89.6z m-20.48 232.96c-3.072 0-6.144-0.512-8.704-0.512 3.072 0 6.144 0 8.704 0.512z m-15.872-1.536c-2.56-0.512-4.608-0.512-7.168-1.024 2.56 0 5.12 0.512 7.168 1.024z m-14.848-2.56c-2.048-0.512-4.096-0.512-5.632-1.024 1.536 0.512 3.584 1.024 5.632 1.024z m-14.336-2.56c-1.536-0.512-3.072-0.512-4.608-1.024 1.536 0 3.072 0.512 4.608 1.024z m-14.336-3.584c-1.024-0.512-2.048-0.512-3.072-1.024 1.024 0.512 2.048 1.024 3.072 1.024z m-13.824-3.584c-0.512 0-1.024-0.512-2.048-0.512 1.024 0 1.536 0 2.048 0.512z m188.928-1.024c-0.512 0-1.024 0.512-2.048 0.512 1.024 0 1.536 0 2.048-0.512z m-12.288 3.584c-1.024 0.512-2.048 0.512-3.072 1.024 1.024 0 2.048-0.512 3.072-1.024z m-12.8 3.584c-1.536 0.512-3.072 0.512-4.608 1.024 1.536-0.512 3.072-1.024 4.608-1.024z m-13.312 2.56c-2.048 0.512-4.096 0.512-5.632 1.024 2.048 0 4.096-0.512 5.632-1.024z m-13.824 2.56c-2.56 0.512-4.608 0.512-7.168 1.024 2.56-0.512 5.12-1.024 7.168-1.024z m-13.824 1.536c-3.072 0.512-6.144 0.512-8.704 0.512 2.56 0 5.632 0 8.704-0.512zM385.536 102.4c-9.216 18.432-14.336 39.424-14.336 61.952 0 22.016 5.12 43.008 14.336 61.44-39.424-18.432-72.704-42.496-96.768-61.44C312.32 144.896 346.112 121.344 385.536 102.4zM74.752 792.576c-20.992 0-37.888-16.896-37.888-37.888v-14.336h34.304c8.704 0 16.384-8.192 16.384-18.432s-7.168-18.432-16.384-18.432H36.864v-30.72h34.304c8.704 0 16.384-8.192 16.384-18.432s-7.168-18.432-16.384-18.432H36.864v-30.72h34.304c8.704 0 16.384-8.192 16.384-18.432s-7.168-18.432-16.384-18.432H36.864v-30.72h34.304c8.704 0 16.384-8.192 16.384-18.432s-7.168-18.432-16.384-18.432H36.864V486.4c0-20.992 16.896-37.888 37.888-37.888h50.688c-16.384 44.544-25.6 93.184-25.6 143.36 0 73.216 18.944 141.824 52.736 201.728H74.752zM512 952.32c-199.168 0-360.96-161.792-360.96-360.96 0-141.824 82.432-265.216 202.24-324.096 16.384 8.192 33.792 15.872 52.224 22.016C279.552 333.312 189.44 453.12 189.44 593.92c0 178.176 144.384 322.56 322.56 322.56s322.56-144.384 322.56-322.56c0-140.8-90.112-260.096-216.064-304.128 18.432-6.144 35.84-13.824 52.224-22.016 119.808 58.88 202.24 181.76 202.24 324.096 0 198.656-161.792 360.448-360.96 360.448zM312.832 244.224c0.512 0.512 1.024 0.512 1.536 1.024-0.512 0-1.024-0.512-1.536-1.024z m12.288 7.68c0.512 0.512 1.024 0.512 1.536 1.024-0.512-0.512-1.024-0.512-1.536-1.024z m13.824 7.68c0.512 0 0.512 0.512 1.024 0.512-0.512 0-1.024-0.512-1.024-0.512z m372.224-15.36c-0.512 0.512-1.024 0.512-1.536 1.024 0.512 0 1.024-0.512 1.536-1.024z m-12.288 7.68c-0.512 0.512-1.024 0.512-1.536 1.024 0.512-0.512 1.024-0.512 1.536-1.024z m-13.824 7.68c-0.512 0-0.512 0.512-1.024 0.512 0.512 0 1.024-0.512 1.024-0.512z m302.08 240.64h-34.304c-8.704 0-16.384 8.192-16.384 18.432s7.168 18.432 16.384 18.432h34.304v30.72h-34.304c-8.704 0-16.384 8.192-16.384 18.432s7.168 18.432 16.384 18.432h34.304v30.72h-34.304c-8.704 0-16.384 8.192-16.384 18.432s7.168 18.432 16.384 18.432h34.304v30.72h-34.304c-8.704 0-16.384 8.192-16.384 18.432s7.168 18.432 16.384 18.432h34.304v14.336c0 20.992-16.896 37.888-37.888 37.888h-77.312c33.28-59.392 52.736-128.512 52.736-201.728 0-50.688-9.216-98.816-25.6-143.36h50.688c20.992 0 37.888 16.896 37.888 37.888v15.36z"></path><path d="M512 164.352m-30.72 0a30.72 30.72 0 1 0 61.44 0 30.72 30.72 0 1 0-61.44 0Z"></path></svg>