<?xml version="1.0" standalone="no"?><!DOCTYPE svg PUBLIC " -//W3C//DTD SVG 1.1//EN" "http://www.w3.org/Graphics/SVG/1.1/DTD/svg11.dtd"><svg t="1637636643032" class="icon" viewBox="0 0 1024 1024" version="1.1" xmlns="http://www.w3.org/2000/svg" p-id="2537" xmlns:xlink="http://www.w3.org/1999/xlink" width="256" height="256"><defs><style type="text/css"></style></defs><path d="M480 1024a288 288 0 0 1-160-527.36V128A128 128 0 0 1 448 0h64a128 128 0 0 1 128 128v368.64A288 288 0 0 1 480 1024z m96-489.6V128a64 64 0 0 0-64-64h-64a64 64 0 0 0-64 64v64h128v64H384v64h128v64H384v64h128v64H384v22.4a226.56 226.56 0 0 0-59.264 41.6H320v4.736c-39.296 40.192-64 94.592-64 155.264 0 60.928 24.512 116.032 64 156.416V896h3.584a223.04 223.04 0 0 0 312.832 0H640v-3.584c39.488-40.384 64-95.488 64-156.416 0-89.216-52.48-165.632-128-201.6zM570.112 768A92.8 92.8 0 0 0 576 736c0-41.728-26.816-76.864-64-90.112v-66.624A160 160 0 0 1 640 736c0 11.008-1.344 21.632-3.52 32h-66.368z"></path></svg>