<?xml version="1.0" standalone="no"?><!DOCTYPE svg PUBLIC " -//W3C//DTD SVG 1.1//EN" "http://www.w3.org/Graphics/SVG/1.1/DTD/svg11.dtd"><svg t="1637636643032" class="icon" viewBox="0 0 1024 1024" version="1.1" xmlns="http://www.w3.org/2000/svg" p-id="2537" xmlns:xlink="http://www.w3.org/1999/xlink" width="256" height="256"><defs><style type="text/css"></style></defs><path d="M722.98198513 314.16330989H301.01801487c-3.47411369 0-6.29096262 2.81684893-6.29096262 6.29096261v257.27220262c0 3.47411369 2.81684893 6.29096262 6.29096262 6.29096262h421.8700753c3.47411369 0 6.29096262-2.81684893 6.29096262-6.29096262V320.4542725c0.09389496-3.47411369-2.72295397-6.29096262-6.19706766-6.29096261z m-30.79754834 235.58246582c0 2.72295397-2.34737411 4.97643312-5.258118 4.97643312H337.07368121c-2.91074391 0-5.25811801-2.25347915-5.258118-4.97643312V348.43497192c0-2.72295397 2.34737411-4.97643312 5.258118-4.97643312h349.85263758c2.91074391 0 5.25811801 2.25347915 5.258118 4.97643312v201.31080379zM512 91.35055923C279.70385793 91.35055923 91.35055923 279.70385793 91.35055923 512s188.3532987 420.64944077 420.64944077 420.64944077 420.64944077-188.3532987 420.64944077-420.64944077S744.29614207 91.35055923 512 91.35055923z m255.20651339 486.37591589c0 24.41269076-19.90573246 44.31842322-44.31842322 44.31842322H537.25774544V703.5457275h108.73036885c6.94822737 0 12.6758202 5.63369786 12.6758202 12.6758202v18.96678282c0 6.94822737-5.63369786 12.6758202-12.6758202 12.67582019H378.01188571c-6.94822737 0-12.6758202-5.63369786-12.6758202-12.67582019v-18.96678282c0-6.94822737 5.63369786-12.6758202 12.6758202-12.6758202h108.73036885v-81.59472412H301.01801487c-24.41269076 0-44.31842322-19.90573246-44.31842324-44.31842323V320.4542725c0-24.41269076 19.90573246-44.31842322 44.31842324-44.31842321h421.8700753c24.41269076 0 44.31842322 19.90573246 44.31842322 44.31842321v257.27220262z"></path></svg>