<?xml version="1.0" standalone="no"?><!DOCTYPE svg PUBLIC " -//W3C//DTD SVG 1.1//EN" "http://www.w3.org/Graphics/SVG/1.1/DTD/svg11.dtd"><svg t="1637636643032" class="icon" viewBox="0 0 1024 1024" version="1.1" xmlns="http://www.w3.org/2000/svg" p-id="2537" xmlns:xlink="http://www.w3.org/1999/xlink" width="256" height="256"><defs><style type="text/css"></style></defs><path d="M570.125 729.875l157.21875001 157.21875001c6.75 6.75 13.3125 13.59375001 20.24999998 20.06249998 28.6875 27 70.59375001 29.53125001 105.00000002 13.125 34.96875001-16.6875 52.96875001-58.21875001 47.43750001-95.34374999-3.28125001-22.03125002-14.71875001-39.9375-30.18750001-55.40625001l-169.68750002-169.68749998c-8.625-8.625-23.15625001-8.625-31.78124999-2e-8L570.125 698.09375001c-20.53125001 20.53125001 11.25 52.3125 31.78125001 31.78124999l98.24999998-98.25h-31.78124999l157.21875001 157.21875001c6.75 6.75 13.59375001 13.3125 20.06249998 20.24999998 23.0625 24.46875001 7.50000001 64.875-21.9375 74.71875001-35.25 11.90625001-61.40625001-25.40625001-83.06249998-47.0625l-138.75000002-138.75c-20.4375-20.4375-52.3125 11.34375001-31.78124999 31.875zM339.6875 273.03124999l-19.96875001-60.74999998c-6.1875-18.84375001-9.09375001-43.21875001-30.28124999-49.875L163.4375 122.65624999c-7.59375001-2.4375-16.40625001 0.28125001-21.84375001 5.81250002l-42.93749998 42.84374999c-5.53125001 5.53125001-8.15625001 14.34375001-5.8125 21.84375001l33.375 105.65624999c4.59375001 14.625 7.21875001 34.50000001 23.71874999 39.9375l52.03125001 17.0625 29.625 9.75 9 2.90625001c8.0625 2.625-7.96875001-5.625-7.03125001-4.59375001l22.59375001 22.59375001 97.59374999 97.59374999 50.8125 50.8125c8.625 8.625 23.15625001 8.625 31.78125001 0l68.625-68.71875001c8.625-8.625 8.625-23.15625001 0-31.78124999L333.875 263.09374999c-20.53125001-20.53125001-52.3125 11.25-31.78125001 31.78125001l171.28125001 171.28125001v-31.78125001l-68.625 68.71875001h31.78125001L299.46874999 366.03124999c-13.78125001-13.78125001-28.6875-34.96875001-47.81249998-41.24999998l-90.00000002-29.53125001 15.65625001 15.75-41.0625-129.75-5.8125 21.84375001 42.9375-42.84375001-21.84375001 5.8125 129.75 40.96874999-15.65624999-15.75 30.75 93.75c9 27.375 52.40625001 15.65625001 43.3125-12z m0 0"></path><path d="M616.71875001 715.15625001l68.62499998-68.71875001c8.625-8.625 8.625-23.15625001 0-31.78125001L603.40625001 532.625c-8.625-8.625-23.15625001-8.625-31.78125001 0l-68.71875001 68.71875001c-8.625 8.625-8.625 23.15625001 2e-8 31.78124999l81.9375 81.9375c20.53125001 20.53125001 52.3125-11.25 31.78124999-31.78125001l-81.9375-81.93749998v31.78124999l68.625-68.71874999h-31.78124999l81.9375 81.9375v-31.78125001l-68.625 68.71875001c-20.4375 20.53125001 11.34375001 52.3125 31.875 31.875z m-2e-8-2e-8"></path><path d="M708.40625001 450.125c34.875 2.15625001 73.6875-0.84375001 104.06249998-19.59375001 21.1875-13.03125002 36.09375001-37.6875 49.96875001-57.65624999 23.4375-33.75 45.1875-68.90625001 65.90624999-104.34375001 5.15625001-8.71875001 3.65625001-20.0625-3.5625-27.28124999L884.28125001 200.75c-8.625-8.625-23.15625001-8.625-31.78125002 0l-93.18749999 93.1875h31.78125001l-60.93750002-60.9375v31.78125001l93.18750002-93.18750002c8.625-8.625 8.625-23.15625001 0-31.78124999L782.9375 99.40624999c-7.125-7.125-18.5625-8.625-27.28125001-3.56249998-41.15625001 24.09375001-82.125 49.3125-120.56249998 77.4375-25.59375001 18.75-44.8125 36.9375-54.5625 68.15624999-10.21875001 33-9.9375 71.15625001-2.90625001 104.71875001l5.8125-21.84375001-311.53125001 311.625-123.37499998 123.375c-49.125 49.125-28.50000001 127.6875 33.75 152.90625001 39.09375001 15.84375001 77.0625-3.75 104.34374999-30.93750002L636.6875 531.125l87.5625-87.65625001c20.53125001-20.53125001-11.25-52.3125-31.78125001-31.78124999L383.28124999 720.96875001 249.3125 854.9375c-8.8125 8.8125-18.1875 14.53125001-30.65625001 17.15625001-32.34375001 6.75-58.3125-27.375-52.12499998-57.00000002 3.9375-18.65625001 22.6875-33 35.625-45.84374999l361.87499998-361.875 43.68750002-43.6875 7.40624999-7.3125c9.1875-9.1875 6-20.0625 4.21875001-31.21875001-2.0625-12.65625001-1.59375001-26.0625-0.9375-38.81249998 1.125-21.65625001 5.625-45.1875 22.3125-60.28125001 15.46875001-14.0625 33.46875001-25.59375001 50.90624999-37.21875001 28.40625001-18.9375 57.46875001-36.84375001 86.90625001-54.09374999l-27.28125001-3.5625 40.40625001 40.40625001V139.8125l-93.18750002 93.1875c-8.625 8.625-8.625 23.15625001 0 31.78125001l60.9375 60.93749998c8.625 8.625 23.15625001 8.625 31.78125001 0l93.1875-93.18749998h-31.78125001l40.5 40.50000001-3.5625-27.28125002c-18.46875001 31.50000001-37.78125001 62.53125001-58.03125 92.8125-11.53125001 17.15625001-23.15625001 34.875-37.68749999 49.6875-19.50000001 19.96875001-60 18.28125001-85.40625001 16.78125002-28.96875001-1.6875-28.78125001 43.3125 2e-8 45.09374998z m-2e-8 0"></path></svg>