<?xml version="1.0" standalone="no"?><!DOCTYPE svg PUBLIC " -//W3C//DTD SVG 1.1//EN" "http://www.w3.org/Graphics/SVG/1.1/DTD/svg11.dtd"><svg t="1637636643032" class="icon" viewBox="0 0 1024 1024" version="1.1" xmlns="http://www.w3.org/2000/svg" p-id="2537" xmlns:xlink="http://www.w3.org/1999/xlink" width="256" height="256"><defs><style type="text/css"></style></defs><path d="M141.94860189 937.05800476c-21.3598114 0-38.67512667-17.31531524-38.67512666-38.67610094L103.27347427 125.61809618c0-21.3598114 17.31531524-38.67512667 38.67512668-38.67512665s38.67512667 17.31531524 38.67512667 38.67512664l1e-8 772.76380668C180.62372859 919.7426895 163.30841332 937.05800477 141.94860189 937.05800476z"></path><path d="M882.04944949 937.05800477c-21.3598114 0-38.67512667-17.31531524-38.67512664-38.67610095L843.37432285 125.61809617c0-21.3598114 17.31531524-38.67512667 38.67512668-38.67512664s38.67610096 17.31531524 38.67610092 38.67512666l4e-8 772.76380667C920.72555047 919.74268951 903.40926096 937.05800478 882.04944949 937.05800477z"></path></svg>