<?xml version="1.0" standalone="no"?><!DOCTYPE svg PUBLIC " -//W3C//DTD SVG 1.1//EN" "http://www.w3.org/Graphics/SVG/1.1/DTD/svg11.dtd"><svg t="1637636643032" class="icon" viewBox="0 0 1024 1024" version="1.1" xmlns="http://www.w3.org/2000/svg" p-id="2537" xmlns:xlink="http://www.w3.org/1999/xlink" width="256" height="256"><defs><style type="text/css"></style></defs><path d="M708.979214 381.065685c0 14.595558-11.798076 26.515263-26.515263 26.51526301l-341.049531 0c-14.595558 0-26.515263-11.798076-26.515263-26.51526301 0-14.595558 11.798076-26.515263 26.515263-26.515263L682.463951 354.550422c14.717187 0.12163 26.515263 11.919705 26.515263 26.515263z"></path><path d="M512.060815 578.105713c-14.595558 0-26.515263-11.798076-26.515263-26.515263L485.545552 210.540919c0-14.595558 11.798076-26.515263 26.515263-26.515263 14.595558 0 26.515263 11.798076 26.51526301 26.515263l0 341.049531c-0.12163 14.717187-11.919705 26.515263-26.51526301 26.515263z"></path><path d="M312.709823 599.147642c10.33852-10.33852 27.123411-10.33852 37.461931 0l186.093361 186.09336c10.33852 10.33852 10.33852 27.123411 0 37.461932s-27.123411 10.33852-37.461932 1e-8l-186.09336-186.09336c-10.33852-10.33852-10.33852-27.123411 0-37.46193201z"></path><path d="M711.29017701 610.21594c10.33852 10.33852 10.33852 27.123411-1e-8 37.461931L536.265115 822.702934c-10.33852 10.33852-27.123411 10.33852-37.461932 1e-8s-10.33852-27.123411 0-37.46193201L673.828246 610.21594c10.33852-10.33852 27.123411-10.33852 37.46193101 0z"></path></svg>