<?xml version="1.0" standalone="no"?><!DOCTYPE svg PUBLIC " -//W3C//DTD SVG 1.1//EN" "http://www.w3.org/Graphics/SVG/1.1/DTD/svg11.dtd"><svg t="1637636643032" class="icon" viewBox="0 0 1024 1024" version="1.1" xmlns="http://www.w3.org/2000/svg" p-id="2537" xmlns:xlink="http://www.w3.org/1999/xlink" width="256" height="256"><defs><style type="text/css"></style></defs><path d="M568.346728 380.068821l16.838768-0.682653c73.233471-3.147788 128.945521-6.902378 167.098226-11.339621 2.882312-0.341326 6.447276-0.758503 10.581117-1.32738a9.481288 9.481288 0 0 1 10.619043 8.115983l2.27551 17.180094c4.475168 37.887228 6.712752 77.898265 6.712752 120.146886a1034.446483 1034.446483 0 0 1-6.826528 120.715763 9.481288 9.481288 0 0 1-10.619043 8.267684 1369.477288 1369.477288 0 0 0-5.764623-0.758503c-53.853718-6.788602-114.382263-10.770744-181.509784-11.984349l-9.177887-0.1517a9.481288 9.481288 0 0 1-9.329588-9.481289v-229.219627a9.481288 9.481288 0 0 1 9.102037-9.481288z m-282.087291 252.960773a1033.991382 1033.991382 0 0 1-6.826528-120.867464 1015.445982 1015.445982 0 0 1 9.026187-137.592456 9.481288 9.481288 0 0 1 10.694893-8.078058l11.680947 1.592856a1594.676849 1594.676849 0 0 0 182.192437 12.2119 9.481288 9.481288 0 0 1 9.329588 9.481288v229.030001a9.481288 9.481288 0 0 1-9.329588 9.481289c-3.147788 0-5.688773 0.07585-7.736731 0.113775-66.558644 1.213605-126.632087 5.119896-180.182404 11.832648l-8.191833 1.061904a9.481288 9.481288 0 0 1-10.619043-8.267683zM502.356961 10.488201v302.680649a9.481288 9.481288 0 0 1-9.632989 9.481289h-2.35136c-64.39691-1.213605-121.929368-5.157821-172.597373-11.756798l-6.902378-0.948129a9.481288 9.481288 0 0 1-7.926357-11.643022l1.25153-5.00612c31.174476-122.687871 91.778871-217.159428 181.889036-284.43865a332.224344 332.224344 0 0 1 5.385372-3.944216 6.902378 6.902378 0 0 1 10.884519 5.574997z m56.88773-0.530952a6.712752 6.712752 0 0 1 10.619043-5.461222l7.774656 5.688773c87.227853 65.800141 146.580718 157.313536 178.096521 275.450389l3.261563 12.970402a9.481288 9.481288 0 0 1-7.926357 11.643022l-6.940303 0.910204A1540.44388 1540.44388 0 0 1 568.87768 322.688064a9.481288 9.481288 0 0 1-9.632989-9.481289V9.957249z m-252.20227 687.393405c5.764623-0.758503 10.467342-1.32738 14.070232-1.744557a1695.254356 1695.254356 0 0 1 171.649244-10.467342 9.481288 9.481288 0 0 1 9.595064 9.481288v314.058195a9.481288 9.481288 0 0 1-15.056286 7.660881 340.947129 340.947129 0 0 1-7.016153-5.233671c-88.631083-68.265276-147.908098-163.684962-177.86897-287.169262a739.616341 739.616341 0 0 1-3.413264-15.170061 9.481288 9.481288 0 0 1 8.002208-11.377546z m455.936194 11.301696c-0.948129 4.323467-1.896258 8.60901-2.920237 12.894552-29.505769 123.446374-88.100131 218.94191-175.858936 287.548513a390.249828 390.249828 0 0 1-9.86054 7.43333 9.481288 9.481288 0 0 1-15.094211-7.660881v-314.247821a9.481288 9.481288 0 0 1 9.632989-9.481288l15.170061 0.265476a1678.94654 1678.94654 0 0 1 157.579013 10.163941l13.273803 1.668707a9.481288 9.481288 0 0 1 8.078058 11.415471z m76.381259-196.49022c0-43.424301-2.275509-84.838568-6.826528-124.280728-0.644728-5.726698-1.706632-13.653055-3.109862-23.741146a9.481288 9.481288 0 0 1 7.357479-10.543192l8.722786-2.010033c62.386877-14.71496 112.258454-35.118692 149.842281-61.438749l3.90629-2.692686a9.481288 9.481288 0 0 1 14.032307 3.792516 529.05589 529.05589 0 0 1 48.316646 221.407045 529.473066 529.473066 0 0 1-39.555935 201.382564 9.481288 9.481288 0 0 1-14.032307 4.247618l-2.806461-1.896258c-39.138758-26.206281-91.47547-46.458313-157.123911-60.907796l-8.874486-1.896258a9.481288 9.481288 0 0 1-7.50918-10.429417c0.530952-4.057991 0.986054-8.115983 1.441156-12.136049 4.171767-37.811378 6.219725-77.443163 6.219725-118.857431zM698.885106 9.00912a532.089902 532.089902 0 0 1 276.474368 213.632389 9.481288 9.481288 0 0 1-2.50306 12.970403l-10.543193 7.357479c-29.960871 21.010535-70.920037 37.963079-122.763721 50.819706l-12.667002 2.958162a9.481288 9.481288 0 0 1-11.339621-7.092004l-1.592856-6.712752c-27.30611-110.931074-76.457109-202.368618-147.528847-273.781682a5.00612 5.00612 0 0 1 4.816495-8.343534c11.643022 3.223638 20.858834 5.916324 27.647437 8.191833z m131.789908 700.932685c4.057991 0.834353 8.078058 1.744557 12.136049 2.654761 55.143173 12.704926 98.567474 29.73332 130.159126 50.895555l11.339621 7.585031a9.481288 9.481288 0 0 1 2.844386 12.742852 532.203677 532.203677 0 0 1-290.62045 233.239693c-4.551018 1.517006-10.239791 3.223638-17.066319 5.157821a7.622956 7.622956 0 0 1-7.585031-12.667001c70.161534-72.664594 118.326479-165.505369 144.381059-277.991375 0.834353-3.527039 1.896258-8.305609 3.147788-14.335708a9.481288 9.481288 0 0 1 11.263771-7.281629z m-773.104252 6.447276l-3.75459 2.540985a9.481288 9.481288 0 0 1-14.032307-4.247617A529.435141 529.435141 0 0 1 0.000379 512.655157a529.05589 529.05589 0 0 1 48.961373-222.772351 9.481288 9.481288 0 0 1 14.032307-3.75459l5.802548 4.057991c36.408147 25.485703 84.535167 45.472259 144.343134 60.073443 2.996087 0.758503 7.016153 1.668707 12.136049 2.844387a9.481288 9.481288 0 0 1 7.28163 10.581118 1074.229969 1074.229969 0 0 0-9.974316 148.476975 1089.32418 1089.32418 0 0 0 7.660881 131.14518 9.481288 9.481288 0 0 1-7.471255 10.467343 648.520123 648.520123 0 0 0-7.964282 1.668706c-65.64844 14.487409-118.023077 34.73944-157.199761 60.945722zM397.076735 7.643815C324.412141 80.005007 274.426789 173.073334 247.158604 286.317842l-0.682653 2.882311a9.481288 9.481288 0 0 1-11.377546 7.092004c-2.237584-0.530952-4.513093-1.023979-6.750677-1.592856-53.626167-12.894552-95.836863-30.226347-126.556237-51.72991L89.503741 234.398307a9.481288 9.481288 0 0 1-2.50306-12.932478A532.051977 532.051977 0 0 1 366.281511 7.871366c6.447276-2.123809 15.283837-4.702719 26.433831-7.698807a4.475168 4.475168 0 0 1 4.323468 7.471256zM77.633168 771.646029l12.2119-8.153908c31.477877-21.086385 74.788402-38.076854 129.704024-50.819705l11.756798-2.540985a9.519213 9.519213 0 0 1 11.225845 7.281629c1.17568 5.612923 2.161734 10.050166 2.920237 13.349654 25.90288 112.334304 73.802348 205.099229 143.660481 277.839674l0.227551 0.265476a8.002207 8.002207 0 0 1-8.002208 13.273803 532.014052 532.014052 0 0 1-306.586939-237.790711 9.481288 9.481288 0 0 1 2.882311-12.704927z"></path></svg>