<?xml version="1.0" standalone="no"?><!DOCTYPE svg PUBLIC " -//W3C//DTD SVG 1.1//EN" "http://www.w3.org/Graphics/SVG/1.1/DTD/svg11.dtd"><svg t="1637636643032" class="icon" viewBox="0 0 1024 1024" version="1.1" xmlns="http://www.w3.org/2000/svg" p-id="2537" xmlns:xlink="http://www.w3.org/1999/xlink" width="256" height="256"><defs><style type="text/css"></style></defs><path d="M663.60797044 309.05454743a29.30295355 29.30295355 0 0 0-28.00282213-30.3530593H299.5712827a30.50307411 30.50307411 0 0 0 0 60.75612253h336.03386561a29.30295355 29.30295355 0 0 0 28.00282213-30.40306325z"></path><path d="M514.69296351 825.45659089H262.71756827C231.56442894 825.45659089 206.56190918 798.30385375 206.56190918 764.70046739V217.94536462c0-33.60338636 25.00251978-60.75612351 56.00564427-60.75612253H766.61835284c30.95311956 0 56.00564427 27.20274113 56.00564427 60.75612253v151.86530533a28.05282708 28.05282708 0 1 0 55.95563836 0V217.94536462c0-67.05675791-50.00503952-121.51224605-111.96128263-121.51224604H262.66756333c-61.80622924 0-112.01128854 54.45548815-112.01128854 121.51224604v546.75510277c0 67.05675791 50.00503952 121.46224111 112.01128854 121.46224111h252.02540018a30.45306918 30.45306918 0 0 0 0-60.70611759z"></path><path d="M299.5712827 460.91985177a30.50307411 30.50307411 0 0 0 0 60.75612352h168.0169328a29.30295355 29.30295355 0 0 0 28.05282709-30.35305928 31.05312945 31.05312945 0 0 0-8.05081128-21.35215217 27.70279151 27.70279151 0 0 0-20.00201581-9.05091207zM847.22647636 697.59370454a14.5514664 14.5514664 0 0 0 10.30103756-4.25042884l116.21171245-116.21171147a14.50146146 14.50146146 0 0 0 0-20.50206621L857.52751392 440.41778558a14.5514664 14.5514664 0 0 0-20.55207115 0l-116.21171147 116.21171244a14.50146146 14.50146146 0 0 0 0 20.50206621l25.00251977 25.00251975 20.55207115-20.55207114-14.55146641-14.50146148 95.65964033-95.65964127 95.70964622 95.65964127-95.70964622 95.65964033-14.50146146-14.50146145-20.55207115 20.50206619 25.00251975 25.00251978a14.35144663 14.35144663 0 0 0 9.85099308 3.85038833z m-270.02721344 43.60439428l95.65964032-95.65964033 14.50146146 14.50146146 20.55207115-20.55207115-25.00251976-24.75249503a14.45145653 14.45145653 0 0 0-20.5020662 0L546.59617795 730.94706619a14.60147134 14.60147134 0 0 0 0 20.55207115l116.21171245 116.21171148a14.50146146 14.50146146 0 0 0 20.5020662 0l116.21171147-116.21171148a14.50146146 14.50146146 0 0 0 0-20.5020662l-25.00251976-25.00251975-20.55207115 20.50206619 14.55146641 14.55146641-95.65964033 95.65964032z"></path><path d="M666.90830345 726.64663241L832.7250149 560.92993085l20.55207115 20.50206619-165.81671146 165.81671146z"></path></svg>