<?xml version="1.0" standalone="no"?><!DOCTYPE svg PUBLIC " -//W3C//DTD SVG 1.1//EN" "http://www.w3.org/Graphics/SVG/1.1/DTD/svg11.dtd"><svg t="1637636643032" class="icon" viewBox="0 0 1024 1024" version="1.1" xmlns="http://www.w3.org/2000/svg" p-id="2537" xmlns:xlink="http://www.w3.org/1999/xlink" width="256" height="256"><defs><style type="text/css"></style></defs><path d="M77.40385685 902.99140682l66.27919922-239.4513216L711.77101154 95.64290047c26.39449196-26.39449196 60.41981277-26.09470939 86.66441345 0l129.92848778 129.91486129c26.09470939 26.10152264 26.39449196 60.12003023 0 86.66441345L360.56892662 880.25562477l-239.75791739 66.27919922c-32.99652157 6.89499893-50.15226002-10.26073952-43.40715238-43.55023041z m569.55280208-655.73347549l129.92848778 129.76497001 86.66441345-86.65760021c22.42918625-22.28610821 20.96433963-22.14303017 0-43.25726108l-86.66441345-86.51452217c-20.53510551-22.14303017-22.44281273-22.14303017-43.26407432 0l-86.66441346 86.66441345z m-411.76497573 411.5878315l129.92167453 129.92167453L733.47799435 420.43005371 603.54950657 290.50156593 235.1916832 658.85257607zM142.95403938 881.00508118l178.90205727-48.97356949-129.92848778-129.9148613-48.97356949 178.88843079z"></path></svg>