<?xml version="1.0" standalone="no"?><!DOCTYPE svg PUBLIC " -//W3C//DTD SVG 1.1//EN" "http://www.w3.org/Graphics/SVG/1.1/DTD/svg11.dtd"><svg t="1637636643032" class="icon" viewBox="0 0 1024 1024" version="1.1" xmlns="http://www.w3.org/2000/svg" p-id="2537" xmlns:xlink="http://www.w3.org/1999/xlink" width="256" height="256"><defs><style type="text/css"></style></defs><path d="M816.960339 72.814796H212.200171a120.910749 120.910749 0 0 0-120.910749 120.962355v604.760167a120.910749 120.910749 0 0 0 120.910749 120.910749h250.439551c16.874868 0 29.879353-9.598549 29.879353-30.395404 0-18.01018-9.546944-30.034168-28.795646-30.034168H212.200171a60.481177 60.481177 0 0 1-60.481177-60.481177V193.777151a60.481177 60.481177 0 0 1 60.481177-60.481178h604.760168A60.481177 60.481177 0 0 1 877.286701 193.777151v226.494784s-0.980497 27.815149 31.3759 27.815149c29.002066 0 29.002066-27.815149 29.002067-27.815149V193.777151a120.962354 120.962354 0 0 0-120.704329-120.962355z"></path><path d="M426.928993 291.207579L329.188933 388.947639l-37.568513-37.620118a29.414907 29.414907 0 0 0-41.28408 41.28408l61.92612 62.235751a29.311697 29.311697 0 0 0 32.201583 6.141007 31.840347 31.840347 0 0 0 12.84967-7.58595l115.956659-115.801845a32.872449 32.872449 0 0 0-46.44459-46.44459z m328.569672 81.690874h-181.443532a30.240589 30.240589 0 0 0 0 60.481177h181.443532a30.240589 30.240589 0 0 0 0-60.481177z m-393.076047 181.443532A90.721766 90.721766 0 1 0 453.144383 645.06375a90.721766 90.721766 0 0 0-90.721765-90.721765z m0 120.962354a30.240589 30.240589 0 1 1 30.240588-30.240589 30.240589 30.240589 0 0 1-30.240588 30.240589zM813.502797 749.564078a14.862269 14.862269 0 0 0 10.32102-4.283223l117.608023-117.659628a14.655848 14.655848 0 0 0 0-20.64204L823.927027 489.216348a14.707454 14.707454 0 0 0-20.64204 0l-117.608023 117.608023a14.707454 14.707454 0 0 0 0 20.64204l25.080079 25.131684 20.64204-20.64204-14.707454-14.707453 96.811168-96.862773 96.862773 96.862773-96.862773 96.811167-14.707454-14.707453-20.64204 20.64204 25.080079 25.131683a14.707454 14.707454 0 0 0 10.269415 4.438039z m-273.249005 44.122361l96.811168-97.017589 14.707453 14.707454 20.64204-20.64204-24.976868-25.028474a14.655848 14.655848 0 0 0-20.64204 0l-117.659628 117.659629a14.655848 14.655848 0 0 0 0 20.64204l117.659628 117.659628a14.655848 14.655848 0 0 0 20.64204 0l117.608023-117.659628a14.604243 14.604243 0 0 0 0-20.64204l-25.080079-25.131684-20.64204 20.64204 14.707454 14.707453-96.862773 96.862773z"></path><path d="M630.975558 779.237011l167.819785-167.819786 20.64204 20.64204L651.772413 799.879051zM689.908582 573.539082h-115.853449a30.240589 30.240589 0 0 0 0 60.481177h54.804616z"></path></svg>