<?xml version="1.0" standalone="no"?><!DOCTYPE svg PUBLIC " -//W3C//DTD SVG 1.1//EN" "http://www.w3.org/Graphics/SVG/1.1/DTD/svg11.dtd"><svg t="1637636643032" class="icon" viewBox="0 0 1024 1024" version="1.1" xmlns="http://www.w3.org/2000/svg" p-id="2537" xmlns:xlink="http://www.w3.org/1999/xlink" width="256" height="256"><defs><style type="text/css"></style></defs><path d="M816.76190478 87.51020408H207.23809522A119.81496599 119.81496599 0 0 0 87.51020408 207.23809522v609.52380956A119.81496599 119.81496599 0 0 0 207.23809522 936.48979592h428.84353743a32.65306122 32.65306122 0 0 0 0-65.30612245H207.23809522c-29.99727892 0-54.4217687-24.42448979-54.42176869-54.42176872V207.23809522c0-29.99727892 24.42448979-54.4217687 54.42176872-54.42176869h609.5238095c29.99727892 0 54.4217687 24.42448979 54.42176872 54.42176872v609.5238095c0 29.99727892-24.42448979 54.4217687-54.42176869 54.42176872h-9.75238098a32.65306122 32.65306122 0 0 0 0 65.30612245H816.76190478A119.81496599 119.81496599 0 0 0 936.48979592 816.76190478V207.23809522A119.81496599 119.81496599 0 0 0 816.76190478 87.51020408z"></path><path d="M283.73333333 326.9659864h331.53741496a32.65306122 32.65306122 0 0 0 0-65.30612246H283.73333333a32.65306122 32.65306122 0 0 0 0 65.30612246zM697.3387755 479.34693878H283.12380952a32.65306122 32.65306122 0 0 0 0 65.30612244h414.21496598a32.65306122 32.65306122 0 0 0 2e-8-65.30612244zM283.73333333 697.0340136a32.65306122 32.65306122 0 0 0 0 65.30612246h164.09251701a32.65306122 32.65306122 0 0 0 0-65.30612246H283.73333333zM744.22857144 261.65986394h-3.35238096c-18.02448978 0-30.95510204 14.62857144-30.95510205 32.65306123s16.32653061 32.65306122 34.35102041 32.65306123a32.65306122 32.65306122 0 1 0-0.04353742-65.30612246z"></path></svg>