<?xml version="1.0" standalone="no"?><!DOCTYPE svg PUBLIC " -//W3C//DTD SVG 1.1//EN" "http://www.w3.org/Graphics/SVG/1.1/DTD/svg11.dtd"><svg t="1637636643032" class="icon" viewBox="0 0 1024 1024" version="1.1" xmlns="http://www.w3.org/2000/svg" p-id="2537" xmlns:xlink="http://www.w3.org/1999/xlink" width="256" height="256"><defs><style type="text/css"></style></defs><path d="M510.16583679 957.68068119c-245.48033781 0-444.4818265-199.04159166-444.48182649-444.55358889S264.68549899 68.58827798 510.16583679 68.58827798c245.48244813 0 444.48393684 199.0268171 444.48393684 444.53881432S755.64828495 957.68068119 510.16583679 957.68068119zM510.16583679 124.15351985c-214.79766928 0-388.9208064 174.14846441-388.92080639 388.97357245S295.3681664 902.10277621 510.16583679 902.10277621s388.9208064-174.15057475 388.92080643-388.97568391S724.9635061 124.15351985 510.16583679 124.15351985zM676.84678457 540.9160448L537.9484572 540.9160448l0 138.91943513c0 15.33605732-12.43812063 27.77839971-27.78051007 27.77839972-15.34238943 0-27.77839971-12.44234241-27.77839973-27.77839975l0-138.9194351-138.90254915 0c-15.34238943 0-27.78051004-12.44023095-27.78051003-27.7889525 0-15.33816764 12.44023095-27.77839971 27.78051003-27.77839972l138.90254915 0 0-138.92576723c0-15.33605732 12.43812063-27.7720676 27.77839974-27.77206762 15.34449974 0 27.78051004 12.43389885 27.78051006 27.77206762l0 138.92576723 138.89832847 0c15.34449974 0 27.78051004 12.44023095 27.78051005 27.77839972C704.6272946 528.47581384 692.1912843 540.9160448 676.84678457 540.9160448z"></path></svg>