<?xml version="1.0" standalone="no"?><!DOCTYPE svg PUBLIC " -//W3C//DTD SVG 1.1//EN" "http://www.w3.org/Graphics/SVG/1.1/DTD/svg11.dtd"><svg t="1637636643032" class="icon" viewBox="0 0 1024 1024" version="1.1" xmlns="http://www.w3.org/2000/svg" p-id="2537" xmlns:xlink="http://www.w3.org/1999/xlink" width="256" height="256"><defs><style type="text/css"></style></defs><path d="M512.07890518 576.73447529h269.54012866a126.24830383 126.24830383 0 1 0-17.04352101-63.1241519h-252.49660765V151.90893293h274.59006081a116.77968104 116.77968104 0 1 0 113.62347345-143.29182483 116.14843952 116.14843952 0 0 0-103.52360915 63.12415191H480.51682923a36.61200811 36.61200811 0 0 0-31.56207596 40.39945722v401.46960616H239.38256893a116.77968104 116.77968104 0 0 0-115.517198-111.09850737 118.67340559 118.67340559 0 0 0 0 236.71556966 116.14843952 116.14843952 0 0 0 102.8923676-63.1241519h222.19701474v338.34545422a36.61200811 36.61200811 0 0 0 31.56207596 40.39945724h299.20848005a126.24830383 126.24830383 0 0 0 111.09850737 63.12415191 118.67340559 118.67340559 0 1 0 0-236.71556967 126.24830383 126.24830383 0 0 0-126.24830382 93.42374482h-252.49660765z m378.74491147-110.46726584a42.92442329 42.92442329 0 0 1 36.6120081 19.56848709 37.24324963 37.24324963 0 0 1 0 39.13697419 42.92442329 42.92442329 0 0 1-36.6120081 19.56848708 39.7682157 39.7682157 0 1 1 0-78.90518989z m9.46862279-378.74491146a39.7682157 39.7682157 0 1 1-39.1369742 39.13697417 39.13697419 39.13697419 0 0 1 39.1369742-39.13697417zM157.32117145 540.7537087a38.50573266 38.50573266 0 0 1-33.45580052 19.56848709 39.13697419 39.13697419 0 0 1 0-78.90518989 38.50573266 38.50573266 0 0 1 33.45580052 19.5684871 39.7682157 39.7682157 0 0 1 0 39.7682157z m733.5026452 319.40820867a39.7682157 39.7682157 0 1 1-42.29318178 39.13697418 41.03069875 41.03069875 0 0 1 42.29318178-39.13697418z"></path></svg>