<?xml version="1.0" standalone="no"?><!DOCTYPE svg PUBLIC " -//W3C//DTD SVG 1.1//EN" "http://www.w3.org/Graphics/SVG/1.1/DTD/svg11.dtd"><svg t="1637636643032" class="icon" viewBox="0 0 1024 1024" version="1.1" xmlns="http://www.w3.org/2000/svg" p-id="2537" xmlns:xlink="http://www.w3.org/1999/xlink" width="256" height="256"><defs><style type="text/css"></style></defs><path d="M96.71679687 512V96.71679687h830.56640625v830.56640625H96.71679687z m700.79040528 0V226.49279785H226.49279785v571.0144043h571.0144043z m-346.31504517 200.40529174c-55.33648682-18.0336731-101.09031373-58.03582764-127.32063904-111.31147155C308.01808167 568.88860779 306.95391846 563.28228454 306.95391846 512c0-51.33938599 1.04859008-56.85746155 17.01103821-89.28069763 21.31441041-43.29846497 55.68947754-77.55413818 99.4291809-99.08657226C455.04390869 308.05441895 460.8786377 306.95391846 512 306.95391846c51.1213623 0 56.95609131 1.10050049 88.60586243 16.67881164 43.73970337 21.53243408 78.11477051 55.7881073 99.4291809 99.08657227 15.96244812 32.42323609 17.01103821 37.93612061 17.01103821 89.28069763 0 51.33938599-1.04859008 56.85746155-17.01103821 89.28069763-21.25730896 43.17388001-55.66871338 77.54375611-99.00870666 98.87893066-28.96600342 14.25978698-39.8152771 16.66842956-80.71029052 17.92466126-29.8069519 0.91362305-55.3209137-1.18355713-69.12388916-5.6789978z"></path><path d="M96.71679687 512V96.71679687h830.56640625v830.56640625H96.71679687z m700.79040528 0V226.49279785H226.49279785v571.0144043h571.0144043z m-348.65101319 197.98626709c-16.17008972-5.3415802-37.4429718-14.68026123-47.2696106-20.75377808-28.14062805-17.38998414-65.52649841-60.60020142-80.49226684-93.03381958C309.09262695 570.19155884 307.36920166 559.73161316 307.21347045 512c-0.16611328-51.09021606 0.88247681-56.66539307 16.65285646-88.98480835 21.4182312-43.89024353 66.63738098-87.01221313 108.78862609-103.73774414C456.55969238 309.79341736 472.7557373 307.35881958 512 307.35881958s55.44030762 2.43459778 79.345047 11.91862793c42.15124512 16.72553101 87.3703949 59.85269166 108.7886261 103.73774415 15.71846924 32.2052124 16.8293518 38.07108764 16.8293518 88.98480834s-1.11088257 56.77959594-16.82935181 88.98480835c-21.62068177 44.30552673-66.77753906 87.20947266-108.78862609 103.3691803-41.79825439 16.07145996-103.48338318 18.50605774-142.48885804 5.63227844z"></path><path d="M96.71679687 512V96.71679687h830.56640625v830.56640625H96.71679687z m700.79040528 0V226.49279785H226.49279785v571.0144043h571.0144043z m-350.39520264 197.06226196c-59.85269166-19.20684814-113.59552917-73.57780152-132.45976868-134.01708068-50.1091095-160.56925049 99.82369996-310.50205993 260.39295045-260.39295045 61.35809326 19.15493775 115.14765015 72.94449463 134.29739684 134.30258789 50.27003174 161.06759033-101.55750732 311.67004395-262.23057861 260.10744324z"></path><path d="M96.71679687 512V96.71679687h830.56640625v830.56640625H96.71679687z m700.79040528 0V226.49279785H226.49279785v571.0144043h571.0144043z m-334.82208252 200.32742615c-61.35809326-15.20455628-107.40261841-52.69424743-136.15059815-110.84946899-18.51643982-37.468927-19.58060303-42.32254944-19.58060302-89.20802308 0-44.90249634 1.55212097-52.86036072 16.42964172-84.26096191 30.97493591-65.38634033 83.51345215-106.0789032 153.634021-118.99940186 27.86031189-5.1339386 42.09933472-5.1339386 69.96483764 0 70.12056885 12.92049866 122.65908509 53.61306152 153.634021 118.99940186 14.87752075 31.40579224 16.42964173 39.35846558 16.42964172 84.26096191 0 46.88547363-1.06416321 51.73909607-19.58060302 89.20802308-44.31590882 89.65445251-139.30675049 134.50503845-234.78035889 110.84946899z"></path><path d="M96.71679687 512V96.71679687h830.56640625v830.56640625H96.71679687z m700.79040528 0V226.49279785H226.49279785v571.0144043h571.0144043z m-326.80192566 202.26368408c-59.19342956-12.35467529-116.12875671-56.06323242-142.06319274-109.0741333-62.04331055-126.80153503 11.87709961-271.73537292 151.09560241-296.25265503 85.05519104-14.98653259 177.62181702 32.13253785 215.51121826 109.68667603 65.6666565 134.41679078-20.55651855 286.69595032-168.70880127 297.97608032-17.99214478 1.36524353-43.11677856 0.3114624-55.83482666-2.33596802z"></path><path d="M96.71679687 512V96.71679687h830.56640625v830.56640625H96.71679687z m700.79040528 0V226.49279785H226.49279785v571.0144043h571.0144043z m-327.03552246 200.52987671c-40.3862915-8.81957702-73.30267639-26.79614868-102.78259278-56.12033387-80.34691772-79.93163452-80.46112061-207.93749085-0.24397888-288.56991576 117.58224792-118.19998169 316.71573486-54.02834473 346.77704773 111.75270996 19.46640015 107.34032592-56.95609131 213.86046753-168.13778686 234.37026671-36.35285339 6.70163269-38.58500061 6.66010437-75.61268921-1.427536z"></path><path d="M96.71679687 512V96.71679687h830.56640625v830.56640625H96.71679687z m700.79040528 0V226.49279785H226.49279785v571.0144043h571.0144043z m-315.75020142 201.98336792c-62.68699951-8.35757447-127.69958496-57.35061035-154.8798706-116.70496216-66.89693298-146.1277771 54.60974121-308.89283753 214.41590881-287.20467224 41.09746399 5.575177 89.07305603 30.67904664 118.26227417 61.88757934 132.24174499 141.37797546 14.60758666 367.66579284-177.79312134 342.02205505z"></path></svg>