<?xml version="1.0" standalone="no"?><!DOCTYPE svg PUBLIC " -//W3C//DTD SVG 1.1//EN" "http://www.w3.org/Graphics/SVG/1.1/DTD/svg11.dtd"><svg t="1637636643032" class="icon" viewBox="0 0 1024 1024" version="1.1" xmlns="http://www.w3.org/2000/svg" p-id="2537" xmlns:xlink="http://www.w3.org/1999/xlink" width="256" height="256"><defs><style type="text/css"></style></defs><path d="M383.351 129.063V93.71h-17.382c-144.001 0-260.736 116.737-260.736 260.737v17.381h35.355c8.57-130.147 112.618-234.196 242.763-242.765z m278.116 763.651v35.353h17.384c144.001 0 260.736-116.737 260.736-260.736v-17.382H904.23c-8.57 130.146-112.618 234.197-242.763 242.765zM140.588 649.948h-35.355v17.382c0 143.999 116.735 260.736 260.736 260.736h17.382v-35.353c-130.145-8.568-234.193-112.618-242.763-242.765zM678.851 93.71h-17.384v35.353C791.612 137.631 895.66 241.68 904.23 371.829h35.357v-17.381c0-144.001-116.735-260.738-260.736-260.738z m243.354 399.795h-799.59c-9.6 0-17.382 7.782-17.382 17.382s7.782 17.384 17.382 17.384h799.59c9.599 0 17.382-7.784 17.382-17.384s-7.784-17.382-17.382-17.382z"></path></svg>