<?xml version="1.0" standalone="no"?><!DOCTYPE svg PUBLIC " -//W3C//DTD SVG 1.1//EN" "http://www.w3.org/Graphics/SVG/1.1/DTD/svg11.dtd"><svg t="1637636643032" class="icon" viewBox="0 0 1024 1024" version="1.1" xmlns="http://www.w3.org/2000/svg" p-id="2537" xmlns:xlink="http://www.w3.org/1999/xlink" width="256" height="256"><defs><style type="text/css"></style></defs><path d="M892.5554157 525.82858904l-348.78744652-351.07877925c-7.72839348-7.76722963-17.825792-11.49549985-27.88435436-11.41782755-1.35926518-0.11650845-2.52434963-0.77672297-3.88361482-0.77672297-5.67007763 0-10.95179378 1.32042903-15.8063123 3.49525334-4.89335467 1.86413511-9.55369245 4.69917392-13.51497955 8.66046103l-314.7281446 314.18443852c-15.18493392 15.14609778-15.22377008 39.72937955-0.03883614 54.91431348 7.57304889 7.61188503 17.51510282 11.41782755 27.49599289 11.41782756 9.94205392 0 19.8452717-3.80594252 27.45715673-11.34015526L473.16385185 293.97678461V978.11437038c0 21.47638992 17.39859437 38.83614815 38.83614815 38.83614816s38.83614815-17.35975822 38.83614815-38.83614816V292.07381334l286.64960948 288.5137446c7.57304889 7.61188503 17.59277511 11.4566637 27.53482904 11.4566637s19.80643555-3.76710637 27.37948444-11.3013191c15.26260622-15.10726163 15.30144237-39.72937955 0.15534459-54.9143135zM939.19762963 84.88296298H84.80237037c-21.43755378 0-38.83614815-17.39859437-38.83614815-38.83614815s17.39859437-38.83614815 38.83614815-38.83614815h854.39525926c21.47638992 0 38.83614815 17.39859437 38.83614815 38.83614815s-17.35975822 38.83614815-38.83614815 38.83614815z"></path></svg>