<?xml version="1.0" standalone="no"?><!DOCTYPE svg PUBLIC " -//W3C//DTD SVG 1.1//EN" "http://www.w3.org/Graphics/SVG/1.1/DTD/svg11.dtd"><svg t="1637636643032" class="icon" viewBox="0 0 1024 1024" version="1.1" xmlns="http://www.w3.org/2000/svg" p-id="2537" xmlns:xlink="http://www.w3.org/1999/xlink" width="256" height="256"><defs><style type="text/css"></style></defs><path d="M899.90019508 931.35156223h-775.80039016A31.45136715 31.45136715 0 0 1 92.64843777 899.90019508v-775.80039016a31.45136715 31.45136715 0 0 1 62.9027343 0V868.44882793h744.34902301a31.45136715 31.45136715 0 0 1 0 62.9027343zM847.48124919 826.51367143h-62.90273427a41.93515653 41.93515653 0 0 1-41.93515555-41.93515651V323.29179715a41.93515653 41.93515653 0 0 1 41.93515555-41.93515652h62.90273427a41.93515653 41.93515653 0 0 1 41.93515653 41.93515652v461.28671777a41.93515653 41.93515653 0 0 1-41.93515653 41.93515651z m-251.61093714 0h-62.90273429a41.93515653 41.93515653 0 0 1-41.93515552-41.93515651V407.1621092a41.93515653 41.93515653 0 0 1 41.93515552-41.93515553h62.90273429a41.93515653 41.93515653 0 0 1 41.93515652 41.93515553v377.41640572a41.93515653 41.93515653 0 0 1-41.93515652 41.93515651z m-251.61093715 0h-62.90273427a41.93515653 41.93515653 0 0 1-41.93515555-41.93515651V239.42148508a41.93515653 41.93515653 0 0 1 41.93515555-41.93515651h62.90273427a41.93515653 41.93515653 0 0 1 41.93515653 41.93515651v545.15702984a41.93515653 41.93515653 0 0 1-41.93515653 41.93515651z"></path></svg>