<?xml version="1.0" standalone="no"?><!DOCTYPE svg PUBLIC " -//W3C//DTD SVG 1.1//EN" "http://www.w3.org/Graphics/SVG/1.1/DTD/svg11.dtd"><svg t="1637636643032" class="icon" viewBox="0 0 1024 1024" version="1.1" xmlns="http://www.w3.org/2000/svg" p-id="2537" xmlns:xlink="http://www.w3.org/1999/xlink" width="256" height="256"><defs><style type="text/css"></style></defs><path d="M512 266.23c-23.69 0-42.91-19.2-42.91-42.89V106.89C469.09 83.2 488.31 64 512 64c23.69 0 42.91 19.2 42.91 42.89v116.45c0 23.69-19.22 42.89-42.91 42.89z m-122.87 32.93c20.53-11.85 27.55-38.07 15.69-58.6L346.59 139.7c-11.87-20.46-38.07-27.6-58.6-15.69-20.53 11.85-27.55 38.07-15.68 58.6l58.23 100.86c7.96 13.75 22.34 21.46 37.19 21.46 7.25 0 14.65-1.86 21.4-5.77z m-89.97 89.97c11.87-20.53 4.84-46.75-15.68-58.6L182.61 272.3c-20.57-11.89-46.73-4.79-58.6 15.68-11.87 20.53-4.84 46.75 15.69 58.6l100.86 58.23a42.658 42.658 0 0 0 21.41 5.77c14.85 0 29.23-7.7 37.19-21.45zM266.25 512c0-23.69-19.22-42.89-42.91-42.89H106.89c-23.69 0-42.91 19.2-42.91 42.89s19.22 42.89 42.91 42.89h116.45c23.69 0 42.91-19.2 42.91-42.89z m-83.64 239.7l100.86-58.23c20.53-11.85 27.55-38.07 15.68-58.6-11.87-20.46-38.03-27.6-58.6-15.68L139.7 677.41c-20.53 11.85-27.55 38.07-15.69 58.6 7.96 13.75 22.34 21.46 37.19 21.46 7.27 0 14.67-1.86 21.41-5.77z m163.98 132.6l58.23-100.86c11.87-20.53 4.84-46.75-15.69-58.6-20.53-11.92-46.78-4.82-58.6 15.68L272.3 841.39c-11.87 20.53-4.84 46.75 15.68 58.6a42.658 42.658 0 0 0 21.41 5.77c14.86-0.01 29.24-7.71 37.2-21.46z m208.32 32.81V800.66c0-23.69-19.22-42.89-42.91-42.89-23.69 0-42.91 19.2-42.91 42.89v116.45c0 23.69 19.22 42.89 42.91 42.89 23.69 0 42.91-19.2 42.91-42.89z m181.1-17.13c20.53-11.85 27.55-38.07 15.68-58.6l-58.23-100.86c-11.87-20.5-38.03-27.6-58.6-15.68-20.53 11.85-27.55 38.07-15.68 58.6l58.23 100.86c7.96 13.75 22.34 21.46 37.19 21.46 7.26-0.01 14.66-1.87 21.41-5.78z m163.97-163.97c11.87-20.53 4.84-46.75-15.68-58.6l-100.86-58.23c-20.57-11.91-46.73-4.77-58.6 15.68-11.87 20.53-4.84 46.75 15.68 58.6l100.86 58.23a42.658 42.658 0 0 0 21.41 5.77c14.85 0.01 29.23-7.69 37.19-21.45zM960.02 512c0-23.69-19.22-42.89-42.91-42.89H800.66c-23.69 0-42.91 19.2-42.91 42.89s19.22 42.89 42.91 42.89h116.45c23.69 0 42.91-19.2 42.91-42.89zM783.44 404.81l100.86-58.23c20.53-11.85 27.55-38.07 15.68-58.6-11.87-20.48-38.07-27.58-58.6-15.68l-100.86 58.23c-20.53 11.85-27.55 38.07-15.68 58.6 7.96 13.75 22.34 21.46 37.19 21.46 7.26-0.01 14.66-1.87 21.41-5.78z m-89.97-121.34l58.23-100.86c11.87-20.53 4.84-46.75-15.68-58.6-20.53-11.92-46.73-4.77-58.6 15.69l-58.23 100.86c-11.87 20.53-4.84 46.75 15.68 58.6a42.658 42.658 0 0 0 21.41 5.77c14.85 0 29.23-7.7 37.19-21.46z"></path></svg>