<?xml version="1.0" standalone="no"?><!DOCTYPE svg PUBLIC " -//W3C//DTD SVG 1.1//EN" "http://www.w3.org/Graphics/SVG/1.1/DTD/svg11.dtd"><svg t="1637636643032" class="icon" viewBox="0 0 1024 1024" version="1.1" xmlns="http://www.w3.org/2000/svg" p-id="2537" xmlns:xlink="http://www.w3.org/1999/xlink" width="256" height="256"><defs><style type="text/css"></style></defs><path d="M163.45884445 720.31857779a23.30168889 23.30168889 0 0 1-23.30168889-23.30168889V67.8712889a23.30168889 23.30168889 0 0 1 46.60337778 0v629.1456a23.30168889 23.30168889 0 0 1-23.30168889 23.30168889z"></path><path d="M862.50951112 219.33226668H93.55377779a23.30168889 23.30168889 0 0 1 0-46.60337778h768.95573333a23.30168889 23.30168889 0 0 1 0 46.60337778zM862.50951112 988.28800001a23.30168889 23.30168889 0 0 1-23.30168889-23.30168889V335.84071112a23.30168889 23.30168889 0 0 1 46.60337778 0v629.1456a23.30168889 23.30168889 0 0 1-23.30168889 23.30168889z"></path><path d="M932.41457779 860.12871112H163.45884445a23.30168889 23.30168889 0 0 1 0-46.60337778h768.95573334a23.30168889 23.30168889 0 0 1 0 46.60337778zM408.12657779 347.49155556a34.95253333 34.95253333 0 1 1-34.95253334 34.95253334 34.95253333 34.95253333 0 0 1 34.95253334-34.95253334m0-34.95253333a69.90506667 69.90506667 0 1 0 69.90506666 69.90506667 69.90506667 69.90506667 0 0 0-69.90506666-69.90506667zM740.17564445 720.31857779h-431.08124444a17.47626667 17.47626667 0 0 1-17.47626667-20.85501156c2.79620267-13.98101333 29.12711111-137.01393067 94.48834845-153.32511289 39.03032889-9.78670933 79.57526755 25.86487467 103.34299022 52.07927467C511.00353423 544.62384356 560.51962312 440.69831112 623.66720001 440.69831112c106.02268445 0 131.42152533 233.832448 133.98471111 260.51288178A17.47626667 17.47626667 0 0 1 740.17564445 720.31857779z m-409.06114844-34.95253333h389.48772978c-11.65084445-88.19689245-44.62273422-209.7152-96.93502578-209.7152-39.49636267 0-89.01245155 95.18739911-111.61508978 163.11182222a17.47626667 17.47626667 0 0 1-30.75822934 4.66033778c-16.777216-23.30168889-60.35137422-69.90506667-86.44926577-63.1475769-28.42806045 6.87399822-51.96276622 61.63296711-63.73011911 105.0906169z"></path></svg>