<?xml version="1.0" standalone="no"?><!DOCTYPE svg PUBLIC " -//W3C//DTD SVG 1.1//EN" "http://www.w3.org/Graphics/SVG/1.1/DTD/svg11.dtd"><svg t="1637636643032" class="icon" viewBox="0 0 1024 1024" version="1.1" xmlns="http://www.w3.org/2000/svg" p-id="2537" xmlns:xlink="http://www.w3.org/1999/xlink" width="256" height="256"><defs><style type="text/css"></style></defs><path d="M139.58333333 737v16.0875C139.58333333 743.075 132.94583333 737 127.09583333 737H139.58333333z m0 0V287h675v87.75h56.25V270.9125C870.83333333 248.75 851.25833333 230.75 827.07083333 230.75H127.09583333C102.90833333 230.75 83.33333333 248.75 83.33333333 270.9125v482.175c0 22.1625 19.575 40.1625 43.7625 40.1625h630v-56.25H139.58333333z m0-450H127.09583333C132.94583333 287 139.58333333 280.925 139.58333333 270.9125V287z m675-16.0875c0 10.0125 6.6375 16.0875 12.4875 16.0875H814.58333333v-16.0875z m0 0c0 10.0125 6.6375 16.0875 12.4875 16.0875H814.58333333v-16.0875z m0 103.8375h56.25V270.9125C870.83333333 248.75 851.25833333 230.75 827.07083333 230.75H127.09583333C102.90833333 230.75 83.33333333 248.75 83.33333333 270.9125v482.175c0 22.1625 19.575 40.1625 43.7625 40.1625h630v-56.25H139.58333333V287h675v87.75zM139.58333333 287H127.09583333C132.94583333 287 139.58333333 280.925 139.58333333 270.9125V287z m0 450v16.0875C139.58333333 743.075 132.94583333 737 127.09583333 737H139.58333333z"></path><path d="M625.59930556 465.875a168.75 168.75 0 0 0 237.26249999 235.96875001L625.59930556 465.875z m41.11874999-38.475l234.39375001 233.10000001a168.75 168.75 0 0 0-234.33750001-233.04375002zM153.71805555 737l299.8125-299.8125 85.78125001 85.725A225.05625001 225.05625001 0 0 1 816.00555555 350.3375V287H141.00555555v450h12.7125z m79.53749999 0h377.66250001A224.60625001 224.60625001 0 0 1 537.00555555 600.14375001L453.53055555 516.725 233.25555554 737zM759.75555555 793.25H112.88055555a28.125 28.125 0 0 1-28.125-28.125v-506.25A28.125 28.125 0 0 1 112.88055555 230.75h731.25a28.125 28.125 0 0 1 28.12499999 28.125v114.46875001A225 225 0 0 1 759.75555555 793.25zM268.86180555 455.75a45.5625 45.5625 0 0 1-46.01249999-45c0-24.8625 20.5875-45 46.0125-45a45.5625 45.5625 0 0 1 46.0125 45 45.5625 45.5625 0 0 1-46.0125 45z"></path></svg>