<?xml version="1.0" standalone="no"?><!DOCTYPE svg PUBLIC " -//W3C//DTD SVG 1.1//EN" "http://www.w3.org/Graphics/SVG/1.1/DTD/svg11.dtd"><svg t="1637636643032" class="icon" viewBox="0 0 1024 1024" version="1.1" xmlns="http://www.w3.org/2000/svg" p-id="2537" xmlns:xlink="http://www.w3.org/1999/xlink" width="256" height="256"><defs><style type="text/css"></style></defs><path d="M831.7 168.4c13.3 0 24.1 10.8 24.1 24.1v638.4c0 13.3-10.8 24.1-24.1 24.1H192.8c-13.3 0-24.1-10.8-24.1-24.1V192.5c0-13.3 10.8-24.1 24.1-24.1h638.9m0-40H192.8c-35.4 0-64.1 28.7-64.1 64.1v638.4c0 35.4 28.7 64.1 64.1 64.1h638.9c35.4 0 64.1-28.7 64.1-64.1V192.5c-0.1-35.4-28.8-64.1-64.1-64.1z"></path><path d="M954 98.3L98.4 953.9c-7.8 7.8-20.5 7.8-28.3 0-7.8-7.8-7.8-20.5 0-28.3L925.7 70c7.8-7.8 20.5-7.8 28.3 0 7.8 7.8 7.8 20.4 0 28.3z"></path><path d="M98.4 70.1L954 925.7c7.8 7.8 7.8 20.5 0 28.3-7.8 7.8-20.5 7.8-28.3 0L70.1 98.4c-7.8-7.8-7.8-20.5 0-28.3 7.8-7.8 20.4-7.8 28.3 0z"></path><path d="M512.6 298.3c29.1 0 57.3 5.7 83.9 16.9 25.7 10.9 48.7 26.4 68.5 46.2 19.8 19.8 35.4 42.9 46.2 68.5 11.2 26.6 16.9 54.8 16.9 83.9s-5.7 57.3-16.9 83.9c-10.9 25.7-26.4 48.7-46.2 68.5-19.8 19.8-42.9 35.4-68.5 46.2-26.6 11.2-54.8 16.9-83.9 16.9s-57.3-5.7-83.9-16.9C403 701.5 380 686 360.2 666.2c-19.8-19.8-35.4-42.9-46.2-68.5-11.3-26.4-17-54.7-17-83.8s5.7-57.3 16.9-83.9c10.9-25.7 26.4-48.7 46.2-68.5 19.8-19.8 42.9-35.4 68.5-46.2 26.6-11.3 54.9-17 84-17m0-40C371.4 258.3 257 372.8 257 513.9s114.4 255.6 255.6 255.6c141.1 0 255.6-114.4 255.6-255.6S653.7 258.3 512.6 258.3z"></path></svg>