<?xml version="1.0" standalone="no"?><!DOCTYPE svg PUBLIC " -//W3C//DTD SVG 1.1//EN" "http://www.w3.org/Graphics/SVG/1.1/DTD/svg11.dtd"><svg t="1637636643032" class="icon" viewBox="0 0 1024 1024" version="1.1" xmlns="http://www.w3.org/2000/svg" p-id="2537" xmlns:xlink="http://www.w3.org/1999/xlink" width="256" height="256"><defs><style type="text/css"></style></defs><path d="M960.55 538.483h-64.3v-270h-323.1v-55.8h163.6v-100h-449v100h165.4v55.8h-325v270h-64.7v100h64.7v269.9h768.1v-269.9h64.3v-100zM357.854 669.387c-44.649 0-80.904-36.255-80.904-80.904s36.255-80.904 80.904-80.904 80.904 36.255 80.904 80.904-36.256 80.904-80.904 80.904z m309.392 0c-44.649 0-80.904-36.255-80.904-80.904s36.255-80.904 80.904-80.904c44.649 0 80.904 36.255 80.904 80.904s-36.255 80.904-80.904 80.904z"></path></svg>