<?xml version="1.0" standalone="no"?><!DOCTYPE svg PUBLIC " -//W3C//DTD SVG 1.1//EN" "http://www.w3.org/Graphics/SVG/1.1/DTD/svg11.dtd"><svg t="1637636643032" class="icon" viewBox="0 0 1024 1024" version="1.1" xmlns="http://www.w3.org/2000/svg" p-id="2537" xmlns:xlink="http://www.w3.org/1999/xlink" width="256" height="256"><defs><style type="text/css"></style></defs><path d="M123.07080078 68.22441406a46.90986328 46.90986328 0 0 1 46.57324219 0l483.46083984 403.40390625a46.57324219 46.57324219 0 0 1 0 80.69501953l-483.46171875 403.40390625a46.53457031 46.53457031 0 0 1-69.8203125-40.34794921V108.57236328c0-16.64912109 8.84882813-32.02294922 23.24794922-40.34794922zM733.23828125 81.08632812v861.74121094c0 10.2375 8.36191406 18.59941406 18.59853516 18.59941406h153.70488281a18.63632812 18.63632812 0 0 0 18.63632812-18.59941406V81.08632812A18.67412109 18.67412109 0 0 0 905.54169922 62.45H751.8359375a18.63632812 18.63632812 0 0 0-18.59853516 18.63632813z"></path></svg>