<?xml version="1.0" standalone="no"?><!DOCTYPE svg PUBLIC " -//W3C//DTD SVG 1.1//EN" "http://www.w3.org/Graphics/SVG/1.1/DTD/svg11.dtd"><svg t="1637636643032" class="icon" viewBox="0 0 1024 1024" version="1.1" xmlns="http://www.w3.org/2000/svg" p-id="2537" xmlns:xlink="http://www.w3.org/1999/xlink" width="256" height="256"><defs><style type="text/css"></style></defs><path d="M868.57142844 32H361.14285687A123.42857156 123.42857156 0 0 0 237.71428531 155.42857156v54.85714313h109.71428625v-54.85714313a13.71428531 13.71428531 0 0 1 13.71428531-13.71428625h507.42857157a13.71428531 13.71428531 0 0 1 13.71428625 13.71428625v507.42857157a13.71428531 13.71428531 0 0 1-13.71428625 13.71428531h-54.85714313V786.28571469h54.85714313A123.42857156 123.42857156 0 0 0 992 662.85714313V155.42857156A123.42857156 123.42857156 0 0 0 868.57142844 32z"></path><path d="M662.85714313 992H155.42857156A123.42857156 123.42857156 0 0 1 32 868.57142844V361.14285687A123.42857156 123.42857156 0 0 1 155.42857156 237.71428531h507.42857157A123.42857156 123.42857156 0 0 1 786.28571469 361.14285687v507.42857157A123.42857156 123.42857156 0 0 1 662.85714313 992zM155.42857156 347.42857156a13.71428531 13.71428531 0 0 0-13.71428625 13.71428531v507.42857157a13.71428531 13.71428531 0 0 0 13.71428625 13.71428625h507.42857157a13.71428531 13.71428531 0 0 0 13.71428531-13.71428625V361.14285687a13.71428531 13.71428531 0 0 0-13.71428531-13.71428531z"></path></svg>