<?xml version="1.0" standalone="no"?><!DOCTYPE svg PUBLIC " -//W3C//DTD SVG 1.1//EN" "http://www.w3.org/Graphics/SVG/1.1/DTD/svg11.dtd"><svg t="1637636643032" class="icon" viewBox="0 0 1024 1024" version="1.1" xmlns="http://www.w3.org/2000/svg" p-id="2537" xmlns:xlink="http://www.w3.org/1999/xlink" width="256" height="256"><defs><style type="text/css"></style></defs><path d="M928.1015873 95.8984127H749.74137566v59.48952381H274.25862434V95.8984127H95.8984127v178.36021164h59.48952381v475.59111111H95.8984127V928.1015873h178.36021164v-59.48952381h475.59111111V928.1015873h178.36021164V749.74137566h-59.48952381V274.25862434H928.1015873V95.8984127zM214.76910053 214.76910053h-59.48952381v-59.48952381h59.48952381v59.48952381z m-59.38116402 653.84296296v-59.48952381h59.48952381v59.48952381h-59.48952381z m653.84296296 0v-59.48952381h59.48952381v59.48952381h-59.48952381z m0-118.87068783h-59.48952381v59.48952381H274.25862434v-59.48952381h-59.48952381V274.25862434h59.48952381v-59.48952381h475.59111111v59.48952381h59.48952381v475.48275132h-0.10835979z m59.38116402-534.97227513h-59.48952381v-59.48952381h59.48952381v59.48952381z"></path></svg>