<?xml version="1.0" standalone="no"?><!DOCTYPE svg PUBLIC " -//W3C//DTD SVG 1.1//EN" "http://www.w3.org/Graphics/SVG/1.1/DTD/svg11.dtd"><svg t="1637636643032" class="icon" viewBox="0 0 1024 1024" version="1.1" xmlns="http://www.w3.org/2000/svg" p-id="2537" xmlns:xlink="http://www.w3.org/1999/xlink" width="256" height="256"><defs><style type="text/css"></style></defs><path d="M883.25 219.5h50.625v106.875h-50.625zM140.75 883.25v-28.125H90.125v78.75h78.75v-50.625zM90.125 697.625h50.625v106.875H90.125zM883.25 382.625h50.625v106.875h-50.625zM90.125 540.125h50.625v106.875H90.125zM90.125 382.625h50.625v106.875H90.125zM540.125 883.25h106.875v50.625H540.125zM883.25 697.625h50.625v106.875h-50.625zM883.25 540.125h50.625v106.875h-50.625zM697.625 883.25h106.875v50.625h-106.875zM382.625 883.25h106.875v50.625H382.625zM219.5 883.25h106.875v50.625H219.5zM219.5 90.125h106.875v50.625H219.5zM883.25 883.25h-28.125v50.625h78.75v-78.75h-50.625zM540.125 90.125h106.875v50.625H540.125zM382.625 90.125h106.875v50.625H382.625zM140.75 140.75h28.125V90.125H90.125v78.75h50.625zM883.25 140.75v28.125h50.625V90.125h-78.75v50.625zM90.125 219.5h50.625v106.875H90.125zM697.625 90.125h106.875v50.625h-106.875zM208.25 247.625h315v528.75H208.25z"></path></svg>