<?xml version="1.0" standalone="no"?><!DOCTYPE svg PUBLIC " -//W3C//DTD SVG 1.1//EN" "http://www.w3.org/Graphics/SVG/1.1/DTD/svg11.dtd"><svg t="1637636643032" class="icon" viewBox="0 0 1024 1024" version="1.1" xmlns="http://www.w3.org/2000/svg" p-id="2537" xmlns:xlink="http://www.w3.org/1999/xlink" width="256" height="256"><defs><style type="text/css"></style></defs><path d="M332.8 102.4C324.266667 89.6 311.466667 85.333333 298.666667 85.333333s-25.6 4.266667-29.866667 12.8l-170.666667 213.333334c-17.066667 21.333333-17.066667 46.933333 4.266667 64 17.066667 12.8 46.933333 12.8 59.733333-8.533334L256 251.733333V896c0 25.6 17.066667 42.666667 42.666667 42.666667s42.666667-17.066667 42.666666-42.666667V251.733333l93.866667 119.466667c8.533333 8.533333 21.333333 12.8 34.133333 12.8 8.533333 0 17.066667-4.266667 25.6-8.533333 17.066667-12.8 21.333333-42.666667 8.533334-59.733334l-170.666667-213.333333zM921.6 648.533333c-17.066667-12.8-46.933333-12.8-59.733333 8.533334L768 772.266667V128c0-25.6-17.066667-42.666667-42.666667-42.666667s-42.666667 17.066667-42.666666 42.666667v644.266667l-93.866667-119.466667c-12.8-17.066667-42.666667-21.333333-59.733333-8.533333-17.066667 12.8-21.333333 42.666667-8.533334 59.733333l170.666667 213.333333 8.533333 8.533334 4.266667 4.266666c8.533333 8.533333 17.066667 8.533333 21.333333 8.533334s12.8 0 17.066667-4.266667c0 0 4.266667 0 4.266667-4.266667 4.266667-4.266667 8.533333-4.266667 8.533333-8.533333l170.666667-213.333333c17.066667-17.066667 17.066667-42.666667-4.266667-59.733334z"></path></svg>