<?xml version="1.0" standalone="no"?><!DOCTYPE svg PUBLIC " -//W3C//DTD SVG 1.1//EN" "http://www.w3.org/Graphics/SVG/1.1/DTD/svg11.dtd"><svg t="1637636643032" class="icon" viewBox="0 0 1024 1024" version="1.1" xmlns="http://www.w3.org/2000/svg" p-id="2537" xmlns:xlink="http://www.w3.org/1999/xlink" width="256" height="256"><defs><style type="text/css"></style></defs><path d="M928.064 768H671.872c-17.6 0-32 14.4-32 32s14.4 32 32 32h256.192c17.6 0 32-14.4 32-32s-14.4-32-32-32zM96 703.424h192c17.6 0 32-14.4 32-32s-14.4-32-32-32H96c-17.6 0-32 14.4-32 32s14.4 32 32 32z m608-32c0 17.6 14.4 32 32 32h192c17.6 0 32-14.4 32-32s-14.4-32-32-32H736c-17.6 0-32 14.4-32 32zM96 831.296h256.192c17.6 0 32-14.4 32-32s-14.4-32-32-32H96c-17.6 0-32 14.4-32 32s14.4 32 32 32z m832.192 64.128H96c-17.6 0-32 14.4-32 32s14.4 32 32 32h832.192c17.6 0 32-14.4 32-32s-14.4-32-32-32zM238.464 254.08l82.048-82.048V606.4a32 32 0 0 0 63.872 0V172.16l81.856 81.856a31.488 31.488 0 0 0 44.416-44.416L374.72 73.728a31.36 31.36 0 0 0-34.048-6.848 31.232 31.232 0 0 0-10.752 6.912L194.048 209.664a31.488 31.488 0 0 0 44.416 44.416z m275.392 239.36l135.872 135.872a31.424 31.424 0 0 0 10.752 6.976 31.488 31.488 0 0 0 34.048-6.848L830.4 493.568a31.488 31.488 0 0 0-44.416-44.416l-81.856 81.856V96.704a32 32 0 0 0-63.872 0v434.368l-81.984-82.048a31.488 31.488 0 0 0-44.416 44.416z"></path></svg>