<?xml version="1.0" standalone="no"?><!DOCTYPE svg PUBLIC " -//W3C//DTD SVG 1.1//EN" "http://www.w3.org/Graphics/SVG/1.1/DTD/svg11.dtd"><svg t="1637636643032" class="icon" viewBox="0 0 1024 1024" version="1.1" xmlns="http://www.w3.org/2000/svg" p-id="2537" xmlns:xlink="http://www.w3.org/1999/xlink" width="256" height="256"><defs><style type="text/css"></style></defs><path d="M574.5626074 640.84412276c-49.0479746 0-98.09594921-18.67255873-135.44106667-56.01767619-10.14247619-10.14247619-10.14247619-26.63050159 0-36.77297778s26.63050159-10.14247619 36.77297778 0c54.40528254 54.40528254 142.87888254 54.40528254 197.28416508 0l189.11817143-189.11817143c54.40528254-54.40528254 54.40528254-142.87888254 0-197.28416508s-142.87888254-54.40528254-197.28416508 0l-159.57495873 159.57495873c-10.14247619 10.14247619-26.63050159 10.14247619-36.77297778 0s-10.14247619-26.63050159 0-36.77297778l159.57495873-159.57495873c74.69023492-74.69023492 196.19189841-74.69023492 270.83012064 0s74.69023492 196.19189841 0 270.83012064l-189.11817143 189.11817143c-37.34511746 37.34511746-86.39309206 56.01767619-135.44106667 56.01767619z"></path><path d="M262.48641692 952.92031323c-49.0479746 0-98.09594921-18.67255873-135.44106666-56.01767619-74.69023492-74.69023492-74.69023492-196.19189841 0-270.83012063l189.11817143-189.11817143c74.69023492-74.69023492 196.19189841-74.69023492 270.83012063 0 10.14247619 10.14247619 10.14247619 26.63050159 0 36.77297778s-26.63050159 10.14247619-36.77297778 0c-54.40528254-54.40528254-142.87888254-54.40528254-197.28416508 0l-189.11817142 189.11817143c-54.40528254 54.40528254-54.40528254 142.87888254 0 197.28416508s142.87888254 54.40528254 197.28416507 0l159.57495874-159.57495873c10.14247619-10.14247619 26.63050159-10.14247619 36.77297777 0s10.14247619 26.63050159 0 36.77297777l-159.57495873 159.57495873c-37.34511746 37.34511746-86.39309206 56.01767619-135.44106666 56.01767619z"></path></svg>