<?xml version="1.0" standalone="no"?><!DOCTYPE svg PUBLIC " -//W3C//DTD SVG 1.1//EN" "http://www.w3.org/Graphics/SVG/1.1/DTD/svg11.dtd"><svg t="1637636643032" class="icon" viewBox="0 0 1024 1024" version="1.1" xmlns="http://www.w3.org/2000/svg" p-id="2537" xmlns:xlink="http://www.w3.org/1999/xlink" width="256" height="256"><defs><style type="text/css"></style></defs><path d="M704 608a31.904 31.904 0 0 0 22.624-9.376l256-256a31.968 31.968 0 0 0 0-45.248l-256-256a31.968 31.968 0 0 0-45.248 0l-256 256a31.968 31.968 0 0 0 0 45.248L480 397.248 525.248 352l-32-32L704 109.248 914.752 320 704 530.752l-32-32L626.752 544l54.624 54.624A31.904 31.904 0 0 0 704 608zM109.248 704L320 493.248l32 32L397.248 480l-54.624-54.624a31.968 31.968 0 0 0-45.248 0l-256 256a31.968 31.968 0 0 0 0 45.248l256 256a31.904 31.904 0 0 0 45.248 0l256-256a31.968 31.968 0 0 0 0-45.248L544 626.752 498.752 672l32 32L320 914.752 109.248 704z"></path><path d="M306.752 672L672 306.752 717.248 352 352 717.248z"></path></svg>