<?xml version="1.0" standalone="no"?><!DOCTYPE svg PUBLIC " -//W3C//DTD SVG 1.1//EN" "http://www.w3.org/Graphics/SVG/1.1/DTD/svg11.dtd"><svg t="1637636643032" class="icon" viewBox="0 0 1024 1024" version="1.1" xmlns="http://www.w3.org/2000/svg" p-id="2537" xmlns:xlink="http://www.w3.org/1999/xlink" width="256" height="256"><defs><style type="text/css"></style></defs><path d="M597.333333 213.333333a64 64 0 0 1 64 64v106.666667h150.186667L938.666667 557.077333V640a64 64 0 0 1-64 64h-21.802667a117.333333 117.333333 0 0 1-233.728 0H383.530667a117.333333 117.333333 0 0 1-233.728 0H149.333333a64 64 0 0 1-64-64V277.333333a64 64 0 0 1 64-64h448zM266.666667 640a53.333333 53.333333 0 1 0 0 106.666667 53.333333 53.333333 0 0 0 0-106.666667z m469.333333 0a53.333333 53.333333 0 1 0 0 106.666667 53.333333 53.333333 0 0 0 0-106.666667zM576 277.333333H170.666667a21.333333 21.333333 0 0 0-21.184 18.837334L149.333333 298.666667v320a21.333333 21.333333 0 0 0 13.568 19.882666 117.333333 117.333333 0 0 1 208.32 1.472L576 640a21.333333 21.333333 0 0 0 21.184-18.837333L597.333333 618.666667V298.666667a21.333333 21.333333 0 0 0-21.333333-21.333334z m214.186667 170.666667H661.333333v154.816A117.333333 117.333333 0 0 1 840.533333 640L853.333333 640a21.333333 21.333333 0 0 0 21.184-18.837333L874.666667 618.666667v-61.589334L790.186667 448zM437.333333 341.333333a32 32 0 0 1 0 64h-192a32 32 0 0 1 0-64h192z"></path></svg>