<?xml version="1.0" standalone="no"?><!DOCTYPE svg PUBLIC " -//W3C//DTD SVG 1.1//EN" "http://www.w3.org/Graphics/SVG/1.1/DTD/svg11.dtd"><svg t="1637636643032" class="icon" viewBox="0 0 1024 1024" version="1.1" xmlns="http://www.w3.org/2000/svg" p-id="2537" xmlns:xlink="http://www.w3.org/1999/xlink" width="256" height="256"><defs><style type="text/css"></style></defs><path d="M510.08013916 933.875c-13.42254638 0-24.92523193-3.83148193-40.26763916-11.53564453L116.97009277 765.125C95.89282227 753.62231445 90.125 715.26629638 90.125 694.17254638v-5.76782226l5.76782227 3.83148194c23.01361084 13.43078614 53.69018555 26.85333252 55.61004638 26.85333251h1.90338135l360.51361084 164.92675781 358.59375-164.91027831c1.91986084 0 15.34240723-7.67120362 28.76495361-13.42254639l32.59643555-15.34240723v5.76782227c0 23.01361084-7.67120362 61.36138916-26.84509278 70.95245361l-354.76226806 157.22259522c-15.33416748 5.76782227-28.76495362 9.59106445-42.1875 9.59106445z"></path><path d="M510.08013916 740.29040527c-13.42254638 0-24.92523193-3.83972168-40.26763916-11.53564453L116.97009277 571.54040528C95.89282227 560.03771973 90.125 521.68170166 90.125 500.58795166v-5.76782226l5.76782227 3.83148193c23.01361084 13.42254638 53.69018555 26.84509278 55.61004638 26.84509278h1.90338135l360.51361084 164.93499755 358.59375-164.91851807c1.91986084 0 15.34240723-7.66296387 28.76495361-15.34240723l32.59643555-15.33416748v5.76782227c0 23.01361084-7.67120362 61.36138916-26.84509278 70.95245362L552.26763916 728.78771973c-15.33416748 7.66296387-28.76495362 11.53564453-42.1875 11.53564452z"></path><path d="M912.45166016 291.32312011L554.55828857 103.66290283C539.08404541 93.98944092 527.47424317 90.125 513.93634033 90.125c-11.60980224 0-25.15594482 3.86444092-42.56652832 11.60980224L113.46820068 289.39501953C97.98571777 299.06848144 90.24859619 316.47906494 90.24859619 335.82598877c0 17.41058349 9.67346192 30.94848633 23.21960449 38.72680664L469.44171143 535.07128906c15.47424317 7.72888184 27.08404541 11.6015625 40.62194824 11.6015625s27.08404541-5.76782227 42.56652832-11.6015625l357.90161133-158.61511231c13.54614258-5.80902099 23.2196045-21.28326416 23.21960449-40.63018798 1.93634033-19.34692383-7.74536133-36.75750732-21.29974365-44.50286865z m-398.51531983 189.59655762L156.04296875 331.9533081 512 142.36499023h1.93634033l355.95703125 189.58831787z"></path></svg>