<?xml version="1.0" standalone="no"?><!DOCTYPE svg PUBLIC " -//W3C//DTD SVG 1.1//EN" "http://www.w3.org/Graphics/SVG/1.1/DTD/svg11.dtd"><svg t="1637636643032" class="icon" viewBox="0 0 1024 1024" version="1.1" xmlns="http://www.w3.org/2000/svg" p-id="2537" xmlns:xlink="http://www.w3.org/1999/xlink" width="256" height="256"><defs><style type="text/css"></style></defs><path d="M176.4 609.6c-3.5 0-6.9-0.1-10.4-0.4-39.3-2.7-76.2-21.1-104.1-51.8-27.1-29.9-43.3-69-45.6-110.3-2.9-51.1 15-100.6 49.1-135.9 30-31 69.4-48.1 111-48.1 6.8 0 13.7 0.5 20.4 1.4 39 5.3 74.7 26 100.6 58 25.4 31.5 39.4 71.9 39.4 113.8 0 51.1-20.7 99.4-56.8 132.3-29.2 26.7-65.6 41-103.6 41z m0-288c-25 0-49 10.6-67.6 29.8-22.9 23.7-34.8 57.4-32.9 92.5 3.2 56.6 44.6 103.6 94.2 107 25 1.7 49.6-7.1 69.1-25 24.1-22 37.8-54.6 37.8-89.6 0-58-38.1-107-88.5-113.9-4-0.5-8.1-0.8-12.1-0.8z"></path><path d="M318.9 471.1l-27.8-51.8 305.2-156.9c13.9-30.1 25.2-68.5 10.2-95.3-13.1-23.3-42.2-32.3-56.5-35.4L191.4 318.2l-28-51.6L539 71.2l9 0.9c3.2 0.3 77.6 8.3 110.5 66.4 23.4 41.3 19.2 94.6-12.7 158.2l-4.3 8.6-322.6 165.8z"></path><path d="M527.4 888.8L104.9 591.5l34.8-47.5 401.8 282.7c25.3-6 41.5-16.7 49.4-32.7 15.6-31.5-2.3-81.1-13-103.1L287.4 503.6l32.8-48.8 303.3 195.6 3.6 6.3c0.5 0.9 12.9 23.2 21.5 53.1 12.2 42.9 10.9 79.8-3.9 109.7-8.6 17.4-21.7 31.9-38.8 43.2-17.7 11.6-40.1 19.7-66.3 24l-12.2 2.1zM785.6 272.3H635.9v-58.5h90v-58.5l-115.8 0.9-0.5-58.5 176-1.3z"></path><path d="M909.8 351.9l-106.9-96v-42.2h-47.2v-58.5h106.9v75l47.2 42.4 56.8-51.1 40.4 43.1z"></path><path d="M862.6 213.7H755.7v-58.5h47.2V113l106.9-96 97.2 87.3-40.4 43.1-56.8-51-47.2 42.3zM657.2 953.8h-201V823.4h59.7v71.9h81.6V770.1h59.7z"></path><path d="M918.3 1007H169.4v-58.5h51.4v-53.2h646.1v53.2h51.4z"></path><path d="M214.7 1007H154c-17.4 0-31.6-13.9-31.6-30.9v-76.5c0-17.1 14.2-30.9 31.6-30.9h60.7c17.4 0 31.6 13.9 31.6 30.9v76.5c0 17-14.2 30.9-31.6 30.9z m-32.6-58.5h4.5v-21.4h-4.5v21.4zM933.7 1007H873c-17.4 0-31.6-13.9-31.6-30.9v-76.5c0-17.1 14.2-30.9 31.6-30.9h60.7c17.4 0 31.6 13.9 31.6 30.9v76.5c0 17-14.2 30.9-31.6 30.9z m-32.6-58.5h4.5v-21.4h-4.5v21.4z"></path></svg>