<?xml version="1.0" standalone="no"?><!DOCTYPE svg PUBLIC " -//W3C//DTD SVG 1.1//EN" "http://www.w3.org/Graphics/SVG/1.1/DTD/svg11.dtd"><svg t="1637636643032" class="icon" viewBox="0 0 1024 1024" version="1.1" xmlns="http://www.w3.org/2000/svg" p-id="2537" xmlns:xlink="http://www.w3.org/1999/xlink" width="256" height="256"><defs><style type="text/css"></style></defs><path d="M712.6016 927.1296h-588.8a14.2848 14.2848 0 1 1 0-28.5184h588.8a14.2848 14.2848 0 0 1 0 28.5184z"></path><path d="M488.0896 924.8768a14.2336 14.2336 0 0 1-14.2336-14.2848 58.624 58.624 0 0 0-117.1968 0 14.2848 14.2848 0 1 1-28.5696 0 87.04 87.04 0 0 1 174.08 0 14.2848 14.2848 0 0 1-14.08 14.2848z"></path><path d="M546.4576 924.8768a14.2336 14.2336 0 0 1-14.2336-14.2848 116.992 116.992 0 0 0-233.9328 0 14.2848 14.2848 0 0 1-28.5696 0 145.5104 145.5104 0 0 1 291.0208 0 14.2848 14.2848 0 0 1-14.2848 14.2848z"></path><path d="M336.5888 820.736a14.2848 14.2848 0 0 1-12.4928-7.2704L131.7376 469.504a14.2336 14.2336 0 0 1 24.8832-13.824l192.4096 343.9616a14.2336 14.2336 0 0 1-12.4416 21.1968zM412.3648 790.1696a14.2336 14.2336 0 0 1-12.4416-7.3216L207.5136 438.8864A14.2848 14.2848 0 0 1 232.448 424.96L424.96 768.9216a14.2848 14.2848 0 0 1-12.4416 21.248z"></path><path d="M168.96 478.6688a65.5872 65.5872 0 1 1 65.536-65.5872A65.6384 65.6384 0 0 1 168.96 478.6688z m0-102.4a37.0688 37.0688 0 1 0 37.0176 37.0176A37.0688 37.0688 0 0 0 168.96 376.064zM687.9744 314.0608a33.2288 33.2288 0 1 1-33.1776 33.2288 33.28 33.28 0 0 1 33.1776-33.2288m0-28.5696a61.7984 61.7984 0 1 0 61.7984 61.7984 61.7984 61.7984 0 0 0-61.7984-61.7984z"></path><path d="M186.4704 376.2688A14.2848 14.2848 0 0 1 179.2 349.696l343.9616-202.5984a14.2848 14.2848 0 1 1 14.4896 24.576L193.6896 374.272a14.2336 14.2336 0 0 1-7.2192 1.9968zM222.9248 437.4528a14.2848 14.2848 0 0 1-7.2704-26.5728l343.9616-202.5984a14.2848 14.2848 0 0 1 14.4896 24.6272L230.4 435.456a13.8752 13.8752 0 0 1-7.4752 1.9968z"></path><path d="M641.1264 332.4928a14.2336 14.2336 0 0 1-11.3664-5.7344l-91.8016-123.904a12.9536 12.9536 0 0 1-1.792-3.1744 64.9216 64.9216 0 0 1-14.7456-41.3696 65.536 65.536 0 0 1 129.8944-12.4928l51.2 142.7968a14.2848 14.2848 0 0 1-6.8608 17.5616l-48.128 24.7808a14.592 14.592 0 0 1-6.4 1.536zM563.712 189.8496l81.92 110.1824 25.9072-13.312-47.5648-132.096a10.8032 10.8032 0 0 1-0.6144-2.4576A37.0176 37.0176 0 1 0 560.2816 184.32a13.9264 13.9264 0 0 1 3.4304 5.5296zM779.1616 512.768a14.2336 14.2336 0 0 1-7.168-1.9456c-2.7648-1.5872-67.1744-39.68-88.1152-109.7216a14.2848 14.2848 0 1 1 27.3408-8.192c9.7792 32.6656 31.3856 57.5488 48.9472 73.3696-6.0416-29.2352-18.2784-64.512-40.1408-74.2912a14.2848 14.2848 0 1 1 11.6224-26.0608C784.7424 389.632 792.6784 486.4 793.6 497.5616a14.2848 14.2848 0 0 1-14.2336 15.36zM670.3104 593.92a14.2848 14.2848 0 0 1-10.24-4.4544l-100.1984-105.472a14.2848 14.2848 0 0 1-1.9968-16.9472l66.56-115.1488a14.2848 14.2848 0 0 1 24.7296 14.2848l-61.44 105.9328 30.72 32.256-7.68-16.0768a14.4384 14.4384 0 0 1-0.512-11.2128l35.84-95.3856a14.2848 14.2848 0 1 1 26.6752 10.24L639.1808 481.28l44.032 92.16a14.2848 14.2848 0 0 1-12.9024 20.48zM905.7792 458.6496a14.1824 14.1824 0 0 1-11.5712-5.888l-60.0576-82.6368-94.976-13.1072a14.2848 14.2848 0 1 1 3.8912-28.2624l100.9664 13.9264a14.1824 14.1824 0 0 1 9.6256 5.7344l10.496 14.4384-13.824-42.24-122.2656 3.2768a14.2848 14.2848 0 0 1-0.768-28.5184l133.12-3.584a14.336 14.336 0 0 1 13.9776 9.8304l45.1072 138.24a14.2336 14.2336 0 0 1-7.0656 17.152 13.9264 13.9264 0 0 1-6.656 1.6384z"></path></svg>