<?xml version="1.0" standalone="no"?><!DOCTYPE svg PUBLIC " -//W3C//DTD SVG 1.1//EN" "http://www.w3.org/Graphics/SVG/1.1/DTD/svg11.dtd"><svg t="1637636643032" class="icon" viewBox="0 0 1024 1024" version="1.1" xmlns="http://www.w3.org/2000/svg" p-id="2537" xmlns:xlink="http://www.w3.org/1999/xlink" width="256" height="256"><defs><style type="text/css"></style></defs><path d="M938.64670684 394.33532891l21.55688613-52.09580831-57.48503028-35.92814326c1.79640703-16.16766503 1.79640703-32.3353292 0-48.50299424l57.48503028-35.92814326L938.64670684 169.78443154l-66.46706631 16.16766416c-8.98203604-12.5748501-21.55688613-25.14970019-34.13173623-34.13173623l14.37125713-66.46706631L802.11976016 62l-35.92814326 57.48503028c-16.16766503-1.79640703-32.3353292-1.79640703-48.50299424 0l-35.92814326-57.48503028-52.09580831 21.55688613 14.37125713 66.46706631c-12.5748501 8.98203604-25.14970019 19.76047911-34.13173622 34.13173623l-64.67065929-16.16766504-21.55688613 52.0958083 55.68862324 35.92814414c-1.79640703 16.16766503-1.79640703 32.3353292 0 48.50299424l-57.48503027 35.92814326 21.55688613 52.0958083 66.46706632-14.37125713c8.98203604 12.5748501 21.55688613 25.14970019 34.13173622 34.13173623l-16.16766504 66.46706632 52.0958083 21.55688613 35.92814414-57.48503027c16.16766503 1.79640703 32.3353292 1.79640703 48.50299425 0l35.92814325 57.48503027 52.09580831-21.55688613-16.16766416-66.46706632c12.5748501-8.98203604 25.14970019-21.55688613 34.13173622-34.13173623l68.26347335 16.16766417z m-228.14371319-39.52095733c-39.5209582-16.16766503-59.2814373-62.87425136-43.11377227-102.39520957 16.16766503-39.5209582 62.87425136-59.2814373 102.39520958-41.31736523 39.5209582 16.16766503 59.2814373 62.87425136 43.11377227 102.39520957-16.16766503 39.5209582-62.87425136 57.48503028-102.39520958 41.31736523z m-57.48502939 346.70658691v-73.65269531l-88.02395244-14.37125713c-5.38922197-21.55688613-12.5748501-39.5209582-23.35329317-57.48503027l50.29940127-73.65269443-52.0958083-52.0958083-71.8562874 52.0958083c-17.96407208-10.77844307-37.72455117-19.76047911-59.28143731-25.1497002l-16.16766503-88.02395244h-73.65269444l-12.5748501 88.02395244c-21.55688613 5.38922197-41.31736523 12.5748501-59.28143731 23.35329317l-71.8562874-52.0958083-52.0958083 52.0958083 50.29940127 71.8562874c-10.77844307 17.96407208-19.76047911 37.72455117-25.14970107 59.2814373l-86.22754453 16.16766416v73.65269531l86.22754453 16.16766417c5.38922197 21.55688613 14.37125713 41.31736523 25.14970107 59.2814373l-52.0958083 71.85628741 52.0958083 52.09580829 71.8562874-50.29940126c17.96407208 10.77844307 37.72455117 19.76047911 59.28143731 23.35329316l14.37125713 88.02395244h73.65269444l16.16766503-88.02395244c21.55688613-5.38922197 41.31736523-14.37125713 59.28143731-25.14970019l73.65269443 50.29940126 52.0958083-52.0958083-52.0958083-71.8562874c10.77844307-17.96407208 19.76047911-37.72455117 23.35329317-57.48503027l88.02395243-16.16766417z m-296.40718564 66.46706544c-57.48503028 0-102.39520957-46.70658721-102.39520958-102.39520958 0-57.48503028 46.70658721-102.39520957 102.39520958-102.39520956 57.48503028 0 102.39520957 46.70658721 102.39520956 102.39520956 1.79640703 55.68862237-44.9101793 102.39520957-102.39520956 102.39520958z"></path></svg>