<?xml version="1.0" standalone="no"?><!DOCTYPE svg PUBLIC " -//W3C//DTD SVG 1.1//EN" "http://www.w3.org/Graphics/SVG/1.1/DTD/svg11.dtd"><svg t="1637636643032" class="icon" viewBox="0 0 1024 1024" version="1.1" xmlns="http://www.w3.org/2000/svg" p-id="2537" xmlns:xlink="http://www.w3.org/1999/xlink" width="256" height="256"><defs><style type="text/css"></style></defs><path d="M143.35428887 62.95710781h737.29174131a74.3353418 74.3353418 0 0 1 73.69726992 74.97341367v749.09606485a74.3353418 74.3353418 0 0 1-73.69726992 74.97341367H143.35428887A74.3353418 74.3353418 0 0 1 69.65701895 887.02658633V136.97341367A74.3353418 74.3353418 0 0 1 143.35428887 62.95710781z m15.63275478 90.92520352v717.83055615h705.7071958V152.92520352z m233.85324375 79.75895098h235.12938662a81.03509385 81.03509385 0 0 1 88.3729169 69.54980449v423.36051064a80.71605791 80.71605791 0 0 1-88.05388096 70.18787637h-235.44842256a80.71605791 80.71605791 0 0 1-88.05388183-70.18787637V303.1910668a80.71605791 80.71605791 0 0 1 88.05388183-70.50691231z m81.99220078 129.20950019"></path><path d="M388.401458 308.54307m67.879475 0l102.000709 0q67.879475 0 67.879475 67.879475l0 13.79369q0 67.879475-67.879475 67.879476l-102.000709 0q-67.879475 0-67.879475-67.879476l0-13.79369q0-67.879475 67.879475-67.879475Z"></path></svg>