<?xml version="1.0" standalone="no"?><!DOCTYPE svg PUBLIC " -//W3C//DTD SVG 1.1//EN" "http://www.w3.org/Graphics/SVG/1.1/DTD/svg11.dtd"><svg t="1637636643032" class="icon" viewBox="0 0 1024 1024" version="1.1" xmlns="http://www.w3.org/2000/svg" p-id="2537" xmlns:xlink="http://www.w3.org/1999/xlink" width="256" height="256"><defs><style type="text/css"></style></defs><path d="M329.554814 129.544858a18.431803 18.431803 0 1 1 0-36.692942h67.071284a18.431803 18.431803 0 1 1 0 36.692942z"></path><path d="M235.006489 227.16515a119.465392 119.465392 0 0 1-68.265939-22.357095 15.871831 15.871831 0 0 1-7.167923-13.653187 17.066485 17.066485 0 0 1 4.778615-13.482523 18.773133 18.773133 0 0 1 13.994518-6.997259 17.066485 17.066485 0 0 1 11.093215 4.095956 78.1645 78.1645 0 0 0 46.420838 15.189172 75.945857 75.945857 0 0 0 75.945857-75.604527 77.993835 77.993835 0 0 0-76.799181-77.48184 75.263197 75.263197 0 0 0-48.810146 17.066484 14.677177 14.677177 0 0 1-11.093215 3.925292A19.285128 19.285128 0 0 1 160.596616 51.209694a23.551749 23.551749 0 0 1-3.925292-11.946539 15.871831 15.871831 0 0 1 7.167924-13.653188A109.908161 109.908161 0 0 1 235.859813 0.01024a114.004117 114.004117 0 0 1 113.662788 113.662787 116.393425 116.393425 0 0 1-114.516112 113.492123z"></path><path d="M300.712455 936.789581a19.114463 19.114463 0 0 1-11.26388-3.925292h-0.853324a219.474992 219.474992 0 1 1 290.130238-2.389307 18.773133 18.773133 0 0 1-11.946539 3.925291 17.066485 17.066485 0 0 1-12.117204-4.778616h-0.853324a17.066485 17.066485 0 0 1-4.778616-13.653187 18.773133 18.773133 0 0 1 5.63194-12.799864 184.147369 184.147369 0 0 0 60.756685-136.531877A182.270056 182.270056 0 0 0 563.194988 636.760781a178.174099 178.174099 0 0 0-128.851959-53.588762A183.12338 183.12338 0 0 0 312.658994 904.533925a17.066485 17.066485 0 0 1 1.535983 25.599727 13.994517 13.994517 0 0 1-13.482522 7.167923z m430.416742-351.910913A156.840994 156.840994 0 1 1 887.458196 428.037674a157.011659 157.011659 0 0 1-156.328999 156.840994z m0-276.135721a119.465392 119.465392 0 1 0 119.465392 119.465392 119.465392 119.465392 0 0 0-119.465392-119.465392zM471.035971 200.02944a85.332423 85.332423 0 1 1 85.332423-85.332423 85.332423 85.332423 0 0 1-85.332423 85.332423z m0-133.630575a48.127487 48.127487 0 1 0 47.956822 47.956822 48.298151 48.298151 0 0 0-47.956822-47.956822z"></path><path d="M434.343029 867.158324A100.0096 100.0096 0 1 1 534.352629 768.002048a101.204254 101.204254 0 0 1-100.0096 99.156276z m0-163.155593a63.316658 63.316658 0 1 0 63.145993 63.145993 65.023306 65.023306 0 0 0-63.145993-63.145993zM635.044888 785.068533a17.066485 17.066485 0 0 1-7.167923-1.535984h-2.389308a15.018506 15.018506 0 0 1-7.167924-11.946539 20.479782 20.479782 0 0 1 3.242633-13.653188L767.992804 546.137748a19.967787 19.967787 0 0 1 15.189171-8.021248 14.847842 14.847842 0 0 1 7.167923 1.535984l2.389308 0.853324a15.189171 15.189171 0 0 1 7.167924 12.117204 19.797122 19.797122 0 0 1-3.242632 13.482523L650.23406 777.559279a17.066485 17.066485 0 0 1-15.189172 7.509254zM355.8372 599.214515a20.991776 20.991776 0 0 1-14.335847-6.485264 24.234408 24.234408 0 0 1-3.925292-12.117204 15.530501 15.530501 0 0 1 7.167924-13.482523L580.261473 380.763512a23.551749 23.551749 0 0 1 11.093215-3.925292 22.18643 22.18643 0 0 1 14.506512 6.3146v0.853324l0.853324 0.853324a23.893078 23.893078 0 0 1 4.095956 11.946539 16.042496 16.042496 0 0 1-7.338588 13.653188L367.10108 595.118559a17.066485 17.066485 0 0 1-11.26388 4.095956z m375.462662-103.934891a67.241949 67.241949 0 1 1 67.071284-67.24195A68.265938 68.265938 0 0 1 731.129197 494.938294z m0-96.937633a29.525018 29.525018 0 0 0-29.695684 29.695683 30.037013 30.037013 0 0 0 29.695684 29.525019 29.354354 29.354354 0 0 0 29.525018-29.525019 30.207678 30.207678 0 0 0-29.695683-29.695683zM807.075053 204.808055a89.257715 89.257715 0 1 1 89.599045-88.74572 89.428379 89.428379 0 0 1-89.599045 88.74572z m0-141.481157a52.735437 52.735437 0 1 0 52.735438 52.735437 53.076767 53.076767 0 0 0-52.735438-52.735437z"></path><path d="M856.738524 392.539386a18.431803 18.431803 0 0 1-18.431804-19.285127l13.482523-223.058954a17.919809 17.919809 0 0 1 18.431804-17.066485 17.066485 17.066485 0 0 1 13.653187 6.485264 17.066485 17.066485 0 0 1 3.925292 13.653188l-13.482523 221.8643A17.066485 17.066485 0 0 1 856.738524 392.539386z m-170.664847-83.284445a16.042496 16.042496 0 0 1-8.703907-2.389308h-1.535983a19.285128 19.285128 0 0 1-8.021248-10.410555 17.066485 17.066485 0 0 1 1.535984-14.335847L733.859834 166.408465a18.261139 18.261139 0 0 1 17.066485-9.557231 17.066485 17.066485 0 0 1 8.874572 2.389307h1.535984a19.285128 19.285128 0 0 1 8.021247 10.410556 18.090474 18.090474 0 0 1-1.535983 14.335847l-66.388625 115.198771a18.090474 18.090474 0 0 1-16.042496 9.557232zM524.624733 88.75596a18.431803 18.431803 0 1 1 0-36.692942h211.965739a18.431803 18.431803 0 1 1 0 36.692942z"></path><path d="M540.667228 164.872481a18.431803 18.431803 0 1 1 0-36.863606h188.75532a18.431803 18.431803 0 0 1 0 36.863606zM919.884517 902.315282H103.765222A18.602468 18.602468 0 0 0 85.333419 921.60041v85.332423a18.602468 18.602468 0 0 0 18.431803 17.066484H919.884517a18.602468 18.602468 0 0 0 18.773133-18.431803V921.60041a18.602468 18.602468 0 0 0-18.773133-19.285128z m-19.285128 84.137769H122.197025v-48.810146h778.402364z"></path></svg>