<?xml version="1.0" standalone="no"?><!DOCTYPE svg PUBLIC " -//W3C//DTD SVG 1.1//EN" "http://www.w3.org/Graphics/SVG/1.1/DTD/svg11.dtd"><svg t="1637636643032" class="icon" viewBox="0 0 1024 1024" version="1.1" xmlns="http://www.w3.org/2000/svg" p-id="2537" xmlns:xlink="http://www.w3.org/1999/xlink" width="256" height="256"><defs><style type="text/css"></style></defs><path d="M896 0H128C57.6 0 0 57.6 0 128v768c0 70.4 57.6 128 128 128h768c70.4 0 128-57.6 128-128V128c0-70.4-57.6-128-128-128z m44.8 940.8H83.2V83.2h851.2v857.6zM268.8 396.8c19.2 0 44.8-6.4 57.6-19.2l288 288c-12.8 19.2-19.2 38.4-19.2 57.6 0 57.6 44.8 102.4 102.4 102.4 57.6 0 102.4-44.8 102.4-102.4 0-57.6-44.8-102.4-102.4-102.4-19.2 0-44.8 6.4-57.6 19.2L352 358.4c12.8-19.2 19.2-38.4 19.2-57.6 0-57.6-44.8-102.4-102.4-102.4-57.6 0-102.4 44.8-102.4 102.4 6.4 51.2 51.2 96 102.4 96z m-38.4 396.8h172.8V627.2H230.4v166.4z m563.2-563.2H627.2v172.8h172.8V230.4z"></path></svg>