<?xml version="1.0" standalone="no"?><!DOCTYPE svg PUBLIC " -//W3C//DTD SVG 1.1//EN" "http://www.w3.org/Graphics/SVG/1.1/DTD/svg11.dtd"><svg t="1637636643032" class="icon" viewBox="0 0 1024 1024" version="1.1" xmlns="http://www.w3.org/2000/svg" p-id="2537" xmlns:xlink="http://www.w3.org/1999/xlink" width="256" height="256"><defs><style type="text/css"></style></defs><path d="M970.080973 710.664076a35.569991 35.569991 0 1 1 35.893991-35.569991 35.839991 35.839991 0 0 1-35.893991 35.569991zM71.893192 319.774172a35.892991 35.892991 0 1 1 71.839983-0.808 35.892991 35.892991 0 0 1-71.838983 0.808z m898.187781 248.772939c-2.585999 0-4.849999 0.539-7.543998 0.754l-153.057963-409.1599A247.58594 247.58594 0 0 0 683.100043 18.780245a191.051953 191.051953 0 0 0-145.942964-7.974998l-7.168998 2.695c-105.899974 38.639991-156.451962 168.414959-112.636973 289.027929l3.449999 9.754998-0.755 0.323 63.970985 173.645957 73.024982 200.859951 0.808-0.323 5.766998 15.629997a189.164954 189.164954 0 0 1 3.772999 125.678969 112.097973 112.097973 0 0 1-65.749983 72.377982l-7.113999 2.48a113.876972 113.876972 0 0 1-97.599976-13.365997 191.051953 191.051953 0 0 1-78.846981-98.732976L175.152167 402.500152c25.383994-19.939995 40.31299-50.444988 40.41999-82.72698A107.786974 107.786974 0 1 0 107.409184 426.320146l143.195965 388.787905a261.813936 261.813936 0 0 0 109.079973 135.164967 197.519952 197.519952 0 0 0 101.372975 29.425993c19.724995 0 39.34299-3.395999 57.880986-10.132998l7.059999-2.478999A181.619956 181.619956 0 0 0 635.456055 850.840042a258.796937 258.796937 0 0 0-4.309999-172.944958l-76.582981-207.649949-69.522983-191.537953c-30.557993-84.235979 0.808-173.267958 69.791983-198.434952l7.166998-2.641999a118.672971 118.672971 0 0 1 90.757978 5.551999 176.392957 176.392957 0 0 1 89.192978 101.319975l154.673962 413.145899c-21.772995 19.939995-34.221992 47.964988-34.329992 77.443981a107.786974 107.786974 0 1 0 107.786974-106.599974z"></path></svg>