<?xml version="1.0" standalone="no"?><!DOCTYPE svg PUBLIC " -//W3C//DTD SVG 1.1//EN" "http://www.w3.org/Graphics/SVG/1.1/DTD/svg11.dtd"><svg t="1637636643032" class="icon" viewBox="0 0 1024 1024" version="1.1" xmlns="http://www.w3.org/2000/svg" p-id="2537" xmlns:xlink="http://www.w3.org/1999/xlink" width="256" height="256"><defs><style type="text/css"></style></defs><path d="M1070.636298 332.481615v-0.308287L804.127982 27.905238C789.245188 10.322281 768.28171 0.159459 746.414634 0.010631h-0.255134c-21.920229 0-43.043166 10.109669-57.957851 27.75641-13.181903 14.957208-20.453211 35.080871-20.453211 56.735336V200.917717H577.23979a44.031809 44.031809 0 0 0 0 88.063617h134.551087A44.084961 44.084961 0 0 0 755.833316 244.949526V106.337562l244.970787 279.796524a3.401781 3.401781 0 0 1 0 0.74414L755.833316 666.940515V513.956024a44.084961 44.084961 0 0 0-44.031809-44.031808h-292.234287v-130.224446c0-46.444947-35.080871-84.236613-78.272865-84.236614a76.019185 76.019185 0 0 0-57.979113 27.139838L20.80402 584.117767l-0.308287 0.308286-0.287025 0.340178c-26.789029 31.67909-26.937857 81.206902-0.467745 113.03482a11.279032 11.279032 0 0 0 1.828458 2.030438l262.022216 296.295164c14.882794 17.572327 35.793119 27.735149 57.575151 27.873347h0.255133c21.920229 0 43.043166-10.109669 57.957852-27.756411 13.192534-14.957208 20.453211-35.080871 20.453211-56.745966V824.485518H512.393331a44.031809 44.031809 0 1 0 0-88.063617H375.535411a44.084961 44.084961 0 0 0-44.031809 44.031808v137.463863L87.659656 642.054357a4.135291 4.135291 0 0 1 0-0.978012l243.854577-279.860308V514.094222a44.084961 44.084961 0 0 0 44.031809 44.031808h292.213026v130.373274c0 46.444947 35.080871 84.236613 78.272865 84.236614a75.168739 75.168739 0 0 0 57.872807-27.161099l263.723107-301.621079a12.055063 12.055063 0 0 0 1.063057-1.381973c25.832278-30.903058 26.491373-78.36854 1.945394-110.090152z"></path></svg>