<?xml version="1.0" standalone="no"?><!DOCTYPE svg PUBLIC " -//W3C//DTD SVG 1.1//EN" "http://www.w3.org/Graphics/SVG/1.1/DTD/svg11.dtd"><svg t="1637636643032" class="icon" viewBox="0 0 1024 1024" version="1.1" xmlns="http://www.w3.org/2000/svg" p-id="2537" xmlns:xlink="http://www.w3.org/1999/xlink" width="256" height="256"><defs><style type="text/css"></style></defs><path d="M841.078901 394.470213c0-181.743274-147.335626-329.076854-329.078901-329.076854-181.746344 0-329.078901 147.33358-329.078901 329.076854-0.909719 24.802896 2.566452 51.17145 9.43079 78.435397 1.810229 7.401574 3.867074 14.705933 6.16849 21.901823 65.543785 210.996528 313.479621 463.799208 313.479621 463.799208s248.012583-252.878404 313.51032-463.893352c2.28095-7.140631 4.321422-14.387685 6.118348-21.729907C838.506309 445.691805 841.989643 419.296645 841.078901 394.470213zM512 606.021374c-116.834962 0-211.553207-94.711082-211.553207-211.55116 0-116.837009 94.718245-211.549114 211.553207-211.549114 116.837009 0 211.55116 94.711082 211.55116 211.549114C723.55116 511.310292 628.837009 606.021374 512 606.021374z"></path></svg>