<?xml version="1.0" standalone="no"?><!DOCTYPE svg PUBLIC " -//W3C//DTD SVG 1.1//EN" "http://www.w3.org/Graphics/SVG/1.1/DTD/svg11.dtd"><svg t="1637636643032" class="icon" viewBox="0 0 1024 1024" version="1.1" xmlns="http://www.w3.org/2000/svg" p-id="2537" xmlns:xlink="http://www.w3.org/1999/xlink" width="256" height="256"><defs><style type="text/css"></style></defs><path d="M440.1 117.2c11 0 20 9 20 20v304c0 11-9 20-20 20h-304c-11 0-20-9-20-20v-304c0-11 9-20 20-20h304m0-20h-304c-22.1 0-40 17.9-40 40v304c0 22.1 17.9 40 40 40h304c22.1 0 40-17.9 40-40v-304c0-22-17.9-40-40-40zM443.4 563c11 0 20 9 20 20v304c0 11-9 20-20 20h-304c-11 0-20-9-20-20V583c0-11 9-20 20-20h304m0-20h-304c-22.1 0-40 17.9-40 40v304c0 22.1 17.9 40 40 40h304c22.1 0 40-17.9 40-40V583c0-22-18-40-40-40zM889.2 563c11 0 20 9 20 20v304c0 11-9 20-20 20h-304c-11 0-20-9-20-20V583c0-11 9-20 20-20h304m0-20h-304c-22.1 0-40 17.9-40 40v304c0 22.1 17.9 40 40 40h304c22.1 0 40-17.9 40-40V583c0-22-17.9-40-40-40zM734 117.2c45.9 0 89.1 17.9 121.6 50.4S906 243.3 906 289.2s-17.9 89.1-50.4 121.6-75.7 50.4-121.6 50.4c-45.9 0-89.1-17.9-121.6-50.4S562 335.1 562 289.2s17.9-89.1 50.4-121.6S688 117.2 734 117.2m0-20c-106 0-192 86-192 192s86 192 192 192 192-86 192-192-86-192-192-192z"></path><path d="M734 289.2m-96 0a96 96 0 1 0 192 0 96 96 0 1 0-192 0Z"></path></svg>