<?xml version="1.0" standalone="no"?><!DOCTYPE svg PUBLIC " -//W3C//DTD SVG 1.1//EN" "http://www.w3.org/Graphics/SVG/1.1/DTD/svg11.dtd"><svg t="1637636643032" class="icon" viewBox="0 0 1024 1024" version="1.1" xmlns="http://www.w3.org/2000/svg" p-id="2537" xmlns:xlink="http://www.w3.org/1999/xlink" width="256" height="256"><defs><style type="text/css"></style></defs><path d="M640.876718 941.777347c-7.211239 0-14.34266-3.565199-18.547425-10.073426L452.061374 667.323555 119.310851 572.300364c-8.442276-2.382257-14.56574-9.481955-15.669888-18.067494-1.087774-8.553817 3.069919-16.884552 10.633175-21.313422L887.430066 85.206614c7.80271-4.476965 17.668405-3.853771 24.798802 1.679245 7.051603 5.564739 9.993608 14.83794 7.339152 23.391756L730.160183 710.25432c-3.613294 11.400654-15.861246 17.763572-27.533077 14.214746-11.543917-3.533476-18.004049-15.621792-14.437827-27.021423l172.538635-546.637892L180.420651 544.79901l291.866371 83.303264c5.116531 1.455141 9.530051 4.732791 12.423961 9.16166l174.729533 271.320429c6.507204 10.105149 3.437286 23.439852-6.795776 29.835516C648.983349 940.674223 644.906497 941.777347 640.876718 941.777347L640.876718 941.777347z"></path></svg>