<?xml version="1.0" standalone="no"?><!DOCTYPE svg PUBLIC " -//W3C//DTD SVG 1.1//EN" "http://www.w3.org/Graphics/SVG/1.1/DTD/svg11.dtd"><svg t="1637636643032" class="icon" viewBox="0 0 1024 1024" version="1.1" xmlns="http://www.w3.org/2000/svg" p-id="2537" xmlns:xlink="http://www.w3.org/1999/xlink" width="256" height="256"><defs><style type="text/css"></style></defs><path d="M251.58186151 248.51638144c-134.69348515 0-244.28067184 110.67973731-244.28067183 246.71962052 0 122.80067484 174.70968858 312.36770971 209.26313902 350.23683315 34.5545687 37.89148885 34.5545687 37.89148885 70.12676386-0.11965498 34.9493183-38.71677273 209.17703217-227.5625229 209.17703215-350.11717817-0.00559135-136.03988322-109.5871867-246.71962053-244.2862632-246.71962052z m-2.2387782 369.05733125c-66.5594799 0-120.71174492-54.15226502-120.71174493-120.7173363 0-66.54270584 54.15226502-120.69497086 120.71174493-120.69497086s120.71733629 54.15226502 120.71733628 120.69497086c0 66.58743668-54.15226502 120.71733629-120.71733628 120.7173363z m509.92926273-140.89429692c24.74509697-27.4200008 148.13062745-161.15736438 148.13062746-247.94524535 0-96.34350524-77.60352264-174.72646265-172.99090631-174.72646265s-172.99761594 78.37736605-172.99761594 174.72646265c0 86.96568604 123.72324828 221.20627149 148.19325062 248.02464259 24.46664754 26.83067206 24.46664754 26.83067206 49.66464417-0.07939724zM647.33231752 229.87927976c0-47.12057803 38.34886163-85.47055794 85.49292336-85.47055795 47.13287901 0 85.48845028 38.34997991 85.48845027 85.47055795 0 47.15524443-38.34997991 85.48845028-85.48845027 85.48845027-47.14406171 0-85.49292336-38.34997991-85.49292336-85.48845027z m357.08512373 460.11029717c-17.56020687-35.89313889-53.73515002-66.91956311-107.49713851-92.23274166-47.30509272-22.26589053-97.55794737-34.92583462-123.31172462-40.48475892a324.81070925 324.81070925 0 0 0-9.4013029-1.83284588c-19.5294818-3.61760615-27.88296492-6.70403365-31.39321704-11.49582417-4.87789737-6.63693739-12.2987426-10.93668873-20.54263519-10.93668873h-2.21082143c-20.5146784 0-32.83578642 22.85074618-21.49875674 39.95358028 5.08925056 7.66574655 11.86820834 14.18750204 20.27425018 19.41541819 15.17269864 9.42925965 32.11450175 12.56712761 45.73504047 15.09218313 2.86277333 0.52558728 5.57122527 1.02992744 7.86144395 1.52308489 23.54966544 5.08925056 69.39988782 16.61526801 111.95121124 36.6434986 42.01343515 19.77102832 70.5394058 43.1540714 82.51161332 67.62407373 10.13377028 20.69807482 9.00543501 43.34305917-3.42414529 69.22096449a50.31659608 50.31659608 0 0 1-5.5477416 8.85223192l-12.762825 16.53587078-0.21694455 0.29186869c-13.22690739 17.62394831-68.95257949 58.80203514-156.82853797 73.52742545-52.28027965 8.76612505-108.4946361 7.25422288-167.08308151-4.50663145-64.7959668-13.00213496-132.62132929-38.62395626-201.91162658-76.2515332-12.23500116-6.64812009-27.54524713-2.25667054-34.50200997 9.8072352l-0.70451062 1.21891521c-7.21396514 12.5056227-2.76548377 28.54833606 9.91682573 35.44135746 73.96802417 40.17723444 146.79764863 67.61400931 216.78686518 81.66396404 37.03712995 7.42531833 73.32613672 11.14804193 108.56173235 11.14804192 26.53768511 0 52.48045013-2.11353188 77.67285542-6.33835908 45.79319055-7.67804753 89.54106377-22.65616706 126.49991476-43.30839277 27.84382543-15.56185688 51.66746725-34.42149448 63.78840479-50.49328287l12.65882582-16.40950618a103.2656017 103.2656017 0 0 0 11.3482124-18.25353479c19.6446637-40.88621815 20.73833258-79.71034489 3.26982391-115.41561428z"></path></svg>