<?xml version="1.0" standalone="no"?><!DOCTYPE svg PUBLIC " -//W3C//DTD SVG 1.1//EN" "http://www.w3.org/Graphics/SVG/1.1/DTD/svg11.dtd"><svg t="1637636643032" class="icon" viewBox="0 0 1024 1024" version="1.1" xmlns="http://www.w3.org/2000/svg" p-id="2537" xmlns:xlink="http://www.w3.org/1999/xlink" width="256" height="256"><defs><style type="text/css"></style></defs><path d="M691.872 399.16373333c-11.91146667-5.5968-17.34186667-13.12106667-16.29013333-22.5664 1.0528-9.4528 5.0816-16.97066667 12.0864-22.5728 2.10453333-1.3984 8.93653333-6.82133333 20.50026666-16.26666666 11.5584-9.44533333 25.7504-20.81813333 42.56746667-34.11306667-29.42933333-33.59146667-64.46826667-60.00533333-105.11253333-79.24586667-40.64426667-19.24586667-84.79253333-28.86506667-132.4416-28.86506666-44.14293333 0-85.48906667 8.21973333-124.0288 24.66133333-38.544 16.44906667-72.17706667 39.0144-100.9088 67.70453333-28.73066667 28.69226667-51.328 62.27626667-67.79946667 100.768-16.464 38.4864-24.69546667 79.77493333-24.69546667 123.856 0 43.38346667 8.2304 84.32106667 24.69546667 122.81173334 16.4704 38.4864 39.06773333 72.07786667 67.79946667 100.768 28.73066667 28.68586667 62.3648 51.2576 100.9088 67.70026666 38.53973333 16.44586667 79.88586667 24.66666667 124.0288 24.66666667 36.43946667 0 70.9504-5.77066667 103.536-17.3184s62.3648-27.8144 89.34506666-48.80746667 50.1024-45.6608 69.37493334-74.0032c19.26613333-28.33813333 33.4592-59.30453333 42.56746666-92.89493333 4.90666667-16.0928 14.016-29.3888 27.33013334-39.88586667s29.07946667-15.74613333 47.30026666-15.74613333c21.72586667 0 40.12053333 7.69706667 55.184 23.0944 15.06346667 15.38986667 22.5984 33.5872 22.5984 54.5792 0 9.80053333-1.7504 19.24586667-5.25546666 28.34346667-14.71466667 48.98133333-36.43946667 94.11733333-65.1648 135.4016-28.73066667 41.28426667-62.89173333 76.80213333-102.48426667 106.53866666-39.5968 29.74186667-83.56693333 53.0112-131.9168 69.80053334-48.35306667 16.79573333-99.152 25.19466667-152.41173333 25.19466666-65.1648 0-126.4832-12.24853333-183.94666667-36.73813333-57.4624-24.49386667-107.38986667-58.08426667-149.7856-100.768-42.39253333-42.688-76.03093333-92.54613333-100.9088-149.5744-24.87786667-57.0336-37.31306667-118.0832-37.31306667-183.16586667 0-65.0752 12.43626667-126.30506667 37.312-183.68853333 24.87786667-57.38133333 58.5152-107.24053333 100.9088-149.5744 42.3936-42.3328 92.32213333-75.92533333 149.7856-100.768 57.46346667-24.84053333 118.7808-37.25973333 183.94666667-37.25973333 72.17706667 0 139.09866667 14.86826667 200.76373333 44.61013333s114.22186667 70.14933333 157.66826667 121.23093333c16.11733333-11.8944 29.60853333-22.2176 40.46933333-30.96 10.8608-8.7488 17.69173333-14.17173333 20.49386667-16.27413333 4.20906667-3.4944 8.7616-6.11946667 13.6672-7.872 4.9056-1.74826667 9.45813333-1.74826667 13.6608 0 4.20266667 1.75253333 7.88373333 5.4272 11.04 11.02506667 3.15093333 5.59573333 5.4304 13.99146667 6.83093333 25.19146666 0.69866667 6.29973333 1.40053333 16.97066667 2.09813334 32.01173334 0.70186667 15.04746667 1.40053333 32.53973333 2.10453333 52.48213333 0.70186667 19.9488 1.0528 40.58773333 1.0528 61.93386667 0 21.3408-0.34986667 41.45706667-1.0528 60.3552-0.70186667 23.79093333-6.3072 40.9344-16.8192 51.43253333-5.60533333 5.59573333-14.01173333 8.74346667-25.2256 9.44533333s-23.12746667-0.34986667-35.7376-3.14666666c-18.92266667-4.20373333-39.7664-8.7488-62.544-13.64906667-22.77226667-4.8992-44.49706667-9.968-65.16586667-15.216-20.67306667-5.24906667-38.89386667-10.14826667-54.66133333-14.7008-15.76426667-4.544-25.7536-7.872-29.95733333-9.968v0zM691.872 399.16373333z"></path></svg>