<?xml version="1.0" standalone="no"?><!DOCTYPE svg PUBLIC " -//W3C//DTD SVG 1.1//EN" "http://www.w3.org/Graphics/SVG/1.1/DTD/svg11.dtd"><svg t="1637636643032" class="icon" viewBox="0 0 1024 1024" version="1.1" xmlns="http://www.w3.org/2000/svg" p-id="2537" xmlns:xlink="http://www.w3.org/1999/xlink" width="256" height="256"><defs><style type="text/css"></style></defs><path d="M426.8 469c6.9-3.9 14-7.5 21.4-10.5 54.9-23 113.3-23 170.1 15 13 8.4 30.4 4.9 39.1-7.9 8.7-12.8 5.3-30.2-7.4-38.9-74.7-49.9-152.9-49.9-223.9-20.1-17.8 7.4-31 15.1-38.8 20.6-12.8 9-15.8 26.6-6.7 39.3 9.1 12.7 26.8 15.7 39.6 6.6 0.8-0.6 3.1-2 6.6-4.1zM318 342.9c3.1-2 6.9-4.3 11.2-6.8 14-8 28.5-15.1 43.4-21.3 111.3-46.6 231-46.6 346.9 30.7 8.4 5.8 19.3 6.6 28.5 2.1 9.2-4.4 15.3-13.4 15.9-23.5 0.7-10.1-4.2-19.8-12.8-25.4-133.8-89.3-273.2-89.3-400.6-35.9-17.1 7.1-33.7 15.3-49.8 24.5-8.9 5.2-15.4 9.3-19 11.8-12.8 9-15.8 26.6-6.7 39.3 9.1 12.7 26.8 15.7 39.6 6.6 0.5-0.2 1.6-0.9 3.4-2.1z m451.4 540.4c0 11.3-9.1 20.3-20.4 20.3H274.9c-11.3 0-20.4-9.2-20.4-20.4v-59h-56.8v59c0 42.4 34.5 76.8 77.1 76.8H749c20.5 0 40.1-8.1 54.6-22.4 14.5-14.4 22.6-33.9 22.6-54.2v-65.8h-56.8v65.7zM239 581.2h546c65.3 0 118.3 52.6 118.3 117.5s-53 117.5-118.3 117.5H239c-65.3 0-118.3-52.6-118.3-117.5 0.1-64.9 53-117.5 118.3-117.5z m0 291.4h546c96.7 0 175-77.9 175-173.9 0-96.1-78.4-173.9-175-173.9H239c-96.7 0-175 77.9-175 173.9s78.4 173.9 175 173.9z m0 0"></path><path d="M203.1 215.2c5.1-3.3 11.2-7 18.2-11 22.4-12.8 45.6-24.2 69.5-34.1 74.2-31.1 155-49.7 239.2-49.7 108 0 214.2 30.9 316.4 99.1 8.4 5.6 19.2 6.3 28.3 1.9 9.1-4.4 15.1-13.3 15.8-23.4 0.7-10-4.1-19.7-12.5-25.3C766.3 98 649.1 64 530 64c-92.4 0-180.4 20.3-261.2 54.1-26 10.8-51.4 23.3-75.9 37.3-13.5 7.8-23.1 13.9-28.4 17.7-12.7 9.1-15.6 26.6-6.5 39.2 9 12.6 26.7 15.6 39.4 6.7 0.9-0.6 2.8-1.9 5.7-3.8z m71.7 483.5c0 10.8 5.8 20.9 15.2 26.3 9.4 5.4 21 5.4 30.4 0 9.4-5.4 15.2-15.4 15.2-26.3s-5.8-20.9-15.2-26.3c-9.4-5.4-21-5.4-30.4 0-9.4 5.4-15.2 15.5-15.2 26.3z m206.8 0c0 16.8 13.6 30.4 30.4 30.4 16.8 0 30.4-13.6 30.4-30.4 0-10.8-5.8-20.9-15.2-26.3-9.4-5.4-21-5.4-30.4 0-9.4 5.4-15.2 15.5-15.2 26.3z m206.7 0c0 10.8 5.8 20.9 15.2 26.3 9.4 5.4 21 5.4 30.4 0 9.4-5.4 15.2-15.4 15.2-26.3s-5.8-20.9-15.2-26.3c-9.4-5.4-21-5.4-30.4 0-9.4 5.4-15.2 15.5-15.2 26.3z m0 0"></path></svg>