<?xml version="1.0" standalone="no"?><!DOCTYPE svg PUBLIC "-//W3C//DTD SVG 1.1//EN" "http://www.w3.org/Graphics/SVG/1.1/DTD/svg11.dtd"><svg t="1641896764648" class="icon" viewBox="0 0 1024 1024" version="1.1" xmlns="http://www.w3.org/2000/svg" p-id="35629" xmlns:xlink="http://www.w3.org/1999/xlink" width="256" height="256"><defs><style type="text/css"></style></defs><path d="M543.1 145.5H64.3v814h699.8l0.2-116.9V366.2L543.1 145.5z m-10 80.5l15.5 15.5 135.3 135H533.1V226z m167 669.5H128.3v-686H469v230.9h1.5v0.1h229.6v455z" fill="#727272" p-id="35630"></path><path d="M191.4 256.5h222.8v128H191.4zM191.9 449.5h128.2v382H191.9z" fill="#497CAD" p-id="35631"></path><path d="M384.7 512.5h255.4v64H384.7zM384.7 640h255.4v64H384.7zM384.2 768.5h255.4v64H384.2z" fill="#B2B2B2" p-id="35632"></path><path d="M900.4 213.4v-65.7C900.4 66.6 834.3 0.5 753 0.5H608.8v63.8H753c46 0 83.5 37.4 83.5 83.4v65.7H713.2l155.3 155.1 155.3-155.1H900.4z" fill="#497CAD" p-id="35633"></path></svg>