<?xml version="1.0" standalone="no"?><!DOCTYPE svg PUBLIC " -//W3C//DTD SVG 1.1//EN" "http://www.w3.org/Graphics/SVG/1.1/DTD/svg11.dtd"><svg t="1637636643032" class="icon" viewBox="0 0 1024 1024" version="1.1" xmlns="http://www.w3.org/2000/svg" p-id="2537" xmlns:xlink="http://www.w3.org/1999/xlink" width="256" height="256"><defs><style type="text/css"></style></defs><path d="M780.412121 879.709091H294.787879c-34.133333 0-62.060606-27.927273-62.060606-62.060606v-85.333333h-23.272728c-15.515152 0-27.927273-12.412121-27.927272-27.927273V651.636364c0-15.515152 12.412121-27.927273 27.927272-27.927273H232.727273V381.672727h-23.272728c-15.515152 0-27.927273-12.412121-27.927272-27.927272v-52.751516c0-15.515152 12.412121-27.927273 27.927272-27.927272H232.727273v-62.060606c0-34.133333 27.927273-62.060606 62.060606-62.060606h485.624242c34.133333 0 62.060606 27.927273 62.060606 62.060606v606.642424c0 34.133333-27.927273 62.060606-62.060606 62.060606zM212.557576 701.284848H263.757576v116.363637c0 17.066667 13.963636 31.030303 31.030303 31.030303h485.624242c17.066667 0 31.030303-13.963636 31.030303-31.030303V211.006061c0-15.515152-15.515152-31.030303-31.030303-31.030303H294.787879c-17.066667 0-31.030303 13.963636-31.030303 31.030303v93.090909h-51.2v46.545454H263.757576v304.09697h-51.2v46.545454z"></path><path d="M691.975758 412.70303h-310.303031c-15.515152 0-26.375758-10.860606-26.375757-26.375757v-86.884849c0-15.515152 10.860606-26.375758 26.375757-26.375757h310.303031c15.515152 0 26.375758 10.860606 26.375757 26.375757v86.884849c0 15.515152-10.860606 26.375758-26.375757 26.375757z m-305.648485-31.030303h300.993939v-77.575757H386.327273v77.575757zM546.133333 772.654545c-1.551515 0-4.654545 0-6.20606-1.551515-7.757576-3.10303-12.412121-12.412121-9.309091-20.169697l41.890909-102.4H480.969697c-4.654545 0-9.309091-3.10303-12.412121-6.20606-3.10303-4.654545-3.10303-9.309091-1.551515-13.963637l49.648484-122.569697c3.10303-7.757576 12.412121-12.412121 20.169697-9.309091 7.757576 3.10303 12.412121 12.412121 9.309091 20.169697l-40.339394 100.848485h91.539394c4.654545 0 9.309091 3.10303 12.412122 6.206061 3.10303 4.654545 3.10303 9.309091 1.551515 13.963636l-49.648485 124.121212c-3.10303 7.757576-9.309091 10.860606-15.515152 10.860606z"></path></svg>