<?xml version="1.0" standalone="no"?><!DOCTYPE svg PUBLIC " -//W3C//DTD SVG 1.1//EN" "http://www.w3.org/Graphics/SVG/1.1/DTD/svg11.dtd"><svg t="1637636643032" class="icon" viewBox="0 0 1024 1024" version="1.1" xmlns="http://www.w3.org/2000/svg" p-id="2537" xmlns:xlink="http://www.w3.org/1999/xlink" width="256" height="256"><defs><style type="text/css"></style></defs><path d="M276.201658 0h377.273704c6.739958 0 6.739958 0 6.739958 6.393852v128.004554c0 6.393852 0 6.393852-6.739958 6.393852H276.201658c-6.739958 0-6.739958 0-6.739958-6.393852V6.393852c0-6.393852 0-6.393852 6.739958-6.393852z m202.19874 806.408653c0-147.204326 128.004554-268.796812 276.228983-268.796813 47.16149 0 87.583022 12.751272 128.004554 31.987477V121.592486c0-12.751272-13.479916-25.502544-26.959832-25.502544h-148.297293v70.314157c0 12.751272-13.479916 25.593624-26.941616 25.593624h-431.175152c-13.479916 0-26.941616-12.751272-26.941616-25.593624V95.998861H67.35404C53.89234 95.998861 40.412424 102.392714 40.412424 121.592486v864.007969c0 12.751272 13.479916 25.61184 26.941616 25.611841h512.018216c-67.39958-51.205465-101.062938-128.004554-101.062938-204.803643zM195.358594 358.401822c0-6.393852 6.739958-12.751272 13.479916-12.751272h505.278258c6.739958 0 13.4617 6.412068 13.4617 12.751272v70.405237c0 6.393852-6.721742 12.751272-13.4617 12.751272H208.83851c-6.739958 0-13.479916-6.393852-13.479916-12.751272zM471.587576 640.004554c0 6.393852-6.739958 12.751272-13.479916 12.751272H208.83851c-6.739958 0-13.479916-6.412068-13.479916-12.751272v-63.993169c0-6.412068 6.739958-12.751272 13.479916-12.751272H458.10766c6.739958 0 13.479916 6.393852 13.479916 12.751272z m289.636034-51.205465c-121.264596 0-222.236454 95.998861-222.236454 217.609564s94.32298 217.591347 222.327534 217.591347 222.236454-95.998861 222.236454-217.591347-101.044722-217.609563-222.236454-217.609564z m114.579286 268.815028L774.739958 959.988615c-6.739958 6.393852-20.201658 6.393852-20.201658 0l-107.802896-102.374498c-13.4617-12.751272-13.4617-32.005693 0-44.811612a33.790871 33.790871 0 0 1 47.16149 0l33.681574 32.005692v-140.810474c0-19.199772 13.479916-31.987476 33.69979-31.987476s33.681574 12.751272 33.681574 31.987476v140.810474l33.681574-32.005692a33.790871 33.790871 0 0 1 47.16149 0c13.479916 19.199772 13.479916 38.399545 0 44.811612z"></path></svg>