<?xml version="1.0" standalone="no"?><!DOCTYPE svg PUBLIC " -//W3C//DTD SVG 1.1//EN" "http://www.w3.org/Graphics/SVG/1.1/DTD/svg11.dtd"><svg t="1637636643032" class="icon" viewBox="0 0 1024 1024" version="1.1" xmlns="http://www.w3.org/2000/svg" p-id="2537" xmlns:xlink="http://www.w3.org/1999/xlink" width="256" height="256"><defs><style type="text/css"></style></defs><path d="M884.736 182.955c43.735 0 79.19 35.454 79.19 79.189v496.981c0 43.735-35.455 79.19-79.19 79.19H141.995c-43.735 0-79.19-35.455-79.19-79.19V262.144c0-43.735 35.455-79.19 79.19-79.19h742.741z m-2.73 81.92h-737.28v491.52h737.28v-491.52zM547.502 374.004l0.461 0.988 71.343 157.969 74.505-79.085c15.287-16.227 40.686-17.213 57.18-2.392l0.72 0.664c16.228 15.287 17.215 40.686 2.393 57.18l-0.664 0.72L636.98 633.677c-19.795 21.012-54.433 15.466-66.773-10.429l-0.371-0.799-55.75-123.438-39.876 106.024c-10.278 27.323-44.943 35.357-66.19 15.613l-0.64-0.607-37.287-36.103L285.3 665.48c-16.069 15.453-41.485 15.185-57.227-0.432l-0.688-0.7c-15.453-16.068-15.185-41.484 0.433-57.226l0.699-0.688 113.28-108.939c15.654-15.054 40.28-15.241 56.156-0.59l0.727 0.687 20.831 20.167 52.785-140.329c12.728-33.84 59.684-35.687 75.206-3.426z"></path></svg>