<?xml version="1.0" standalone="no"?><!DOCTYPE svg PUBLIC " -//W3C//DTD SVG 1.1//EN" "http://www.w3.org/Graphics/SVG/1.1/DTD/svg11.dtd"><svg t="1637636643032" class="icon" viewBox="0 0 1024 1024" version="1.1" xmlns="http://www.w3.org/2000/svg" p-id="2537" xmlns:xlink="http://www.w3.org/1999/xlink" width="256" height="256"><defs><style type="text/css"></style></defs><path d="M629.248 564.288a47.04 47.04 0 0 1-46.592-46.656c0-25.408 21.184-46.592 46.592-46.592 25.472 0 46.656 21.12 46.656 46.592a47.04 47.04 0 0 1-46.656 46.656z m93.248-21.248h72.064a27.328 27.328 0 0 0 25.472-25.408 27.328 27.328 0 0 0-25.472-25.408H722.56c-12.672-42.432-50.816-72.064-93.248-72.064-55.04 0-97.472 42.368-97.472 97.472 0 55.104 42.432 97.472 97.472 97.472 46.656 0 84.8-29.632 93.248-72.064zM375.04 343.872a47.04 47.04 0 0 1-46.656-46.656c0-25.408 21.248-46.592 46.656-46.592 25.408 0 46.592 21.184 46.592 46.592a47.04 47.04 0 0 1-46.592 46.656z m97.472-46.656c0-55.04-46.592-97.472-97.472-97.472-42.368 0-80.512 29.696-93.248 72.064H209.664a27.328 27.328 0 0 0-25.408 25.408c0 12.8 12.672 25.472 25.408 25.472h72.064c12.736 42.368 50.88 72.064 93.248 72.064 50.88 4.224 97.472-42.432 97.472-97.536zM375.04 784.64a47.04 47.04 0 0 1-46.656-46.592c0-25.472 21.248-46.656 46.656-46.656 25.408 0 46.592 21.184 46.592 46.656a47.04 47.04 0 0 1-46.592 46.592z m97.472-46.592c0-55.104-42.368-97.472-97.472-97.472-42.368 0-80.512 29.632-93.248 72H209.664a27.328 27.328 0 0 0-25.408 25.472c0 12.672 12.672 25.408 25.408 25.408h72.064c12.736 42.368 50.88 72.064 93.248 72.064 50.88 0 97.472-42.368 97.472-97.472z m29.696-220.416c0-16.96-8.512-25.408-25.472-25.408H209.664c-16.96 0-25.408 8.448-25.408 25.408s8.448 25.408 25.408 25.408h271.296c12.672 0 21.12-8.448 21.12-25.408z m0-220.416c0 16.96 8.448 25.472 25.408 25.472h271.232a27.328 27.328 0 0 0 25.472-25.472c0-12.672-8.512-25.408-25.472-25.408H523.328c-12.736 0-21.184 12.736-21.184 25.408z m0 440.832c0 16.96 8.448 25.408 25.408 25.408h271.232a27.328 27.328 0 0 0 25.472-25.408c0-12.736-8.512-25.472-25.472-25.472H523.328c-12.736 0-21.184 8.512-21.184 25.472z"></path></svg>