<?xml version="1.0" standalone="no"?><!DOCTYPE svg PUBLIC " -//W3C//DTD SVG 1.1//EN" "http://www.w3.org/Graphics/SVG/1.1/DTD/svg11.dtd"><svg t="1637636643032" class="icon" viewBox="0 0 1024 1024" version="1.1" xmlns="http://www.w3.org/2000/svg" p-id="2537" xmlns:xlink="http://www.w3.org/1999/xlink" width="256" height="256"><defs><style type="text/css"></style></defs><path d="M297.38293839 941.23412323c-118.03938389 0-214.61706161-96.57767773-214.61706162-214.61706162V297.38293839c0-118.03938389 96.57767773-214.61706161 214.61706162-214.61706162h429.23412322c118.03938389 0 214.61706161 96.57767773 214.61706162 214.61706162v429.23412322c0 118.03938389-96.57767773 214.61706161-214.61706162 214.61706162H297.38293839zM154.30489703 297.38293839v429.23412322c0 78.69292288 64.38511848 143.07804136 143.07804136 143.07804136h429.23412322c78.69292288 0 143.07804136-64.38511848 143.07804136-143.07804136V297.38293839c0-78.69292288-64.38511848-143.07804136-143.07804136-143.07804136H297.38293839C218.69001551 154.30489703 154.30489703 218.69001551 154.30489703 297.38293839z m157.38584574 500.77314348C265.19037914 798.15608187 225.84391813 758.80962086 225.84391813 712.30925723V311.69074277C225.84391813 265.19037914 265.19037914 225.84391813 311.69074277 225.84391813h400.61851446C758.80962086 225.84391813 798.15608187 265.19037914 798.15608187 311.69074277v400.61851446c0 46.50036363-39.34646102 85.84682465-85.84682464 85.84682464H311.69074277z m314.77168981-304.04083672l-246.80962086 246.80962086h332.65644551c7.15390177 0 14.30780438-3.57695131 21.46170616-7.15390262 7.15390177-3.57695131 7.15390177-14.30780438 7.15390262-21.46170616v-103.7315795l-114.46243343-114.46243258zM333.15244894 404.69146919c0 39.34646102 32.19255925 71.53902026 71.53902025 71.53902026s71.53902026-32.19255925 71.53902026-71.53902026-32.19255925-71.53902026-71.53902026-71.53902025-71.53902026 32.19255925-71.53902025 71.53902025z"></path></svg>