<?xml version="1.0" standalone="no"?><!DOCTYPE svg PUBLIC " -//W3C//DTD SVG 1.1//EN" "http://www.w3.org/Graphics/SVG/1.1/DTD/svg11.dtd"><svg t="1637636643032" class="icon" viewBox="0 0 1024 1024" version="1.1" xmlns="http://www.w3.org/2000/svg" p-id="2537" xmlns:xlink="http://www.w3.org/1999/xlink" width="256" height="256"><defs><style type="text/css"></style></defs><path d="M666.624 273.408H266.24c-46.592 0-86.016 39.424-86.016 86.016v400.384c0 46.592 39.424 86.016 86.016 86.016h400.384c46.592 0 86.016-39.424 86.016-86.016V359.424c0-46.592-39.424-86.016-86.016-86.016z m-378.88 178.688c0-39.424 32.256-71.68 71.68-71.68s71.68 32.256 71.68 71.68-32.256 71.68-71.68 71.68-71.68-32.256-71.68-71.68z m407.552 307.712c0 7.168 0 17.92-7.168 21.504-7.168 3.584-14.336 7.168-21.504 7.168h-332.8l246.784-246.784 114.688 114.688v103.424z"></path><path d="M658.432 177.664h-384C168.96 177.664 82.432 263.68 82.432 368.64v381.44c0 104.96 86.528 190.976 192 190.976h384c105.472 0 192-86.016 192-190.976V368.64c0-104.96-86.528-190.976-192-190.976z m-366.08 35.84c-32.256-4.608-59.392 9.216-87.04 18.432 27.648-9.216 55.296-23.04 87.04-18.432z m494.08 537.088c0 70.144-57.344 126.976-128 126.976h-384c-70.144 0-128-57.344-128-126.976V368.64c0-70.144 57.344-126.976 128-126.976h384c70.144 0 128 57.344 128 126.976v381.952z m23.552 86.528c40.96-31.744 23.04-77.312 18.432-118.272 4.096 40.96 22.528 86.528-18.432 118.272z"></path><path d="M236.544 220.16c14.336-4.608 28.672-7.68 44.544-7.168 19.968-40.448 61.952-68.608 109.568-68.608h367.616c67.584 0 122.368 55.296 122.368 123.392v370.176c0 40.96-19.968 77.312-50.688 99.84 4.096 23.552 9.216 48.128 2.048 69.632 64.512-28.672 109.568-93.696 109.568-169.472V267.776c0-101.888-82.944-184.832-183.808-184.832H390.656c-84.48 0-156.16 58.368-177.152 136.704-1.024 3.072-1.536 6.656-2.048 9.728 8.192-3.072 16.384-6.144 25.088-9.216"></path></svg>