<?xml version="1.0" standalone="no"?><!DOCTYPE svg PUBLIC " -//W3C//DTD SVG 1.1//EN" "http://www.w3.org/Graphics/SVG/1.1/DTD/svg11.dtd"><svg t="1637636643032" class="icon" viewBox="0 0 1024 1024" version="1.1" xmlns="http://www.w3.org/2000/svg" p-id="2537" xmlns:xlink="http://www.w3.org/1999/xlink" width="256" height="256"><defs><style type="text/css"></style></defs><path d="M387.46 190.5H272.143v95.251H387.46zM1035.3 0H95.943C39.438 0 0 72.187 0 142.991v738.018C0 951.582 58.58 1024 115.315 1024h920.217c56.504 0 115.315-72.418 115.315-142.991V142.991C1150.386 72.187 1091.805 0 1035.3 0zM709.42 129.153h191.654v61.348H764.31v285.751h136.764v47.74H709.42z m-230.63 0h57.887v330.724h134.458v64.116H479.25z m-95.251 799.135h-245.16v-249.08h245.16z m58.58-582.342H272.375v178.508h-56.043v-395.3h225.787z m269.146 582.342H464.95v-249.08h246.314z m321.499 0H786.22v-249.08h246.544zM330.955 735.712h-142.53V877.55h142.53z m649.225 0H837.42V877.55h142.76z m-321.499 0h-142.76V877.55h142.76z"></path></svg>