<?xml version="1.0" standalone="no"?><!DOCTYPE svg PUBLIC " -//W3C//DTD SVG 1.1//EN" "http://www.w3.org/Graphics/SVG/1.1/DTD/svg11.dtd"><svg t="1637636643032" class="icon" viewBox="0 0 1024 1024" version="1.1" xmlns="http://www.w3.org/2000/svg" p-id="2537" xmlns:xlink="http://www.w3.org/1999/xlink" width="256" height="256"><defs><style type="text/css"></style></defs><path d="M921.6 332.8l-51.2 0c-6.6 0-13 0.6-19.3 1.8-20.7-28.7-54.5-53-83.1-53L512 281.6 512 128c0-28.3-22.9-51.2-51.2-51.2l-256 0c-28.3 0-51.2 22.9-51.2 51.2l0 153.6c-27.5 0-59.8 22.4-80.6 49.7-5.1-1.5-10.5-2.3-16.1-2.3C25.5 328.9 0 354.4 0 385.8l0 349.9c0 31.4 25.5 56.9 56.9 56.9 3.5 0 6.8-0.2 9.8-0.7 18.3 32.6 50.1 62.5 79.6 62.5l2.5 0-46.4 92.7 768 0-51.2-102.4-2.1 0c4.4-2.4 8.6-5.2 12.7-8.4 12.5 5.4 26.2 8.4 40.6 8.4l51.2 0c56.6 0 102.4-45.8 102.4-102.4L1024 435.2C1024 378.6 978.2 332.8 921.6 332.8zM409.6 128c28.3 0 51.2 22.9 51.2 51.2s-22.9 51.2-51.2 51.2-51.2-22.9-51.2-51.2S381.3 128 409.6 128zM256 128c28.3 0 51.2 22.9 51.2 51.2s-22.9 51.2-51.2 51.2-51.2-22.9-51.2-51.2S227.7 128 256 128zM768 793.6 153.6 793.6l0-51.2L768 742.4 768 793.6zM768 691.2 153.6 691.2 153.6 640 768 640 768 691.2zM768 588.8 153.6 588.8l0-51.2L768 537.6 768 588.8zM768 486.4 153.6 486.4l0-51.2L768 435.2 768 486.4zM768 384 153.6 384l0-51.2L768 332.8 768 384z"></path></svg>