<?xml version="1.0" standalone="no"?><!DOCTYPE svg PUBLIC "-//W3C//DTD SVG 1.1//EN" "http://www.w3.org/Graphics/SVG/1.1/DTD/svg11.dtd"><svg t="1638268476328" class="icon" viewBox="0 0 1024 1024" version="1.1" xmlns="http://www.w3.org/2000/svg" p-id="2426" xmlns:xlink="http://www.w3.org/1999/xlink" width="256" height="256"><defs><style type="text/css"></style></defs><path d="M563.800123 897.97409a391.659469 391.659469 0 1 1 337.016657-337.332511 391.975324 391.975324 0 0 1-337.016657 337.332511zM568.53794 186.038248a328.488587 328.488587 0 1 0 268.160394 267.84454A328.804442 328.804442 0 0 0 568.53794 186.038248z" p-id="2427" fill="#2c2c2c"></path><path d="M555.587909 692.037014a187.301666 187.301666 0 0 1-224.888341-225.204195 185.406539 185.406539 0 0 1 139.291795-139.291795 187.301666 187.301666 0 0 1 85.596546 364.49599z m-9.159778-301.640962a124.130783 124.130783 0 0 0-152.873535 152.873535 121.919803 121.919803 0 0 0 85.596545 85.912399A124.130783 124.130783 0 0 0 631.708822 475.992597a121.919803 121.919803 0 0 0-85.280691-85.596545zM487.363356 0H536.952498a21.162246 21.162246 0 0 1 21.162246 21.162246V126.341764h-91.913634V21.162246a21.162246 21.162246 0 0 1 21.162246-21.162246zM465.253547 896.078964h92.861197v106.442936a21.162246 21.162246 0 0 1-21.162246 21.162246h-50.536705a21.162246 21.162246 0 0 1-21.162246-21.162246v-106.442936zM124.762492 463.042566v93.177052H21.162246a21.162246 21.162246 0 0 1-21.162246-21.162246v-50.536706a21.162246 21.162246 0 0 1 21.162246-21.162245h103.600246v-0.315855zM1024 484.520666v50.536706a21.162246 21.162246 0 0 1-21.162246 21.162246h-103.600246V464.305984h103.284392a21.162246 21.162246 0 0 1 21.4781 20.214682z" p-id="2428" fill="#2c2c2c"></path></svg>