<?xml version="1.0" standalone="no"?><!DOCTYPE svg PUBLIC " -//W3C//DTD SVG 1.1//EN" "http://www.w3.org/Graphics/SVG/1.1/DTD/svg11.dtd"><svg t="1637636643032" class="icon" viewBox="0 0 1024 1024" version="1.1" xmlns="http://www.w3.org/2000/svg" p-id="2537" xmlns:xlink="http://www.w3.org/1999/xlink" width="256" height="256"><defs><style type="text/css"></style></defs><path d="M512 273.22199999c-43.801 0-84.254 16.331-113.907 45.98500001-29.655 29.654-45.986 70.107-45.986 113.908s16.331 84.254 45.986 113.908C427.746 576.678 468.199 593.01 512 593.01v0.001c43.8 0 84.254-16.33199999 113.90799999-45.986 29.655-29.654 45.986-70.10799999 45.98600001-113.908s-16.33199999-84.254-45.98599999-113.908C596.254 289.553 555.8 273.22199999 512 273.22199999z m0 261.52700001c-56.042 0-101.634-45.592-101.634-101.634S455.958 331.482 512 331.482s101.634 45.593 101.634 101.63400001S568.042 534.749 512 534.749z"></path><path d="M850.881 279.849c-18.96-44.296-46.279-83.429-81.19699999-116.313-33.786-31.818-73.405-56.633-117.75700001-73.75599999C607.617 72.674 560.539 64 512 64s-95.617 8.674-139.927 25.78000001c-44.35200001 17.123-83.97099999 41.938-117.75700001 73.75599999-34.918 32.88399999-62.237 72.017-81.19699999 116.313-20.062 46.86799999-30.234 98.434-30.234 153.266 0 38.146 7.68 78.118 22.825 118.807 15.146 40.69 38.224 83.343 68.592 126.773 60.61400001 86.685 153.416 180.82000001 275.826 279.79L512 960l1.871-1.513c122.411-98.971 215.21199999-193.106 275.826-279.791 30.368-43.43 53.44600001-86.083 68.592-126.773 15.146-40.689 22.825-80.662 22.825-118.80700001 0.001-54.833-10.171-106.398-30.233-153.26699999zM512 884.265C409.023 796.54000001 330.669 714.149 279.077 639.34000001c-51.712-74.982-77.93200001-144.366-77.932-206.22400002 0-180.122 130.734-310.856 310.855-310.856 180.122 0 310.856 130.734 310.856 310.85600002 0 61.858-26.22000001 131.242-77.93199999 206.224C693.33199999 714.15 614.977 796.54000001 512 884.265z"></path></svg>