<?xml version="1.0" standalone="no"?><!DOCTYPE svg PUBLIC " -//W3C//DTD SVG 1.1//EN" "http://www.w3.org/Graphics/SVG/1.1/DTD/svg11.dtd"><svg t="1637636643032" class="icon" viewBox="0 0 1024 1024" version="1.1" xmlns="http://www.w3.org/2000/svg" p-id="2537" xmlns:xlink="http://www.w3.org/1999/xlink" width="256" height="256"><defs><style type="text/css"></style></defs><path d="M512.49 59.749c-247.98 0-449.008 201.028-449.008 449.008 0 247.982 201.027 449.01 449.008 449.01 247.982 0 449.01-201.028 449.01-449.01 0-247.98-201.028-449.008-449.01-449.008z m0 858.973c-226.418 0-409.965-183.545-409.965-409.965 0-226.418 183.547-409.965 409.965-409.965s409.967 183.547 409.967 409.965c0 226.42-183.549 409.965-409.967 409.965z m-19.819-390.659v278.095L710.638 300.43 199.555 528.063h293.116z m39.044 88.857V489.019h-148.53l252.043-112.252L531.715 616.92z"></path></svg>