<?xml version="1.0" standalone="no"?><!DOCTYPE svg PUBLIC " -//W3C//DTD SVG 1.1//EN" "http://www.w3.org/Graphics/SVG/1.1/DTD/svg11.dtd"><svg t="1637636643032" class="icon" viewBox="0 0 1024 1024" version="1.1" xmlns="http://www.w3.org/2000/svg" p-id="2537" xmlns:xlink="http://www.w3.org/1999/xlink" width="256" height="256"><defs><style type="text/css"></style></defs><path d="M466.2 572.6h70.9c2.5 0 4.6-2.7 4.6-6s-2.1-6-4.6-6h-70.9c-2.5 0-4.6 2.7-4.6 6s2.1 6 4.6 6zM466.2 609.3h50.9c2.5 0 4.6-2.7 4.6-6s-2.1-6-4.6-6h-50.9c-2.5 0-4.6 2.7-4.6 6s2.1 6 4.6 6zM557.1 634h-90.9c-2.5 0-4.6 2.7-4.6 6s2.1 6 4.6 6h90.9c2.5 0 4.6-2.7 4.6-6-0.1-3.3-2.1-6-4.6-6zM527.1 670.6h-60.9c-2.5 0-4.6 2.7-4.6 6s2.1 6 4.6 6h60.9c2.5 0 4.6-2.7 4.6-6-0.1-3.3-2.1-6-4.6-6zM601.2 572.6h70.9c2.5 0 4.6-2.7 4.6-6s-2.1-6-4.6-6h-70.9c-2.5 0-4.6 2.7-4.6 6s2.1 6 4.6 6zM601.2 609.3h50.9c2.5 0 4.6-2.7 4.6-6s-2.1-6-4.6-6h-50.9c-2.5 0-4.6 2.7-4.6 6s2.1 6 4.6 6zM692.1 634h-90.9c-2.5 0-4.6 2.7-4.6 6s2.1 6 4.6 6h90.9c2.5 0 4.6-2.7 4.6-6-0.1-3.3-2.1-6-4.6-6zM662.1 670.6h-60.9c-2.5 0-4.6 2.7-4.6 6s2.1 6 4.6 6h60.9c2.5 0 4.6-2.7 4.6-6-0.1-3.3-2.1-6-4.6-6zM736.2 572.6h70.9c2.5 0 4.6-2.7 4.6-6s-2.1-6-4.6-6h-70.9c-2.5 0-4.6 2.7-4.6 6s2.1 6 4.6 6zM736.2 609.3h50.9c2.5 0 4.6-2.7 4.6-6s-2.1-6-4.6-6h-50.9c-2.5 0-4.6 2.7-4.6 6s2.1 6 4.6 6zM827.1 634h-90.9c-2.5 0-4.6 2.7-4.6 6s2.1 6 4.6 6h90.9c2.5 0 4.6-2.7 4.6-6-0.1-3.3-2.1-6-4.6-6zM797.1 670.6h-60.9c-2.5 0-4.6 2.7-4.6 6s2.1 6 4.6 6h60.9c2.5 0 4.6-2.7 4.6-6-0.1-3.3-2.1-6-4.6-6z"></path><path d="M854.4 516.4H166.7c-23.3 0-43.9-11.5-56.7-29.1v218c12.7 17.6 33.4 29.1 56.7 29.1h687.7c25.1 0 47.3-13.4 59.6-33.5v-218c-12.4 20-34.5 33.5-59.6 33.5z m43.6 86.2v93.5c-10.2 14-26.2 22.3-43.6 22.3H166.7c-15.6 0-30.4-6.9-40.7-18.7V522a85.41 85.41 0 0 0 40.7 10.3h687.7c14.9 0 29.6-3.9 42.6-11.3 0.4-0.2 0.7-0.4 1.1-0.6v82.2z"></path><path d="M178.2 496.4h667.7c24.1 0 45.5-12.4 58.1-31.1 7.7-11.4 8.6-26.1 2.9-38.6l-62.9-137H180l-62.9 137c-5.7 12.5-4.8 27.2 2.9 38.6 12.6 18.7 34 31.1 58.2 31.1z m-46.5-63.1l58.6-127.7h643.5l58.6 127.7c3.5 7.5 2.8 16.4-1.6 23-10.1 15.1-26.9 24.1-44.8 24.1H178.2c-18 0-34.7-9-44.8-24.1-4.5-6.6-5.2-15.4-1.7-23zM289.5 554.5c-35.9 0-65 29.1-65 65s29.1 65 65 65 65-29.1 65-65-29.1-65-65-65z m0 118c-29.3 0-53-23.7-53-53s23.7-53 53-53 53 23.7 53 53-23.7 53-53 53z"></path><path d="M275.8 581.9c-20.7 7.5-31.5 30.5-23.9 51.3 0.6 1.6 2.3 2.4 3.8 1.8 1.6-0.6 2.4-2.3 1.8-3.8-6.4-17.6 2.7-37.2 20.3-43.6 1.6-0.6 2.4-2.3 1.8-3.8-0.5-1.6-2.2-2.4-3.8-1.9z"></path><path d="M289.5 582.5m-3 0a3 3 0 1 0 6 0 3 3 0 1 0-6 0Z"></path></svg>