<?xml version="1.0" standalone="no"?><!DOCTYPE svg PUBLIC " -//W3C//DTD SVG 1.1//EN" "http://www.w3.org/Graphics/SVG/1.1/DTD/svg11.dtd"><svg t="1637636643032" class="icon" viewBox="0 0 1024 1024" version="1.1" xmlns="http://www.w3.org/2000/svg" p-id="2537" xmlns:xlink="http://www.w3.org/1999/xlink" width="256" height="256"><defs><style type="text/css"></style></defs><path d="M870.50913268 578.42299091C835.67446618 540.4266695 694.81142926 512 526.11453323 512s-309.55993292 28.4266695-344.39460073 66.39476229A525.06062015 525.06062015 0 0 1 173.25121281 483.77093485c0-249.46025315 158.08276781-366.97785236 352.86332042-366.97785368S878.97785236 234.3106817 878.97785236 483.77093485a525.06062015 525.06062015 0 0 1-8.46871968 94.65205606zM512 88.56401601c-62.35800548 0-112.91626196 15.58244421-112.91626196 0 0-10.64235818 23.82533092-32.80217378 58.57531023-45.95691923A28.03146215 28.03146215 0 0 1 483.77093485 3.8768192h56.4581303a28.03146215 28.03146215 0 0 1 26.11188658 38.73027758C601.09093104 55.76184221 624.91626196 77.92165783 624.91626196 88.56401601c0 15.58244421-50.55825649 0-112.91626196 0z"></path><path d="M850.74878719 640.18818733V723.71799202c0 101.34234595-53.49407976 183.48892683-84.6871968 183.48892681s-28.22906515-96.26111414-28.22906515-197.60346008c0-67.74975743-139.47981312-81.61022909-211.71799201-84.20730222-72.23817887 2.59707449-211.71799202 16.4575448-211.71799198 84.20730222 0 101.34234595 2.9640519 197.60345875-28.22906649 197.60346008s-84.6871968-82.14658089-84.6871968-183.48892681v-83.52980469c-18.15128874 0.5363518-28.22906515-3.5004037-28.22906515-15.27192537 0-46.77556126 158.08276781-84.6871968 352.86332042-84.68719681S878.97785236 578.14070071 878.97785236 624.91626196c0 11.77152035-10.1624636 15.75181861-28.22906517 15.27192537z"></path><path d="M526.11453323 1020.1231808c-101.34234595 0-183.48892683-53.91751573-183.48892683-155.25986036V766.06159039c0-140.55251806 169.65668381-112.91626196 168.49929301-112.91626195h29.97926766C539.94677495 653.14532844 709.60345875 626.38417425 709.60345875 766.06159039v98.80173005c0 101.34234595-82.14658089 155.25986036-183.48892552 155.25986036zM399.08373804 864.86332044a14.11453323 14.11453323 0 0 0-14.11453325-14.11453325 14.11453323 14.11453323 0 0 0 0-28.22906515 14.11453323 14.11453323 0 0 0 0-28.22906649 14.11453323 14.11453323 0 1 0-14.11453323-14.11453191 14.11453323 14.11453323 0 0 0 14.11453323 14.11453191 14.11453323 14.11453323 0 0 0 0 28.22906649 14.11453323 14.11453323 0 0 0 0 28.22906515 14.11453323 14.11453323 0 1 0 0 28.22906517 14.11453323 14.11453323 0 1 0 14.11453325 14.11453322 14.11453323 14.11453323 0 0 0-14.11453325-14.11453322 14.11453323 14.11453323 0 0 0 14.11453325-14.11453192z m127.03079519-127.0307952a98.80173004 98.80173004 0 1 0 98.80172873 98.80172871 98.80173004 98.80173004 0 0 0-98.80172873-98.80172871z m155.25986037 127.0307952a14.11453323 14.11453323 0 0 0-14.11453324-14.11453325 14.11453323 14.11453323 0 0 0 0-28.22906515 14.11453323 14.11453323 0 0 0 0-28.22906649 14.11453323 14.11453323 0 1 0-14.11453192-14.11453191 14.11453323 14.11453323 0 0 0 14.11453192 14.11453191 14.11453323 14.11453323 0 0 0 0 28.22906649 14.11453323 14.11453323 0 0 0 0 28.22906515 14.11453323 14.11453323 0 1 0 0 28.22906517 14.11453323 14.11453323 0 1 0 14.11453324 14.11453322 14.11453323 14.11453323 0 0 0-14.11453324-14.11453322 14.11453323 14.11453323 0 0 0 14.11453324-14.11453192zM526.11453323 907.20691883a70.57266355 70.57266355 0 1 1 70.57266357-70.57266488 70.57266355 70.57266355 0 0 1-70.57266357 70.57266488z m0-112.91626328a42.34359839 42.34359839 0 1 0 42.34359841 42.3435984 42.34359839 42.34359839 0 0 0-42.34359841-42.3435984z"></path></svg>