<?xml version="1.0" standalone="no"?><!DOCTYPE svg PUBLIC " -//W3C//DTD SVG 1.1//EN" "http://www.w3.org/Graphics/SVG/1.1/DTD/svg11.dtd"><svg t="1637636643032" class="icon" viewBox="0 0 1024 1024" version="1.1" xmlns="http://www.w3.org/2000/svg" p-id="2537" xmlns:xlink="http://www.w3.org/1999/xlink" width="256" height="256"><defs><style type="text/css"></style></defs><path d="M315.020786 633.447203c0-14.595558 11.798076-26.515263 26.515263-26.51526299L682.463951 606.93194001c14.595558 0 26.515263 11.798076 26.515263 26.51526299 0 14.595558-11.798076 26.515263-26.515263 26.515263l-341.049531 0c-14.595558 0-26.393633-11.919705-26.393634-26.515263z"></path><path d="M512.06081499 436.528804c14.595558 0 26.515263 11.798076 26.51526301 26.51526301l0 341.04953099c0 14.595558-11.798076 26.515263-26.515263 26.515263-14.595558 0-26.515263-11.798076-26.515263-26.515263L485.545552 462.922437c0-14.595558 11.798076-26.393633 26.51526299-26.393633z"></path><path d="M711.290177 415.365245c-10.33852 10.33852-27.123411 10.33852-37.461931 1e-8l-186.093361-186.09336001c-10.33852-10.33852-10.33852-27.123411 0-37.461931s27.123411-10.33852 37.46193201 0l186.09336 186.09336c10.33852 10.33852 10.33852 27.123411-1e-8 37.461931z"></path><path d="M312.709823 404.296947c-10.33852-10.33852-10.33852-27.123411 0-37.461931L487.734885 191.931583c10.33852-10.33852 27.123411-10.33852 37.46193201 0s10.33852 27.123411-1e-8 37.461932L350.17175401 404.296947c-10.33852 10.33852-27.123411 10.33852-37.46193101 0z"></path></svg>