<?xml version="1.0" standalone="no"?><!DOCTYPE svg PUBLIC " -//W3C//DTD SVG 1.1//EN" "http://www.w3.org/Graphics/SVG/1.1/DTD/svg11.dtd"><svg t="1637636643032" class="icon" viewBox="0 0 1024 1024" version="1.1" xmlns="http://www.w3.org/2000/svg" p-id="2537" xmlns:xlink="http://www.w3.org/1999/xlink" width="256" height="256"><defs><style type="text/css"></style></defs><path d="M350.32097437 350.71821994h104.87288122v104.87288205H350.32097437V350.71821994z m218.88241562 0h104.87288122v104.87288205h-104.87288122V350.71821994z m-218.88241562 217.2934325h104.87288122v104.87288122H350.32097437v-104.87288122z m0 0"></path><path d="M511.60275442 90.52224558C279.21398266 90.52224558 90.125 279.61122906 90.125 512c0 232.78601734 189.08898266 421.47775442 421.47775442 421.47775442 232.78601734 0 421.47775442-189.08898266 421.47775443-421.47775442 0-232.38877094-188.69173709-421.47775442-421.47775443-421.47775442z m-26.61546587 612.95021218H319.33580469v-166.445975h166.445975v166.445975h-0.79449114z m0-218.08792365H319.33580469V319.73305108h166.445975v165.65148303h-0.79449114z m53.23093176 51.64194865h83.42161028v83.42161029h-83.42161028v-83.42161029z m165.65148303 166.445975h-165.65148303v-30.98516967h135.8580509v-135.85805091h30.98516968v166.44597501l-1.19173755 0.39724557z m0-218.08792365h-165.65148303V319.73305108h166.445975v165.65148303h-0.79449197z m0 0"></path></svg>