<?xml version="1.0" standalone="no"?><!DOCTYPE svg PUBLIC "-//W3C//DTD SVG 1.1//EN" "http://www.w3.org/Graphics/SVG/1.1/DTD/svg11.dtd"><svg t="1638268413609" class="icon" viewBox="0 0 1024 1024" version="1.1" xmlns="http://www.w3.org/2000/svg" p-id="2050" xmlns:xlink="http://www.w3.org/1999/xlink" width="256" height="256"><defs><style type="text/css"></style></defs><path d="M222.976 750.7968a15.36 15.36 0 0 1-15.36-15.36V287.8976a15.36 15.36 0 0 1 30.72 0v447.5392a15.36 15.36 0 0 1-15.36 15.36zM512 855.6032a15.36 15.36 0 0 1-15.36-15.36V183.7568a15.36 15.36 0 0 1 30.72 0v656.4864a15.36 15.36 0 0 1-15.36 15.36z" fill="#2c2c2c" p-id="2051"></path><path d="M800.5632 302.4896h-61.44a15.36 15.36 0 0 1 0-30.72h61.44a15.36 15.36 0 0 1 0 30.72z m-122.88 0h-61.44a15.36 15.36 0 0 1 0-30.72h61.44a15.36 15.36 0 0 1 0 30.72z m-122.88 0H512a15.36 15.36 0 0 1 0-30.72h42.6496a15.36 15.36 0 0 1 0 30.72zM800.5632 752.2304h-61.44a15.36 15.36 0 0 1 0-30.72h61.44a15.36 15.36 0 0 1 0 30.72z m-122.88 0h-61.44a15.36 15.36 0 1 1 0-30.72h61.44a15.36 15.36 0 0 1 0 30.72z m-122.88 0H512a15.36 15.36 0 0 1 0-30.72h42.6496a15.36 15.36 0 0 1 0 30.72z" fill="#2c2c2c" p-id="2052"></path><path d="M512 303.2576H222.976a15.36 15.36 0 0 1 0-30.72H512a15.36 15.36 0 0 1 0 30.72zM512 750.7968H222.976a15.36 15.36 0 0 1 0-30.72H512a15.36 15.36 0 0 1 0 30.72zM801.024 682.496a15.36 15.36 0 0 1-15.36-15.36v-61.44a15.36 15.36 0 0 1 30.72 0v61.44a15.36 15.36 0 0 1-15.36 15.36z m0-122.88a15.36 15.36 0 0 1-15.36-15.36v-61.44a15.36 15.36 0 0 1 30.72 0v61.44a15.36 15.36 0 0 1-15.36 15.36z m0-122.88a15.36 15.36 0 0 1-15.36-15.36v-61.44a15.36 15.36 0 0 1 30.72 0v61.44a15.36 15.36 0 0 1-15.36 15.36z" fill="#2c2c2c" p-id="2053"></path></svg>