<?xml version="1.0" standalone="no"?><!DOCTYPE svg PUBLIC " -//W3C//DTD SVG 1.1//EN" "http://www.w3.org/Graphics/SVG/1.1/DTD/svg11.dtd"><svg t="1637636643032" class="icon" viewBox="0 0 1024 1024" version="1.1" xmlns="http://www.w3.org/2000/svg" p-id="2537" xmlns:xlink="http://www.w3.org/1999/xlink" width="256" height="256"><defs><style type="text/css"></style></defs><path d="M214.40234375 113.328125v100.546875H113.85546875V113.328125h100.546875m43.15429688-43.15429688H70.7890625v186.76757813h186.76757813V70.17382812zM910.14453125 808.98242188v100.54687499H809.59765625V808.98242188H910.14453125m43.06640625-43.06640626H766.44335938v186.67968751H953.2109375V765.91601563z m0 0"></path><path d="M502.24414062 541.70703125c91.23046875 24.34570313 177.1875 47.19726563 262.61718751 119.35546875l0.17578124 0.08789063c43.33007813 39.46289063 64.6875 74.35546875 68.5546875 112.67578124l55.10742188 0.43945313c-6.24023438-53.87695313-20.65429688-88.59375-81.5625-143.96484375C710.89648438 549.08984375 613.953125 523.16210938 520.26171875 498.20117187c-91.93359375-24.52148438-178.68164063-47.4609375-255.41015625-124.45312499l-0.17578125-0.17578125c-46.14257813-50.36132813-66.88476563-85.4296875-72.7734375-123.3984375l-56.51367188-0.43945313c6.06445313 51.76757813 27.24609375 89.56054688 84.02343751 151.5234375 87.97851563 88.59375 187.03125 114.9609375 282.83203124 140.44921875z m1e-8 0"></path></svg>