<?xml version="1.0" standalone="no"?><!DOCTYPE svg PUBLIC " -//W3C//DTD SVG 1.1//EN" "http://www.w3.org/Graphics/SVG/1.1/DTD/svg11.dtd"><svg t="1637636643032" class="icon" viewBox="0 0 1024 1024" version="1.1" xmlns="http://www.w3.org/2000/svg" p-id="2537" xmlns:xlink="http://www.w3.org/1999/xlink" width="256" height="256"><defs><style type="text/css"></style></defs><path d="M512 69.03125C267.30406249 69.03125 69.03125 267.30406249 69.03125 512s198.27281252 442.96875 442.96875 442.96875 442.96875-198.27281252 442.96875-442.96875S756.69593751 69.03125 512 69.03125z m278.00718751 720.97593751a391.49578125 391.49578125 0 0 1-278.00718751 115.171875 390.12257813 390.12257813 0 0 1-153.00140625-30.830625 392.55890624 392.55890624 0 0 1-125.00578123-84.34125A391.49578125 391.49578125 0 0 1 118.82093749 512c0-53.06765625 10.32117187-104.62921875 30.83062502-153.00140625a392.55890624 392.55890624 0 0 1 84.34124998-125.00578123A391.49578125 391.49578125 0 0 1 512 118.82093749c53.06765625 0 104.62921875 10.32117187 153.00140625 30.83062502a392.55890624 392.55890624 0 0 1 125.00578123 84.34124998 391.49578125 391.49578125 0 0 1 115.17187503 278.00718751 391.49578125 391.49578125 0 0 1-115.171875 278.00718751z m-84.38554688-436.36851564L547.26031249 512l158.36132814 158.36132813-35.26031251 35.26031249L512 547.26031249 353.63867187 705.57734375l-35.26031249-35.2603125L476.73968751 512 318.42265625 353.63867187l35.2603125-35.26031249L512 476.73968751l158.36132813-158.36132814 35.26031249 35.26031251z"></path></svg>