<?xml version="1.0" standalone="no"?><!DOCTYPE svg PUBLIC " -//W3C//DTD SVG 1.1//EN" "http://www.w3.org/Graphics/SVG/1.1/DTD/svg11.dtd"><svg t="1637636643032" class="icon" viewBox="0 0 1024 1024" version="1.1" xmlns="http://www.w3.org/2000/svg" p-id="2537" xmlns:xlink="http://www.w3.org/1999/xlink" width="256" height="256"><defs><style type="text/css"></style></defs><path d="M883.03661113 788.26612738c-6.66118411-63.67053981-20.76213219-103.37811841-80.88580824-158.57078833-95.59231884-81.49137076-191.96321753-107.44403598-285.13328722-132.53161266-91.35338389-24.56852372-177.60274254-47.66639639-253.90358023-124.91883133l-0.17301823-0.17301823c-42.56237202-46.88781652-63.4110129-80.62628133-70.85077687-115.66237983h64.36261099V69.03125H69.07450434v187.37824699h66.43882457c7.35325529 47.66639639 29.06698559 84.77870846 82.3564593 143.51824128 87.54699234 88.7581165 185.99410462 115.22983556 281.24038785 140.83646607h0.08650869c90.48829448 24.30899682 175.95907411 47.23385125 260.82429126 119.64178959l0.17301736 0.08650868c42.7353894 39.27503432 65.14119087 73.18651735 68.08249299 127.16806227l-73.79207899-0.60556251 99.3987095 167.91374763L954.75247743 788.78518034l-71.7158663-0.51905296zM112.32894756 112.28569322h100.86936056v100.86936056H112.32894756V112.28569322z"></path></svg>