<?xml version="1.0" standalone="no"?><!DOCTYPE svg PUBLIC " -//W3C//DTD SVG 1.1//EN" "http://www.w3.org/Graphics/SVG/1.1/DTD/svg11.dtd"><svg t="1637636643032" class="icon" viewBox="0 0 1024 1024" version="1.1" xmlns="http://www.w3.org/2000/svg" p-id="2537" xmlns:xlink="http://www.w3.org/1999/xlink" width="256" height="256"><defs><style type="text/css"></style></defs><path d="M891.38772403 933.79837695H733.88033106c-19.52560107 0-40.39498279-19.4530979-40.3949828-38.88642123 0-29.11908967 20.86938172-38.82545371 40.39498279-38.82545371h117.11241019V738.13206558c0-29.13886341 20.91057632-38.86664831 40.39498279-38.86664831 19.53631192 0 39.06191299 9.72696094 39.06191299 38.86664831v156.77989014c0 19.43332417-19.52560107 38.88642205-39.06191299 38.88642123z m-1e-8-528.67754077c19.53631192 0 39.06191299 19.43332417 39.06191301 38.82545371v137.40753433c0 19.43332417-19.52560107 38.82545371-39.06191301 38.82545288-19.48440564 0-40.39498279-19.39212954-40.39498278-38.82545288V443.94628989c0-19.39295271 20.91057632-38.82545371 40.39498278-38.82545371z m0-79.12898273c-19.48440564 0-40.39498279-9.70636322-40.39498278-38.82545288V169.1921904H733.88033106c-19.52560107 0-40.39498279-9.6857655-40.3949828-38.82545371 0-19.43332417 20.86938172-40.24173669 40.39498279-40.24173669h157.50739297c19.53631192 0 39.06191299 20.80841253 39.06191301 40.24173669v156.79966389c0 29.11908967-19.52560107 38.82545371-39.06191301 38.82545288z m-315.00489907 607.8065235H448.10657148c-30.65813498 0-40.40569281-19.4530979-40.40569281-38.88642123 0-29.11908967 9.74673468-38.82545371 40.4056928-38.82545371h128.27625348c19.48358167 0 39.01989358 9.70636322 39.01989358 38.82545371 0 19.43332417-19.53631192 38.88642205-39.01989358 38.88642123z m0-764.60618655H448.10657148c-30.65813498 0-40.40569281-9.6857655-40.40569281-38.82545371 0-19.43332417 9.74673468-40.24173669 40.4056928-40.24173669h128.27625348c19.48358167 0 39.01989358 20.80841253 39.01989358 40.24173669 0 29.13886341-19.53631192 38.82545371-39.01989358 38.82545371z m-285.77375959 764.60618655H133.10167239c-30.70921646 0-40.44688825-19.4530979-40.44688824-38.88642123v-156.77989014c0-29.13886341 9.73767178-38.86664831 40.44688824-38.86664831 19.48440564 0 39.02071756 9.72696094 39.02071756 38.86664831v117.95443644h118.48667541c19.48440564 0 39.01000672 9.70636322 39.01000672 38.8254537 0 19.43332417-19.52560107 38.88642205-39.01000672 38.88642123zM172.12238995 443.94546591V581.35300024c0 19.43332417-19.53631192 38.82545371-39.02071756 38.82545289-30.70921646 0-40.44688825-19.39212954-40.44688824-38.82545289V443.94546591c0-19.39212954 9.73767178-38.82545371 40.44688824-38.82545288 19.48440564 0.00082398 39.02071756 19.43332417 39.02071756 38.82545288zM290.60906537 169.1921904H172.12238995v117.97421018c0 29.11908967-19.53631192 38.82545371-39.02071756 38.82545288-30.70921646 0-40.44688825-9.70636322-40.44688824-38.82545288V130.36673669c0-19.43332417 9.73767178-40.24173669 40.44688824-40.24173669h157.50739297c19.48440564 0 39.01000672 20.80841253 39.01000672 40.24173669 0 29.13886341-19.52560107 38.82545371-39.01000672 38.82545371z"></path></svg>