<?xml version="1.0" standalone="no"?><!DOCTYPE svg PUBLIC " -//W3C//DTD SVG 1.1//EN" "http://www.w3.org/Graphics/SVG/1.1/DTD/svg11.dtd"><svg t="1637636643032" class="icon" viewBox="0 0 1024 1024" version="1.1" xmlns="http://www.w3.org/2000/svg" p-id="2537" xmlns:xlink="http://www.w3.org/1999/xlink" width="256" height="256"><defs><style type="text/css"></style></defs><path d="M872.9375 462.125V272h31.875c15.5625 0 28.125-12.5625 28.125-28.125V120.125c0-15.5625-12.5625-28.125-28.125-28.125H781.0625c-15.5625 0-28.125 12.5625-28.125 28.125v31.875H272.9375V120.125c0-15.5625-12.5625-28.125-28.125-28.125H121.0625c-15.5625 0-28.125 12.5625-28.125 28.125v123.75c0 15.5625 12.5625 28.125 28.125 28.125h31.875v480H121.0625c-15.5625 0-28.125 12.5625-28.125 28.125v123.75c0 15.5625 12.5625 28.125 28.125 28.125h123.75c15.5625 0 28.125-12.5625 28.125-28.125v-31.875h480v31.875c0 15.5625 12.5625 28.125 28.125 28.125h123.75c15.5625 0 28.125-12.5625 28.125-28.125V780.125c0-15.5625-12.5625-28.125-28.125-28.125h-31.875V462.125zM791.375 130.4375h103.125v103.125H791.375V130.4375z m-118.40625 81.5625L212.9375 672.03125V531.96875L532.90625 212h140.0625zM131.375 233.5625V130.4375h103.125v103.125H131.375z m113.4375 38.4375c15.5625 0 28.125-12.5625 28.125-28.125v-31.875h175.03125L212.9375 447.125V272h31.875z m-10.3125 621.5625H131.375V790.4375h103.125v103.125z m38.4375-81.5625v-31.875c0-15.5625-12.5625-28.125-28.125-28.125h-26.90625L752.9375 216.96875V243.875c0 15.5625 12.5625 28.125 28.125 28.125h31.875v16.40625L289.34375 812H272.9375z m101.25 0l438.75-438.75v141.375L515.5625 812H374.1875z m520.3125-21.5625v103.125H791.375V790.4375h103.125z m-113.4375-38.4375c-15.5625 0-28.125 12.5625-28.125 28.125v31.875H602.5625L812.9375 601.625V752h-31.875z"></path></svg>