<?xml version="1.0" standalone="no"?><!DOCTYPE svg PUBLIC " -//W3C//DTD SVG 1.1//EN" "http://www.w3.org/Graphics/SVG/1.1/DTD/svg11.dtd"><svg t="1637636643032" class="icon" viewBox="0 0 1024 1024" version="1.1" xmlns="http://www.w3.org/2000/svg" p-id="2537" xmlns:xlink="http://www.w3.org/1999/xlink" width="256" height="256"><defs><style type="text/css"></style></defs><path d="M911.60465205 617.09991699h-194.83763467V406.5253956h194.46294726a49.83347198 49.83347198 0 0 0 0-100.04163222h-194.46294726V112.02081612a49.83347198 49.83347198 0 1 0-100.04163222 0v194.83763554H406.52555205v-194.83763554a49.83347198 49.83347198 0 0 0-100.04163223 0v194.83763554H112.02097167a49.83347198 49.83347198 0 0 0 1e-8 100.04163135h194.83763554v210.57452139h-194.83763554a49.83347198 49.83347198 0 0 0 0 100.04163222h194.83763554v194.46294726a49.83347198 49.83347198 0 0 0 100.04163223 0v-195.21232294h210.57452139v194.46294726a49.83347198 49.83347198 0 1 0 100.04163135 0v-194.46294726h194.46294814a49.83347198 49.83347198 0 0 0 0-100.04163222z m-504.7044126 1e-8V406.5253956h210.57452139v210.57452139z"></path></svg>