<?xml version="1.0" standalone="no"?><!DOCTYPE svg PUBLIC " -//W3C//DTD SVG 1.1//EN" "http://www.w3.org/Graphics/SVG/1.1/DTD/svg11.dtd"><svg t="1637636643032" class="icon" viewBox="0 0 1024 1024" version="1.1" xmlns="http://www.w3.org/2000/svg" p-id="2537" xmlns:xlink="http://www.w3.org/1999/xlink" width="256" height="256"><defs><style type="text/css"></style></defs><path d="M837.367808 884.736H187.657216C121.731072 884.736 68.096 827.774976 68.096 757.76V266.24c0-70.014976 53.635072-126.976 119.561216-126.976h649.710592c65.926144 0 119.560192 56.961024 119.560192 126.976v491.52c0 70.014976-53.634048 126.976-119.560192 126.976zM187.657216 208.896c-27.531264 0-49.929216 25.723904-49.929216 57.344v491.52c0 31.620096 22.397952 57.344 49.929216 57.344h649.710592c27.53024 0 49.928192-25.723904 49.928192-57.344V266.24c0-31.620096-22.397952-57.344-49.928192-57.344H187.657216z"></path><path d="M285.136896 743.965696c-19.228672 0-34.816-15.588352-34.816-34.816V314.850304c0-19.227648 15.587328-34.816 34.816-34.816s34.816 15.588352 34.816 34.816V709.15072c0 19.227648-15.588352 34.814976-34.816 34.814976zM436.784128 743.965696c-19.228672 0-34.816-15.588352-34.816-34.816V314.850304c0-19.227648 15.587328-34.816 34.816-34.816s34.816 15.588352 34.816 34.816V709.15072c0 19.227648-15.587328 34.814976-34.816 34.814976zM588.239872 743.965696c-19.227648 0-34.816-15.588352-34.816-34.816V314.850304c0-19.227648 15.588352-34.816 34.816-34.816 19.228672 0 34.816 15.588352 34.816 34.816V709.15072c0 19.227648-15.587328 34.814976-34.816 34.814976zM739.888128 743.965696c-19.227648 0-34.816-15.588352-34.816-34.816V314.850304c0-19.227648 15.588352-34.816 34.816-34.816 19.228672 0 34.816 15.588352 34.816 34.816V709.15072c0 19.227648-15.587328 34.814976-34.816 34.814976z"></path></svg>