<?xml version="1.0" standalone="no"?><!DOCTYPE svg PUBLIC "-//W3C//DTD SVG 1.1//EN" "http://www.w3.org/Graphics/SVG/1.1/DTD/svg11.dtd"><svg t="1641896737301" class="icon" viewBox="0 0 1024 1024" version="1.1" xmlns="http://www.w3.org/2000/svg" p-id="33768" xmlns:xlink="http://www.w3.org/1999/xlink" width="256" height="256"><defs><style type="text/css"></style></defs><path d="M64 832h358.7c-7.5-20.6-12.7-42-15.5-64h-279l0.1-31.9V288l-0.2-160h382.2v224h222.3v88.1c22 2.6 43.4 7.6 64 15V277.7L601.7 64H64.1l0.2 224v448l-0.3 96z m510.2-703.2L719.4 288H574.2V128.8z" fill="#727272" p-id="33769"></path><path d="M960 846.6L912.2 820c39.9-99 0-213.9-98.4-268.7-76.2-42.4-167.4-37.4-236.7 5.4l72.9 40.5c41.3-13.3 88.1-10.2 128.8 12.4 64.8 36.1 93 109.9 71.7 176l-42.1-23.4L831.8 892l42.7-15.1 2.7 1.5-2.7-1.5 85.5-30.3zM749.2 885c-41.1 13-87.4 9.7-127.8-12.7-64.8-36.1-93-109.9-71.8-176l42.1 23.4L568.5 590l-128.2 45.4L488 662h0.1-0.1c0 0.1-0.1 0.2-0.1 0.3-39.6 98.9 0.2 213.6 98.6 268.2 75.9 42.2 166.7 37.4 235.9-4.9L749.2 885z" fill="#CE6043" p-id="33770"></path></svg>