<?xml version="1.0" standalone="no"?><!DOCTYPE svg PUBLIC "-//W3C//DTD SVG 1.1//EN" "http://www.w3.org/Graphics/SVG/1.1/DTD/svg11.dtd"><svg t="1641896712486" class="icon" viewBox="0 0 1024 1024" version="1.1" xmlns="http://www.w3.org/2000/svg" p-id="32192" xmlns:xlink="http://www.w3.org/1999/xlink" width="256" height="256"><defs><style type="text/css"></style></defs><path d="M960 846.6L912.2 820c39.9-99 0-213.9-98.5-268.7-76.3-42.4-167.5-37.4-236.8 5.4l73 40.5c41.3-13.3 88.2-10.2 128.9 12.4 64.9 36.1 93 109.9 71.8 176l-42.1-23.4L831.7 892l42.7-15.1 2.7 1.5-2.7-1.5 85.6-30.3zM749.1 885c-41.1 13-87.5 9.7-127.8-12.7-64.9-36.1-93-109.9-71.8-176l42.1 23.4L568.3 590 440 635.4l47.8 26.6h0.1-0.1c0 0.1-0.1 0.2-0.1 0.3-39.7 98.9 0.2 213.6 98.6 268.2 76 42.2 166.8 37.4 236-4.9L749.1 885z" fill="#CE6043" p-id="32193"></path><path d="M225 320h113c17.7 0 32-14.3 32-32v-64c0-17.7-14.3-32-32-32H225c-17.7 0-32 14.3-32 32v64c0 17.7 14.3 32 32 32z m81-89c13.8 0 25 11.2 25 25s-11.2 25-25 25-25-11.2-25-25 11.2-25 25-25z m175 153H225c-17.7 0-32 14.3-32 32v64c0 17.7 14.3 32 32 32h256c17.7 0 32-14.3 32-32v-64c0-17.7-14.3-32-32-32z m-32 89c-13.8 0-25-11.2-25-25s11.2-25 25-25 25 11.2 25 25-11.2 25-25 25zM193 608v64c0 17.7 14.3 32 32 32h181.2c0.1-1.4 0.3-2.8 0.4-4.3v-0.2c0.3-2.6 0.6-5.2 0.9-7.9 0-0.3 0.1-0.7 0.1-1 0.4-2.6 0.7-5.1 1.2-7.7 0-0.1 0-0.2 0.1-0.4 0.7-4 1.4-8.1 2.3-12.1 0.1-0.4 0.2-0.7 0.2-1.1 0.5-2.4 1-4.8 1.6-7.2 0.1-0.2 0.1-0.5 0.2-0.7 0.9-3.9 2-7.8 3.1-11.7l0.3-1.2c0.7-2.2 1.3-4.5 2-6.7 0.1-0.3 0.2-0.7 0.3-1 1.2-3.8 2.5-7.6 3.9-11.3 0.2-0.4 0.3-0.8 0.5-1.2l2.4-6.3c0.2-0.4 0.3-0.8 0.5-1.2 1.5-3.7 3-7.3 4.7-10.9 0.2-0.4 0.4-0.9 0.6-1.3 0.9-2 1.8-4 2.8-5.9 0.2-0.4 0.4-0.9 0.6-1.3 1.7-3.5 3.5-7 5.4-10.5 0.2-0.4 0.5-0.9 0.7-1.3 1-1.9 2.1-3.8 3.2-5.6 0.3-0.5 0.5-0.9 0.8-1.4 1.3-2.3 2.7-4.5 4.1-6.8H225c-17.7 0.2-32 14.5-32 32.2z" fill="#E6C27C" p-id="32194"></path><path d="M490.8 938.2c-13.1-13.1-24.8-27.2-35-42.2H128V128h385v224h223v88.4c22 2.8 43.5 8.1 64 15.7V277.7L604.6 64H64v896h451.2c-8.5-6.8-16.6-14-24.4-21.8zM577 128.7L722.7 288H577V128.7z" fill="#727272" p-id="32195"></path></svg>