<?xml version="1.0" standalone="no"?><!DOCTYPE svg PUBLIC "-//W3C//DTD SVG 1.1//EN" "http://www.w3.org/Graphics/SVG/1.1/DTD/svg11.dtd"><svg t="1641896252501" class="icon" viewBox="0 0 1024 1024" version="1.1" xmlns="http://www.w3.org/2000/svg" p-id="7717" xmlns:xlink="http://www.w3.org/1999/xlink" width="256" height="256"><defs><style type="text/css"></style></defs><path d="M250.5 663c-54.6-94.7-53.4-211.7 1.7-304.8l112.2 79.6-44.2-260.1L60 221.8l113.7 80.7c-35 56.5-55.3 120.9-59 187.7-4.3 77.2 13.9 153.6 52.7 220.8 38.8 67.2 95.8 121.2 164.9 156.1 56.1 28.3 117.6 42.9 179.9 42.9 12.4 0 24.8-0.6 37.2-1.7l-9-95.6c-117.3 11-231-47.8-289.9-149.7zM850.3 721.6c35-56.5 55.3-120.9 59-187.7 4.3-77.2-13.9-153.6-52.7-220.8-38.8-67.2-95.8-121.2-164.8-156.1-67.2-34-142.2-48.3-217-41.3l8.9 95.6c117.1-10.9 230.8 47.9 289.7 149.7 54.6 94.7 53.4 211.7-1.7 304.8l-112.2-79.6 44.2 260.1 260.3-44-113.7-80.7z" fill="#497CAD" p-id="7718"></path></svg>