<?xml version="1.0" standalone="no"?><!DOCTYPE svg PUBLIC "-//W3C//DTD SVG 1.1//EN" "http://www.w3.org/Graphics/SVG/1.1/DTD/svg11.dtd"><svg t="1641896628795" class="icon" viewBox="0 0 1024 1024" version="1.1" xmlns="http://www.w3.org/2000/svg" p-id="27231" xmlns:xlink="http://www.w3.org/1999/xlink" width="256" height="256"><defs><style type="text/css"></style></defs><path d="M447.6 954.1c-1.6 0-3.3-0.1-4.9-0.4-104.5-16.1-200.3-69.3-269.7-149.6-34.4-39.8-61.3-84.8-79.9-133.8-19.2-50.7-29-104.1-29-158.8 0-60.4 11.8-119 35.2-174.2 22.5-53.3 54.8-101.1 95.9-142.2 41.1-41.1 88.9-73.3 142.2-95.9C392.5 75.8 451.1 64 511.5 64c107.5 0 211.4 38.7 292.6 108.9 80.4 69.5 133.5 165.3 149.6 269.8 2.7 17.5-9.3 33.8-26.8 36.5-17.5 2.7-33.8-9.3-36.5-26.8C861.9 267.4 699 128 511.5 128c-211.4 0-383.4 172-383.4 383.4 0 190.5 136.4 349.9 324.3 378.9 17.5 2.7 29.5 19.1 26.8 36.6-2.5 15.9-16.1 27.2-31.6 27.2z" fill="#727272" p-id="27232"></path><path d="M655.7 511.5c0 79.6-64.5 144.2-144.2 144.2-79.7 0-144.2-64.6-144.2-144.2s64.5-144.2 144.2-144.2c79.7 0 144.2 64.6 144.2 144.2z" fill="#5280C1" p-id="27233"></path><path d="M794.8 728.7L960 532 766 694.5l-165.4-197-69.1 69 193.7 162.2L531.5 891l69.1 69L766 763l194 162.5z" fill="#CE6043" p-id="27234"></path></svg>