<?xml version="1.0" standalone="no"?><!DOCTYPE svg PUBLIC "-//W3C//DTD SVG 1.1//EN" "http://www.w3.org/Graphics/SVG/1.1/DTD/svg11.dtd"><svg t="1641896624709" class="icon" viewBox="0 0 1024 1024" version="1.1" xmlns="http://www.w3.org/2000/svg" p-id="26942" xmlns:xlink="http://www.w3.org/1999/xlink" width="256" height="256"><defs><style type="text/css"></style></defs><path d="M622.2 64H64v832h384.1v-64H128V128h416v227h224v36l-0.1 184.4h64L832 391v-86.8L622.2 64zM608 145l127.5 146H608V145z" fill="#727272" p-id="26943"></path><path d="M230 223.6h182.9v64H230z" fill="#497CAD" p-id="26944"></path><path d="M230 413.8h439.9v64H230zM230 606.9h346.1v64H230z" fill="#B2B2B2" p-id="26945"></path><path d="M795 729l165-196.5-193.7 162.3L601 498l-69 68.9L725.4 729 532 891.1l69 68.9 165.3-196.8L960 925.5z" fill="#CE6043" p-id="26946"></path></svg>