<?xml version="1.0" standalone="no"?><!DOCTYPE svg PUBLIC " -//W3C//DTD SVG 1.1//EN" "http://www.w3.org/Graphics/SVG/1.1/DTD/svg11.dtd"><svg t="1637636643032" class="icon" viewBox="0 0 1024 1024" version="1.1" xmlns="http://www.w3.org/2000/svg" p-id="2537" xmlns:xlink="http://www.w3.org/1999/xlink" width="256" height="256"><defs><style type="text/css"></style></defs><path d="M812 92H212a120 120 0 0 0-120 120v600a120 120 0 0 0 120 120h600a120 120 0 0 0 120-120V212a120 120 0 0 0-120-120z m60 720a60 60 0 0 1-60 60H212a60 60 0 0 1-60-60V212a60 60 0 0 1 60-60h600a60 60 0 0 1 60 60v600z"></path><path d="M426.02 280.94L329.06 377.9l-37.32-37.32a29.16 29.16 0 0 0-41.16 41.16l61.68 61.74a29.1 29.1 0 0 0 31.92 6.12 31.74 31.74 0 0 0 12.78-7.56l115.02-115.08a32.58 32.58 0 0 0-45.96-46.02zM752 362H572a30 30 0 0 0 0 60h180a30 30 0 0 0 0-60zM752 602H572a30 30 0 0 0 0 60h180a30 30 0 0 0 0-60zM362 542a90 90 0 1 0 0 180 90 90 0 0 0 0-180z m0 120a30 30 0 1 1 0-60 30 30 0 0 1 0 60z"></path></svg>