<?xml version="1.0" standalone="no"?><!DOCTYPE svg PUBLIC " -//W3C//DTD SVG 1.1//EN" "http://www.w3.org/Graphics/SVG/1.1/DTD/svg11.dtd"><svg t="1637636643032" class="icon" viewBox="0 0 1024 1024" version="1.1" xmlns="http://www.w3.org/2000/svg" p-id="2537" xmlns:xlink="http://www.w3.org/1999/xlink" width="256" height="256"><defs><style type="text/css"></style></defs><path d="M841.58984375 676.91027833V260.68774414a78.37646484 78.37646484 0 0 0-78.27758789-78.27758789H637.12878418C620.25378418 129.05780029 570.93890381 90.125 512 90.125S403.76269531 129.05780029 386.87121582 182.41015625H254.75512695a78.37646484 78.37646484 0 0 0-78.27758789 78.27758789v418.06823731C126.18212891 697.33660889 90.125 745.28369141 90.125 802.0390625a131.8359375 131.8359375 0 0 0 263.671875 0c0-61.14715575-41.83319092-112.06054688-98.29193115-126.99920654L254.75512695 261.51171875l132.05017091-0.2142334C403.62261963 314.74871826 452.98693847 353.796875 512 353.796875c59.1696167 0 108.6328125-39.2376709 125.31829834-92.91137695L762.48828125 260.68774414v416.22253417C709.15240479 693.78527833 670.203125 743.10015869 670.203125 802.0390625a131.8359375 131.8359375 0 0 0 263.671875 0c0-58.93066406-38.9163208-108.24554443-92.28515625-125.12878417zM274.6953125 802.0390625a52.734375 52.734375 0 1 1-52.734375-52.734375 52.79205323 52.79205323 0 0 1 52.734375 52.734375z m527.34375 52.734375a52.734375 52.734375 0 1 1 52.734375-52.734375 52.80029297 52.80029297 0 0 1-52.734375 52.734375z"></path><path d="M675.74375001 433.934375a33.20624999 33.20624999 0 0 0-9.75937501-23.7375c-12.675-12.7875-34.7625-12.7875-47.596875-0.06562499L512 516.48125001 405.584375 410.196875c-12.665625-12.7875-34.865625-12.7875-47.484375-0.1125a33.421875 33.421875 0 0 0-9.834375 23.85A33.084375 33.084375 0 0 0 358.1 457.625l106.29375001 106.40625001L358.1 670.4375a33.75 33.75 0 0 0-9.834375 23.878125 33.046875 33.046875 0 0 0 9.75 23.60625c12.703125 12.778125 34.959375 12.778125 47.56875 0.05625L512 611.609375l106.40625001 106.35A33.6 33.6 0 1 0 665.871875 670.4375L559.578125 564.021875 665.871875 457.625a32.7375 32.7375 0 0 0 9.87187501-23.690625z"></path></svg>