<?xml version="1.0" standalone="no"?><!DOCTYPE svg PUBLIC " -//W3C//DTD SVG 1.1//EN" "http://www.w3.org/Graphics/SVG/1.1/DTD/svg11.dtd"><svg t="1637636643032" class="icon" viewBox="0 0 1024 1024" version="1.1" xmlns="http://www.w3.org/2000/svg" p-id="2537" xmlns:xlink="http://www.w3.org/1999/xlink" width="256" height="256"><defs><style type="text/css"></style></defs><path d="M128 810.666667V486.826667a64 64 0 0 0 24.746667-104.533334l85.333333-171.733333A58.88 58.88 0 0 0 256 213.333333a64 64 0 0 0 42.666667-16.64l133.12 95.146667-43.733334 56.746667 85.333334 65.066666 26.026666-33.92L448 341.333333l52.053333-67.413333 50.773334 39.04L576 278.4 490.666667 213.333333l-34.56 44.586667L320 158.933333A47.36 47.36 0 0 0 320 149.333333a64 64 0 1 0-116.693333 36.266667L114.346667 362.666667A46.933333 46.933333 0 0 0 106.666667 362.666667a64 64 0 0 0-21.333334 124.16V810.666667H42.666667v128h938.666666v-128z m128-682.666667a21.333333 21.333333 0 1 1-21.333333 21.333333 21.333333 21.333333 0 0 1 21.333333-21.333333zM106.666667 405.333333a21.333333 21.333333 0 1 1-21.333334 21.333334 21.333333 21.333333 0 0 1 21.333334-21.333334z m832 490.666667H85.333333v-42.666667h853.333334z"></path><path d="M618.666667 640h320v42.666667H618.666667zM618.666667 725.333333h320v42.666667H618.666667zM938.666667 268.586667L840.746667 170.666667H618.666667v426.666666h320z m-106.666667-46.506667L887.253333 277.333333H832zM661.333333 554.666667V213.333333h128v106.666667h106.666667v234.666667z"></path></svg>