<?xml version="1.0" standalone="no"?><!DOCTYPE svg PUBLIC " -//W3C//DTD SVG 1.1//EN" "http://www.w3.org/Graphics/SVG/1.1/DTD/svg11.dtd"><svg t="1637636643032" class="icon" viewBox="0 0 1024 1024" version="1.1" xmlns="http://www.w3.org/2000/svg" p-id="2537" xmlns:xlink="http://www.w3.org/1999/xlink" width="256" height="256"><defs><style type="text/css"></style></defs><path d="M134.790938 0a54.03384 54.03384 0 0 0-53.887009 53.887009V323.028391a53.887009 53.887009 0 0 0 107.774018 0V107.774018h242.418124a53.887009 53.887009 0 1 0 0-107.774018z m916.079151 1024a54.03384 54.03384 0 0 0 53.887009-53.887009V700.677947a53.887009 53.887009 0 0 0-107.774018 0V916.225982H754.564956a53.887009 53.887009 0 0 0 0 107.774018z m0-646.056782A54.03384 54.03384 0 0 0 1104.757098 323.028391V53.887009A54.03384 54.03384 0 0 0 1050.870089 0H754.564956a53.887009 53.887009 0 0 0 0 107.774018H996.98308V323.028391a54.03384 54.03384 0 0 0 53.887009 53.887009M134.790938 646.790938a54.03384 54.03384 0 0 0-53.887009 53.887009v269.435044a54.03384 54.03384 0 0 0 53.887009 53.887009h296.305133a53.887009 53.887009 0 1 0 0-107.774018H188.677947V700.677947a54.180671 54.180671 0 0 0-53.887009-53.887009m-80.903929-80.903929h1077.887009a53.887009 53.887009 0 1 0 0-107.774018H53.887009a53.887009 53.887009 0 0 0 0 107.774018"></path></svg>