<?xml version="1.0" standalone="no"?><!DOCTYPE svg PUBLIC " -//W3C//DTD SVG 1.1//EN" "http://www.w3.org/Graphics/SVG/1.1/DTD/svg11.dtd"><svg t="1637636643032" class="icon" viewBox="0 0 1024 1024" version="1.1" xmlns="http://www.w3.org/2000/svg" p-id="2537" xmlns:xlink="http://www.w3.org/1999/xlink" width="256" height="256"><defs><style type="text/css"></style></defs><path d="M420.864 869.888h-312.32c-8.192 0-14.336-6.656-14.336-15.36V140.8c0-8.704 6.656-15.36 14.336-15.36h621.056c8.192 0 14.336 6.656 14.336 15.36v211.456c0 26.112 20.992 47.104 47.104 47.104s47.104-20.992 47.104-47.104V140.8c0-60.416-48.64-109.056-108.544-109.056H108.544C48.64 31.744 0 80.896 0 140.8v713.216c0 60.416 48.64 109.056 108.544 109.056h312.32c26.112 0 47.104-20.992 47.104-47.104s-20.992-46.08-47.104-46.08z"></path><path d="M1010.176 912.384L891.392 793.6c13.824-28.16 21.504-59.392 21.504-93.184 0-116.224-94.72-211.456-211.456-211.456S489.984 583.68 489.984 700.416s94.72 211.456 211.456 211.456c49.152 0 94.208-16.896 130.048-45.056l111.616 111.616c9.216 9.216 20.992 13.824 33.28 13.824s24.064-4.608 33.28-13.824c18.944-18.432 18.944-48.128 0.512-66.048z m-308.224-94.72c-64.512 0-117.248-52.736-117.248-117.248 0-64.512 52.736-117.248 117.248-117.248 64.512 0 117.248 52.736 117.248 117.248 0 65.024-52.736 117.248-117.248 117.248zM587.776 306.176c0-26.112-20.992-47.104-47.104-47.104H185.856c-26.112 0-47.104 20.992-47.104 47.104s20.992 47.104 47.104 47.104h354.816c26.112 0 47.104-20.992 47.104-47.104zM185.856 461.312c-26.112 0-47.104 20.992-47.104 47.104s20.992 47.104 47.104 47.104H384c26.112 0 47.104-20.992 47.104-47.104s-20.992-47.104-47.104-47.104H185.856z"></path></svg>