<?xml version="1.0" standalone="no"?><!DOCTYPE svg PUBLIC " -//W3C//DTD SVG 1.1//EN" "http://www.w3.org/Graphics/SVG/1.1/DTD/svg11.dtd"><svg t="1637636643032" class="icon" viewBox="0 0 1024 1024" version="1.1" xmlns="http://www.w3.org/2000/svg" p-id="2537" xmlns:xlink="http://www.w3.org/1999/xlink" width="256" height="256"><defs><style type="text/css"></style></defs><path d="M526.87587093 819.21125653c7.710544-7.75966293 7.55227307-20.18341867-0.36020373-27.7531552-7.91029333-7.5599136-20.5774592-7.40273387-28.28909547 0.3623872-7.710544 7.7542048-7.5511808 20.1790528 0.35911254 27.74878934C506.49816 827.1280992 519.16423467 826.97201067 526.87587093 819.21125653L526.87587093 819.21125653zM387.685488 857.6602816c10.71770027 2.66987413 21.60676907-3.6784448 24.33449387-14.1822048 2.7168096-10.49939413-3.75594347-21.17889067-14.46491094-23.85422293-10.69805227-2.66987413-21.58712213 3.6784448-24.32357866 14.1822048C370.51359147 844.3054528 376.98743573 854.99040747 387.685488 857.6602816L387.685488 857.6602816zM284.15637227 758.6544512c2.99733227 10.43499413 14.05449707 16.50388267 24.6826912 13.5709504 10.6391104-2.9394816 16.822608-13.77724907 13.83509973-24.2133344-2.99624107-10.42953707-14.04467307-16.50388267-24.6837824-13.5698592C287.36327787 737.38605547 281.16013227 748.22273173 284.15637227 758.6544512L284.15637227 758.6544512zM562.51748907 681.760768c-2.98641707-10.4360864-14.04467307-16.50933973-24.6826912-13.5698592-10.62819413 2.93838933-16.8215168 13.7750656-13.826368 24.20678613 2.99842347 10.43499413 14.04576427 16.50388267 24.6837824 13.5709504C559.32040747 703.02916373 565.51372907 692.19248747 562.51748907 681.760768L562.51748907 681.760768zM319.8089056 621.20287147c-7.7225504 7.76075413-7.55227307 20.18450987 0.35911253 27.75533866 7.9015616 7.55882133 20.56763627 7.4016416 28.28909547-0.3634784 7.7116352-7.75966293 7.55227307-20.1790528-0.36020373-27.74333226C340.18552533 613.2860288 327.52054187 613.44320853 319.8089056 621.20287147L319.8089056 621.20287147zM458.97964053 582.76039573c-10.69914347-2.67969813-21.58712213 3.67298667-24.31484693 14.17238187-2.7266336 10.50376107 3.74721067 21.18871467 14.45508693 23.8574976 10.70787627 2.67096533 21.59694507-3.68390187 24.31375574-14.17674773C476.1700928 596.1108576 469.6875168 585.425904 458.97964053 582.76039573L458.97964053 582.76039573zM472.704496 529.83445333c107.17481493 26.73366933 171.984208 133.6781728 144.7244224 238.794368-27.2608768 105.12165333-136.28364693 168.6921632-243.45846187 141.9574016-107.16499093-26.73912747-171.9754752-133.68253867-144.7156896-238.8031008C256.506912 566.66692693 365.53950507 503.09532587 472.704496 529.83445333L472.704496 529.83445333zM475.99981547 517.1563712c114.30794133 28.51831573 183.43322987 142.56974827 154.35386986 254.70009387-29.07936 112.1281632-145.35314133 179.92724693-259.6698144 151.4089312C256.37592853 894.74271467 187.25064 780.6836416 216.3289088 668.55875307 245.4082688 556.43168213 361.68314133 488.6325984 475.99981547 517.1563712L475.99981547 517.1563712zM437.5518816 665.41406507c-30.84654187-7.69744533-62.22356587 10.60199787-70.07491733 40.85802453-7.84152747 30.25820907 10.80829653 61.02943573 41.6559296 68.72578987s62.22247467-10.597632 70.06400213-40.8536576C487.03951573 703.88601173 468.39951573 673.1104192 437.5518816 665.41406507L437.5518816 665.41406507zM483.9417632 486.52049387C615.52093013 519.35034027 695.05501653 650.58458453 661.58116907 779.6466912c-33.4640224 129.06647253-167.26008 207.07678827-298.83924694 174.24803413C231.1627552 921.07033707 151.6286688 789.83172587 185.0926912 660.768528 218.56762987 531.70096427 352.36368747 453.69283093 483.9417632 486.52049387L483.9417632 486.52049387zM192.2552896 141.70614613c-21.09702613-5.2622496-42.54443307 7.24555413-47.9092864 27.9343488-5.36376213 20.68988693 7.38308587 41.73124587 28.480112 46.99349547 21.08720213 5.2611584 42.54443307-7.2411872 47.9092864-27.93544107C226.09916373 168.00429653 213.35231573 146.96730453 192.2552896 141.70614613L192.2552896 141.70614613zM211.82417813 66.2303552c63.59124907 15.8686144 102.03045013 79.29176747 85.85730027 141.66269013-16.18297387 62.3807456-80.83300373 100.07989227-144.425344 84.216736-63.60107307-15.86752213-102.02935893-79.2884928-85.85620907-141.66378133C83.57198507 88.07071147 148.23183787 50.36610773 211.82417813 66.2303552L211.82417813 66.2303552zM842.54754987 292.28115093c-83.6196704-20.8656224-168.6288544 28.7136992-189.8972512 110.72555094-21.27603627 82.0162176 29.2594624 165.4088512 112.8780416 186.2744736 83.62076267 20.8547072 168.62994667-28.7136992 189.90598293-110.7299168C976.70162773 396.52958293 926.16612907 313.14131627 842.54754987 292.28115093L842.54754987 292.28115093zM813.74762027 403.30905493c21.09702613 5.26661547 33.85369813 26.30360853 28.480112 46.9924032-5.36594453 20.6942528-26.811168 33.20096533-47.9092864 27.93980694-21.08720213-5.2622496-33.84496533-26.30360853-28.480112-46.9924032C771.2042784 410.56006613 792.64950187 398.04789653 813.74762027 403.30905493L813.74762027 403.30905493zM293.99648427 105.17275093c11.86707733 17.22101547 19.61909973 37.1108128 22.2758752 58.04520214l387.69387946 140.11927146c3.90657387-2.73318293 7.95177173-5.32010027 12.10830507-7.7443808 15.82167787-9.22449173 32.82438827-15.80967147 50.38486827-19.67040106L293.99648427 105.17275093 293.99648427 105.17275093zM856.27131413 601.7344032c-23.0148384 7.20189227-47.32859413 9.57378027-71.47207146 6.888624l-99.6924 105.56699627c0.53812267 23.1196256-2.1077376 46.41826027-8.052192 69.31739733-0.99765547 3.86509547-2.09791467 7.690896-3.26693867 11.4872256L856.27131413 601.7344032 856.27131413 601.7344032zM168.83003627 660.02847253l0.78917333-3.12067413c6.7925696-26.19445547 17.62160533-50.83239467 31.91514667-73.21087253l-58.41741227-278.11988907c-21.63733227-6.4913088-40.52620053-18.00473173-55.65039253-32.88769707L168.83003627 660.02847253z"></path></svg>