<?xml version="1.0" standalone="no"?><!DOCTYPE svg PUBLIC "-//W3C//DTD SVG 1.1//EN" "http://www.w3.org/Graphics/SVG/1.1/DTD/svg11.dtd"><svg t="1641896626995" class="icon" viewBox="0 0 1024 1024" version="1.1" xmlns="http://www.w3.org/2000/svg" p-id="27086" xmlns:xlink="http://www.w3.org/1999/xlink" width="256" height="256"><defs><style type="text/css"></style></defs><path d="M64 64v896h620v-0.4c-59-2.8-114.3-25-158.8-63.5H396.6V730.2h-64v165.9H192.4V576.3h271.1c43.9-84.2 132-141.8 233.4-141.8 49.3 0 95.6 13.6 135.1 37.3 23.3 13.9 44.2 31.4 62 51.5h2V64H64z m704.5 228.7c0 50.7-41.3 91.9-92 91.9h-393c-50.7 0-92-41.2-92-91.9V127.9h577v164.8z" fill="#8959AB" p-id="27087"></path><path d="M396.6 896.1V730.2h-64v165.9H192.4V576.3h271.1c-10.4 19.9-18.3 41.4-23.3 63.9-4.1 18.3-6.2 37.4-6.2 56.9 0 70.2 27.4 136.1 77 185.8 4.6 4.6 9.3 8.9 14.1 13.1H396.6zM768.5 127.9v164.8c0 50.7-41.3 91.9-92 91.9h-393c-50.7 0-92-41.2-92-91.9V127.9h577z" fill="#FFFFFF" p-id="27088"></path><path d="M636.1 919.8c-38.4-10.4-73.6-30.7-102.4-59.5-43.5-43.4-67.5-101.1-67.6-162.4 0.2 105.9 72.3 195.2 170 221.9z m121.9 0c97.7-26.8 169.7-116.1 170-221.9-0.2 61.4-24.2 119-67.7 162.4-28.8 28.8-64 49.1-102.3 59.5zM928 697.4" fill="#FFFFFF" p-id="27089"></path><path d="M696.9 434.5C552 434.5 434 552.4 434 697.2c0 70.2 27.4 136.1 77 185.8 49.7 49.6 115.7 76.9 185.9 76.9 70.3 0 136.3-27.3 186-76.9 49.7-49.6 77.1-115.6 77.1-185.8 0-144.8-118-262.7-263.1-262.7z m0 461.4c-109.7 0-198.9-89.2-198.9-198.7s89.2-198.7 198.9-198.7c109.8 0 199.1 89.2 199.1 198.7s-89.3 198.7-199.1 198.7z" fill="#727272" p-id="27090"></path><path d="M821.7 617.8l-45.2-45.2L697 652l-79.5-79.4-45.2 45.2 79.4 79.4-79.4 79.3 45.2 45.2 79.5-79.3 79.5 79.3 45.2-45.2-79.4-79.3z" fill="#CE6043" p-id="27091"></path></svg>