<?xml version="1.0" standalone="no"?><!DOCTYPE svg PUBLIC "-//W3C//DTD SVG 1.1//EN" "http://www.w3.org/Graphics/SVG/1.1/DTD/svg11.dtd"><svg t="1641896744924" class="icon" viewBox="0 0 1024 1024" version="1.1" xmlns="http://www.w3.org/2000/svg" p-id="34341" xmlns:xlink="http://www.w3.org/1999/xlink" width="256" height="256"><defs><style type="text/css"></style></defs><path d="M539 64H64v766h511v-64H128V128h351v222h223v239h64V285L539 64z m4 222V157.3L675.3 286H543z" fill="#727272" p-id="34342"></path><path d="M191 191h192v64H191z" fill="#497CAD" p-id="34343"></path><path d="M191 255h192v64H191z" fill="#E6C37D" p-id="34344"></path><path d="M447 511.2h191.6v64H447zM447 383.2h191.6v64H447zM192.1 639.2H639v64H192.1zM191.1 382.7H383V575H191.1z" fill="#CFD0D0" p-id="34345"></path><path d="M671.8 874.6V960h64v-85.4h-64z" fill="#80559F" p-id="34346"></path><path d="M576 590v370h64.9V831.7h191.2V960H960V590H576z m319 142c0 15.7-12.7 28.8-28.4 28.8H669.4c-15.7 0-29.4-12.7-29.4-28.5V618h255v114z" fill="#80559F" p-id="34347"></path></svg>