<?xml version="1.0" standalone="no"?><!DOCTYPE svg PUBLIC "-//W3C//DTD SVG 1.1//EN" "http://www.w3.org/Graphics/SVG/1.1/DTD/svg11.dtd"><svg t="1638329969451" class="icon" viewBox="0 0 1024 1024" version="1.1" xmlns="http://www.w3.org/2000/svg" p-id="6426" xmlns:xlink="http://www.w3.org/1999/xlink" width="256" height="256"><defs><style type="text/css"></style></defs><path d="M853.333333 972.8h-86.186666a34.133333 34.133333 0 0 1 0-68.266667H853.333333c37.802667 0 51.2-13.397333 51.2-51.2v-83.626666a34.133333 34.133333 0 0 1 68.266667 0V853.333333c0 75.912533-43.554133 119.466667-119.466667 119.466667z m-597.333333 0h-85.333333c-75.9296 0-119.466667-43.554133-119.466667-119.466667v-83.626666a34.133333 34.133333 0 0 1 68.266667 0V853.333333c0 37.802667 13.397333 51.2 51.2 51.2h85.333333a34.133333 34.133333 0 0 1 0 68.266667z m682.666667-682.666667a34.133333 34.133333 0 0 1-34.133334-34.133333v-85.333333c0-37.802667-13.397333-51.2-51.2-51.2h-86.186666a34.133333 34.133333 0 0 1 0-68.266667H853.333333c75.912533 0 119.466667 43.537067 119.466667 119.466667v85.333333a34.133333 34.133333 0 0 1-34.133333 34.133333zM85.333333 290.133333a34.133333 34.133333 0 0 1-34.133333-34.133333v-85.333333c0-75.9296 43.537067-119.466667 119.466667-119.466667h85.333333a34.133333 34.133333 0 0 1 0 68.266667h-85.333333c-37.802667 0-51.2 13.397333-51.2 51.2v85.333333a34.133333 34.133333 0 0 1-34.133334 34.133333z" p-id="6427" fill="#2c2c2c"></path><path d="M853.333333 870.4H170.666667a17.066667 17.066667 0 0 1-17.066667-17.066667V170.666667a17.066667 17.066667 0 0 1 17.066667-17.066667h682.666666a17.066667 17.066667 0 0 1 17.066667 17.066667v682.666666a17.066667 17.066667 0 0 1-17.066667 17.066667z m-665.6-34.133333h648.533334V187.733333H187.733333v648.533334z" p-id="6428" fill="#2c2c2c"></path></svg>