<?xml version="1.0" standalone="no"?><!DOCTYPE svg PUBLIC " -//W3C//DTD SVG 1.1//EN" "http://www.w3.org/Graphics/SVG/1.1/DTD/svg11.dtd"><svg t="1637636643032" class="icon" viewBox="0 0 1024 1024" version="1.1" xmlns="http://www.w3.org/2000/svg" p-id="2537" xmlns:xlink="http://www.w3.org/1999/xlink" width="256" height="256"><defs><style type="text/css"></style></defs><path d="M569.6 230.4c1.92 1.28 65.92 90.88 65.92 90.88l57.6-7.68 26.24-35.2-2.56-51.2-138.88-11.52L569.6 230.4zM639.36 340.48l73.6 12.8-172.16 142.72-52.48-22.4z"></path><path d="M540.8 508.8c-1.92 0-3.2-0.64-5.12-1.28l-52.48-22.4c-3.84-1.92-7.04-5.12-7.68-9.6-0.64-4.48 0.64-8.96 4.48-11.52l151.04-133.12c3.2-2.56 7.04-3.84 10.88-3.2l73.6 12.16c5.12 0.64 8.96 4.48 10.24 9.6 1.28 5.12-0.64 10.24-4.48 13.44L549.12 505.6c-2.56 1.92-5.12 3.2-8.32 3.2zM512 469.76l26.88 11.52 144.64-120.32-39.68-7.04L512 469.76z"></path><path d="M861.44 881.92h-697.6c-36.48 0-66.56-29.44-66.56-66.56 0-36.48 29.44-66.56 66.56-66.56h698.24c36.48 0 66.56 29.44 66.56 66.56-0.64 37.12-30.08 66.56-67.2 66.56z"></path><path d="M861.44 894.72h-697.6c-43.52 0-79.36-35.84-79.36-79.36 0-43.52 35.84-79.36 79.36-79.36h698.24c43.52 0 79.36 35.84 79.36 79.36-0.64 44.16-36.48 79.36-80 79.36z m-697.6-132.48c-29.44 0-53.76 24.32-53.76 53.76 0 29.44 24.32 53.76 53.76 53.76h698.24c29.44 0 53.76-24.32 53.76-53.76 0-29.44-24.32-53.76-53.76-53.76H163.84z"></path><path d="M188.16 818.56m-26.24 0a26.24 26.24 0 1 0 52.48 0 26.24 26.24 0 1 0-52.48 0Z"></path><path d="M188.16 857.6c-21.76 0-39.04-17.28-39.04-39.04s17.28-39.04 39.04-39.04 39.04 17.28 39.04 39.04-17.28 39.04-39.04 39.04z m0-52.48c-7.68 0-13.44 5.76-13.44 13.44s5.76 13.44 13.44 13.44c7.68 0 13.44-5.76 13.44-13.44s-5.76-13.44-13.44-13.44z"></path><path d="M296.96 818.56m-26.24 0a26.24 26.24 0 1 0 52.48 0 26.24 26.24 0 1 0-52.48 0Z"></path><path d="M296.96 857.6c-21.76 0-39.04-17.28-39.04-39.04s17.28-39.04 39.04-39.04 39.04 17.28 39.04 39.04-17.28 39.04-39.04 39.04z m0-52.48c-7.68 0-13.44 5.76-13.44 13.44s5.76 13.44 13.44 13.44c7.68 0 13.44-5.76 13.44-13.44s-5.76-13.44-13.44-13.44z"></path><path d="M405.76 818.56m-26.24 0a26.24 26.24 0 1 0 52.48 0 26.24 26.24 0 1 0-52.48 0Z"></path><path d="M405.76 857.6c-21.76 0-39.04-17.28-39.04-39.04s17.28-39.04 39.04-39.04 39.04 17.28 39.04 39.04-17.28 39.04-39.04 39.04z m0-52.48c-7.68 0-13.44 5.76-13.44 13.44s5.76 13.44 13.44 13.44c7.68 0 13.44-5.76 13.44-13.44s-5.76-13.44-13.44-13.44z"></path><path d="M514.56 818.56m-26.24 0a26.24 26.24 0 1 0 52.48 0 26.24 26.24 0 1 0-52.48 0Z"></path><path d="M514.56 857.6c-21.76 0-39.04-17.28-39.04-39.04s17.28-39.04 39.04-39.04 39.04 17.28 39.04 39.04-17.28 39.04-39.04 39.04z m0-52.48c-7.68 0-13.44 5.76-13.44 13.44s5.76 13.44 13.44 13.44c7.68 0 13.44-5.76 13.44-13.44s-5.76-13.44-13.44-13.44z"></path><path d="M616.96 818.56m-26.24 0a26.24 26.24 0 1 0 52.48 0 26.24 26.24 0 1 0-52.48 0Z"></path><path d="M616.96 857.6c-21.76 0-39.04-17.28-39.04-39.04s17.28-39.04 39.04-39.04 39.04 17.28 39.04 39.04-17.28 39.04-39.04 39.04z m0-52.48c-7.68 0-13.44 5.76-13.44 13.44s5.76 13.44 13.44 13.44c7.68 0 13.44-5.76 13.44-13.44s-5.76-13.44-13.44-13.44z"></path><path d="M725.76 818.56m-26.24 0a26.24 26.24 0 1 0 52.48 0 26.24 26.24 0 1 0-52.48 0Z"></path><path d="M725.76 857.6c-21.76 0-39.04-17.28-39.04-39.04s17.28-39.04 39.04-39.04 39.04 17.28 39.04 39.04-17.28 39.04-39.04 39.04z m0-52.48c-7.68 0-13.44 5.76-13.44 13.44s5.76 13.44 13.44 13.44c7.68 0 13.44-5.76 13.44-13.44s-5.76-13.44-13.44-13.44z"></path><path d="M840.96 818.56m-26.24 0a26.24 26.24 0 1 0 52.48 0 26.24 26.24 0 1 0-52.48 0Z"></path><path d="M840.96 857.6c-21.76 0-39.04-17.28-39.04-39.04s17.28-39.04 39.04-39.04 39.04 17.28 39.04 39.04-17.28 39.04-39.04 39.04z m0-52.48c-7.68 0-13.44 5.76-13.44 13.44s5.76 13.44 13.44 13.44c7.68 0 13.44-5.76 13.44-13.44s-5.76-13.44-13.44-13.44z"></path><path d="M214.4 604.16h191.36v145.28H214.4z"></path><path d="M418.56 762.24H201.6V591.36h216.96v170.88z m-191.36-25.6h165.76V616.96H227.2v119.68z"></path><path d="M115.2 160h416"></path><path d="M531.2 172.8H115.2c-7.04 0-12.8-5.76-12.8-12.8s5.76-12.8 12.8-12.8h416c7.04 0 12.8 5.76 12.8 12.8s-5.76 12.8-12.8 12.8z"></path><path d="M115.2 217.6h416"></path><path d="M531.2 230.4H115.2c-7.04 0-12.8-5.76-12.8-12.8s5.76-12.8 12.8-12.8h416c7.04 0 12.8 5.76 12.8 12.8s-5.76 12.8-12.8 12.8z"></path><path d="M560 157.44h158.72V217.6H560z"></path><path d="M718.72 230.4H560c-7.04 0-12.8-5.76-12.8-12.8v-60.16c0-7.04 5.76-12.8 12.8-12.8h158.72c7.04 0 12.8 5.76 12.8 12.8V217.6c0 7.04-5.76 12.8-12.8 12.8z m-145.92-25.6h133.12v-34.56H572.8V204.8z"></path><path d="M748.8 160h83.2"></path><path d="M832 172.8h-83.2c-7.04 0-12.8-5.76-12.8-12.8s5.76-12.8 12.8-12.8h83.2c7.04 0 12.8 5.76 12.8 12.8s-5.76 12.8-12.8 12.8z"></path><path d="M748.8 217.6h83.2"></path><path d="M832 230.4h-83.2c-7.04 0-12.8-5.76-12.8-12.8s5.76-12.8 12.8-12.8h83.2c7.04 0 12.8 5.76 12.8 12.8s-5.76 12.8-12.8 12.8z"></path><path d="M683.52 327.68m-39.04 0a39.04 39.04 0 1 0 78.08 0 39.04 39.04 0 1 0-78.08 0Z"></path><path d="M683.52 379.52c-10.88 0-21.12-3.2-30.08-9.6-10.88-8.32-18.56-19.84-20.48-33.28-1.92-13.44 1.28-27.52 8.96-38.4 8.32-10.88 19.84-18.56 33.28-20.48 28.16-4.48 54.4 14.72 58.88 42.24 1.92 13.44-1.28 27.52-8.96 38.4-8.32 10.88-19.84 18.56-33.28 20.48-2.56 0-5.76 0.64-8.32 0.64z m0-77.44c-1.28 0-2.56 0-4.48 0.64-7.04 1.28-12.8 5.12-16.64 10.24s-5.76 12.8-4.48 19.2c2.56 14.08 15.36 23.68 30.08 21.12 7.04-1.28 12.8-5.12 16.64-10.24s5.76-12.8 4.48-19.2c-1.92-12.8-12.8-21.76-25.6-21.76z"></path><path d="M560 222.72l81.28 105.6"></path><path d="M641.28 341.12c-3.84 0-7.68-1.92-10.24-5.12L550.4 231.04c-4.48-5.76-3.2-13.44 2.56-17.92 5.76-4.48 13.44-3.2 17.92 2.56l81.28 105.6c4.48 5.76 3.2 13.44-2.56 17.92-3.2 1.28-5.76 1.92-8.32 1.92z"></path><path d="M716.16 220.8l5.12 97.28"></path><path d="M721.28 330.88c-7.04 0-12.16-5.12-12.8-12.16l-5.12-96.64c-0.64-7.04 5.12-12.8 12.16-13.44 7.04-0.64 12.8 5.12 13.44 12.16l5.12 96.64c0.64 7.04-5.12 12.8-12.16 13.44h-0.64z"></path><path d="M504.32 481.28m-39.04 0a39.04 39.04 0 1 0 78.08 0 39.04 39.04 0 1 0-78.08 0Z"></path><path d="M504.32 533.12c-10.88 0-21.12-3.2-30.08-9.6-10.88-8.32-18.56-19.84-20.48-33.28-1.92-13.44 1.28-27.52 8.96-38.4 8.32-10.88 19.84-18.56 33.28-20.48 28.16-4.48 54.4 14.72 58.88 42.24 1.92 13.44-1.28 27.52-8.96 38.4-8.32 10.88-19.84 18.56-33.28 20.48-2.56 0-5.76 0.64-8.32 0.64z m0-77.44c-1.28 0-2.56 0-4.48 0.64-7.04 1.28-12.8 5.12-16.64 10.24s-5.76 12.8-4.48 19.2c2.56 14.08 15.36 23.68 30.08 21.12 7.04-1.28 12.8-5.12 16.64-10.24s5.76-12.8 4.48-19.2c-1.92-12.8-12.8-21.76-25.6-21.76z"></path><path d="M396.8 544c-7.04 0-12.8-5.76-12.8-12.8v-37.12l74.88-21.12c7.04-1.92 14.08 1.92 16 8.96 1.92 7.04-1.92 14.08-8.96 16L409.6 513.28V531.2c0 7.04-5.76 12.8-12.8 12.8z"></path><path d="M602.88 568.96h-2.56c-7.04-1.28-11.52-8.32-10.24-15.36l3.2-17.28-51.84-26.88c-6.4-3.2-8.96-10.88-5.76-17.28 3.2-6.4 10.88-8.96 17.28-5.76l69.12 35.84-7.04 36.48c-0.64 6.4-6.4 10.24-12.16 10.24z"></path></svg>