<?xml version="1.0" standalone="no"?><!DOCTYPE svg PUBLIC " -//W3C//DTD SVG 1.1//EN" "http://www.w3.org/Graphics/SVG/1.1/DTD/svg11.dtd"><svg t="1637636643032" class="icon" viewBox="0 0 1024 1024" version="1.1" xmlns="http://www.w3.org/2000/svg" p-id="2537" xmlns:xlink="http://www.w3.org/1999/xlink" width="256" height="256"><defs><style type="text/css"></style></defs><path d="M585.8 150.2C485 150.2 393.65 191.15 327.5 257.3L68.75 515.6 327.5 773.9c66.15 66.15 157.5 107.1 258.3 107.1 202.05 0 365.4-163.8 365.4-365.4s-163.8-365.4-365.4-365.4zM735.2 633.5c12.6 12.6 12.6 32.85 0 45.9-12.6 12.6-32.85 12.6-45.9 0l-106.65-106.65L476 679.4c-12.6 12.6-32.85 12.6-45.9 0-12.6-12.6-12.6-32.85 0-45.9l106.65-106.65-106.2-106.65c-12.6-12.6-12.6-32.85 0-45.9 12.6-12.6 32.85-12.6 45.9 0l106.65 106.65 106.65-106.65c12.6-12.6 32.85-12.6 45.9 0 12.6 12.6 12.6 32.85 0 45.9L629 526.85l106.2 106.65z"></path></svg>