<?xml version="1.0" standalone="no"?><!DOCTYPE svg PUBLIC " -//W3C//DTD SVG 1.1//EN" "http://www.w3.org/Graphics/SVG/1.1/DTD/svg11.dtd"><svg t="1637636643032" class="icon" viewBox="0 0 1024 1024" version="1.1" xmlns="http://www.w3.org/2000/svg" p-id="2537" xmlns:xlink="http://www.w3.org/1999/xlink" width="256" height="256"><defs><style type="text/css"></style></defs><path d="M630.125 405.82812499c0-16.875-11.25-28.125-33.75-28.12499999-16.875 0-28.125 11.25-28.125 28.12499999v343.12500001c0 16.875 11.25 28.125 33.75 28.12499999 16.875 0 33.75-11.25 33.75-28.12499999V405.82812499zM146.375 208.953125c-16.875 0-28.125 11.25-28.125 28.12499999s11.25 28.125 28.125 28.12500001h725.625c16.875 0 28.125-11.25 28.125-28.12500001s-11.25-28.125-28.125-28.12499999H146.375zM647 158.328125c16.875 0 33.75-11.25 33.75-33.75 0-16.875-16.875-33.75-33.75-33.75H377c-16.875 5.625-33.75 16.875-33.75 33.75s16.875 33.75 33.75 33.75h270zM461.375 743.32812499v-337.5c0-16.875-11.25-28.125-33.75-28.12499999-16.875 0-28.125 11.25-28.125 28.12499999v343.12500001c0 16.875 11.25 28.125 33.75 28.12499999 16.875-5.625 28.125-16.875 28.125-33.75"></path><path d="M710 927.26562501H314c-72 0-132-60-132-138V357.26562501c0-18 12-30 30-30s30 12 30 30v432c0 42 30 78 72 78h402c36 0 72-36 72-78V357.26562501c0-18 12-30 30-30s30 12 30 30v432c-6 78-66 138-138 138z"></path></svg>