<?xml version="1.0" standalone="no"?><!DOCTYPE svg PUBLIC " -//W3C//DTD SVG 1.1//EN" "http://www.w3.org/Graphics/SVG/1.1/DTD/svg11.dtd"><svg t="1637636643032" class="icon" viewBox="0 0 1024 1024" version="1.1" xmlns="http://www.w3.org/2000/svg" p-id="2537" xmlns:xlink="http://www.w3.org/1999/xlink" width="256" height="256"><defs><style type="text/css"></style></defs><path d="M77.17322482 77.17322482v870.34397076h870.62013893V77.17322482H77.17322482zM144.14400475 893.11206717V131.57835325h736.81666316v494.7552669c-10.63247434-3.45210207-22.09345317-5.10911105-33.41634791-5.10911105H646.49389616c-56.47638966 0.13808409-102.04413682 36.86844997-101.76796866 82.02194488 0.27616816 44.87732675 45.70583125 81.19344039 101.76796866 81.33152449h200.91233975c11.46097883-0.13808409 22.78387358-1.93317715 33.41634793-5.10911106V893.11206717H144.14400475z m736.67857909-190.27986542c-0.13808409 14.7749968-14.91308089 26.78831197-33.41634793 27.06448012H646.49389616c-18.7794352-1.51892491-32.58784341-14.7749968-30.79275036-29.82616177 1.65700898-13.11798782 14.36074457-23.33620992 30.79275036-24.57896665h200.91233975c18.64135111 0.27616816 33.554432 12.56565149 33.41634793 27.3406483z m-669.70779919-27.3406483h66.97077994v54.40512842h-66.97077994v-54.40512842z m133.94155985 0h66.97077992v54.40512842h-66.97077992v-54.40512842z m-133.94155985-108.67217277h66.97077994V621.08642503h-66.97077994v-54.26704435z m133.94155985 0h66.97077992V621.08642503h-66.97077992v-54.26704435z m-133.94155985 217.6205137h66.97077994v54.26704435h-66.97077994v-54.26704435z m133.94155985 0h66.97077992v54.26704435h-66.97077992v-54.26704435z m468.9335435-598.59449678H211.25286875v272.02564213h602.87510334l-0.13808409-272.02564213z m-200.91233975 136.01282107c-0.8285045 44.32499042-46.53433573 79.67451549-102.04413684 78.98409508s-99.69670741-37.28270222-98.86820291-81.60769265c0.8285045-43.77265408 45.56774717-78.98409508 100.38712783-78.98409507 55.92405333 0.41425225 100.93946416 36.86844997 100.52521192 81.60769264z m-334.8538996-81.60769264H379.43928098c-45.70583125 48.3294288-45.70583125 114.88595647 0 163.0773012h-101.21563233V240.25052603z m468.65737535 163.21538528h-101.21563233c45.70583125-48.3294288 45.70583125-114.88595647 0-163.07730121h101.21563233v163.07730121z"></path></svg>