<?xml version="1.0" standalone="no"?><!DOCTYPE svg PUBLIC " -//W3C//DTD SVG 1.1//EN" "http://www.w3.org/Graphics/SVG/1.1/DTD/svg11.dtd"><svg t="1637636643032" class="icon" viewBox="0 0 1024 1024" version="1.1" xmlns="http://www.w3.org/2000/svg" p-id="2537" xmlns:xlink="http://www.w3.org/1999/xlink" width="256" height="256"><defs><style type="text/css"></style></defs><path d="M921.6 51.2a30.72 30.72 0 0 0-30.72 30.72v112.64h-112.64a56.2176 56.2176 0 0 0-56.32-51.2H588.8a56.2176 56.2176 0 0 0-56.0128 51.2h-41.5744A56.2176 56.2176 0 0 0 435.2 143.36H302.08a56.2176 56.2176 0 0 0-56.0128 51.2h-112.64V81.92a30.72 30.72 0 0 0-61.44 0v870.4a30.72 30.72 0 0 0 61.44 0V778.24h757.76v174.08a30.72 30.72 0 0 0 61.44 0V81.92a30.72 30.72 0 0 0-31.0272-30.72z m-30.72 665.6h-112.64a56.2176 56.2176 0 0 0-56.32-51.2H588.8a56.2176 56.2176 0 0 0-56.0128 51.2h-41.5744A56.2176 56.2176 0 0 0 435.2 665.6H302.08a56.2176 56.2176 0 0 0-56.0128 51.2h-112.64V256h757.76z"></path></svg>