<?xml version="1.0" standalone="no"?><!DOCTYPE svg PUBLIC " -//W3C//DTD SVG 1.1//EN" "http://www.w3.org/Graphics/SVG/1.1/DTD/svg11.dtd"><svg t="1637636643032" class="icon" viewBox="0 0 1024 1024" version="1.1" xmlns="http://www.w3.org/2000/svg" p-id="2537" xmlns:xlink="http://www.w3.org/1999/xlink" width="256" height="256"><defs><style type="text/css"></style></defs><path d="M544 640a128.064 128.064 0 0 1 96-123.968V384h-164.032A128.224 128.224 0 0 1 384 475.968V640h160z m17.12 64H384v224a32 32 0 0 0 32 32h512a32 32 0 0 0 32-32V416a32 32 0 0 0-32-32h-224v132.032A128.064 128.064 0 0 1 672 768a127.936 127.936 0 0 1-110.88-64zM320 475.968A128.064 128.064 0 0 1 352 224a128.064 128.064 0 0 1 123.968 96H640V96a32 32 0 0 0-32-32H96a32 32 0 0 0-32 32v512a32 32 0 0 0 32 32h224v-164.032zM320 704H96a96 96 0 0 1-96-96V96a96 96 0 0 1 96-96h512a96 96 0 0 1 96 96v224h224a96 96 0 0 1 96 96v512a96 96 0 0 1-96 96H416a96 96 0 0 1-96-96v-224z m32-288a64 64 0 1 0 0-128 64 64 0 0 0 0 128z m320 288a64 64 0 1 0 0-128 64 64 0 0 0 0 128z"></path></svg>