<?xml version="1.0" standalone="no"?><!DOCTYPE svg PUBLIC " -//W3C//DTD SVG 1.1//EN" "http://www.w3.org/Graphics/SVG/1.1/DTD/svg11.dtd"><svg t="1637636643032" class="icon" viewBox="0 0 1024 1024" version="1.1" xmlns="http://www.w3.org/2000/svg" p-id="2537" xmlns:xlink="http://www.w3.org/1999/xlink" width="256" height="256"><defs><style type="text/css"></style></defs><path d="M923.24067298 461.23908405C923.96084063 467.24048186 924.48459912 473.28552641 925.00835763 479.35239473 925.85946468 490.15491091 926.66692582 500.95742792 926.66692582 511.97817703 926.66692582 522.99892614 925.85946468 533.80144233 925.00835763 544.60395854 924.48459912 550.64900308 923.96084063 556.71587141 923.24067298 562.69544623 923.24067298 562.69544623 923.24067298 562.69544623 923.26249677 562.69544623 921.32022596 578.49549077 918.39590783 593.94636217 914.75142291 609.15717849 875.55683755 618.84670878 838.26087705 645.60203191 814.56080984 686.65159459 790.86074343 727.70115728 786.34332766 773.39907597 797.51683998 812.15719551 786.12509475 823.00335844 774.07865241 833.10753077 761.50845157 842.60065111 761.50845157 842.57882816 761.48662781 842.57882816 761.48662781 842.55700437 741.88933591 857.35317866 720.9826474 870.49078474 698.94114917 881.72976677 698.83203272 881.79523647 698.70109248 881.86070619 698.59197684 881.90435293 687.81128361 887.40381601 676.74688776 892.42316652 665.42061306 896.96240605 664.50403546 897.33340137 663.54381194 897.61710398 662.62723438 897.98809929 651.75924846 902.26545918 640.71667637 906.17182378 629.41222465 909.51078393 601.43479755 880.31125446 559.53412779 861.32501295 512.02487852 861.32501295 464.51562925 861.32501295 422.61495949 880.33307742 394.6375324 909.51078393 394.6375324 909.51078393 394.6375324 909.51078393 394.6375324 909.51078393 383.33308066 906.17182378 372.29050859 902.26545918 361.42252268 897.98809929 360.48412213 897.61710398 359.54572157 897.33340137 358.60732102 896.96240605 347.30286928 892.42316652 336.23847342 887.40381601 325.45778021 881.90435293 325.32684078 881.86070619 325.21772432 881.79523647 325.10860787 881.72976677 303.06710965 870.49078474 282.16042113 857.35317866 262.56312926 842.55700437 262.54130547 842.57882816 262.54130547 842.57882816 262.54130547 842.60065111 249.97110463 833.10753077 237.90283852 823.00335844 226.51109411 812.15719551 237.70642938 773.39907597 233.1890136 727.70115728 209.48894719 686.65159459 185.78887998 645.60203191 148.47109572 618.84670878 109.29833413 609.15717849 105.65384921 593.94636217 102.72953111 578.49549077 100.78726029 562.71726919 100.80908407 562.71726919 100.80908407 562.71726919 100.80908407 562.71726919 100.08891643 556.71587141 99.56515793 550.64900308 99.01957646 544.60395854 98.19029235 533.80144233 97.38283122 522.99892614 97.38283122 511.97817703 97.38283122 500.95742792 98.19029235 490.15491091 99.01957646 479.35239473 99.56515793 473.28552641 100.08891643 467.24048186 100.80908407 461.23908405 100.80908407 461.23908405 100.80908407 461.23908405 100.78726029 461.23908405 102.72953111 445.46086331 105.65384921 429.98816731 109.29833413 414.79917477 148.47109572 405.10964447 185.76705701 378.35432134 209.46712342 337.30475866 233.16718984 296.25519598 237.6846064 250.57910108 226.51109411 211.79915775 237.90283852 200.95299482 249.94928167 190.87064626 262.51948252 181.35570214 262.51948252 181.37752512 262.54130547 181.39934889 262.54130547 181.42117184 282.13859817 166.62499757 303.06710965 153.4655685 325.10860787 142.20476353 325.21772432 142.16111677 325.32684078 142.11747086 325.43595724 142.05200113 336.23847342 136.55253806 347.30286928 131.53318676 358.62914398 126.9939472 359.54572157 126.6229519 360.48412213 126.33924927 361.4006989 125.96825397 372.26868562 121.69089407 383.33308066 117.78452949 394.65935617 114.44556932 422.63678247 143.62327584 464.53745222 162.60951732 512.02487852 162.60951732 559.51230483 162.60951732 601.41297457 143.62327584 629.39040087 114.44556932 640.71667637 117.78452949 651.75924846 121.69089407 662.64905816 125.96825397 663.56563493 126.33924927 664.50403546 126.6229519 665.42061306 126.9939472 676.74688776 131.53318676 687.81128361 136.55253806 698.6137998 142.05200113 698.72291625 142.11747086 698.83203272 142.16111677 698.94114917 142.20476353 720.9826474 153.4655685 741.88933591 166.62499757 761.50845157 181.42117184 761.50845157 181.39934889 761.50845157 181.37752512 761.53027454 181.35570214 774.10047537 190.87064626 786.14691852 200.95299482 797.53866295 211.79915775 786.36515064 250.57910108 790.88256723 296.25519598 814.58263362 337.30475866 838.28270003 378.35432134 875.57866132 405.10964447 914.72959914 414.79917477 918.39590783 429.98816731 921.32022596 445.43903952 923.24067298 461.23908405 923.24067298 461.23908405 923.24067298 461.23908405 923.24067298 461.23908405ZM877.47728538 448.69070619C837.49706268 432.10502428 801.29226434 401.46515953 776.82838354 359.08437723 752.47361922 316.90000485 744.0061921 270.46009557 749.46200844 227.70831875 717.05445902 200.6692922 680.10767087 178.84602689 639.71280613 164.02802964 605.38480887 190.25959426 560.84352365 206.21240201 512.02487852 206.21240201 463.2062334 206.21240201 418.66494817 190.25959426 384.33695092 164.02802964 343.94208617 178.84602689 306.99529803 200.6692922 274.56592483 227.70831875 280.04356496 270.46009557 271.55431405 316.90000485 247.19954972 359.08437723 222.75749269 401.46515953 186.55269436 432.10502428 146.57247164 448.69070619 143.0152794 469.27004616 141.02936264 490.37314382 141.02936264 511.97817703 141.02936264 533.58320942 143.0152794 554.68630791 146.57247164 575.26564707 186.55269436 591.829506 222.75749269 622.49119373 247.24319647 664.85015226 271.5979608 707.03452542 280.06538791 753.4962577 274.58774862 796.26985827 306.99529803 823.28706106 343.94208617 845.11032718 384.31512796 859.92832442 418.6431252 833.69675899 463.2062334 817.72212828 512.02487852 817.72212828 560.84352365 817.72212828 605.40663184 833.69675899 639.73462909 859.92832442 680.10767087 845.11032718 717.03263606 823.28706106 749.46200844 796.26985827 743.96254616 753.4962577 752.45179624 707.03452542 776.80656057 664.85015226 801.27044137 622.49119373 837.47523891 591.829506 877.47728538 575.24382409 881.01265387 554.68630791 883.0203944 533.58320942 883.0203944 511.97817703 883.0203944 490.37314382 881.01265387 469.27004616 877.47728538 448.69070619ZM512.02487852 664.5228037C427.76525024 664.5228037 359.45842809 596.21598235 359.45842809 511.95635325 359.45842809 427.71854794 427.76525024 359.4117266 512.02487852 359.4117266 596.26268384 359.4117266 664.56950518 427.71854794 664.56950518 511.95635325 664.56950518 596.21598235 596.26268384 664.5228037 512.02487852 664.5228037ZM512.02487852 403.12372773C451.90178167 403.12372773 403.192253 451.85508018 403.192253 511.95635325 403.192253 572.07945012 451.90178167 620.81080257 512.02487852 620.81080257 572.12615242 620.81080257 620.85750405 572.07945012 620.85750405 511.95635325 620.85750405 451.85508018 572.12615242 403.12372773 512.02487852 403.12372773Z"></path></svg>