<?xml version="1.0" standalone="no"?><!DOCTYPE svg PUBLIC " -//W3C//DTD SVG 1.1//EN" "http://www.w3.org/Graphics/SVG/1.1/DTD/svg11.dtd"><svg t="1637636643032" class="icon" viewBox="0 0 1024 1024" version="1.1" xmlns="http://www.w3.org/2000/svg" p-id="2537" xmlns:xlink="http://www.w3.org/1999/xlink" width="256" height="256"><defs><style type="text/css"></style></defs><path d="M944.9 400.1c-2.3 0.1-4.6 0.2-6.9 0.2-46.3 0-91.4-24-116.3-67.1-26-45.1-22.9-99.1 3.6-140-53.3-52.4-119.7-91.5-193.8-112-22.2 43.5-67.4 73.2-119.5 73.2s-97.3-29.8-119.5-73.2c-74.1 20.5-140.5 59.6-193.8 112 26.5 40.9 29.6 94.9 3.6 140-24.8 43-69.9 67.1-116.3 67.1-2.3 0-4.6-0.1-6.9-0.2C69.9 435.9 65 473.4 65 512c0 38.6 4.9 76.1 14.1 111.9 2.3-0.1 4.6-0.2 6.9-0.2 46.3 0 91.4 24 116.3 67.1 26 45.1 22.9 99.1-3.6 140 53.3 52.4 119.7 91.5 193.8 112 22.2-43.5 67.4-73.2 119.5-73.2s97.3 29.8 119.5 73.2c74.1-20.5 140.5-59.6 193.8-112-26.5-40.9-29.6-94.9-3.6-140 24.8-43 69.9-67.1 116.3-67.1 2.3 0 4.6 0.1 6.9 0.2 9.2-35.8 14.1-73.3 14.1-111.9 0-38.6-4.9-76.1-14.1-111.9z m-53.6 165.2c-52 12.7-97.7 46.1-125.1 93.5-27.7 47.9-33.8 103.8-18.6 155.1-28.1 22-59.1 39.9-92.1 53.3-36.8-38.8-88.2-61.5-143.6-61.5s-106.8 22.7-143.6 61.5c-32.9-13.4-64-31.3-92.1-53.3 15.2-51.3 9.1-107.1-18.6-155.1-27.3-47.4-73-80.8-125.1-93.5-2.4-17.6-3.7-35.4-3.7-53.3s1.2-35.7 3.7-53.3c52-12.7 97.7-46.1 125.1-93.5 27.7-47.9 33.8-103.8 18.6-155.1 28.1-22 59.1-39.9 92.1-53.3 36.8 38.8 88.2 61.5 143.6 61.5s106.8-22.7 143.6-61.5c32.9 13.4 64 31.3 92.1 53.3-15.2 51.3-9.1 107.1 18.6 155.1 27.3 47.4 73 80.8 125.1 93.5 2.4 17.6 3.7 35.4 3.7 53.3s-1.2 35.7-3.7 53.3z"></path><path d="M512 352c-88.4 0-160 71.6-160 160s71.6 160 160 160 160-71.6 160-160-71.6-160-160-160z m0 256c-52.9 0-96-43.1-96-96s43.1-96 96-96 96 43.1 96 96-43.1 96-96 96z"></path></svg>