<?xml version="1.0" standalone="no"?><!DOCTYPE svg PUBLIC " -//W3C//DTD SVG 1.1//EN" "http://www.w3.org/Graphics/SVG/1.1/DTD/svg11.dtd"><svg t="1637636643032" class="icon" viewBox="0 0 1024 1024" version="1.1" xmlns="http://www.w3.org/2000/svg" p-id="2537" xmlns:xlink="http://www.w3.org/1999/xlink" width="256" height="256"><defs><style type="text/css"></style></defs><path d="M557.11346021 361.31449011l263.99553259 10.02908936c69.76757813 0 126.95207531 42.98181116 126.95207446 96.9893916v382.72499976C948.06106726 905.06555212 890.87657093 948.04736328 821.1089928 948.04736328H415.33577454c-26.1005492 0-50.95524891-5.98007788-72.57073926-17.44189453a317.0687257 317.0687257 0 0 1-18.25169751-13.45517566l-5.60632312-4.60964404a85.21611365 85.21611365 0 0 1-10.1536737-10.02908936 90.51097376 90.51097376 0 0 1-5.17027662-6.91446521L90.6673667 608.98939245l0.12458435-0.74751037c-31.89375012-52.5125614-10.83889148-117.29674072 48.40125732-148.50527308a153.86242664 153.86242664 0 0 1 150.31175598 5.29486097l0.49833997-285.54873035C296.10796741 120.92780774 354.03997412 75.95263672 423.30921228 75.95263672c69.14465296 0 127.07666052 44.85058582 133.80424792 104.15302722v181.27111792z m-230.48217737 447.13542432l17.69106408 23.35968066c23.73343542 31.1462406 62.91540552 50.33232458 104.15302722 52.01422059H449.72122365l0.87209471 0.0622926H782.54994703c50.95524891 0 91.6945315-31.02165539 91.69453148-68.39714344V501.16110852c0-37.37548804-40.73928259-68.45943604-91.94370104-68.45943604l-264.36928736-10.15367455c-1.74418945 0-1.74418945 0-3.4883789-0.18687696a35.880469 35.880469 0 0 1-26.1005492-14.5141482 27.53327649 27.53327649 0 0 1-5.10798401-15.82229027l-0.24916956-191.67396204C480.24453907 164.22108191 454.08169727 136.56322021 422.81087231 136.56322021c-31.20853235 0-57.49595935 27.65786169-60.23682873 63.78750025l-0.24916956 0.24916956-0.31146301 363.66350098-0.68521692 1.99335985c-5.23256836 13.64205347-19.9335935 22.79904809-36.4411007 22.79904724a41.11303736 41.11303736 0 0 1-28.65454162-11.21264623 33.20189221 33.20189221 0 0 1-5.9800779-7.72426734l-22.48758507-30.39873108c-25.85137964-29.90039026-66.27919922-41.92283947-92.81579664-27.90703125-25.85137964 13.57976086-30.52331543 48.02750256-10.2159663 79.79666748l96.74022204 130.62733203c2.18023682 3.3015011 4.48505884 6.60300305 6.91446521 9.84221155l16.50750722 21.61549121 34.88378906 45.9095575 6.85217345 8.84553247z"></path></svg>