<?xml version="1.0" standalone="no"?><!DOCTYPE svg PUBLIC " -//W3C//DTD SVG 1.1//EN" "http://www.w3.org/Graphics/SVG/1.1/DTD/svg11.dtd"><svg t="1637636643032" class="icon" viewBox="0 0 1024 1024" version="1.1" xmlns="http://www.w3.org/2000/svg" p-id="2537" xmlns:xlink="http://www.w3.org/1999/xlink" width="256" height="256"><defs><style type="text/css"></style></defs><path d="M256 502.4c-12.8-3.2-35.2-9.6-64-16-70.4-12.8-105.6-38.4-102.4-70.4 3.2-38.4 35.2-60.8 89.6-60.8 57.6 0 92.8 25.6 102.4 76.8l64-16c-16-80-73.6-118.4-172.8-118.4-96 3.2-147.2 41.6-153.6 115.2-6.4 60.8 38.4 99.2 131.2 118.4 3.2 0 6.4 0 12.8 3.2 19.2 3.2 28.8 6.4 35.2 9.6 60.8 16 89.6 41.6 86.4 73.6-3.2 48-35.2 73.6-96 73.6-70.4 0-108.8-35.2-118.4-102.4L3.2 608c19.2 92.8 80 140.8 188.8 137.6 108.8-3.2 163.2-44.8 166.4-124.8 3.2-57.6-32-96-102.4-118.4z m179.2 236.8h67.2v-188.8h204.8v-51.2h-204.8v-134.4H736V307.2h-300.8v432z m480-214.4c-38.4 0-67.2 16-83.2 44.8 0-86.4 25.6-128 76.8-128 32 0 48 16 57.6 51.2l44.8-9.6c-16-51.2-48-76.8-102.4-76.8-80 0-121.6 57.6-121.6 172.8 0 108.8 38.4 160 121.6 160 70.4-3.2 105.6-38.4 112-112-9.6-64-41.6-99.2-105.6-102.4z m-12.8 176c-44.8-3.2-67.2-28.8-70.4-80 3.2-38.4 25.6-60.8 70.4-64 38.4 3.2 60.8 25.6 64 70.4 0 48-22.4 73.6-64 73.6z"></path></svg>