<?xml version="1.0" standalone="no"?><!DOCTYPE svg PUBLIC " -//W3C//DTD SVG 1.1//EN" "http://www.w3.org/Graphics/SVG/1.1/DTD/svg11.dtd"><svg t="1637636643032" class="icon" viewBox="0 0 1024 1024" version="1.1" xmlns="http://www.w3.org/2000/svg" p-id="2537" xmlns:xlink="http://www.w3.org/1999/xlink" width="256" height="256"><defs><style type="text/css"></style></defs><path d="M149.47648437 90.125l759.375 253.125c21.09375001 5.2734375 36.9140625 31.640625 26.36718751 52.734375-5.2734375 10.546875-10.546875 21.09375001-21.09375001 26.36718749l-221.484375 116.01562501 216.2109375 210.9375c15.8203125 15.8203125 15.8203125 42.1875 0 58.0078125l-89.6484375 89.6484375c-15.8203125 15.8203125-42.1875 15.8203125-58.0078125 0l-210.9375-210.9375-116.015625 221.484375c-10.546875 21.09375001-36.9140625 31.640625-58.0078125 15.8203125-10.546875-5.2734375-15.8203125-15.8203125-21.09375-26.3671875L91.46867187 148.1328125C86.19523437 127.0390625 96.74210937 100.671875 117.83585938 95.3984375c10.546875-5.2734375 21.09375001-5.2734375 31.640625-5.2734375z m632.8125 305.859375l-580.078125-195.1171875 195.1171875 585.35156249 94.921875-184.57031248c0-5.2734375 5.2734375-5.2734375 5.2734375-10.54687501 15.8203125-15.8203125 42.1875-15.8203125 58.0078125 0l226.7578125 221.484375 31.640625-31.640625-221.484375-221.484375-10.546875-10.546875c-10.546875-21.09375001 0-47.4609375 21.09375-58.00781251l179.296875-94.92187499z"></path></svg>