<?xml version="1.0" standalone="no"?><!DOCTYPE svg PUBLIC " -//W3C//DTD SVG 1.1//EN" "http://www.w3.org/Graphics/SVG/1.1/DTD/svg11.dtd"><svg t="1637636643032" class="icon" viewBox="0 0 1024 1024" version="1.1" xmlns="http://www.w3.org/2000/svg" p-id="2537" xmlns:xlink="http://www.w3.org/1999/xlink" width="256" height="256"><defs><style type="text/css"></style></defs><path d="M778.99851852 754.72592592H245.00148148c-13.47128889 0-24.27259259-10.8013037-24.27259259-24.27259259V293.54666667c0-13.47128889 10.8013037-24.27259259 24.27259259-24.27259259h533.99703704c13.47128889 0 24.27259259 10.8013037 24.27259259 24.27259259v436.90666666c0 13.47128889-10.8013037 24.27259259-24.27259259 24.27259259z m-509.72444444-48.54518517h485.45185184V317.81925925H269.27407408v388.3614815zM196.4562963 269.27407408h-113.35300741c-13.47128889 0-24.27259259-10.8013037-24.27259259-24.2725926s10.8013037-24.27259259 24.27259259-24.27259259H172.1837037v-89.08041481c0-13.47128889 10.8013037-24.27259259 24.2725926-24.2725926s24.27259259 10.8013037 24.27259259 24.2725926V245.00148148c0 13.47128889-10.8013037 24.27259259-24.27259259 24.2725926zM940.89671111 269.27407408H827.5437037c-13.47128889 0-24.27259259-10.8013037-24.27259259-24.2725926v-113.3530074c0-13.47128889 10.8013037-24.27259259 24.27259259-24.2725926s24.27259259 10.8013037 24.2725926 24.2725926V220.72888889h89.08041481c13.47128889 0 24.27259259 10.8013037 24.27259259 24.27259259s-10.8013037 24.27259259-24.27259259 24.2725926zM827.5437037 916.62411852c-13.47128889 0-24.27259259-10.8013037-24.27259259-24.2725926V778.99851852c0-13.47128889 10.8013037-24.27259259 24.27259259-24.2725926h113.35300741c13.47128889 0 24.27259259 10.8013037 24.27259259 24.2725926s-10.8013037 24.27259259-24.27259259 24.27259259H851.8162963v89.08041481c0 13.47128889-10.8013037 24.27259259-24.2725926 24.2725926zM196.4562963 916.62411852c-13.47128889 0-24.27259259-10.8013037-24.2725926-24.2725926V803.27111111h-89.08041481c-13.47128889 0-24.27259259-10.8013037-24.27259259-24.27259259s10.8013037-24.27259259 24.27259259-24.2725926H196.4562963c13.47128889 0 24.27259259 10.8013037 24.27259259 24.2725926v113.3530074c0 13.47128889-10.8013037 24.27259259-24.27259259 24.2725926z"></path></svg>