<?xml version="1.0" standalone="no"?><!DOCTYPE svg PUBLIC " -//W3C//DTD SVG 1.1//EN" "http://www.w3.org/Graphics/SVG/1.1/DTD/svg11.dtd"><svg t="1637636643032" class="icon" viewBox="0 0 1024 1024" version="1.1" xmlns="http://www.w3.org/2000/svg" p-id="2537" xmlns:xlink="http://www.w3.org/1999/xlink" width="256" height="256"><defs><style type="text/css"></style></defs><path d="M757.44996186 375.33902581a44.77014281 44.77014281 0 0 0-19.92271444-16.11725161 54.171873 54.171873 0 0 0-19.69886265-3.80546184h-1.34310388a44.77014281 44.77014281 0 0 0-22.38507239 6.71552143 35.1445628 35.1445628 0 0 0-15.8934008 21.04196652l-36.03996506 134.3104304-36.7115175-134.3104304a35.59226344 35.59226344 0 0 0-15.44569916-20.81811573 44.77014281 44.77014281 0 0 0-23.72817629-6.93937222 53.05261992 53.05261992 0 0 0-20.59426589 4.25316347 47.23250077 47.23250077 0 0 0-20.14656426 16.11725161 41.86008421 41.86008421 0 0 0-8.50632696 23.95202611 43.20318811 43.20318811 0 0 0 3.80546186 17.68420728l77.22849685 223.85071604a38.50232302 38.50232302 0 0 0 17.46035648 19.69886265 54.39572381 54.39572381 0 0 0 22.3850714 6.93937223h2.46235795a52.15721667 52.15721667 0 0 0 23.95202611-6.04396898 41.18853179 41.18853179 0 0 0 17.68420729-20.5942659l78.1239001-223.85071602a47.00865094 47.00865094 0 0 0 3.80546186-18.13190893 40.74083015 40.74083015 0 0 0-6.49167062-23.95202611zM451.22218127 357.6548195h-2.91005957a48.12790402 48.12790402 0 0 0-30.89139834 11.1925357 40.51697933 40.51697933 0 0 0-13.43104284 33.12990549v173.26045504a22.38507142 22.38507142 0 0 1-2.23850715 9.17787938 23.9520271 23.9520271 0 0 1-5.59626835 6.93937222 19.69886264 19.69886264 0 0 1-7.38707385 4.02931267 23.72817629 23.72817629 0 0 1-7.61092369 1.34310389 22.38507142 22.38507142 0 0 1-7.61092467-1.34310389 23.50432548 23.50432548 0 0 1-7.61092467-4.47701429 17.90805713 17.90805713 0 0 1-5.37241656-6.26781979 24.17587692 24.17587692 0 0 1-2.01465631-9.84943181V401.97726069a41.86008421 41.86008421 0 0 0-13.65489366-33.3537563 48.35175483 48.35175483 0 0 0-30.66754853-11.1925357h-2.68620875a42.30778583 42.30778583 0 0 0-30.44369771 12.75949039 44.77014281 44.77014281 0 0 0-12.31178877 31.33909998v156.69550182a115.50697002 115.50697002 0 0 0 7.61092369 39.84542789 108.79144861 108.79144861 0 0 0 22.38507238 35.59226343 111.92535802 111.92535802 0 0 0 35.14456181 25.74283261 110.1345525 110.1345525 0 0 0 44.77014381 9.84943181h4.70086508a108.79144861 108.79144861 0 0 0 45.88939688-10.07328262 113.4923137 113.4923137 0 0 0 34.47301036-25.29513098 106.32909065 106.32909065 0 0 0 22.38507141-35.59226344 110.58225413 110.58225413 0 0 0 8.50632693-40.96468097V401.97726069a42.9793373 42.9793373 0 0 0-12.53563959-32.0106524 41.4123826 41.4123826 0 0 0-30.89139932-12.31178879z"></path><path d="M999.43258583 493.30835281a33.3537563 33.3537563 0 0 0-23.95202612-10.07328164h-47.45635256a417.70543698 417.70543698 0 0 0-93.12189763-241.53492334l36.03996506-36.03996504a34.69686117 34.69686117 0 0 0 0-48.12790402l-3.58161103-3.58161202a34.47301036 34.47301036 0 0 0-24.17587791-9.62558002 33.57760711 33.57760711 0 0 0-23.95202612 9.84943083L783.64049511 189.31908036a419.7200933 419.7200933 0 0 0-234.81940092-98.71816598V42.24915955A34.47301036 34.47301036 0 0 0 514.57193464 8h-4.92471591a34.24915955 34.24915955 0 0 0-34.24915954 34.24915955v48.35175482A418.15313858 418.15313858 0 0 0 234.5346883 194.46764708L203.64328896 164.69550181a33.80145792 33.80145792 0 0 0-47.90405319 0l-3.58161104 3.35776023a33.80145792 33.80145792 0 0 0 0 48.12790401l31.33909997 31.56295078a418.37698942 418.37698942 0 0 0-87.52563028 235.49095434H48.73859367a34.92071198 34.92071198 0 0 0-24.17587792 9.84943181A34.47301036 34.47301036 0 0 0 14.48943411 517.48423073v4.9247159a35.36841361 35.36841361 0 0 0 10.07328164 23.9520261 33.80145792 33.80145792 0 0 0 24.17587792 10.07328263h49.91870952a414.12382495 414.12382495 0 0 0 97.37506111 218.92600012L153.27687781 818.33959377a34.69686117 34.69686117 0 0 0 0 48.127904l3.58161202 3.58161104a34.47301036 34.47301036 0 0 0 24.39972773 9.625581 33.57760711 33.57760711 0 0 0 23.95202611-9.84943181l43.2031891-43.42703892a421.95860044 421.95860044 0 0 0 226.76077561 91.77879375v63.797454a35.81611425 35.81611425 0 0 0 10.07328164 23.95202709 33.80145792 33.80145792 0 0 0 24.1758779 10.07328263h6.93937223a34.47301036 34.47301036 0 0 0 22.38507141-10.07328263 33.80145792 33.80145792 0 0 0 10.07328263-24.17587692v-64.46900644a408.7514084 408.7514084 0 0 0 220.269105-86.85407883l38.95002464 39.39772627a33.80145792 33.80145792 0 0 0 48.127904 0l3.58161105-3.58161104a34.47301036 34.47301036 0 0 0 0-48.12790401l-36.93536832-36.93536831a420.83934736 420.83934736 0 0 0 102.299778-223.85071603h50.14256034a33.3537563 33.3537563 0 0 0 23.95202612-10.07328263 33.80145792 33.80145792 0 0 0 10.29713343-24.84742935v-5.14856671a33.80145792 33.80145792 0 0 0-10.07328262-23.95202711zM739.09420311 745.81196102l-15.66954998 13.43104384a327.94129955 327.94129955 0 0 1-190.72081055 75.21384052H491.29145998a335.77607502 335.77607502 0 0 1-196.09322808-79.6908558l-15.66954998-13.43104283-13.43104284-14.99799755a331.07520994 331.07520994 0 0 1-83.72016844-188.70615422l-1.11925308-20.81811671v-20.14656425a331.07520994 331.07520994 0 0 1 75.66154214-202.8087495l13.43104285-15.89340081 15.22184837-13.65489365a331.9706122 331.9706122 0 0 1 206.61421133-89.54028661h41.4123826a335.77607502 335.77607502 0 0 1 201.46564461 85.73482476l15.44570017 13.43104285 13.20719202 15.44569917a329.73210506 329.73210506 0 0 1 80.36240724 207.28576379v21.0419675l-2.01465633 20.81811671a329.73210506 329.73210506 0 0 1-28.876743 105.2098366 326.15049404 326.15049404 0 0 1-59.54429054 87.9733319z"></path></svg>