<?xml version="1.0" standalone="no"?><!DOCTYPE svg PUBLIC " -//W3C//DTD SVG 1.1//EN" "http://www.w3.org/Graphics/SVG/1.1/DTD/svg11.dtd"><svg t="1637636643032" class="icon" viewBox="0 0 1024 1024" version="1.1" xmlns="http://www.w3.org/2000/svg" p-id="2537" xmlns:xlink="http://www.w3.org/1999/xlink" width="256" height="256"><defs><style type="text/css"></style></defs><path d="M580.26666667 413.696h-109.22666667v-109.22666667c0-16.384-10.92266667-27.30666667-27.30666667-27.30666666s-27.30666667 10.92266667-27.30666666 27.30666666v109.22666667h-109.22666667c-16.384 0-27.30666667 5.46133333-27.30666667 19.11466667 0 16.384 10.92266667 35.49866667 27.30666667 35.49866666h109.22666667v109.22666667c0 16.384 10.92266667 27.30666667 27.30666666 27.30666667s27.30666667-10.92266667 27.30666667-27.30666667v-109.22666667h109.22666667c16.384 0 27.30666667-10.92266667 27.30666666-27.30666666 0-13.65333333-10.92266667-27.30666667-27.30666666-27.30666667z m360.448 488.78933333l-226.64533334-221.184c60.07466667-65.536 95.57333333-150.18666667 95.57333334-243.02933333 0-199.33866667-163.84-360.448-368.64-360.448C238.93333333 75.09333333 75.09333333 236.20266667 75.09333333 435.54133333s163.84 360.448 368.64 360.448c87.38133333 0 169.30133333-30.03733333 232.10666667-81.92l226.64533333 223.91466667c10.92266667 10.92266667 30.03733333 10.92266667 40.96 0 8.192-8.192 8.192-24.576-2.73066666-35.49866667z m-496.98133334-158.37866666c-172.032 0-311.296-136.53333333-311.296-305.83466667C132.43733333 268.97066667 271.70133333 129.70666667 443.73333333 129.70666667c172.032 0 311.296 136.53333333 311.296 305.83466666 0 169.30133333-139.264 308.56533333-311.296 308.56533334z"></path></svg>