<?xml version="1.0" standalone="no"?><!DOCTYPE svg PUBLIC " -//W3C//DTD SVG 1.1//EN" "http://www.w3.org/Graphics/SVG/1.1/DTD/svg11.dtd"><svg t="1637636643032" class="icon" viewBox="0 0 1024 1024" version="1.1" xmlns="http://www.w3.org/2000/svg" p-id="2537" xmlns:xlink="http://www.w3.org/1999/xlink" width="256" height="256"><defs><style type="text/css"></style></defs><path d="M377.84 212H242a30 30 0 0 0-30 30v129.27a30 30 0 0 0 60 0V272h105.84a30 30 0 0 0 0-60zM767.81 212H632a30 30 0 1 0 0 60h105.81v99.27a30 30 0 1 0 60 0V242a30 30 0 0 0-30-30zM377.84 761.30000001H272V662a30 30 0 1 0-60 0v129.30000001a30 30 0 0 0 30 29.99999998h135.84a30 30 0 1 0 0-60zM767.81 632a30 30 0 0 0-30 30v99.30000001H632a30 30 0 1 0 0 59.99999998h135.81a30 30 0 0 0 30-30V662a30 30 0 0 0-30-30z"></path><path d="M887 77h-750c-33.09 0-60 26.91-60 60v750c0 33.09 26.91 60 60 60h750c33.09 0 60-26.91 60-60v-750c0-33.09-26.91-60-60-60z m-750 810v-750h750l0.06000001 750H137z"></path></svg>