<?xml version="1.0" standalone="no"?><!DOCTYPE svg PUBLIC " -//W3C//DTD SVG 1.1//EN" "http://www.w3.org/Graphics/SVG/1.1/DTD/svg11.dtd"><svg t="1637636643032" class="icon" viewBox="0 0 1024 1024" version="1.1" xmlns="http://www.w3.org/2000/svg" p-id="2537" xmlns:xlink="http://www.w3.org/1999/xlink" width="256" height="256"><defs><style type="text/css"></style></defs><path d="M941.51111111 899.64088889l-250.31111111-250.19733334c51.2-60.75733333 82.03377778-139.15022222 82.03377778-224.7111111 0-192.73955555-156.78577778-349.63911111-349.63911111-349.63911112S74.06933333 231.87911111 74.06933333 424.73244445s156.78577778 349.63911111 349.63911112 349.6391111c86.58488889 0 165.77422222-31.63022222 226.87288888-83.968l250.08355556 250.08355556c5.57511111 5.68888889 12.97066667 8.41955555 20.36622222 8.41955556s14.79111111-2.84444445 20.36622222-8.41955556c11.37777778-11.264 11.37777778-29.58222222 0.11377778-40.84622222zM423.70844445 716.57244445c-160.88177778 0-291.84-130.95822222-291.84-291.84 0-160.99555555 130.95822222-291.84 291.84-291.84s291.84 130.95822222 291.84 291.84-130.95822222 291.84-291.84 291.84z"></path><path d="M560.92444445 405.39022222H276.13866667c-15.92888889 0-28.89955555 12.97066667-28.89955556 28.89955556s12.97066667 28.89955555 28.89955556 28.89955555H560.92444445c15.92888889 0 28.89955555-12.97066667 28.89955555-28.89955555S576.85333333 405.39022222 560.92444445 405.39022222z"></path></svg>