<?xml version="1.0" standalone="no"?><!DOCTYPE svg PUBLIC " -//W3C//DTD SVG 1.1//EN" "http://www.w3.org/Graphics/SVG/1.1/DTD/svg11.dtd"><svg t="1637636643032" class="icon" viewBox="0 0 1024 1024" version="1.1" xmlns="http://www.w3.org/2000/svg" p-id="2537" xmlns:xlink="http://www.w3.org/1999/xlink" width="256" height="256"><defs><style type="text/css"></style></defs><path d="M683 932H215C155.46874999 932 107 883.625 107 824.28125001V465.125c0-59.4375 48.46875001-107.71875001 108-107.71875001h468c59.53125001 0 108 48.375 108 107.71875001v359.15625001c0 59.34375001-48.46875001 107.71875001-108 107.71874999zM215 429.21874999c-19.875 0-36 16.125-36 35.90625001v359.15625001c0 19.78125001 16.125 35.90625001 36 35.90624999h468c19.875 0 36-16.125 36-35.90625001V465.125c0-19.78125001-16.125-35.90625001-36-35.90625001H215z"></path><path d="M881 454.15624999c-13.875 0-27.09375001-8.0625-33-21.5625C771.3125 257.75 587.65625001 231.6875 485 231.6875c-19.875 0-36-16.125-36-35.90625001s16.125-35.90625001 36-35.90624999c204.5625 0 360.9375 88.96875001 429 244.03125001 7.96875001 18.1875-0.375 39.375-18.5625 47.34374999-4.6875 1.96875001-9.65625001 2.90625001-14.4375 2.90624999z"></path><path d="M476 299.5625c-9.1875 0-18.46875001-3.46875001-25.5-10.5l-67.96875001-67.875c-14.0625-14.0625-14.0625-36.75 0-50.8125l67.96875001-67.875c14.0625-14.0625 36.84375001-14.0625 50.90625001 0s14.0625 36.75 0 50.8125l-42.5625 42.46875001 42.5625 42.46874999c14.0625 14.0625 14.0625 36.75 0 50.8125-6.9375 6.9375-16.21875001 10.5-25.40625001 10.5z"></path></svg>