<?xml version="1.0" standalone="no"?><!DOCTYPE svg PUBLIC " -//W3C//DTD SVG 1.1//EN" "http://www.w3.org/Graphics/SVG/1.1/DTD/svg11.dtd"><svg t="1637636643032" class="icon" viewBox="0 0 1024 1024" version="1.1" xmlns="http://www.w3.org/2000/svg" p-id="2537" xmlns:xlink="http://www.w3.org/1999/xlink" width="256" height="256"><defs><style type="text/css"></style></defs><path d="M955.25 496.25l-126.45-126c-8.55-8.55-22.95-8.55-31.50000001 0-8.55 8.55-8.55 22.95 0 31.5L885.50000001 489.49999999h-351.00000002V138.49999999l87.75000001 88.20000002c8.55 8.55 22.95 8.55 31.5 0 8.55-8.55 8.55-22.95 0-31.50000001l-126-126.45c-8.55-8.55-22.95-8.55-31.5 0l-126 126.45c-8.55 8.55-8.55 22.95 0 31.50000001 8.55 8.55 22.95 8.55 31.5 0L489.49999999 138.49999999v351.00000002H138.49999999l88.20000002-87.75000001c8.55-8.55 8.55-22.95 0-31.5-8.55-8.55-22.95-8.55-31.50000001 0l-126.45 126c-8.55 8.55-8.55 22.95 0 31.5l126.45 126c8.55 8.55 22.95 8.55 31.50000001 0 8.55-8.55 8.55-22.95 0-31.5L138.49999999 534.50000001h351.00000002v350.99999998l-87.75000001-88.19999998c-8.55-8.55-22.95-8.55-31.5 0-8.55 8.55-8.55 22.95 0 31.49999999l126 126.45c8.55 8.55 22.95 8.55 31.5 0l126-126.45c8.55-8.55 8.55-22.95 0-31.49999999-8.55-8.55-22.95-8.55-31.5 0L534.50000001 885.50000001v-351.00000002h350.99999998l-88.19999998 87.75000001c-8.55 8.55-8.55 22.95 0 31.5 8.55 8.55 22.95 8.55 31.49999999 0l126.45-126c9-8.55 9-22.95 0-31.5z"></path></svg>