<?xml version="1.0" standalone="no"?><!DOCTYPE svg PUBLIC "-//W3C//DTD SVG 1.1//EN" "http://www.w3.org/Graphics/SVG/1.1/DTD/svg11.dtd"><svg t="1641896491841" class="icon" viewBox="0 0 1024 1024" version="1.1" xmlns="http://www.w3.org/2000/svg" p-id="19274" xmlns:xlink="http://www.w3.org/1999/xlink" width="256" height="256"><defs><style type="text/css"></style></defs><path d="M230 223.6h182.9v64H230z" fill="#497CAD" p-id="19275"></path><path d="M670 413.8v21.6c-43.4 4.4-83.7 19.4-118.3 42.4H230v-64h440zM449.8 606.9c-7.4 20.3-12.4 41.7-14.6 64H230v-64h219.8z" fill="#B2B2B2" p-id="19276"></path><path d="M831.9 471.2l0.1-80.2v-86.8L622.2 64H64v832h461.1c46.1 39.9 106.2 64 171.9 64 145.3 0 263-117.8 263-263 0-96-51.4-179.9-128.1-225.8zM608 145l127.5 146H608V145zM128 832V128h416v227h224v36l-0.1 52.7c-22.6-6.3-46.3-9.7-70.9-9.7-9.1 0-18.1 0.5-27 1.4-43.4 4.4-83.7 19.4-118.3 42.4-46.4 30.8-82.5 76-101.9 129.2-7.4 20.3-12.4 41.7-14.6 64-0.9 8.6-1.3 17.3-1.3 26.1 0 49.3 13.6 95.5 37.3 135H128z m709.7 5.7C800.1 875.3 750.1 896 697 896c-53.1 0-103.1-20.7-140.7-58.3C518.7 800.1 498 750.1 498 697c0-53.2 20.7-103.1 58.3-140.7C593.9 518.7 643.9 498 697 498c53.2 0 103.1 20.7 140.7 58.3C875.3 593.9 896 643.8 896 697c0 53.2-20.7 103.1-58.3 140.7z" fill="#727272" p-id="19277"></path><path d="M697 553.5L568.7 681.8H665v158.7h64V681.8h96.3z" fill="#5280C1" p-id="19278"></path></svg>