<?xml version="1.0" standalone="no"?><!DOCTYPE svg PUBLIC " -//W3C//DTD SVG 1.1//EN" "http://www.w3.org/Graphics/SVG/1.1/DTD/svg11.dtd"><svg t="1637636643032" class="icon" viewBox="0 0 1024 1024" version="1.1" xmlns="http://www.w3.org/2000/svg" p-id="2537" xmlns:xlink="http://www.w3.org/1999/xlink" width="256" height="256"><defs><style type="text/css"></style></defs><path d="M837.818182 512l23.272727 0L884.363636 512c0-205.637818-166.725818-372.363636-372.363636-372.363636-205.637818 0-372.363636 166.725818-372.363636 372.363636l23.272727 0L186.181818 512c0-179.944727 145.873455-325.818182 325.818182-325.818182S837.818182 332.055273 837.818182 512z"></path><path d="M1024 512c0-282.763636-229.236364-512-512-512C229.236364 0 0 229.236364 0 512c0 282.763636 229.236364 512 512 512C794.763636 1024 1024 794.763636 1024 512zM46.545455 512C46.545455 254.929455 254.929455 46.545455 512 46.545455s465.454545 208.384 465.454545 465.454545-208.384 465.454545-465.454545 465.454545S46.545455 769.070545 46.545455 512z"></path><path d="M600.389818 649.588364 617.844364 290.722909 511.488 633.902545 534.434909 763.764364Z"></path></svg>