<?xml version="1.0" standalone="no"?><!DOCTYPE svg PUBLIC " -//W3C//DTD SVG 1.1//EN" "http://www.w3.org/Graphics/SVG/1.1/DTD/svg11.dtd"><svg t="1637636643032" class="icon" viewBox="0 0 1024 1024" version="1.1" xmlns="http://www.w3.org/2000/svg" p-id="2537" xmlns:xlink="http://www.w3.org/1999/xlink" width="256" height="256"><defs><style type="text/css"></style></defs><path d="M886.272 228.864c-12.288-14.848-30.72-23.552-49.664-23.552H342.528V142.848c0-17.408-20.48-28.16-34.816-17.408l-68.608 49.664-78.848 56.32c-12.288 9.216-12.288 27.136 0 35.84l79.36 57.344L308.224 373.76c14.336 11.264 34.816 0.512 34.816-17.408V293.888h465.92l-42.496 234.496c-2.048 11.776 0.512 23.552 7.168 33.28 6.656 9.728 16.384 16.384 28.672 18.432 2.56 0.512 5.632 0.512 7.68 0.512 21.504 0 39.936-15.872 43.52-36.352l46.592-259.584c4.608-20.48-0.512-40.96-13.824-55.808z m-23.552 527.872l-78.848-57.344-68.608-49.664c-14.336-11.264-34.816-0.512-34.816 17.408v61.952H215.04l42.496-233.984c2.048-11.776-0.512-23.552-7.168-33.28s-16.384-16.384-28.672-18.432c-11.776-2.048-23.552 0.512-33.28 7.168-9.728 6.656-16.384 16.896-18.432 28.672L122.88 739.84c-3.072 19.968 2.048 39.936 14.336 55.296 12.288 14.848 30.72 23.552 49.664 23.552H680.96V880.64c0 17.408 20.48 28.16 34.816 17.408l68.608-49.664 78.848-57.344c11.776-7.68 11.776-26.112-0.512-34.304z"></path></svg>