<?xml version="1.0" standalone="no"?><!DOCTYPE svg PUBLIC " -//W3C//DTD SVG 1.1//EN" "http://www.w3.org/Graphics/SVG/1.1/DTD/svg11.dtd"><svg t="1637636643032" class="icon" viewBox="0 0 1024 1024" version="1.1" xmlns="http://www.w3.org/2000/svg" p-id="2537" xmlns:xlink="http://www.w3.org/1999/xlink" width="256" height="256"><defs><style type="text/css"></style></defs><path d="M941.64461095 220.07874499l-134.87528347-134.69387754c-6.16780046-6.16780046-14.51247167-9.79591837-23.76417234-9.79591837-6.71201815 0-29.84126985 0-63.76417233 0L254.75118688 75.58894907c-75.91836735 0-131.51927439 0-139.95464854 1e-8l-0.90702945 0c-18.50340136 0-33.28798187 14.78458051-33.28798187 33.28798184l0 803.26530613 0 0.72562358c0 18.50340136 14.78458051 33.46938776 33.28798187 33.46938776l106.9387755 0 0.72562359 0 588.02721088 0 0.90702948 0 0.7256236 0L916.88270617 946.33724841l0.99773243-2e-8c18.77551021 0 33.46938776-14.9659864 33.46938775-33.46938776l0-668.1179138 0-0.45351478C951.34982635 235.49824614 948.53803498 227.15357494 941.64461095 220.07874499zM661.10039323 133.72953863l0 232.1995465L312.8010735 365.92908512l0-232.19954647L661.10039323 133.72953863zM312.8010735 888.37806473l0-290.24943312 406.34920636 0 0 290.24943312L312.8010735 888.37806473zM893.29993973 888.37806473l-82.17687078 0-0.72562357 0-0.90702946 0L777.20016648 888.37806473 777.20016648 582.89053636c0-24.30839001-19.138322-42.90249434-42.81179138-42.90249433L297.56297827 539.98804204c-23.4920635 0-42.81179139 18.50340136-42.81179139 42.90249433l0 305.39682542-33.28798184-1e-8-0.72562359 0L138.65141363 888.28736179l2e-8-754.64852608 116.09977323 0L254.75118688 381.07647742c0 24.30839001 19.41043084 42.90249434 42.81179139 42.90249433l378.68480726 0c23.76417234 0 42.81179139-18.50340136 42.81179137-42.90249432l0-247.34693878 53.78684809 0L893.29993973 253.82024158 893.29993973 888.37806473z"></path><path d="M632.07544993 656.17851823L399.87590344 656.17851823c-16.05442179 0-29.02494331 12.97052155-29.02494332 29.02494332s12.97052155 29.02494331 29.02494332 29.02494331l232.19954649 0c16.05442179 0 29.02494331-12.97052155 29.0249433-29.02494331S648.12987171 656.17851823 632.07544993 656.17851823z"></path><path d="M632.07544993 772.27829148L399.87590344 772.27829148c-16.05442179 0-29.02494331 12.97052155-29.02494332 29.0249433s12.97052155 29.02494331 29.02494332 29.02494333l232.19954649 0c16.05442179 0 29.02494331-12.97052155 29.0249433-29.02494333S648.12987171 772.27829148 632.07544993 772.27829148z"></path></svg>