<?xml version="1.0" standalone="no"?><!DOCTYPE svg PUBLIC " -//W3C//DTD SVG 1.1//EN" "http://www.w3.org/Graphics/SVG/1.1/DTD/svg11.dtd"><svg t="1637636643032" class="icon" viewBox="0 0 1024 1024" version="1.1" xmlns="http://www.w3.org/2000/svg" p-id="2537" xmlns:xlink="http://www.w3.org/1999/xlink" width="256" height="256"><defs><style type="text/css"></style></defs><path d="M511.74701986 107.99023736c54.6437754 0 107.26370618 10.62517822 157.3538329 31.8755355 48.06628383 20.23843498 91.07295871 49.58416644 128.51406347 86.51931091 36.93514448 36.93514448 66.28087506 80.44777964 86.51931091 128.51406347 21.25035729 49.58416644 31.8755355 102.71005837 31.8755355 157.3538329s-10.62517822 107.26370618-31.8755355 157.35383378c-20.23843498 48.06628383-49.58416644 91.07295871-86.51931091 128.51406347-36.93514448 36.93514448-80.44777964 66.28087506-128.51406347 86.51931004-49.58416644 21.25035729-102.71005837 31.8755355-157.3538329 31.8755355s-107.26370618-10.62517822-157.35383378-31.8755355c-48.06628383-20.23843498-91.07295871-49.58416644-128.51406347-86.51931004-36.93514448-36.93514448-66.28087506-80.44777964-86.51931004-128.51406347-21.25035729-49.58416644-31.8755355-102.71005837-31.8755355-157.35383378S118.61541644 404.48331281 139.86577286 354.89914724c20.23843498-48.06628383 49.58416644-91.07295871 86.51931091-128.51406347S306.83286341 160.10420871 354.89914724 139.86577286c49.58416644-21.25035729 102.71005837-31.8755355 156.84787262-31.8755355m0-38.95898736C267.36791489 69.03125 69.03125 267.36791489 69.03125 511.74701986S267.36791489 954.46278884 511.74701986 954.46278884 954.46278884 756.12612396 954.46278884 511.74701986 756.63208511 69.03125 511.74701986 69.03125zM427.75751386 683.77371849c-8.09537417 0-16.19074832-2.02384376-23.78016134-6.57749156-14.67286573-8.60133532-23.78016134-23.78016134-23.78016134-40.98283112V387.28064303c0-17.20266977 8.60133532-32.38149666 23.78016134-40.98283111 14.67286573-8.60133532 32.38149666-8.60133532 47.05436152 0l215.53933467 124.46637682c14.67286573 8.60133532 23.78016134 23.78016134 23.78016134 40.98283112 0 17.20266977-8.60133532 32.38149666-23.78016134 40.98283111l-215.53933467 124.46637595c-7.08345272 4.55364781-15.17882602 6.57749156-23.27420018 6.57749157z m3.54172549-290.42154505V630.64782656l205.42011762-118.9008067-205.42011762-118.39484642z m210.47972657 121.43061162z"></path></svg>