<?xml version="1.0" standalone="no"?><!DOCTYPE svg PUBLIC " -//W3C//DTD SVG 1.1//EN" "http://www.w3.org/Graphics/SVG/1.1/DTD/svg11.dtd"><svg t="1637636643032" class="icon" viewBox="0 0 1024 1024" version="1.1" xmlns="http://www.w3.org/2000/svg" p-id="2537" xmlns:xlink="http://www.w3.org/1999/xlink" width="256" height="256"><defs><style type="text/css"></style></defs><path d="M512 70.13867187C269.67394531 70.13867187 70.13867187 269.67394531 70.13867187 512s199.53527344 441.86132813 441.86132813 441.86132813 441.86132813-199.53527344 441.86132813-441.86132813-199.53527344-441.86132813-441.86132813-441.86132813z m0 829.30394532c-215.34925781 0-387.44261719-172.09335938-387.44261719-387.44261719 0-197.2096875 142.79097656-355.81464844 330.69832032-382.79144531 256.27957031-36.27914063 475.81488281 183.72128906 439.53574218 439.53574218-26.97679688 187.90734375-185.58175781 330.69832031-382.79144531 330.69832032z"></path><path d="M618.51183594 346.41828125H403.16257812c-31.62796875 0-59.06988281 26.97679688-59.06988281 59.06988281v215.34925781c0 31.62796875 26.97679688 59.06988281 59.06988282 59.06988282h215.34925781c31.62796875 0 59.06988281-26.97679688 59.06988281-59.06988281V405.48816406c0-33.95355469-25.11632813-59.06988281-59.06988281-59.06988281z"></path></svg>