<?xml version="1.0" standalone="no"?><!DOCTYPE svg PUBLIC " -//W3C//DTD SVG 1.1//EN" "http://www.w3.org/Graphics/SVG/1.1/DTD/svg11.dtd"><svg t="1637636643032" class="icon" viewBox="0 0 1024 1024" version="1.1" xmlns="http://www.w3.org/2000/svg" p-id="2537" xmlns:xlink="http://www.w3.org/1999/xlink" width="256" height="256"><defs><style type="text/css"></style></defs><path d="M749.746 316.424v391.152c77.707 0 141.387-66.059 141.387-146.668v-97.816c0-80.61-63.68-146.668-141.387-146.668z"></path><path d="M749.746 316.424H295.297c-5.121 0-9.352 4.389-9.352 9.816v371.52c0 5.426 4.23 9.816 9.352 9.816h454.449V316.424z"></path><path d="M285.945 339.637v344.725c-38.854 0-70.695-58.203-70.695-129.344v-86.152c0-71.024 31.842-129.229 70.695-129.229zM215.25 482.725h-67.91c-7.904 0-14.473 13.164-14.473 29.219 0 16.168 6.568 29.332 14.473 29.332h67.91v-58.551z"></path><path d="M285.834 614.838h463.799v23.445H285.834zM285.834 523.143h463.799v23.445H285.834zM285.834 339.869h463.799v23.443H285.834zM285.834 431.564h463.799v23.443H285.834zM285.834 477.297h463.799v23.559H285.834zM285.834 660.572h463.799v23.559H285.834zM285.834 568.99h463.799v23.445H285.834zM285.834 385.717h463.799v23.443H285.834z"></path><path d="M244.643 364.004l-1.002 294.721c6.123 8.43 13.025 15.012 20.484 19.402l-0.334-331.906c-6.902 4.156-13.359 10.162-19.148 17.783z"></path></svg>