<?xml version="1.0" standalone="no"?><!DOCTYPE svg PUBLIC " -//W3C//DTD SVG 1.1//EN" "http://www.w3.org/Graphics/SVG/1.1/DTD/svg11.dtd"><svg t="1637636643032" class="icon" viewBox="0 0 1024 1024" version="1.1" xmlns="http://www.w3.org/2000/svg" p-id="2537" xmlns:xlink="http://www.w3.org/1999/xlink" width="256" height="256"><defs><style type="text/css"></style></defs><path d="M512 576V170.666667c0-93.866667-76.8-170.666667-170.666667-170.666667S170.666667 76.8 170.666667 170.666667v405.333333c-55.466667 46.933333-85.333333 115.2-85.333334 192 0 140.8 115.2 256 256 256s256-115.2 256-256c0-72.533333-29.866667-140.8-85.333333-192zM341.333333 938.666667c-93.866667 0-170.666667-76.8-170.666666-170.666667 0-55.466667 25.6-102.4 68.266666-136.533333 12.8-8.533333 17.066667-21.333333 17.066667-34.133334V170.666667c0-46.933333 38.4-85.333333 85.333333-85.333334s85.333333 38.4 85.333334 85.333334v426.666666c0 12.8 4.266667 25.6 17.066666 34.133334 42.666667 34.133333 68.266667 81.066667 68.266667 136.533333 0 93.866667-76.8 170.666667-170.666667 170.666667z"></path><path d="M375.466667 657.066667V320c0-17.066667-12.8-34.133333-34.133334-34.133333s-34.133333 17.066667-34.133333 34.133333v337.066667c-51.2 12.8-85.333333 59.733333-85.333333 110.933333 0 64 51.2 119.466667 119.466666 119.466667s119.466667-51.2 119.466667-119.466667c0-55.466667-38.4-98.133333-85.333333-110.933333zM341.333333 819.2c-29.866667 0-51.2-25.6-51.2-51.2s25.6-51.2 51.2-51.2 51.2 25.6 51.2 51.2-21.333333 51.2-51.2 51.2zM896 102.4h-256c-25.6 0-42.666667 17.066667-42.666667 42.666667s17.066667 42.666667 42.666667 42.666666h256c25.6 0 42.666667-17.066667 42.666667-42.666666s-17.066667-42.666667-42.666667-42.666667zM810.666667 273.066667h-170.666667c-25.6 0-42.666667 17.066667-42.666667 42.666666s17.066667 42.666667 42.666667 42.666667h170.666667c25.6 0 42.666667-17.066667 42.666666-42.666667s-17.066667-42.666667-42.666666-42.666666zM725.333333 443.733333h-85.333333c-25.6 0-42.666667 17.066667-42.666667 42.666667s17.066667 42.666667 42.666667 42.666667h85.333333c25.6 0 42.666667-17.066667 42.666667-42.666667s-17.066667-42.666667-42.666667-42.666667z"></path></svg>