<?xml version="1.0" standalone="no"?><!DOCTYPE svg PUBLIC " -//W3C//DTD SVG 1.1//EN" "http://www.w3.org/Graphics/SVG/1.1/DTD/svg11.dtd"><svg t="1637636643032" class="icon" viewBox="0 0 1024 1024" version="1.1" xmlns="http://www.w3.org/2000/svg" p-id="2537" xmlns:xlink="http://www.w3.org/1999/xlink" width="256" height="256"><defs><style type="text/css"></style></defs><path d="M787.00088889 1001.13066667c-100.69333333 0-180.90666667-87.72266667-180.90666667-196.03911112-7.50933333-126.976 177.26577778-324.83555555 180.90666667-328.59022222 3.75466667 3.75466667 188.416 203.54844445 180.90666666 328.59022222 0.11377778 108.31644445-82.03377778 196.03911111-180.90666666 196.03911112z m0-487.31022222S626.57422222 694.95466667 632.14933333 803.27111111c0 91.47733333 69.06311111 166.22933333 154.85155556 166.22933334 85.78844445 0 154.85155555-74.63822222 154.85155556-166.22933334 7.50933333-108.31644445-154.85155555-289.45066667-154.85155556-289.45066666z m0 422.00177777c-65.30844445 0-117.53244445-55.97866667-117.53244444-126.976 0-13.08444445 3.75466667-27.98933333 7.50933333-41.07377777 27.98933333 26.16888889 74.63822222 52.33777778 128.68266667 52.33777777 0 0 67.12888889-5.57511111 95.11822222 16.83911111-12.97066667 54.04444445-59.61955555 98.87288889-113.77777778 98.87288889zM262.82666667 1021.72444445c-113.77777778 0-207.07555555-89.65688889-207.07555556-201.61422223 0-65.30844445 31.744-126.976 85.78844444-164.29511111v-535.89333333c0-65.30844445 52.33777778-117.64622222 119.46666667-117.64622223S382.29333333 54.61333333 382.29333333 119.92177778v535.89333333c54.04444445 37.31911111 85.78844445 98.98666667 87.72266667 164.29511111C469.90222222 930.24711111 376.60444445 1021.72444445 262.82666667 1021.72444445z m82.14755555-334.16533334l-11.15022222-5.57511111V121.74222222c0-39.25333333-33.56444445-72.81777778-74.63822222-72.81777777-41.07377778 0-74.63822222 31.744-74.63822223 72.81777777v560.128l-11.15022222 5.57511111c-46.64888889 27.98933333-74.63822222 78.39288889-74.63822222 132.55111112 0 85.90222222 72.704 156.78577778 162.24711111 156.78577777 89.54311111 0 162.24711111-70.99733333 158.60622223-156.78577777-0.11377778-54.04444445-28.10311111-102.62755555-74.63822223-132.43733334z m-83.968 210.944c-44.82844445 0-80.21333333-35.49866667-80.21333333-78.39288889 0-35.49866667 24.23466667-65.30844445 57.79911111-74.63822222v-442.59555555H283.30666667v442.48177777c33.56444445 9.32977778 57.79911111 39.25333333 57.79911111 74.63822223 0.11377778 43.008-35.38488889 78.50666667-80.09955556 78.50666666z"></path></svg>