<?xml version="1.0" standalone="no"?><!DOCTYPE svg PUBLIC " -//W3C//DTD SVG 1.1//EN" "http://www.w3.org/Graphics/SVG/1.1/DTD/svg11.dtd"><svg t="1637636643032" class="icon" viewBox="0 0 1024 1024" version="1.1" xmlns="http://www.w3.org/2000/svg" p-id="2537" xmlns:xlink="http://www.w3.org/1999/xlink" width="256" height="256"><defs><style type="text/css"></style></defs><path d="M413.05396825 708.06349206h-40.63492063c-22.45079365 0-40.63492063-18.18412698-40.63492064-40.63492063V357.79047619c0-22.45079365 18.18412698-40.63492063 40.63492064-40.63492063h40.63492063c22.45079365 0 40.63492063 18.18412698 40.63492064 40.63492063V667.42857143c0 22.45079365-18.18412698 40.63492063-40.63492064 40.63492063zM652.29206349 708.06349206h-40.63492063c-22.45079365 0-40.63492063-18.18412698-40.63492064-40.63492063V357.79047619c0-22.45079365 18.18412698-40.63492063 40.63492064-40.63492063h40.63492063c22.45079365 0 40.63492063 18.18412698 40.63492064 40.63492063V667.42857143c0 22.45079365-18.18412698 40.63492063-40.63492064 40.63492063z"></path><path d="M926.37460317 57.09206349H99.25079365c-22.45079365 0-40.63492063 18.18412698-40.63492063 40.63492064v827.22539682c0 22.45079365 18.18412698 40.63492063 40.63492063 40.63492064H926.47619048c22.45079365 0 40.63492063-18.18412698 40.63492063-40.63492064V97.72698413c-0.1015873-22.45079365-18.28571429-40.63492063-40.73650794-40.63492064z m-60.95238095 796.74920635c0 5.58730159-4.57142857 10.15873016-10.15873016 10.15873016H170.36190476c-5.58730159 0-10.15873016-4.57142857-10.15873016-10.15873016V168.83809524c0-5.58730159 4.57142857-10.15873016 10.15873016-10.15873016H855.36507937c5.58730159 0 10.15873016 4.57142857 10.15873015 10.15873016v685.0031746z"></path></svg>