<?xml version="1.0" standalone="no"?><!DOCTYPE svg PUBLIC " -//W3C//DTD SVG 1.1//EN" "http://www.w3.org/Graphics/SVG/1.1/DTD/svg11.dtd"><svg t="1637636643032" class="icon" viewBox="0 0 1024 1024" version="1.1" xmlns="http://www.w3.org/2000/svg" p-id="2537" xmlns:xlink="http://www.w3.org/1999/xlink" width="256" height="256"><defs><style type="text/css"></style></defs><path d="M929.6 138.26666656l-43.66666688-43.66666687a8.06666625 8.06666625 0 0 0-5.86666687-2.4 8.53333312 8.53333312 0 0 0-5.86666594 2.4l-78.33333375 78.40000031a206.13333375 206.13333375 0 0 0-261.06666656 25.00000031L429.86666656 302.86666625a8.26666688 8.26666688 0 0 0 0 11.60000062l280.00000031 279.99999938a8.06666625 8.06666625 0 0 0 5.86666688 2.4 8.73333375 8.73333375 0 0 0 5.86666594-2.4l104.66666718-105.13333313a206.13333375 206.13333375 0 0 0 24.99999938-261l78.33333375-78.33333281a8.4 8.4 0 0 0 0-11.73333375z m-156.19999969 298.93333313l-59.26666687 59.26666687-186.66666656-186.66666656 59.26666687-59.26666687a131.86666688 131.86666688 0 1 1 186.66666656 186.66666656zM580.80000031 547.93333344a8.26666688 8.26666688 0 0 0-11.60000062 0L500.6 616.46666656 407.66666656 523.53333313l68.66666719-68.66666626a8.26666688 8.26666688 0 0 0 0-11.60000062L438.66666688 405.73333344a8.26666688 8.26666688 0 0 0-11.60000063 0L358.66666625 474.39999969l-44.26666594-44.26666594a8.06666625 8.06666625 0 0 0-5.86666687-2.4 8.73333375 8.73333375 0 0 0-5.86666688 2.4L197.73333313 535.06666625a206.13333375 206.13333375 0 0 0-24.99999938 261L94.4 874.33333344a8.26666688 8.26666688 0 0 0 0 11.59999968l43.66666688 43.66666688a8.06666625 8.06666625 0 0 0 5.86666687 2.4 8.53333312 8.53333312 0 0 0 5.86666594-2.4l78.33333375-78.33333375a206.13333375 206.13333375 0 0 0 261.06666656-24.99999938l104.93333344-104.93333343a8.26666688 8.26666688 0 0 0 0-11.59999969L549.86666656 665.33333375 618.66666688 596.79999969A8.26666688 8.26666688 0 0 0 618.66666688 585.33333312z m-141.20000062 228.93333281a136.00000031 136.00000031 0 1 1-192.33333282-192.33333281l61.13333344-61.13333344 192.33333282 192.33333375z"></path></svg>