<?xml version="1.0" standalone="no"?><!DOCTYPE svg PUBLIC " -//W3C//DTD SVG 1.1//EN" "http://www.w3.org/Graphics/SVG/1.1/DTD/svg11.dtd"><svg t="1637636643032" class="icon" viewBox="0 0 1024 1024" version="1.1" xmlns="http://www.w3.org/2000/svg" p-id="2537" xmlns:xlink="http://www.w3.org/1999/xlink" width="256" height="256"><defs><style type="text/css"></style></defs><path d="M512 90.13076782C279.00717163 90.13076782 90.12994385 279.00799559 90.12994385 512.00082398c0 96.05319214 32.10534668 184.60574341 86.16467285 255.51947021a423.97119141 423.97119141 0 0 0 76.17562867 77.09106446c28.31918335 22.12783813 59.53710938 40.71588135 92.98883056 55.10412597 51.09301758 21.97540283 107.39273071 34.15457153 166.54010009 34.15457153 59.14654541 0 115.44708252-12.1791687 166.53927613-34.15457153 33.45254516-14.38824463 64.66964722-32.97628784 92.98883056-55.10412599a423.93905639 423.93905639 0 0 0 76.17974854-77.09436034c54.05685425-70.91455078 86.16137695-159.46463013 86.16137695-255.51699829C933.86923218 279.00799559 744.99200441 90.13076782 512 90.13076782z m263.34805298 685.21810913c-28.24172974 28.24090576-60.31082153 51.46463013-95.57940674 69.26248168a374.55001831 374.55001831 0 0 1-22.81668091 10.5732422C611.06811523 874.59167481 562.29953003 884.43157959 512 884.43157959s-99.06893921-9.83990479-144.95196533-29.24697876a374.5730896 374.5730896 0 0 1-22.81750488-10.5732422c-35.26858521-17.79785156-67.33850097-41.02075195-95.58023072-69.26248168a378.681427 378.681427 0 0 1-3.70129394-3.75897216c5.2281189-2.34667969 11.73751831-4.72055054 19.7078247-7.48168946 6.92797852-2.40106201 14.09902954-4.88534546 21.29562379-7.9249878 12.2829895-5.17868042 25.09085083-10.68777466 38.01818847-16.24465941 19.27935791-8.28671265 39.20306396-16.84945679 57.67410278-24.44403077l25.18313599-6.88018798a27.37408448 27.37408448 0 0 0 8.35427856-3.88256836c10.23129273-7.03509521 18.16781617-18.90115357 25.36605835-32.60961914 0.63198852-1.19641114 1.23760987-2.46203613 1.8564148-3.68069458 0.34359742-0.67071533 0.67895508-1.34390258 1.01513672-2.01626588a469.42822266 469.42822266 0 0 0 6.06774902-12.61917114l1.23760986-2.66390991c1.72210693-3.69223023 2.54196167-7.63330078 2.54937745-11.54882813 0-0.08074951 0.01400757-0.16149903 0.01400756-0.23565673-0.00741577-1.04232788-0.12194825-2.07229614-0.24224854-3.10061646-0.03378295-0.29580688-0.02801513-0.59243774-0.07415771-0.8890686-0.12030029-0.80667114-0.34936523-1.60015869-0.54464721-2.39364624-0.12112427-0.49768067-0.19528198-1.00854492-0.34359742-1.49880982-0.26861573-0.8824768-0.6394043-1.7361145-1.00277709-2.59140014-0.15490722-0.37573242-0.26861573-0.77288818-0.44329834-1.15026857a27.76217651 27.76217651 0 0 0-4.5401001-6.77307127c-28.85064698-31.64886474-47.53015136-74.98004151-51.74725342-118.80395508a197.02304077 197.02304077 0 0 1-0.90802002-18.7734375c0-14.74502563 0.59243774-28.26480102 1.71551514-40.66149903 7.83599854-86.79171753 41.40802002-118.56829834 76.84304808-129.49172974 13.5-4.16436768 27.27685547-5.30062867 40.0039673-5.30062866 17.48968506 0 36.96844482 2.15222169 54.99536133 11.36096192 34.41329956 17.57620239 63.55316162 60.88842773 63.55316161 164.09289551 0 34.28558349-9.26312256 69.2492981-25.72366332 99.50564575-7.5385437 13.85018921-16.58084107 26.71737671-26.93325806 38.07174683a27.37655639 27.37655639 0 0 0-4.5335083 6.76812743 27.45565796 27.45565796 0 0 0-2.6350708 11.38156128c0 0.07333374-0.01565552 0.14749146-0.02224732 0.227417-0.0065918 0.83468628 0.09558106 1.66772461 0.16891479 2.50158691 0.04037476 0.50509643 0.02636719 1.01019287 0.10052491 1.50704956 0.06097412 0.41116333 0.18951415 0.82150268 0.2628479 1.23101805 0.17468262 0.91543579 0.32876587 1.8366394 0.59820557 2.74465944 0.0065918 0.04119873 0.02636719 0.07498169 0.04037475 0.11535645a27.43341065 27.43341065 0 0 0 1.39910889 3.70458984l1.23184203 2.66390991c9.74514771 21.10775757 19.70700073 40.8831482 34.3053589 50.92657471a27.51498413 27.51498413 0 0 0 8.35345459 3.88256836l25.19137573 6.88018799c15.92907715 6.55142212 32.92602539 13.81640625 49.67495727 21.01300049 2.7034607 1.1585083 5.41433716 2.32196045 8.09802247 3.47799681h0.00741577c12.88201904 5.54370117 25.65527344 11.03302002 37.91107178 16.19769288 7.19165039 3.03964234 14.36270141 5.52392578 21.2980957 7.92498779 7.9670105 2.76196289 14.47476196 5.13500977 19.70205688 7.48168946a369.74212646 369.74212646 0 0 1-3.70129395 3.75814819z m39.85070801-46.96820068c-12.20553589-7.46356201-25.70059204-12.1404419-37.81219482-16.33529663-6.36355591-2.20742797-12.3835144-4.29208374-17.90579224-6.62640381-12.18740844-5.14489746-24.88073731-10.60043335-37.68777466-16.1029358a1374.62036133 1374.62036133 0 0 1-3.41619873-1.46585082c-18.96871948-8.15982055-38.41616821-16.50750732-56.66473389-23.98095703a28.25079346 28.25079346 0 0 0-3.22998047-1.09506226l-19.89651491-5.43576049c-2.3821106-3.28930663-5.23306274-8.52319337-7.81622312-13.64831544 5.50991821-7.06887818 10.59466551-14.47558594 15.33581542-22.11630248 25.42620849-40.95812988 39.55902099-89.3822937 39.559021-138.18960572 0-95.28112793-23.6085205-152.91403198-57.12039184-186.7348938-33.51187133-33.82086182-76.92544555-43.8230896-116.53720093-43.8230896h-0.00823975c-71.79785156 0-156.08880615 32.85269165-171.25653077 180.84347534-1.57379151 15.30862427-2.40106201 31.84991455-2.40106201 49.71533204 0 3.61889648 0.08074951 7.23779297 0.227417 10.84927366 0.33700562 7.8500061 1.06375122 15.67282105 2.1060791 23.45608522 1.35791017 10.11016846 3.27612305 20.13876343 5.79089356 30.00668335 1.67514038 6.59262085 3.63208009 13.10284423 5.80490112 19.54055787 0.12771607 0.38397217 0.23483276 0.76712036 0.36996458 1.15026855 0.36337281 1.04974365 0.77371216 2.08465575 1.14367678 3.13439941 9.30926513 26.0392456 22.60079956 50.55001831 39.45108032 72.16864014-0.2496643 0.49191284-0.50509643 0.97640992-0.75393678 1.4666748-0.45730591 0.88165283-0.90884399 1.76824951-1.37274169 2.63589478-0.20846557 0.38479614-0.40951538 0.75311279-0.61880493 1.13049316a142.09030151 142.09030151 0 0 1-1.66113281 2.97290039 81.71932985 81.71932985 0 0 1-1.06292724 1.80368041c-0.10794067 0.18704224-0.22247315 0.37573242-0.33618165 0.56442262a57.05612182 57.05612182 0 0 1-1.7427063 2.65649414l0.02059936 0.00741577c-0.0939331 0.12854003-0.19528198 0.29580688-0.28262328 0.41775513l-19.8965149 5.42834473c-1.10412598 0.30239868-2.18023682 0.66577148-3.22915649 1.09506225-19.33126831 7.92333984-40.04928589 16.83792114-60.09494018 25.44763184-12.80703735 5.50250244-25.49295044 10.95803833-37.68200685 16.10293579-5.52886963 2.33432007-11.54223633 4.41897583-17.90579223 6.6264038-12.11407471 4.19567871-25.60995484 8.87255859-37.81631469 16.33612062-15.88375854-22.19869995-29.26181031-46.07583618-39.98501588-71.42871094-19.40707398-45.8838501-29.24697876-94.65243531-29.24697876-144.95196535S149.40750122 412.93353271 168.81457519 367.05050659c18.75531006-44.34301758 45.61605835-84.17724609 79.83572388-118.39691162s74.05389404-61.07958983 118.39691163-79.83572388C412.93106079 149.40914917 461.70046997 139.56924438 512 139.56924438c50.29953003 0 99.06811523 9.83990479 144.95196533 29.24697877 44.3421936 18.75613403 84.17642212 45.61605835 118.39608765 79.83572388 34.21884156 34.21966551 61.07958983 74.05471802 79.83572387 118.3969116 19.40707398 45.88302612 29.24697876 94.65243531 29.24697877 144.95196535s-9.83990479 99.06811523-29.24697877 144.95196532c-10.72402954 25.35287476-24.1020813 49.22918701-39.98501586 71.42788697z"></path></svg>