<?xml version="1.0" standalone="no"?><!DOCTYPE svg PUBLIC " -//W3C//DTD SVG 1.1//EN" "http://www.w3.org/Graphics/SVG/1.1/DTD/svg11.dtd"><svg t="1637636643032" class="icon" viewBox="0 0 1024 1024" version="1.1" xmlns="http://www.w3.org/2000/svg" p-id="2537" xmlns:xlink="http://www.w3.org/1999/xlink" width="256" height="256"><defs><style type="text/css"></style></defs><path d="M125.013 484.01l77.445 52.269-4.098-76.4z"></path><path d="M876.404 525.505l-3.001 63.873 75.657 45.074-35.189 15.377-66.151-36.063-76.957 29.574 63.814 41.143-37.294 16.297-66.511-43.581-89.819 35.325 72.222 45.007-39.6 17.306-74.733-47.724-94.681 32.806 80.001 53.993-42.074 18.381-455.53-315.636L0.034 525.114l7.738 82.179L448.75 946.242l93.575-42.703-0.147-51.998 170.073-75.54-1.555 50.727 82.852-37.803 2.346-50.08 150.983-67.055-3.685 48.865 73.905-33.717 6.86-85.207L876.4 525.508zM44.758 603.828l-4.837-49.366 126.186 92.837 3.87 51.375-125.218-94.849z m196.811 149.079l-3.257-52.483 151.972 111.818 1.813 54.689-150.528-114.025z"></path><path d="M759.786 522.845l0.866-22.352-195.055 64.644-0.106 26.75z m-78.564-177.581l22.175-5.513-4.037 150.084 29.323-8.78 4.743-148.767 21.827-5.421-32.919-63.105-2.851 0.595z m-104.076 34.262l22.147-5.502-1.453 150.407 33.849-10.134 2.334-148.905 22.566-5.604-37.484-66.153-1.456 0.303z"></path><path d="M244.819 541.621L474.79 705.626l356.603-131.971 13.42-419.86-116.153-31.163-366.979 76.38 1.045 154.679-39.802-18.348-6.089-159.19 358.064-73.227-98.529-25.169-353.168 61.212 21.619 402.649z m567.574-341.249l-7.902 347.651-294.159 106.566-2.342-380.752 304.403-73.466z"></path></svg>