<?xml version="1.0" standalone="no"?><!DOCTYPE svg PUBLIC " -//W3C//DTD SVG 1.1//EN" "http://www.w3.org/Graphics/SVG/1.1/DTD/svg11.dtd"><svg t="1637636643032" class="icon" viewBox="0 0 1024 1024" version="1.1" xmlns="http://www.w3.org/2000/svg" p-id="2537" xmlns:xlink="http://www.w3.org/1999/xlink" width="256" height="256"><defs><style type="text/css"></style></defs><path d="M881.409425 772.245257l-3.043457 3.165195a41.147535 41.147535 0 0 1-55.999604 1.947812 38.128426 38.128426 0 0 1-4.139102-53.808315l9.739062-11.199921a395.649379 395.649379 0 1 0-632.47901 0.486953l6.841691 9.252109a40.319715 40.319715 0 0 1-6.111261 55.512651l-0.340867 0.243476a37.665821 37.665821 0 0 1-53.564839-4.382577 474.779254 474.779254 0 1 1 739.097387-1.217383z m-166.464911-418.292697a236.780936 236.780936 0 0 1 3.189542 235.198338l-1.996507 3.895625a40.173629 40.173629 0 0 1-50.497035 19.478123 36.886696 36.886696 0 0 1-20.890287-47.721402l15.801628-40.417105a158.259751 158.259751 0 1 0-299.74397 1.460859l14.827722 37.738864a37.519735 37.519735 0 0 1-21.328545 48.695308l-0.559996 0.243476a39.370157 39.370157 0 0 1-50.326601-21.912888 237.170498 237.170498 0 0 1 206.955059-353.284461 237.413975 237.413975 0 0 1 204.447252 116.625263z m-229.793159 283.406693a35.620618 35.620618 0 0 1 54.051792 0l315.789073 336.241103a30.580654 30.580654 0 0 1 2.726937 32.869333 34.086716 34.086716 0 0 1-29.363271 17.530311H195.852529a34.086716 34.086716 0 0 1-29.752833-17.773787 31.116302 31.116302 0 0 1 0-32.625857z m276.613698 323.580323L512.566813 705.532685 262.565101 960.939576h499.126909z"></path></svg>