<?xml version="1.0" standalone="no"?><!DOCTYPE svg PUBLIC " -//W3C//DTD SVG 1.1//EN" "http://www.w3.org/Graphics/SVG/1.1/DTD/svg11.dtd"><svg t="1637636643032" class="icon" viewBox="0 0 1024 1024" version="1.1" xmlns="http://www.w3.org/2000/svg" p-id="2537" xmlns:xlink="http://www.w3.org/1999/xlink" width="256" height="256"><defs><style type="text/css"></style></defs><path d="M992.256 537.088v408.576c0 45.568-29.696 75.776-75.264 75.776h-802.304c-38.912 0-67.072-24.064-73.216-61.952-0.512-3.072-0.512-6.144-0.512-9.216V123.392c0-39.424 31.232-70.656 70.656-70.656h71.168c5.632 0 7.68 1.024 7.168 7.168-0.512 8.704-0.512 17.408 0 26.112 0.512 5.632-1.536 7.68-7.68 7.68-23.04-0.512-46.08 0-68.608 0-19.456 0-32.256 12.8-32.256 31.744v823.296c0 18.944 12.8 31.744 31.744 32.256h5.12c265.216 0 530.432 0 795.136 0.512 23.04 0 37.888-13.312 37.376-37.376-0.512-271.872-0.512-543.232-0.512-815.104 0-24.576-11.264-35.328-35.84-35.328h-62.976c-5.12 0-7.168-1.536-6.656-6.656 0.512-9.728 0-19.456 0-28.672 0-4.096 1.024-5.632 5.12-5.632 25.6 0 51.712-0.512 77.312 0.512 34.816 1.536 63.488 33.792 63.488 69.632 1.536 137.728 1.536 275.968 1.536 414.208z"></path><path d="M527.36 809.472c11.776 11.776 22.016 21.504 32.256 31.744 8.704 8.704 9.728 21.504 3.584 31.232-6.144 9.728-17.408 14.336-28.672 11.264-4.608-1.536-8.704-4.096-12.288-7.68l-87.552-87.552c-4.096-4.096-3.072-5.632 0-9.216l87.552-87.552c11.264-11.264 26.624-11.776 36.864-1.536 10.752 10.752 10.24 26.112-1.536 37.888l-28.16 28.16s0 0.512 0.512 1.536c23.552-1.024 47.104-5.632 68.608-14.848 84.992-36.352 134.656-99.84 143.872-192 12.288-122.368-76.8-230.912-199.168-245.76-122.368-14.336-232.96 70.144-251.392 192-1.536 10.24-2.56 20.992-2.56 31.232-0.512 15.872-11.264 26.624-25.6 26.624s-25.6-11.776-25.088-27.648c1.536-69.632 24.064-131.072 71.168-182.272 60.928-67.584 138.24-98.304 228.352-92.16 130.048 8.704 236.032 108.544 254.464 238.592 21.504 149.504-80.384 288.256-229.376 313.344-11.264 2.56-22.016 4.096-35.84 4.608z"></path><path d="M607.232 453.12c0.512 6.656-2.56 11.776-7.168 16.384-15.872 15.872-31.744 31.744-47.616 47.104-4.096 4.096-3.584 6.144 0 9.728 15.872 15.36 31.232 31.232 47.104 46.592 9.728 9.728 10.752 22.016 2.048 30.72-8.704 8.704-20.992 8.192-30.72-1.536-14.848-14.848-30.208-29.696-45.056-45.056-6.144-6.144-8.704-5.12-14.336 0.512-14.336 15.36-29.696 29.696-44.544 44.544-10.24 10.24-23.04 10.752-31.232 2.048-8.192-8.704-7.168-20.992 2.56-30.72 15.36-15.872 31.232-31.232 47.104-46.592 4.096-4.096 3.584-6.144 0-9.728-15.872-15.36-31.232-31.232-47.104-46.592-10.24-10.24-10.752-23.04-2.048-31.232 8.704-8.192 20.992-7.68 30.72 2.56 15.872 15.36 31.232 31.232 46.592 47.104 3.584 4.096 6.144 4.096 9.728 0 15.872-16.384 32.256-32.768 48.64-48.64 6.656-6.656 13.824-8.192 22.528-4.608 8.704 2.56 12.288 8.704 12.8 17.408zM718.848 3.072h-404.992c-29.184 0-49.664 14.848-61.952 40.96-7.68 15.872-5.632 32.768-5.632 49.152 0.512 36.864 30.72 66.56 67.584 66.56h406.016c37.376 0 67.584-30.208 67.584-67.584v-20.992c0-38.4-29.696-68.096-68.608-68.096z m32.768 84.48c0 23.552-12.8 36.352-35.84 36.352h-397.824c-22.528 0-35.84-13.312-35.84-35.84v-18.944c0.512-17.408 14.848-31.232 31.744-31.232h406.016c17.408 0 31.232 13.824 31.744 31.232v18.432z"></path></svg>