<?xml version="1.0" standalone="no"?><!DOCTYPE svg PUBLIC " -//W3C//DTD SVG 1.1//EN" "http://www.w3.org/Graphics/SVG/1.1/DTD/svg11.dtd"><svg t="1637636643032" class="icon" viewBox="0 0 1024 1024" version="1.1" xmlns="http://www.w3.org/2000/svg" p-id="2537" xmlns:xlink="http://www.w3.org/1999/xlink" width="256" height="256"><defs><style type="text/css"></style></defs><path d="M523.17573013 511.14206124a32.48048115 32.48048115 0 0 1-33.08914531-31.76115181V100.95840089C490.08658482 83.36250118 504.91583409 69.03125 523.17573013 69.03125c18.31522903 0 33.19981049 14.3865842 33.19981047 31.92715088v378.25650948a32.53581416 32.53581416 0 0 1-33.14447747 31.92715088zM513.21578629 954.35953388a430.3248784 430.3248784 0 0 1-299.35162547-119.62998432A407.02967874 407.02967874 0 0 1 123.1180118 704.91828931a395.74174313 395.74174313 0 0 1 15.21657959-348.48734489A418.0409492 418.0409492 0 0 1 267.14985718 214.00375681a33.91913983 33.91913983 0 0 1 46.25840205 7.41462379 31.09715635 31.09715635 0 0 1-7.74662193 44.43241304 353.35665119 353.35665119 0 0 0-108.67404688 120.29398063 329.50812037 329.50812037 0 0 0-40.89110023 159.69108915c0 92.07414163 37.1837875 178.6149815 104.69006985 243.68660986a361.43527214 361.43527214 0 0 0 252.53989229 100.92742491 361.65660336 361.65660336 0 0 0 252.53989316-100.8720919 336.20341568 336.20341568 0 0 0 104.5794038-243.74194287 329.23145525 329.23145525 0 0 0-40.78043419-159.69108915 353.02465303 353.02465303 0 0 0-108.84004596-120.18331457 31.09715635 31.09715635 0 0 1-8.13395396-43.82374978l0.55333024-0.6639963a33.8638068 33.8638068 0 0 1 46.2030699-7.41462379 417.48761894 417.48761894 0 0 1 128.75993277 142.37185459 395.35441195 395.35441195 0 0 1 15.2719126 348.48734488 406.47634848 406.47634848 0 0 1-90.74614901 129.86659328 423.85091609 423.85091609 0 0 1-134.56989961 87.53683348A435.58151587 435.58151587 0 0 1 513.21578629 954.35953388z"></path></svg>