<?xml version="1.0" standalone="no"?><!DOCTYPE svg PUBLIC " -//W3C//DTD SVG 1.1//EN" "http://www.w3.org/Graphics/SVG/1.1/DTD/svg11.dtd"><svg t="1637636643032" class="icon" viewBox="0 0 1024 1024" version="1.1" xmlns="http://www.w3.org/2000/svg" p-id="2537" xmlns:xlink="http://www.w3.org/1999/xlink" width="256" height="256"><defs><style type="text/css"></style></defs><path d="M373.90185547 209.02453613L300.23852539 209.02453613 300.23852539 135.44360352c0-25.04882813-20.26977539-45.31860352-45.31860352-45.31860352s-45.31860352 20.26977539-45.31860351 45.31860352l0 73.66333007L136.02038574 209.10693359c-25.04882813 0-45.31860352 20.26977539-45.31860351 45.31860352s20.26977539 45.31860352 45.31860352 45.31860352L209.60131836 299.74414062l0 73.66333008c0 25.04882813 20.26977539 45.31860352 45.31860352 45.31860352s45.31860352-20.26977539 45.31860351-45.31860352l0-73.66333007 73.66333008 0c25.04882813 0 45.31860352-20.26977539 45.31860351-45.31860352S398.86828613 209.02453613 373.90185547 209.02453613zM843.23779297 209.02453613L552.2923584 209.02453613l0 1e-8c-24.30725098 0.16479492-43.91784668 20.43457031-43.91784668 45.40100097 0 25.04882813 19.77539063 45.40100098 44.16503906 45.40100098 0.98876953 0 1.97753906-0.08239747 2.9663086-0.08239746L797.91918945 299.74414062c25.04882813 0 45.31860352 20.26977539 45.31860352 45.31860352l0 249.91149903L704.06848145 733.97875977l-15.49072267 23.31848145L499.55798339 568.35986328c-35.4309082-35.34851075-92.77954102-35.34851075-128.12805175 0l-71.85058594 71.85058594 0-80.66711426 0 1e-8c0-0.08239747 0-0.08239747 0-0.16479493 0-25.70800781-20.26977539-46.55456543-45.31860351-46.55456543s-45.31860352 20.84655762-45.31860352 46.55456543c0 0.08239747 0 0.08239747 0 0.16479493l0 0 0 171.30432128 0 112.63732911 0 15.57312011 1.40075684-1.40075684c6.83898926 43.258667 44.00024414 76.46484375 89.23645019 76.46484375L843.23779297 934.12219239c50.01525879 0 90.63720703-40.53955078 90.63720703-90.63720704l0-211.01989746L933.875 504.25463867 933.875 299.66174316C933.875 249.64648437 893.33544922 209.02453613 843.23779297 209.02453613zM344.81555175 843.40258789c-25.04882813 0-45.31860352-20.26977539-45.3186035-45.31860352l0-29.7454834 71.85058592-71.85058593c35.34851075-35.34851075 92.77954102-35.34851075 128.12805177 0l146.91467285 146.91467285L344.81555175 843.40258789zM843.23779297 798.08398438c0 25.04882813-20.26977539 45.31860352-45.31860352 45.31860351l-29.66308593 0-12.44201661-18.78662109 12.35961915-26.53198243 75.06408691-75.06408691L843.23779297 798.08398438zM616.72717286 458.27685547c0 37.57324219 30.40466309 67.97790528 67.97790527 67.97790528 37.57324219 0 67.97790528-30.40466309 67.97790527-67.97790528s-30.40466309-67.97790528-67.97790527-67.97790528C647.13183594 390.29895019 616.72717286 420.70361328 616.72717286 458.27685547z"></path></svg>