<?xml version="1.0" standalone="no"?><!DOCTYPE svg PUBLIC " -//W3C//DTD SVG 1.1//EN" "http://www.w3.org/Graphics/SVG/1.1/DTD/svg11.dtd"><svg t="1637636643032" class="icon" viewBox="0 0 1024 1024" version="1.1" xmlns="http://www.w3.org/2000/svg" p-id="2537" xmlns:xlink="http://www.w3.org/1999/xlink" width="256" height="256"><defs><style type="text/css"></style></defs><path d="M560.47272683 481.40994263c51.09930038 1.39045716 90.03210068-42.06132889 93.16062927-90.03210069 0-1.04284287 0.34761428-2.08568573 0.34761428-3.47614287v-3.47614289c-3.1285286-50.40407181-42.40894318-88.29402924-93.50824355-90.03210067C508.33058357 292.65538407 468.35494041 338.19285583 466.96448325 387.90169907c-1.73807143 52.14214326 43.79940034 91.77017212 93.50824358 93.50824356z m0-151.21221543c31.98051453-0.69522858 56.31351472 27.11391449 57.70397185 57.70397187-1.04284287 31.98051453-25.37584305 56.31351472-57.70397185 57.70397186-31.98051453 1.04284287-56.661129-27.46152878-57.70397186-57.70397186-1.04284287-32.32812881 27.11391449-56.661129 57.70397186-57.70397187z"></path><path d="M906.10138672 716.08203125V318.59667969c0-30.05859375 6.328125-69.609375-5.14160156-98.0859375-18.19335938-45.87890625-61.69921875-44.69238282-102.04101563-44.69238282H189.04572266C148.70392578 175.81835937 119.04083984 207.85449219 116.66779297 247.40527344c-0.39550781 7.91015625 0 15.8203125 0 23.73046875V761.16992188c0 14.63378906 0 28.08105469 5.14160156 42.31933593 11.07421874 28.4765625 39.15527344 44.69238282 69.21386719 44.69238282h633.99902344c42.31933594 0 76.33300781-24.12597655 80.68359375-68.42285157 0-1.18652345 0.39550781-2.37304688 0.39550781-3.55957031v-52.60253906c0.39550781-2.37304688 0.39550781-5.14160156 0-7.51464844zM237.29767578 216.16015623h529.18945313c24.52148438 0 54.97558594-4.74609375 79.1015625 1.58203127 30.45410156 8.30566406 19.77539065 72.37792969 19.77539062 94.52636719v180.3515625l-0.39550781 179.56054686c-50.625-49.04296875-101.64550781-97.69042969-152.27050781-146.33789061-7.51464844-7.51464844-21.35742188-8.30566406-28.87207032 0-43.90136719 49.04296875-87.40722656 98.48144531-131.30859375 147.52441406l-1.18652343 1.18652344-216.73828125-189.84375c-9.09667969-7.91015625-19.77539065-7.51464844-28.87207032 0l-147.52441406 119.83886718V247.00976562c0-39.55078125 53.7890625-30.84960938 79.1015625-30.84960936zM173.22541017 803.09375001c-15.8203125-8.30566406-15.02929689-25.3125-15.02929689-40.34179689v-105.20507812l161.76269531-131.30859375 320.36132814 280.81054688H204.07501953c-10.67871094 0-21.35742188 1.18652345-30.84960936-3.95507814z m610.66406249 3.95507812h-81.47460937l-120.234375-105.20507814 117.4658203-132.09960937c55.37109375 53.3935547 110.34667969 106.39160156 165.71777344 159.38964844v47.06542969c-2.37304688 40.34179689-54.18457031 30.84960938-81.47460937 30.84960938z"></path></svg>