<?xml version="1.0" standalone="no"?><!DOCTYPE svg PUBLIC " -//W3C//DTD SVG 1.1//EN" "http://www.w3.org/Graphics/SVG/1.1/DTD/svg11.dtd"><svg t="1637636643032" class="icon" viewBox="0 0 1024 1024" version="1.1" xmlns="http://www.w3.org/2000/svg" p-id="2537" xmlns:xlink="http://www.w3.org/1999/xlink" width="256" height="256"><defs><style type="text/css"></style></defs><path d="M512 63.57702491C267.00610445 63.57702491 68.34629294 262.22297226 68.34629294 507.23073197s198.64594733 443.65370706 443.65370706 443.65370705 443.65370706-198.64594733 443.65370706-443.65370705S757.00775972 63.57702491 512 63.57702491z m0 845.71487907C289.95131962 909.29190398 109.93882798 729.27941235 109.93882798 507.23073197S289.95131962 105.16955994 512 105.16955994s402.06117202 180.01249164 402.06117202 402.06117203-179.99862745 402.06117202-402.06117202 402.06117201z"></path><path d="M403.40189103 326.99641348c-15.30605289 0-27.72835669 12.42230379-27.7283567 27.72835669v305.0119236c0 15.30605289 12.42230379 27.72835669 27.7283567 27.7283567s27.72835669-12.42230379 27.72835668-27.7283567V354.72477017c0-15.30605289-12.42230379-27.72835669-27.72835668-27.72835669zM620.61197316 326.99641348c-15.30605289 0-27.72835669 12.42230379-27.7283567 27.72835669v305.0119236c0 15.30605289 12.42230379 27.72835669 27.7283567 27.7283567s27.72835669-12.42230379 27.7283567-27.7283567V354.72477017c0-15.30605289-12.42230379-27.72835669-27.7283567-27.72835669z"></path></svg>