<?xml version="1.0" standalone="no"?><!DOCTYPE svg PUBLIC "-//W3C//DTD SVG 1.1//EN" "http://www.w3.org/Graphics/SVG/1.1/DTD/svg11.dtd"><svg t="1641807067115" class="icon" viewBox="0 0 1024 1024" version="1.1" xmlns="http://www.w3.org/2000/svg" p-id="4682" xmlns:xlink="http://www.w3.org/1999/xlink" width="256" height="256"><defs><style type="text/css"></style></defs><path d="M725.4 337.2c-3.5-0.8-7.2-1.2-11.2-1.2H244.7l181.6-181.5c20.5-20.6 20.5-54.2 0-74.9-10-10-23.3-15.5-37.5-15.5-14.1 0-27.5 5.5-37.5 15.5L79.4 351.3c-1.7 1.7-2.7 3.3-3.4 4.6-2.8 3.5-5.9 7.6-8 12.8-2.1 5-3.3 10.5-3.7 16.7-0.2 0.9-0.3 2.1-0.3 3.4 0 1.7 0.2 3.1 0.4 4.1 0.4 5.8 1.5 11 3.4 15.8l0.1 0.3c2.2 5.3 5.3 10.1 9.4 14.8l0.8 1.3 273.2 273.1c9.9 9.9 23.2 15.4 37.4 15.4 14 0 27.2-5.4 37.3-15.3l0.1-0.1c20.6-20.6 20.7-54.3 0-75L244.7 441.8h463.1c28.6 8 146.2 50.8 146.2 214.9 0 166.2-124.3 194-143.7 197.4H603.4c-29.2 0-53 23.8-53 53s23.8 52.9 53 52.9h110.8c2 0 4.1-0.1 6.4-0.4 19.8-2.4 89.3-15 151.1-74.5 26.9-25.9 48.1-56.9 62.8-92.1 16.9-40.3 25.5-86.1 25.5-136.3 0-213.2-153.3-302.2-234.6-319.5z" fill="#497CAD" p-id="4683"></path></svg>