<?xml version="1.0" standalone="no"?><!DOCTYPE svg PUBLIC "-//W3C//DTD SVG 1.1//EN" "http://www.w3.org/Graphics/SVG/1.1/DTD/svg11.dtd"><svg t="1641896704386" class="icon" viewBox="0 0 1024 1024" version="1.1" xmlns="http://www.w3.org/2000/svg" p-id="31763" xmlns:xlink="http://www.w3.org/1999/xlink" width="256" height="256"><defs><style type="text/css"></style></defs><path d="M749.7 264.8c-9.8 0-19.5 0.7-29.3 2.2-6.7-51.1-30.5-98.2-68.8-135.1C606.3 88.1 546.2 64 482.3 64c-63.9 0-124.1 24.1-169.3 67.8-45.6 44-70.7 102.6-70.7 165.1 0 8.4 0.5 16.8 1.6 25.3-99.3 0.3-179.9 78.9-179.9 175.4 0 47.1 18.8 91.3 53 124.4 33.9 32.9 79.1 51 127.1 51v-64.1c-64 0-116-49.9-116-111.3s52.2-111.3 116.5-111.3c9.8 0 20.2 1.6 32.8 5.1l59.2 16.5-20.3-58c-6.7-19.1-9.9-36.5-9.9-53.1 0-93 78.9-168.7 175.9-168.7 96.9 0 175.7 75.5 175.9 168.3 0 0.4-0.2 1.2-0.3 1.8-0.3 1.9-0.7 4.4-0.8 7.4l-3 48.3 45.6-16c17.4-6.1 33.7-9.1 50-9.1 80.6 0 146.2 62.8 146.2 140s-65.6 140-146.2 140H720v64.1h29.7c116 0 210.3-91.6 210.3-204.2 0-112.3-94.4-203.9-210.3-203.9z" fill="#E6C37C" p-id="31764"></path><path d="M245.6 895.9h474.6V960H245.6z" fill="#727272" p-id="31765"></path><path d="M646 558.3L482.9 395.2 319.8 558.3v138.5l99-99v233.1h128.3V597.8l98.9 99z" fill="#5280C1" p-id="31766"></path></svg>