<?xml version="1.0" standalone="no"?><!DOCTYPE svg PUBLIC "-//W3C//DTD SVG 1.1//EN" "http://www.w3.org/Graphics/SVG/1.1/DTD/svg11.dtd"><svg t="1638759108970" class="icon" viewBox="0 0 1024 1024" version="1.1" xmlns="http://www.w3.org/2000/svg" p-id="10601" xmlns:xlink="http://www.w3.org/1999/xlink" width="256" height="256"><defs><style type="text/css"></style></defs><path d="M514.56 708.9664c-16.9472 0-30.72-13.7728-30.72-30.72V137.0624c0-16.9472 13.7728-30.72 30.72-30.72s30.72 13.7728 30.72 30.72v541.184c0 16.9472-13.7728 30.72-30.72 30.72z" fill="#2c2c2c" p-id="10602"></path><path d="M505.1392 732.4672c-7.5264 0-15.0016-2.7648-20.8896-8.192L211.3024 470.6816a30.68928 30.68928 0 0 1-1.5872-43.4176 30.68928 30.68928 0 0 1 43.4176-1.5872L505.856 660.48l270.9504-235.52c12.8-11.1104 32.2048-9.7792 43.3152 3.0208 11.1104 12.8 9.7792 32.2048-3.0208 43.3152l-291.7888 253.5936a30.464 30.464 0 0 1-20.1728 7.5776z" fill="#2c2c2c" p-id="10603"></path><path d="M869.4784 885.4528H159.6416c-16.9472 0-30.72-13.7728-30.72-30.72s13.7728-30.72 30.72-30.72h709.8368c16.9472 0 30.72 13.7728 30.72 30.72s-13.7728 30.72-30.72 30.72z" fill="#2c2c2c" p-id="10604"></path></svg>