<?xml version="1.0" standalone="no"?><!DOCTYPE svg PUBLIC " -//W3C//DTD SVG 1.1//EN" "http://www.w3.org/Graphics/SVG/1.1/DTD/svg11.dtd"><svg t="1637636643032" class="icon" viewBox="0 0 1024 1024" version="1.1" xmlns="http://www.w3.org/2000/svg" p-id="2537" xmlns:xlink="http://www.w3.org/1999/xlink" width="256" height="256"><defs><style type="text/css"></style></defs><path d="M807.41177247 775.64685869a400.81693974 400.81693974 0 0 1-427.23453956 79.94103486 398.22282685 398.22282685 0 0 1-123.88213476-79.94103486 375.88169003 375.88169003 0 0 1-83.11750049-118.58802627 357.98760352 357.98760352 0 0 1 0-290.11713486 369.89934698 369.89934698 0 0 1 83.11750049-118.58802627 388.95813721 388.95813721 0 0 1 123.88213476-79.94103574 406.16398916 406.16398916 0 0 1 303.35240566 0 381.17579766 381.17579766 0 0 1 123.35272383 79.94103574 42.35286622 42.35286622 0 0 0 57.17636895 0 37.05875771 37.05875771 0 0 0 0-54.52931601A471.17563945 471.17563945 0 0 0 714.76487773 96.94217393a496.21677099 496.21677099 0 0 0-365.82288398 0A459.58154151 459.58154151 0 0 0 199.64813926 193.82435528a438.45805019 438.45805019 0 0 0-100.58805791 142.94092412 431.57570888 431.57570888 0 0 0 0 349.94055937 435.06982089 435.06982089 0 0 0 100.5880579 143.47033506 466.94035283 466.94035283 0 0 0 149.2938545 96.35277129 489.33443057 489.33443057 0 0 0 365.82288398 0 466.94035283 466.94035283 0 0 0 149.29385362-96.35277129 37.05875771 37.05875771 0 0 0 0-54.52931514 40.60581065 40.60581065 0 0 0-56.64695889 0z m0 0l142.940925-290.64654668-133.41152989-128.1174205a41.6116916 41.6116916 0 0 0-56.64695889 0 37.05875771 37.05875771 0 0 0 0 54.52931513l64.5881212 61.94106739H363.76549648a38.69993145 38.69993145 0 1 0 0 77.29398105h461.11683341l-64.5881212 61.94106739a37.05875771 37.05875771 0 0 0 0 54.52931513 41.6116916 41.6116916 0 0 0 56.64695889 0l133.41152989-127.58800958a38.01169776 38.01169776 0 0 0 0-54.52931601z m0 0"></path></svg>