<?xml version="1.0" standalone="no"?><!DOCTYPE svg PUBLIC " -//W3C//DTD SVG 1.1//EN" "http://www.w3.org/Graphics/SVG/1.1/DTD/svg11.dtd"><svg t="1637636643032" class="icon" viewBox="0 0 1024 1024" version="1.1" xmlns="http://www.w3.org/2000/svg" p-id="2537" xmlns:xlink="http://www.w3.org/1999/xlink" width="256" height="256"><defs><style type="text/css"></style></defs><path d="M346.23814309 219.30518L511.97875135 690.55972507 690.46863715 198.86883813c14.06170349-39.46651337 27.74842767-67.4961751 41.24766219-83.90149557C745.2155347 98.37453244 765.74562097 90.125 793.21281458 90.125c25.96727884 0 48.09102512 8.905745 66.37123883 26.62349139A83.43277185 83.43277185 0 0 1 886.95750259 178.24500662c0 9.09323465-1.59366001 19.68638407-4.87472361 31.87319349-3.28106442 12.18680942-7.03085175 23.52991662-11.24936279 34.21681127l-14.62417163 36.56042825-196.48886543 494.03450473-21.37378849 53.90319535a281.42155288 281.42155288 0 0 1-29.24834327 55.87183383 115.68094464 115.68094464 0 0 1-39.74774743 36.09170535A118.11830686 118.11830686 0 0 1 511.97875135 933.82719053c-29.06085361 0-52.12204651-6.74961768-69.3710692-20.1551078-17.24902267-13.40549011-29.99830024-28.12340616-38.24783267-44.06000373-8.24953244-15.93659675-22.12374628-47.52855698-41.6226415-94.68213464L167.7482573 286.23888696c-4.49974512-12.18680942-9.09323465-24.37361883-13.87421384-36.56042825a322.66921508 322.66921508 0 0 1-11.99931976-37.21664081A134.71111615 134.71111615 0 0 1 137.00000009 179.83866662C137.00000009 165.58947348 141.21851113 151.52777081 149.74927765 137.65355697A100.02558197 100.02558197 0 0 1 233.74451764 90.125c34.02932163 0 57.3717486 9.84319245 70.12102697 29.62332175 12.74927756 19.7801293 26.90472547 52.96574872 42.37259848 99.55685824z"></path></svg>