<?xml version="1.0" standalone="no"?><!DOCTYPE svg PUBLIC " -//W3C//DTD SVG 1.1//EN" "http://www.w3.org/Graphics/SVG/1.1/DTD/svg11.dtd"><svg t="1637636643032" class="icon" viewBox="0 0 1024 1024" version="1.1" xmlns="http://www.w3.org/2000/svg" p-id="2537" xmlns:xlink="http://www.w3.org/1999/xlink" width="256" height="256"><defs><style type="text/css"></style></defs><path d="M987.9356746 276.53728506l-240.47295966-240.47295966a86.97183654 86.97183654 0 0 0-122.8913107 0.3005912l-91.37972468 91.78012154 60.92020785 60.61961665 1.30217046-0.25127546L835.38564082 428.38633078l41.18099433 41.28197419 20.03980471 20.03863052L987.43547206 399.27830016a86.9213466 86.9213466 0 0 0 0.50020254-122.7410151z m-751.47799894 668.2635524l-18.48635877-18.53567452-119.98520437-120.23647983-19.13803111-19.23783677-55.10799518-58.96636504-12.72581025-13.42679831v212.11758122a86.57026548 86.57026548 0 0 0 86.52094973 86.47045981h209.46157618l-15.8315279-15.02955999-54.70759833-53.15532657z m297.58528758-694.86587357l-61.47090032-61.22079903-434.90497584 434.95546579 61.4709003 61.47090031 239.82128734 240.02207285 61.37109463 61.17030911L833.63258355 553.03069875l-59.66735312-63.17464184zM712.39452444 862.69012422h225.44339968a75.14779989 75.14779989 0 0 1 0 150.2955998h-375.73899945z"></path></svg>