<?xml version="1.0" standalone="no"?><!DOCTYPE svg PUBLIC " -//W3C//DTD SVG 1.1//EN" "http://www.w3.org/Graphics/SVG/1.1/DTD/svg11.dtd"><svg t="1637636643032" class="icon" viewBox="0 0 1024 1024" version="1.1" xmlns="http://www.w3.org/2000/svg" p-id="2537" xmlns:xlink="http://www.w3.org/1999/xlink" width="256" height="256"><defs><style type="text/css"></style></defs><path d="M511.983616 1024C229.220352 1024 0 794.904576 0 512.29696 0 229.679104 229.220352 0.59392 511.983616 0.59392 794.7776 0.59392 1024 229.679104 1024 512.29696 1024 794.904576 794.7776 1024 511.983616 1024zM511.983616 128.507904c-212.064256 0-383.985664 171.8272-383.985664 383.787008s171.921408 383.787008 383.985664 383.787008c212.084736 0 383.995904-171.8272 383.995904-383.787008S724.068352 128.507904 511.983616 128.507904zM703.997952 576.260096l-192.014336 0c-35.334144 0-63.993856-28.639232-63.993856-63.963136l0-191.88736c0-35.334144 28.659712-63.963136 63.993856-63.963136 35.354624 0 64.004096 28.628992 64.004096 63.963136l0 127.926272 128.01024 0c35.334144 0 63.993856 28.628992 63.993856 63.961088C767.991808 547.620864 739.332096 576.260096 703.997952 576.260096z"></path></svg>