<?xml version="1.0" standalone="no"?><!DOCTYPE svg PUBLIC " -//W3C//DTD SVG 1.1//EN" "http://www.w3.org/Graphics/SVG/1.1/DTD/svg11.dtd"><svg t="1637636643032" class="icon" viewBox="0 0 1024 1024" version="1.1" xmlns="http://www.w3.org/2000/svg" p-id="2537" xmlns:xlink="http://www.w3.org/1999/xlink" width="256" height="256"><defs><style type="text/css"></style></defs><path d="M102.854736 259.128301v691.794785H516.957248c9.743589 9.743589 14.615383 24.358971 14.615383 38.974354 0 9.743589-4.871794 24.358971-14.615383 29.230766H78.495765c-24.358971 4.871794-43.846148-9.743589-48.717943-34.10256V234.76933c-4.871794-24.358971 14.615383-43.846148 34.10256-48.717943h876.922967c24.358971 4.871794 43.846148 24.358971 48.717943 48.717943V536.820574s-29.230766 53.589737-73.076914 0V259.128301H102.854736z"></path><path d="M102.854736 259.128301L44.393205 200.66677 156.444473 39.897559c19.487177-29.230766 48.717943-43.846148 73.076914-38.974354h545.640957c24.358971 0 48.717943 14.615383 58.461531 34.10256l131.538445 165.641005h-82.820502l-116.923062-141.282034H219.777798L117.470119 195.794975l-14.615383 63.333326zM312.341889 395.53854h404.358924c14.615383 0 29.230766 14.615383 29.230766 29.230766s-14.615383 29.230766-29.230766 29.230765H312.341889c-14.615383 0-29.230766-14.615383-29.230765-29.230765s14.615383-29.230766 29.230765-29.230766zM955.418732 950.923086l-126.666651-126.666651h-4.871794c43.846148-68.20512 24.358971-160.769211-38.974354-209.487153-29.230766-24.358971-63.333325-34.10256-102.30768-34.10256-43.846148 0-87.692297 19.487177-116.923062 48.717943-58.461531 58.461531-63.333325 151.025622-14.615383 214.358947 29.230766 38.974354 77.948708 63.333325 126.666651 63.333326 29.230766 0 58.461531-9.743589 87.692297-24.358972l9.743588 9.743589v4.871794l87.692297 87.692297 29.230765 29.230765c9.743589 9.743589 19.487177 9.743589 29.230766 9.743589 9.743589 0 14.615383-4.871794 19.487177-9.743589 29.230766-29.230766 29.230766-53.589737 14.615383-63.333325z m-267.948685-126.666651c-48.717943 0-87.692297-38.974354-87.692296-87.692296s38.974354-87.692297 87.692296-87.692297 87.692297 38.974354 87.692297 87.692297c4.871794 48.717943-34.10256 87.692297-87.692297 87.692296z"></path></svg>