<?xml version="1.0" standalone="no"?><!DOCTYPE svg PUBLIC " -//W3C//DTD SVG 1.1//EN" "http://www.w3.org/Graphics/SVG/1.1/DTD/svg11.dtd"><svg t="1637636643032" class="icon" viewBox="0 0 1024 1024" version="1.1" xmlns="http://www.w3.org/2000/svg" p-id="2537" xmlns:xlink="http://www.w3.org/1999/xlink" width="256" height="256"><defs><style type="text/css"></style></defs><path d="M507.24991685 8.76261902c29.99338221 0 56.32241454 26.19331567 56.32241453 56.32241455v265.32607328c0 29.99338221-26.19331567 56.32241454-56.32241453 56.32241455-29.99338221 0-56.32241454-26.19331567-56.32241454-56.32241455V65.08503357c0.13571666-29.99338221 26.32903233-56.32241454 56.32241454-56.32241455z m0 0M335.16119 1015.50881429c-15.06454943 0-29.99338221-7.4644164-33.7934487-22.5289658L175.42267939 694.26747643c-12.21449955-28.9076489-0.6785833-62.42966431 26.60046565-77.76564706L338.28267324 544.16484878c21.71466584-11.67163289 48.85799816-2.44289991 58.9010311 20.08606592 8.95729967 20.08606591 1.22144996 43.70076501-17.91459933 54.42238127l-117.80206221 64.1939809c-3.93578318 2.17146659-5.70009979 7.05726641-3.93578317 11.26448291l111.4233791 268.99042317c7.4644164 18.7288993 0 41.25786512-18.72889927 48.72228149-7.4644164 3.66434986-11.26448291 3.66434986-15.06454946 3.66434985z m172.90302682 0c-22.52896582 0-37.45779858-15.06454943-37.45779859-37.45779858l-0.81429997-422.07881737c0-20.49321589 16.28599938-37.72923191 36.77921527-38.00066524 22.93611581-0.27143333 38.27209855 14.79311612 38.27209856 37.45779859l0.81429997 422.62168402c0 22.39324916-18.86461595 37.45779858-37.59351524 37.45779858z m179.68885987 0c-3.80006653 0-7.4644164 0-15.06454943-3.80006651-18.7288993-7.4644164-26.19331567-29.99338221-18.7288993-48.72228149l111.42337913-268.99042317c1.7643166-4.20721651 0-9.09301633-3.9357832-11.2644829L643.64516169 618.5375793c-19.13604927-10.72161626-27.00761565-34.33631537-17.91459931-54.42238127 10.04303295-22.52896582 37.18636526-31.75769879 58.9010311-20.08606591L820.75540501 616.50182937c27.41476564 15.33598275 38.8149652 48.85799816 26.60046565 77.76564706l-125.94506191 298.71237206c-3.66434986 15.06454943-18.59318262 22.52896582-33.65773206 22.5289658z"></path><path d="M323.48955713 386.59780474c7.4644164-41.25786512 48.72228149-75.05131383 89.98014659-75.05131383h187.56042624c41.25786512 0 82.5157302 33.79344873 89.98014661 75.05131383l37.45779856 191.36049277c11.26448291 59.9867644-29.99338221 108.84476257-89.98014659 108.84476256H376.01190514c-63.78683092 0-101.24462951-48.72228149-89.9801466-108.84476256l37.45779859-191.36049277z m0 0"></path></svg>