<?xml version="1.0" standalone="no"?><!DOCTYPE svg PUBLIC " -//W3C//DTD SVG 1.1//EN" "http://www.w3.org/Graphics/SVG/1.1/DTD/svg11.dtd"><svg t="1637636643032" class="icon" viewBox="0 0 1024 1024" version="1.1" xmlns="http://www.w3.org/2000/svg" p-id="2537" xmlns:xlink="http://www.w3.org/1999/xlink" width="256" height="256"><defs><style type="text/css"></style></defs><path d="M577.0173952 220.1037221H447.20993849c-32.62236445 0-58.99305643 26.48435826-58.99305643 58.99305529v465.9201115c0 32.50869817 26.48435826 58.99305643 58.99305643 58.99305642h129.80745671c32.50869817 0 58.99305643-26.48435826 58.99305643-58.99305642V279.09677739c0-32.50869817-26.48435826-58.99305643-58.99305643-58.99305529z"></path><path d="M512 2.7728475c-281.21160135 0-509.2271525 228.01555115-509.2271525 509.2271525s228.01555115 509.2271525 509.2271525 509.2271525 509.2271525-228.01555115 509.2271525-509.2271525-227.90188373-509.11348509-509.2271525-509.2271525z m0 877.05283698c-203.00886016-0.22733369-367.3710171-164.70315691-367.82568448-367.82568448 0.45466738-203.12252757 164.70315691-367.3710171 367.82568448-367.82568448 203.12252757 0.45466738 367.3710171 164.70315691 367.82568448 367.82568448-0.34099997 203.12252757-164.70315691 367.48468338-367.82568448 367.82568448z"></path></svg>