<?xml version="1.0" standalone="no"?><!DOCTYPE svg PUBLIC " -//W3C//DTD SVG 1.1//EN" "http://www.w3.org/Graphics/SVG/1.1/DTD/svg11.dtd"><svg t="1637636643032" class="icon" viewBox="0 0 1024 1024" version="1.1" xmlns="http://www.w3.org/2000/svg" p-id="2537" xmlns:xlink="http://www.w3.org/1999/xlink" width="256" height="256"><defs><style type="text/css"></style></defs><path d="M59.73333333 6.40000001h904.53333334c23.56373333 0 42.66666667 19.10293333 42.66666666 42.66666666s-19.10293333 42.66666667-42.66666666 42.66666667H59.73333333c-23.56373333 0-42.66666667-19.10293333-42.66666666-42.66666667s19.10293333-42.66666667 42.66666666-42.66666666z m0 85.33333333c23.56373333 0 42.66666667-19.10293333 42.66666667-42.66666667s-19.10293333-42.66666667-42.66666667-42.66666666h904.53333334c-23.56373333 0-42.66666667 19.10293333-42.66666667 42.66666666s19.10293333 42.66666667 42.66666667 42.66666667H59.73333333zM59.73333333 928.00000001h904.53333334c23.56373333 0 42.66666667 19.10293333 42.66666666 42.66666666s-19.10293333 42.66666667-42.66666666 42.66666667H59.73333333c-23.56373333 0-42.66666667-19.10293333-42.66666666-42.66666667s19.10293333-42.66666667 42.66666666-42.66666666z m0 85.33333333c23.56373333 0 42.66666667-19.10293333 42.66666667-42.66666667s-19.10293333-42.66666667-42.66666667-42.66666666h904.53333334c-23.56373333 0-42.66666667 19.10293333-42.66666667 42.66666666s19.10293333 42.66666667 42.66666667 42.66666667H59.73333333z"></path><path d="M145.06666667 194.13333334V68.46080001H59.73333333V194.13333334c0 119.92 81.02186667 242.22933333 186.31786667 305.6576C138.15786667 561.65973334 59.73333333 686.02666667 59.73333333 825.60000001v147.50506666h85.33333334V825.60000001c0-140.26453333 103.1872-260.88 220.2112-279.40266667 4.90773333-0.77866667 9.04426667-1.66933333 13.07093333-2.99626667 4.06826667-1.33973333 7.8752-3.02613333 11.98506667-5.77813333 10.9728-7.3472 19.46026667-18.79573333 19.46026666-36.1728 0-17.19466667-8.288-28.512-19.05066666-35.9008-4.02773333-2.76586667-7.7728-4.48746667-11.78026667-5.87626667-3.98933333-1.3824-8.10453333-2.3392-12.99093333-3.19466666C255.00906667 436.83093334 145.06666667 309.90826667 145.06666667 194.13333334z m0-119.46666667v-6.2048c-85.33333333 0.00106667-85.33333333 0.00106667-85.33333334 0.00426667V74.66666667h85.33333334zM59.73333333 962.13333334v10.97173333l83.85706667-0.0032c1.47626667 0 1.47626667 0 1.47626667-0.00213333V962.13333334H59.73333333zM879.008 194.13333334V68.46080001h85.33333333V194.13333334c0 119.89973333-80.99946667 242.2208-186.31893333 305.65866667C885.92106667 561.66186667 964.34133333 686.02666667 964.34133333 825.60000001v147.50506666h-85.33333333V825.60000001c0-140.208-103.09973333-260.78613333-220.08746667-279.38346667-5.1328-0.816-9.4304-1.76746667-13.68533333-3.2512-4.5792-1.59786667-8.82346667-3.6416-13.36853333-7.11786667-11.6672-8.92053333-19.728-23.33866667-16.5504-41.85173333 2.53333333-14.75733333 10.32746667-23.552 19.96373333-29.62773333 3.68-2.32106667 7.12533333-3.8368 10.78933333-5.07946667 3.89546667-1.32266667 7.98186667-2.27946667 12.81173334-3.1488C769.6672 436.19520001 879.008 309.58186667 879.008 194.13333334z m85.33333333 768v10.97173333l-83.85706666-0.0032c-1.47626667 0-1.47626667 0-1.47626667-0.00213333V962.13333334h85.33333333z"></path><path d="M512 450.13333334c23.73333333 0 46.71146667-35.856 68.52053333-39.07946667C688.63466667 395.07520001 768 342.21440001 768 279.46666667H256c0 62.8544 79.63733333 115.78986667 188.03306667 131.66933334C465.6768 414.30613334 488.46933333 450.13333334 512 450.13333334zM512 552.53333334c23.73333333 0 46.71146667 35.856 68.52053333 39.07946667C688.63466667 607.59146667 768 660.45226667 768 723.20000001v136.53333333H256V723.20000001c0-62.8544 79.63733333-115.78986667 188.03306667-131.66933334C465.6768 588.36053334 488.46933333 552.53333334 512 552.53333334z"></path></svg>