<?xml version="1.0" standalone="no"?><!DOCTYPE svg PUBLIC " -//W3C//DTD SVG 1.1//EN" "http://www.w3.org/Graphics/SVG/1.1/DTD/svg11.dtd"><svg t="1637636643032" class="icon" viewBox="0 0 1024 1024" version="1.1" xmlns="http://www.w3.org/2000/svg" p-id="2537" xmlns:xlink="http://www.w3.org/1999/xlink" width="256" height="256"><defs><style type="text/css"></style></defs><path d="M96.71679687 512V96.71679687h830.56640625v830.56640625H96.71679687z m700.79040528 0V226.49279785H226.49279785v571.0144043h571.0144043z m-472.38464356-2.90698242V267.39819336l138.86032105 1.60922242c131.04780579 1.52097473 140.04906921 2.24772034 159.97747192 12.9153076 51.99864807 27.82916565 77.83445435 79.0595398 73.81139832 146.36137391-3.65968323 61.24908142-31.30197144 104.18417359-81.89384766 127.19605408-19.62213135 8.92858887-36.65912476 10.97904968-105.17566223 12.68171081l-81.75888062 2.02450562V750.7878418H325.12255859z m196.63659668-27.93817749c32.13253785-3.72197571 40.72370911-6.86255494 53.3638916-19.49754639 28.44170837-28.44689941 24.50170898-74.53814392-8.09283141-94.68457031-12.6142273-7.7917511-30.50774231-10.98943177-77.25305787-13.78221131L428.94335937 349.55678406V486.0447998l27.25296022-0.22840576c14.99172363-0.12458496 44.48721314-2.22176514 65.56283568-4.66155395z"></path><path d="M96.71679687 512V96.71679687h830.56640625v830.56640625H96.71679687z m700.79040528 0V226.49279785H226.49279785v571.0144043h571.0144043z m-472.38464356-2.97965698V267.25803528l136.26480103 1.67670593c130.58580322 1.60922242 137.29262695 2.18542786 160.90666809 13.81854858C670.06716919 306.27908325 698.87744141 356.39338379 698.87744141 415.96575928c0 60.3250763-29.14768982 110.08638611-79.74475708 136.13502502-24.75606995 12.74919434-32.54782105 13.89641419-108.43044434 15.98840332L428.94335937 570.342099V750.7878418H325.12255859z m238.07147827-35.58457947c42.22911072-21.83351441 41.9020752-88.08156738-0.53986816-110.02928467-11.40471497-5.89702148-35.09143066-9.42692871-75.18183289-11.19188232L428.94335937 349.62426758v137.95708008l59.07403565-2.90698243c39.08334046-1.92587585 64.51424561-5.7309082 75.17664185-11.24379272z"></path><path d="M96.71679687 512V96.71679687h830.56640625v830.56640625H96.71679687z m700.79040528 0V226.49279785H226.49279785v571.0144043h571.0144043z m-472.38464356-3.04194947V267.12825928l136.26480103 1.74418945 136.26480102 1.74418945 28.15101013 15.57312012c50.07277222 27.69938965 77.27382202 82.92686462 71.43390198 145.04804078-5.54403076 59.02212525-34.0324585 101.22528076-82.7555603 122.60717468-23.59327698 10.35093384-38.08666077 12.24047242-108.97031249 14.21825866L423.75231934 570.342099V750.7878418H325.12255859z m237.40183411-35.02913818c34.40621338-18.0855835 43.88505249-68.49058228 18.25688781-97.08802185-17.84160462-19.91282959-40.94692383-25.47762451-106.41632079-25.64373779L423.75231934 351.07775879v136.2492279l60.99472046-2.28924865c43.77604065-1.64555969 65.73414001-4.77575684 77.7773529-11.10882568z"></path><path d="M96.71679687 512V96.71679687h830.56640625v830.56640625H96.71679687z m700.79040528 0V226.49279785H226.49279785v571.0144043h571.0144043z m-472.38464356-3.10424194V266.99848327l133.66928101 1.94664003c121.54820251 1.76495361 135.79760742 2.91217346 157.08606262 12.64537353 53.62863464 24.51209107 79.6305542 68.584021 79.7862854 135.24735717 0.08305664 36.87714844-1.90511169 46.32484131-15.26684875 72.45653686-16.93836364 33.11364441-47.6589386 60.20568237-78.98167419 69.64818421-10.63644104 3.20287171-54.95754089 7.11172486-98.49998475 8.68980103l-79.16336059 2.85507202V750.7878418H325.12255859z m220.61920166-27.89145813c31.09952087-7.17401733 49.31488037-30.12360534 49.31488037-62.12636719 0-19.77267151-2.97965698-29.01791382-13.30982666-41.29472352-17.41593933-20.69667663-40.14231262-26.44315795-104.78633422-26.4743042L423.75231934 351.07775879v134.96704101l50.61264038-0.12458496c27.83435668-0.06748352 59.95651246-2.28405762 71.37680053-4.91591491z"></path><path d="M96.71679687 512V96.71679687h830.56640625v830.56640625H96.71679687z m700.79040528 0V226.49279785H226.49279785v571.0144043h571.0144043z m-467.19360352-3.22363587V266.75969544l128.47824097 2.67857666c77.06098938 1.60403137 136.78390503 5.17027588 149.24240112 8.91301575 28.34307861 8.51849671 70.73311157 52.51256104 79.77590332 82.79708861 3.78945923 12.68171081 6.81583557 40.3603363 6.73277894 61.51901551-0.25955201 66.22728881-32.91119385 113.47094421-93.37123718 135.09681701-10.6572052 3.81022339-54.064682 8.17069703-98.25600586 9.86297608L423.75231934 570.66394348V750.7878418H330.31359863z m235.05548401-34.48407897c31.33311768-20.53575439 41.20647583-63.527948 20.94065552-91.18061829-18.71889039-25.53991699-39.77374878-32.01833496-104.15821838-32.02871704L423.75231934 351.07775879v136.03639526l63.82383727-1.83243713c50.01047973-1.43791809 66.85021362-3.81541443 77.79292603-10.98943176z"></path><path d="M96.71679687 512V96.71679687h830.56640625v830.56640625H96.71679687z m700.79040528 0V226.49279785H226.49279785v571.0144043h571.0144043z m-467.19360352-3.31188355V266.59358216l128.47824097 2.91217345c141.53370667 3.21325378 155.86097718 5.80358277 189.01095886 34.17780762 31.30197144 26.79095764 45.76940003 61.58130798 45.83688354 110.20578003 0.07267456 60.68325805-17.01103821 97.74728394-57.63611755 125.03658142-31.04241943 20.8472168-49.85474854 24.79759827-135.68340454 28.49361878L423.75231934 570.71066285V750.7878418H330.31359863z m228.03719788-31.73801879c25.91886292-13.21638793 39.39480286-34.1362793 38.82897949-60.28873901C596.10003968 366.54705811 569.39213867 351.07775879 483.96319275 351.07775879H423.75231934v134.96704101l58.39920044-0.01038207c45.3385437 0 62.38072815-2.0348877 76.19927673-9.08432007z"></path><path d="M96.71679687 512V96.71679687h830.56640625v830.56640625H96.71679687z m700.79040528 0V226.49279785H226.49279785v571.0144043h571.0144043z m-467.19360352-2.59552002V268.02111816l81.75888062 0.25955201c126.87940064 0.4152832 188.12329102 6.44208069 214.69622498 21.14310607 26.20437012 14.49338379 53.90895081 48.76463013 61.48786925 76.05911866 2.95889283 10.63644104 5.36234436 35.68840027 5.34677125 55.67390442-0.02076416 45.81092835-15.3239502 81.00617981-46.99967652 108.11898193-30.53888855 26.14207764-58.77295533 33.35243225-147.4514923 37.66099548L423.75231934 570.60684205V750.7878418H330.31359863z m233.27495728-32.84371032c47.92368164-25.70083923 46.39232483-97.69537354-2.51246338-118.13249818C549.34434205 353.52792969 523.51372681 351.07775879 483.61539307 351.07775879H423.75231934v134.96704101h61.0777771c49.23701477 0 64.50386352-1.83762817 78.75845947-9.48403014z"></path></svg>