<?xml version="1.0" standalone="no"?><!DOCTYPE svg PUBLIC " -//W3C//DTD SVG 1.1//EN" "http://www.w3.org/Graphics/SVG/1.1/DTD/svg11.dtd"><svg t="1637636643032" class="icon" viewBox="0 0 1024 1024" version="1.1" xmlns="http://www.w3.org/2000/svg" p-id="2537" xmlns:xlink="http://www.w3.org/1999/xlink" width="256" height="256"><defs><style type="text/css"></style></defs><path d="M820.58 992H203.42a85.8 85.8 0 0 1-85.74-85.74V117.74A85.8 85.8 0 0 1 203.42 32H820.52c47.34 0 85.74 38.4 85.74 85.74v788.58c0 47.28-38.34 85.68-85.68 85.68zM683.42 100.58H340.58v68.58h342.84V100.58z m154.32 17.16a17.16 17.16 0 0 0-17.16-17.16H752V212a25.74 25.74 0 0 1-25.74 25.74H297.74A25.74 25.74 0 0 1 272 212V100.58H203.42a17.16 17.16 0 0 0-17.16 17.16v788.58c0 9.48 7.68 17.16 17.16 17.16h617.16a17.16 17.16 0 0 0 17.16-17.16V117.74zM512 803.42c-205.74-97.14-205.74-199.98-205.74-342.84C381.32 386.3 512 357.74 512 357.74s130.68 28.56 205.74 102.84c0 142.86 0 245.7-205.74 342.84z m0-377.16s-87.12 19.8-137.16 71.22c0 98.88 0 170.1 137.16 237.36 137.16-67.26 137.16-138.48 137.16-237.36C599.12 446.06 512 426.26 512 426.26z"></path></svg>