<?xml version="1.0" standalone="no"?><!DOCTYPE svg PUBLIC " -//W3C//DTD SVG 1.1//EN" "http://www.w3.org/Graphics/SVG/1.1/DTD/svg11.dtd"><svg t="1637636643032" class="icon" viewBox="0 0 1024 1024" version="1.1" xmlns="http://www.w3.org/2000/svg" p-id="2537" xmlns:xlink="http://www.w3.org/1999/xlink" width="256" height="256"><defs><style type="text/css"></style></defs><path d="M512 532.13394777c-80.53579109 0-145.29998976-64.87605394-145.29998976-145.29998975s64.76419867-145.41184503 145.29998976-145.41184504 145.29998976 64.87605394 145.29998976 145.29998976S592.53579109 532.13394777 512 532.13394777z m0-234.78420208c-49.21631677 0-89.48421231 40.26789555-89.48421231 89.48421233s40.26789555 89.48421231 89.48421231 89.48421231 89.48421231-40.26789555 89.48421231-89.48421231-40.26789555-89.48421231-89.48421231-89.48421233z m0 0"></path><path d="M512 880.8986653c-6.71131592 0-13.42263185-2.2371053-20.13394777-8.94842123-2.2371053-2.2371053-40.26789555-38.03079025-87.24710702-89.48421233C290.63842977 661.77420038 221.28816521 570.16473801 199.0289674 514.2371053c-15.65973716-40.26789555-24.60815839-82.77289639-24.60815839-127.40314728 0-187.80499061 152.01130568-337.57919099 337.57919099-337.57919099s337.57919099 152.01130568 337.57919099 337.57919099c0 46.97921147-8.94842123 89.48421231-26.8452637 131.8773579-24.60815839 55.9276327-91.72131764 145.29998976-203.46472778 266.1036764-49.21631677 51.45342209-87.24710701 89.48421231-87.24710701 89.48421231-6.59946066 4.36235535-13.31077658 6.59946066-20.0220925 6.59946067z m0-775.82812084c-156.4855163 0-281.76341354 127.40314729-281.76341354 281.76341356 0 38.03079025 6.71131592 73.82447517 20.13394776 107.26919951 20.13394777 49.21631677 89.48421231 138.58867384 194.51630653 252.68104454 26.8452637 29.082369 51.45342209 53.69052739 67.11315925 69.35026456 15.65973716-15.65973716 40.26789555-40.26789555 67.11315925-69.35026456C684.14525346 632.69183137 751.2584127 547.79368492 773.62946578 498.57736815c15.65973716-35.79368492 22.37105308-71.58736986 22.37105308-109.50630483-2.2371053-158.83447687-127.51500256-284.00051886-284.00051886-284.00051886z m0 0"></path><path d="M512 974.85708825c-169.90814815 0-353.23892814-38.03079025-353.23892814-120.69183138 0-89.48421231 201.22762246-113.98051545 263.86657108-118.45472606 8.94842123 0 17.89684247 2.2371053 22.37105309 8.94842123 26.8452637 29.082369 51.45342209 53.69052739 67.11315924 69.35026455 15.65973716-15.65973716 40.26789555-40.26789555 67.11315924-69.35026455 6.71131592-6.71131592 13.42263185-8.94842123 22.37105308-8.94842123 62.63894862 4.47421062 263.86657109 29.082369 263.86657109 118.45472606-0.22371052 82.66104114-183.55449053 120.69183137-353.46263868 120.69183138z m-98.43263356-181.09367471c-138.58867384 13.42263185-196.75341185 49.21631677-198.99051715 60.40184333 2.2371053 20.13394777 105.03209421 64.87605394 297.42315071 64.87605393 190.04209593 0 295.1860454-46.97921147 297.42315071-64.87605393-2.2371053-13.42263185-60.40184331-49.21631677-198.99051715-60.40184333-44.74210617 46.97921147-78.29868579 80.53579109-78.29868579 80.53579109-11.18552654 11.18552654-29.082369 11.18552654-38.03079024 0-2.2371053-2.34896058-35.79368492-33.66843489-80.53579109-80.53579109z m0 0"></path></svg>