<?xml version="1.0" standalone="no"?><!DOCTYPE svg PUBLIC " -//W3C//DTD SVG 1.1//EN" "http://www.w3.org/Graphics/SVG/1.1/DTD/svg11.dtd"><svg t="1637636643032" class="icon" viewBox="0 0 1024 1024" version="1.1" xmlns="http://www.w3.org/2000/svg" p-id="2537" xmlns:xlink="http://www.w3.org/1999/xlink" width="256" height="256"><defs><style type="text/css"></style></defs><path d="M65.180958 246.988991c5.001706-0.396961 124.804466-7.939215 248.497442 126.233524a59.544115 59.544115 0 0 0 87.331369-80.74182C235.15956 112.339898 61.211351 127.662583 53.907272 128.456505a59.544115 59.544115 0 0 0 11.273686 118.532486zM931.746317 594.012095a24.770352 24.770352 0 0 0-41.760273 18.022019V738.347031a471.82757 471.82757 0 0 1-232.61901-100.113506A59.544115 59.544115 0 1 0 582.262056 730.407815a589.645526 589.645526 0 0 0 307.723988 127.741976v140.762288a24.770352 24.770352 0 0 0 41.760273 18.022019l205.943247-193.558071a24.69096 24.69096 0 0 0 0-36.044038z"></path><path d="M889.986044 285.097224v127.027446a24.770352 24.770352 0 0 0 41.760273 18.022019l205.943247-193.716855a24.849744 24.849744 0 0 0 0-36.12343L931.746317 6.748333a24.770352 24.770352 0 0 0-41.760273 18.101411v140.762289a614.574663 614.574663 0 0 0-106.941231 21.75345C672.927896 220.313227 519.859823 301.690185 415.77671 501.837804 266.995813 788.046519 74.708017 777.566755 65.26035 777.011009a59.544115 59.544115 0 0 0-11.353078 118.532486c1.429059 0 7.065902 0.635137 15.878431 0.635137 62.322841 0 287.002636-23.182509 451.344395-339.480849 105.115212-201.497286 266.281284-257.468755 368.855946-271.600559z"></path></svg>