<?xml version="1.0" standalone="no"?><!DOCTYPE svg PUBLIC "-//W3C//DTD SVG 1.1//EN" "http://www.w3.org/Graphics/SVG/1.1/DTD/svg11.dtd"><svg t="1638556493794" class="icon" viewBox="0 0 1024 1024" version="1.1" xmlns="http://www.w3.org/2000/svg" p-id="11034" xmlns:xlink="http://www.w3.org/1999/xlink" width="256" height="256"><defs><style type="text/css"></style></defs><path d="M779.162 206.479H382.044a38.166 38.166 0 0 0-38.166 38.166v76.333h-99.04a38.166 38.166 0 0 0-38.166 38.166v419.828a38.166 38.166 0 0 0 38.166 38.166h419.828a38.166 38.166 0 0 0 38.166-38.166v-99.614h76.333a38.166 38.166 0 0 0 38.166-38.166V244.644a38.166 38.166 0 0 0-38.166-38.166zM664.663 641.191v137.783H244.838V359.143h419.828z m112.972 0h-74.803V359.143a38.166 38.166 0 0 0-38.166-38.166H382.044v-76.332h397.118z" p-id="11035" fill="#000000"></path></svg>