<?xml version="1.0" standalone="no"?><!DOCTYPE svg PUBLIC "-//W3C//DTD SVG 1.1//EN" "http://www.w3.org/Graphics/SVG/1.1/DTD/svg11.dtd"><svg t="1638557467988" class="icon" viewBox="0 0 1024 1024" version="1.1" xmlns="http://www.w3.org/2000/svg" p-id="11203" xmlns:xlink="http://www.w3.org/1999/xlink" width="256" height="256"><defs><style type="text/css"></style></defs><path d="M673.792 289.408a42.666667 42.666667 0 0 1 42.368 37.674667l0.298667 4.992v472.874666a42.666667 42.666667 0 0 1-37.674667 42.368l-4.992 0.298667H200.96a42.666667 42.666667 0 0 1-42.368-37.674667l-0.298667-4.992V332.074667a42.666667 42.666667 0 0 1 37.674667-42.368l4.992-0.298667h472.874667z m-6.272 48.938667H207.232v460.288h460.288V338.346667z m121.429333-161.962667a42.666667 42.666667 0 0 1 42.666667 42.666667v413.226666a21.930667 21.930667 0 1 1-43.861333 0V220.245333H378.112a21.930667 21.930667 0 1 1 0-43.861333z" p-id="11204" fill="#000000"></path></svg>