<?xml version="1.0" standalone="no"?><!DOCTYPE svg PUBLIC " -//W3C//DTD SVG 1.1//EN" "http://www.w3.org/Graphics/SVG/1.1/DTD/svg11.dtd"><svg t="1637636643032" class="icon" viewBox="0 0 1024 1024" version="1.1" xmlns="http://www.w3.org/2000/svg" p-id="2537" xmlns:xlink="http://www.w3.org/1999/xlink" width="256" height="256"><defs><style type="text/css"></style></defs><path d="M809.99756961 694.0044925c33.31339243-29.04631197 52.61109093-70.89229421 52.61109093-115.58037827 0-84.5026469-68.86087485-153.56776345-153.56776344-153.56776344-84.50107582 0-153.36352173 68.86087485-153.36352174 153.56776344 0 44.68808403 19.29769852 86.53406628 52.61109093 115.58037827-69.06511653 35.14214117-114.16011291 104.20725774-116.59687349 182.2087342 1.42183646 10.96935041 5.2820046 33.11072182 33.11072181 33.11072182l5.68734581-1.01492415-3.25058521 1.21759476c13.20344039-4.46817998 19.29769852-28.64097075 19.90571034-29.86013661l1.01649524-3.45325582c13.00076976-83.48772276 83.69196447-150.31717823 159.86469217-150.31717823 78.00147647 0 145.44208594 65.40919009 158.44128463 147.67617592l1.21916583 3.65749754c0.60958292 1.01492415 1.82874877 24.17279079 24.17279081 29.8601366 27.62604661 7.10918228 32.5011389-18.68811559 34.73679996-32.50113889-2.43833168-76.58121111-47.73756976-145.44208594-116.59844458-180.58422714z m11.172021-115.78461997c0 58.90801968-49.1578351 106.84826002-109.69036183 106.84826004s-109.69036185-47.94024035-109.69036184-106.84826004 49.1578351-106.84668893 109.69036184-106.84668891 109.69036185 47.94024035 109.69036183 106.84668891z m-38.39115532 0.40848342M500.42685321 285.10318176H315.57711673c-30.46971951 0-46.92374512 14.82794746-46.92374515 36.56397762s16.04711328 35.54748241 46.92374515 35.54748241H702.94821007c29.6558949 0 47.32908634-15.03218915 47.32908635-37.58047285 0-11.57893331-4.46975107-22.13980034-12.59385748-30.06280722-6.09582922-5.89158752-16.86093791-4.67085058-34.73679997-4.67085058l-202.51978576 0.20267062z m0-8.12567749"></path><path d="M369.20313178 832.94697911h-107.25203014c-23.97012017 0-54.43826861-32.5011389-54.43826862-56.47125908V240.82043892c0-36.15706534 18.28120327-56.46968799 54.43826862-56.46968799h494.4204529c31.48464367 0 61.34478026 25.79729785 61.34478024 56.46968799v53.62601507c0 13.61035269 1.01649523 26.00153955 10.15709689 34.73679998 23.76587849 22.95362495 54.03292738 13.2018693 54.03292738-34.73679998v-53.62601507c0-89.5804098-35.14214117-124.51988037-125.53480451-124.51988037h-494.42202398c-43.46891821 0-124.51830928 0-124.51830929 122.28579039l0.20424169 269.75615352v69.06511656c0 73.3306259 0 128.98806034 0.20267063 216.74129245 0 13.00076976 1.82717766 25.79729785 5.48310409 36.76664826 13.8130233 42.65666468 52.40842032 70.48695298 98.51991193 70.486953l44.68808403 0.20267061 82.87813987-0.20424172c12.99919868 0 24.57813199-5.0777629 32.29689719-14.01412283 6.70384106-7.92300688 16.04711328-19.70461083 10.56243809-29.45479537-14.42260622-24.98504432-18.68811559-24.98504432-43.06357701-24.98504431z m0 0"></path><path d="M483.36324469 445.77855637H315.57711673c-30.46971951 0-46.92374512 14.82951854-46.92374515 36.56397765s16.04711328 35.75172411 46.92374515 35.7517241H484.37816885c29.65746598 0 47.33065743-15.03218915 47.33065742-37.58047287 0-11.57893331-4.46975107-22.13980034-12.59542856-30.06280722-5.89001643-5.89158752-16.85779573-4.67085058-35.75015302-4.67085056zM467.1118897 620.06742587h-151.33367346c-30.46971951 0-46.92217403 14.82794746-46.92217404 36.56397764s16.04711328 35.75015302 46.92217404 35.75015302h152.34859759c29.65746598 0 47.32908634-15.03218915 47.32908636-37.58047289 0-11.57736224-4.46817998-22.13980034-12.59385747-30.06123611-6.09425812-5.89158752-17.06203744-4.67242167-35.75015302-4.67242166z m0 0"></path></svg>