<?xml version="1.0" standalone="no"?><!DOCTYPE svg PUBLIC " -//W3C//DTD SVG 1.1//EN" "http://www.w3.org/Graphics/SVG/1.1/DTD/svg11.dtd"><svg t="1637636643032" class="icon" viewBox="0 0 1024 1024" version="1.1" xmlns="http://www.w3.org/2000/svg" p-id="2537" xmlns:xlink="http://www.w3.org/1999/xlink" width="256" height="256"><defs><style type="text/css"></style></defs><path d="M838.10228148 823.53872592c-261.65854815-0.9709037-447.58660741-72.33232592-552.8082963-212.02109629-34.58844445-45.99656297-60.07466667-99.2749037-75.60912593-158.37866666-12.25765925-46.60337778-18.44717037-96.96900741-18.3258074-149.64053334 0.24272592-89.20177778 18.44717037-154.37368889 19.17534815-157.04367408l70.02642963 19.90352593-35.0738963-9.95176296 35.0738963 9.8304c-0.12136297 0.60681482-16.50536297 59.9533037-16.384 139.68877037 0.12136297 104.12942222 26.94257778 192.3602963 79.73546667 262.144 90.90085925 120.2706963 257.28948148 181.68035555 494.55407407 182.52989629l-0.36408889 72.93914074z"></path><path d="M249.49191111 163.93102222m-107.77031111 0a107.77031111 107.77031111 0 1 0 215.54062222 0 107.77031111 107.77031111 0 1 0-215.54062222 0Z"></path><path d="M838.22364445 787.12983703m-112.86755556 0a112.86755555 112.86755555 0 1 0 225.73511111 0 112.86755555 112.86755555 0 1 0-225.73511111 0Z"></path></svg>