<?xml version="1.0" standalone="no"?><!DOCTYPE svg PUBLIC " -//W3C//DTD SVG 1.1//EN" "http://www.w3.org/Graphics/SVG/1.1/DTD/svg11.dtd"><svg t="1637636643032" class="icon" viewBox="0 0 1024 1024" version="1.1" xmlns="http://www.w3.org/2000/svg" p-id="2537" xmlns:xlink="http://www.w3.org/1999/xlink" width="256" height="256"><defs><style type="text/css"></style></defs><path d="M569.94285687 793.34857157l4.5257147 4.49142843a19.23428532 19.23428532 0 0 0 27.22285686 0l317.24571468-317.24571468a83.4857147 83.4857147 0 0 0 2e-8-117.84l-271.92000002-272.05714219A82.73142842 82.73142842 0 0 0 588.01142845 66.2857147c-22.28571468 0-43.16571468 8.67428532-58.90285687 24.41142843L211.89714313 408.1142853a19.13142845 19.13142845 0 0 0 0 27.18857159l4.49142844 4.52571466-104.22857157 104.22857158a82.73142842 82.73142842 0 0 0-24.44571468 58.97142842c0 22.28571468 8.67428532 43.16571468 24.41142938 58.9028569l235.71428529 235.71428623c11.38285687 11.34857155 25.40571468 18.96 40.62857158 22.28571375H102.5942853a19.16571468 19.16571468 0 1 0 2e-8 38.3657147h782.05714313a19.16571468 19.16571468 0 1 0 0-38.4H424.98285687c15.22285687-3.42857155 29.28-11.0057147 40.62857158-22.2857147l104.36571468-104.22857156z m-13.57714217-675.42857157a44.91428532 44.91428532 0 0 1 63.4285706 0l271.92000002 271.92a44.57142843 44.57142843 0 0 1 13.16571468 31.74857155 44.57142843 44.57142843 0 0 1-13.1657147 31.71428532l-303.6342853 303.73714313-4.5257147-4.49142843-326.33142843-326.4-4.49142842-4.45714312 303.63428625-303.77142845zM406.74285687 883.45142845a44.57142843 44.57142843 0 0 1-31.71428532-13.16571377l-235.71428625-235.71428625a44.57142843 44.57142843 0 0 1-13.16571373-31.7142853c0-12 4.69714313-23.24571467 13.16571373-31.71428626l104.22857157-104.22857155 299.17714313 299.10857155-104.22857155 104.26285781c-8.50285687 8.57142843-19.74857155 13.1657147-31.74857158 13.16571375z"></path></svg>