<?xml version="1.0" standalone="no"?><!DOCTYPE svg PUBLIC " -//W3C//DTD SVG 1.1//EN" "http://www.w3.org/Graphics/SVG/1.1/DTD/svg11.dtd"><svg t="1637636643032" class="icon" viewBox="0 0 1024 1024" version="1.1" xmlns="http://www.w3.org/2000/svg" p-id="2537" xmlns:xlink="http://www.w3.org/1999/xlink" width="256" height="256"><defs><style type="text/css"></style></defs><path d="M830.02480471 570.41342603V408.80207368C830.02480471 233.45040527 687.36102893 90.7763329 512 90.7763329c-175.36196498 0-318.02574075 142.67407237-318.02574075 318.02480471v161.61135237l-46.00792105 230.08453567h728.06825964l-46.00979313-230.0835996zM249.80792434 717.0011343l26.84786048-134.25521533 0.81530182-173.94384529c0-129.32221817 105.20763125-234.52891336 234.52891336-234.52891338s234.52891336 105.20669519 234.52891336 234.52891338v165.74964089l27.66222625 142.44941973H249.80792434zM604.08885417 849.72777574H419.9102098c-23.05497536 0-41.74794568 18.69297029-41.74794568 41.74888174 0 23.05497536 18.69297029 41.74794568 41.74794568 41.74794567H604.08885417c23.05497536 0 41.74888173-18.69297029 41.74888171-41.74794567-0.00093606-23.05591142-18.69390635-41.74888173-41.74888174-41.74888174z"></path></svg>