<?xml version="1.0" standalone="no"?><!DOCTYPE svg PUBLIC " -//W3C//DTD SVG 1.1//EN" "http://www.w3.org/Graphics/SVG/1.1/DTD/svg11.dtd"><svg t="1637636643032" class="icon" viewBox="0 0 1024 1024" version="1.1" xmlns="http://www.w3.org/2000/svg" p-id="2537" xmlns:xlink="http://www.w3.org/1999/xlink" width="256" height="256"><defs><style type="text/css"></style></defs><path d="M896.39834 609.59336094H127.60166c-51.78423281 0-95.60166-43.81742719-95.60166-95.60166v-11.9502075c0-51.78423281 43.81742719-95.60166 95.60166-95.60165906h768.79668c51.78423281 0 95.60166 43.81742719 95.60166 95.60165906v11.9502075c-3.98340281 51.78423281-43.81742719 95.60166-95.60166 95.60166z"></path><path d="M609.59336094 127.60166v768.79668c0 51.78423281-43.81742719 95.60166-95.60166 95.60166h-11.9502075c-51.78423281 0-95.60166-43.81742719-95.60165906-95.60166V127.60166c0-51.78423281 43.81742719-95.60166 95.60165906-95.60166h11.9502075c55.76763469 0 95.60166 43.81742719 95.60166 95.60166z"></path></svg>