<?xml version="1.0" standalone="no"?><!DOCTYPE svg PUBLIC " -//W3C//DTD SVG 1.1//EN" "http://www.w3.org/Graphics/SVG/1.1/DTD/svg11.dtd"><svg t="1637636643032" class="icon" viewBox="0 0 1024 1024" version="1.1" xmlns="http://www.w3.org/2000/svg" p-id="2537" xmlns:xlink="http://www.w3.org/1999/xlink" width="256" height="256"><defs><style type="text/css"></style></defs><path d="M768.82837481 576.40801534a62.93873018 62.93873018 0 0 0-62.85709822 62.85709823 62.93873018 62.93873018 0 0 0 62.85709822 62.85709737 62.91832282 62.91832282 0 0 0 62.83669-62.85709737 62.91832282 62.91832282 0 0 0-62.83669-62.85709823m0 186.53047852a123.81623772 123.81623772 0 0 1-123.67338116-123.67338029c0-68.183625 55.48975614-123.67338114 123.67338116-123.67338115 68.1632168 0 123.67338114 55.48975614 123.67338113 123.67338115 0 68.20403321-55.51016436 123.67338114-123.67338113 123.6733803m74.8774972 85.46932699c0.28571401 0.20408119 1.10203963 0.48979521 1.93877429 0.48979605h0.10204101l59.83669168-33.06120118c-1.42857004-3.3673443-8.04081027-19.65304687-8.04081026-36.61221846a95.30605413 95.30605413 0 0 1 90.18360854-95.10197295c0.71428544-3.95918052 4.65305776-26.38773633 4.65305774-43.22445952s-3.93877232-39.24486998-4.65305774-43.22445872A95.30605413 95.30605413 0 0 1 897.54256871 502.61214956c0-17.04080439 6.63264844-33.32650698 8.04081029-36.67344309l-58.85710046-32.69385436-0.24489844-0.0204082a4.46938477 4.46938477 0 0 0-2.26530385 0.61224442 164.69375977 164.69375977 0 0 1-21.77549498 18.26529325c-18.16325223 12.75509263-35.28568946 19.22447629-51.02037137 19.22447629-15.83672378 0-33.14283315-6.59183204-51.38771902-19.5918231a162.97947572 162.97947572 0 0 1-21.89794337-18.65304744 4.83673158 4.83673158 0 0 0-2.2857129-0.59183705h-0.20408118l-60.95914035 33.5101808c1.42857004 3.38775251 8.02040207 19.65304687 8.0204029 36.61221848a95.30605413 95.30605413 0 0 1-90.20401758 95.06115652c-0.71428544 3.95918052-4.61224134 26.38773633-4.61224135 43.2244587s3.89795675 39.26527818 4.63264956 43.24486776a95.30605413 95.30605413 0 0 1 90.20401757 95.08156474c0 17.0203962-6.67346483 33.36732338-8.10203487 36.65303486l57.7346526 32.26528294h0.1224484c0.85714203 0 1.63265207-0.3061222 1.93877429-0.48979605a168.12232868 168.12232868 0 0 1 22.12243275-19.38774107c18.48978265-13.55101088 36.06119866-20.44896513 52.24486104-20.44896513 16.36733538 0 34.08160798 7.02040345 52.69383984 20.85712835 12.48978682 9.26529911 21.14284237 18.57141546 22.22447378 19.73467968m18.97957868 90.7346292c-11.53060379-0.0204082-22.71426982-4.77550697-29.93875444-12.73468443-9.85713617-10.79591099-41.02037863-38.87752316-66.57138115-38.87752401-25.34692048 0-57.02036719 28.26528599-66.12240152 38.12242215-7.20407645 7.85713728-18.30610965 12.53060323-29.71426421 12.53060325-5.4285678 0-10.55101255-1.04081585-15.22447936-3.1020385l-0.81632563-0.34693863-77.59178152-43.38772432-0.7755092-0.57142802a37.22446289 37.22446289 0 0 1-12.48978768-44.97955998c0.04081642-0.12244923 7.14285184-16.48978375 7.14285268-31.46936468a82.34688031 82.34688031 0 0 0-82.24483929-82.24483928h-3.26530412c-12.97958287 0-23.57141183-11.55101199-26.93875614-29.38773466-0.28571401-1.42857004-6.63264844-35.30609682-6.63264844-61.97954715 0-26.71426675 6.32652623-60.57138532 6.61224023-62.04077176 3.44897711-18.06121122 14.22447991-29.67344783 27.46936775-29.36732646h2.73469252a82.36728849 82.36728849 0 0 0 82.26524749-82.28565569c0-14.93876452-7.10203545-31.30609989-7.16326089-31.48977288a37.12242271 37.12242271 0 0 1 12.61223606-44.91833538l0.79591826-0.5510198 81.89790065-44.9999682 0.85714202-0.34693863c4.59183315-1.97959068 9.63264593-2.95918193 14.97958092-2.95918108 11.38774722 0 22.51018778 4.55101673 29.79589705 12.24488924 9.69387054 10.14285017 40.32650139 36.53058649 65.10199469 36.53058566 24.57141127 0 55.04077734-25.87753294 64.69383147-35.83670927 7.24489286-7.53060687 18.28570145-11.99999163 29.55099945-11.9999908 5.448976 0 10.59182896 1.02040765 15.30611133 3.0612221l0.81632562 0.34693862 79.08157617 43.95915236 0.79591823 0.5510198c14.1428471 9.83672796 19.53059849 29.20406083 12.51019504 44.97955999-0.04081642 0.12244923-7.14285184 16.48978375-7.14285268 31.42854827a82.36728849 82.36728849 0 0 0 82.24483927 82.26524749h2.75510074c13.20407227-0.28571401 24.04079883 11.3061144 27.46936776 29.38773466 0.26530581 1.42857004 6.61224023 35.32650503 6.61224021 61.99995536 0 26.69385854-6.34693443 60.61220173-6.65305664 62.04077175-3.38775251 18.04080384-14.22447991 29.65304046-27.42855133 29.34691825h-2.75510074a82.36728849 82.36728849 0 0 0-82.24483927 82.26524749c0 14.93876452 7.10203545 31.34691629 7.16326088 31.48977288a37.18364732 37.18364732 0 0 1-12.57141963 44.95915178l-0.77551005 0.57142802-80.46932981 44.44894838-0.81632643 0.34693777a37.57140151 37.57140151 0 0 1-14.93876452 2.99999832zM1048.56286838 348.73470814a40.81629743 40.81629743 0 1 1-81.63259404 1e-8V185.53074303C966.93027436 174.26544503 957.82824002 165.06137053 946.58334941 165.06137053H211.76754806C200.66551487 165.06137053 191.42062396 174.24503682 191.42062396 185.53074303v489.67311997c0 11.26529798 9.10203431 20.46937332 20.3469241 20.46937333H395.50211113a40.81629743 40.81629743 0 1 1 1e-8 81.63259487H150.72677574A40.81629743 40.81629743 0 0 1 109.78802909 736.48953375V124.2450731C109.78802909 101.69406892 128.11454697 83.42877567 150.72677574 83.42877567h856.89734684A40.81629743 40.81629743 0 0 1 1048.56286838 124.2450731v224.48963505zM293.46136754 899.75472265c0-22.55100419 18.40814983-40.81629743 40.99997044-40.81629658h162.89784289a40.81629743 40.81629743 0 1 1 2e-8 81.63259402H334.48174618A40.81629743 40.81629743 0 0 1 293.46136754 899.75472265z"></path></svg>