<?xml version="1.0" standalone="no"?><!DOCTYPE svg PUBLIC " -//W3C//DTD SVG 1.1//EN" "http://www.w3.org/Graphics/SVG/1.1/DTD/svg11.dtd"><svg t="1637636643032" class="icon" viewBox="0 0 1024 1024" version="1.1" xmlns="http://www.w3.org/2000/svg" p-id="2537" xmlns:xlink="http://www.w3.org/1999/xlink" width="256" height="256"><defs><style type="text/css"></style></defs><path d="M482.91 104.3435c166.8075 0 309.3525 102.9851 368.1384 248.74839999l68.0856-17.93039999c16.2377-4.2841 27.0211-1.10760001 41.4198 7.6696 15.0256 9.1533 19.0589 32.0784 14.754 48.2743l-72.0771 213.8488c-4.305 16.1541-15.2764 30.302-31.5141 34.5861s-32.9352-2.5496-44.8679-14.4405l-140.1208-157.9259c-11.9327-11.8909-16.2795-27.8361-11.9745-44.0111 4.305-16.1541 15.966-27.7943 32.2038-32.0784l62.2968-16.4049c-48.6504-109.9442-158.3856-186.7442-286.3438-186.7442-173.1187 0-313.4694 140.3507-313.4694 313.4694s140.3507 313.4694 313.4694 313.4694c41.3571 0 80.7079-8.2129 116.8614-22.737 0 0 15.4018-19.0589 50.3223-19.0589 23.0713 0 41.7959 18.7246 41.7959 41.7959 0 39.3927-37.4073 44.17830001-37.4073 44.1783-51.9941 24.994-110.0278 39.4136-171.5722 39.4136-219.28229999 0-397.0612-177.7789-397.0612-397.0612S263.6278 104.3435 482.91 104.3435z"></path><path d="M541.09 418.1055c57.6993 0 104.4898 46.7696 104.4898 104.4898s-46.7905 104.4898-104.4898 104.4898-104.4898-46.7696-104.4898-104.4898S483.3907 418.1055 541.09 418.1055z"></path></svg>