<?xml version="1.0" standalone="no"?><!DOCTYPE svg PUBLIC " -//W3C//DTD SVG 1.1//EN" "http://www.w3.org/Graphics/SVG/1.1/DTD/svg11.dtd"><svg t="1637636643032" class="icon" viewBox="0 0 1024 1024" version="1.1" xmlns="http://www.w3.org/2000/svg" p-id="2537" xmlns:xlink="http://www.w3.org/1999/xlink" width="256" height="256"><defs><style type="text/css"></style></defs><path d="M970.73966611 465.50734442c-11.64590981-11.91886082-32.20821932-12.00984451-44.12708015-0.45491834l-20.47132581 20.10739115C895.31420336 254.88014746 708.52472805 75.55133313 477.51718893 75.55133313 240.68669489 75.55133313 47.98328099 268.61868169 47.98328099 505.90409408s192.70341389 430.35276096 429.53390794 430.35276096c126.19435085 0 245.65591006-55.95495731 327.26826239-153.03453359 3.63934682-2.82049379 6.55082426-6.09590592 8.82541603-9.91722008 0.27295101-0.36393469 0.6368857-0.72786935 0.90983668-1.09180403l2.09262444-3.27541216-0.72786936-0.36393466c1.36475506-3.73033049 2.09262443-7.27869362 2.09262441-10.91804046 0-17.92378307-14.55738728-32.48117033-32.39018664-32.48117031-10.73607311 0-20.83526052 5.73197124-26.65821543 15.01230559-69.96644254 84.15989512-172.50503907 132.47222407-281.41249253 132.47222408-201.80178094 0-366.027306-164.49847607-366.02730599-366.75517534 0-202.16571561 164.22552506-366.75517537 366.027306-366.75517536 200.52800953 0 363.84369791 162.31486799 366.02730599 362.6609102l-36.39346816-36.5754355c-11.73689348-11.82787716-32.29920299-11.91886082-44.03609648-0.09098369-12.2827955 12.19181183-12.2827955 32.02625198-0.09098366 44.21806384l76.88120148 77.24513616c5.82295492 5.91393857 13.73853425 9.18935071 22.01804823 9.18935071h0.36393467l0.81885305 0.27295099c1.72868974 0.45491836 3.73033049 1.00082038 5.8229549 1.00082037 8.18853035 0 15.92214231-3.18442846 21.83608089-8.91639967l79.51972793-78.4279239c5.91393857-5.82295492 9.28033438-13.73853425 9.37131804-22.10903189 0.09098368-8.37049768-3.09344481-16.19509333-8.9163997-22.10903192zM683.32225135 616.99515564v-0.09098367l0.09098366-244.20017134c0-29.56969288-24.01968898-53.68036553-53.58938187-53.68036554H305.55805187c-29.47870921 0-53.49839818 24.11067265-53.49839818 53.68036553v279.68380281c0 29.56969288 24.01968898 53.68036553 53.49839819 53.68036551h324.26580126c29.47870921 0 53.58938187-24.11067265 53.58938187-53.68036553v-33.8459254l-0.09098366-1.54672237z m-47.40249226-242.10754694V650.29517899c0 4.54918351-3.73033049 8.37049768-8.27951403 8.37049767H307.6506763c-4.54918351 0-8.27951402-3.73033049-8.27951403-8.37049767V374.8876087c0-4.64016719 3.73033049-8.37049768 8.27951403-8.37049765H627.54926139c4.64016719 0 8.37049768 3.73033049 8.3704977 8.37049767z m-45.12790054 68.14676915c-6.7327916 0-13.01066485 2.54754277-17.65083204 7.27869363l-86.70743789 96.62465796-57.59266335-40.94265168c-4.54918351-4.27623252-10.46312211-6.55082426-16.83197903-6.55082427-8.18853035 0-14.4664036 2.63852643-19.28853812 7.55164465l-67.14594875 89.98285001c-8.64344868 8.55246502-8.64344868 24.29264001 0.9098367 34.02789272 4.73115086 4.73115086 10.91804045 7.27869362 17.46886473 7.27869364 6.7327916 0 12.91968122-2.63852643 17.83279939-7.64262832l54.49921858-72.96890366 56.5008593 40.12379865c4.54918351 4.27623252 10.64508946 6.55082426 17.46886471 6.55082429 6.7327916 0 12.91968122-2.63852643 17.65083207-7.36967732L608.44269063 484.97784988c4.27623252-4.27623252 6.91475895-10.46312211 6.91475893-17.1959137 0-6.64180796-2.54754277-12.91968122-7.36967729-17.55984838-4.18524883-4.54918351-10.55410576-7.18770997-17.19591372-7.18770995zM400.09008542 492.98441289c26.47624808 0 47.94839429-21.56312989 47.9483943-48.03937796 0-26.47624808-21.56312989-48.03937796-47.9483943-48.03937797-26.47624808 0-47.94839429 21.56312989-47.94839432 48.03937796 0 26.47624808 21.47214622 48.03937796 47.94839432 48.03937798z"></path></svg>