<?xml version="1.0" standalone="no"?><!DOCTYPE svg PUBLIC " -//W3C//DTD SVG 1.1//EN" "http://www.w3.org/Graphics/SVG/1.1/DTD/svg11.dtd"><svg t="1637636643032" class="icon" viewBox="0 0 1024 1024" version="1.1" xmlns="http://www.w3.org/2000/svg" p-id="2537" xmlns:xlink="http://www.w3.org/1999/xlink" width="256" height="256"><defs><style type="text/css"></style></defs><path d="M696.277 776.795c-56.308 39.418-122.117 59.225-189.443 58.307-8.867-0.162-17.73-0.561-26.438-1.318-3.592-0.318-7.188-0.959-10.78-1.359-6.869-0.918-13.737-1.836-20.446-3.113-4.153-0.84-8.146-1.916-12.222-2.875-6.549-1.479-13.098-3.035-19.487-4.992-3.113-0.918-6.148-2.035-9.183-3.035-7.348-2.438-14.695-5.07-21.883-8.027-1.679-0.639-3.195-1.438-4.792-2.195-8.388-3.674-16.612-7.508-24.681-11.861-0.397-0.16-0.717-0.398-1.037-0.557a330.959 330.959 0 0 1-73.637-55.109c-0.32-0.318-0.639-0.762-1.04-1.158-6.709-6.791-13.176-13.818-19.328-21.285-1.278-1.516-2.474-3.154-3.833-4.793-44.165-55.387-70.84-125.391-70.84-201.624h85.056L136.093 307.54 0 511.798h84.978c0 89.651 28.033 172.672 75.472 241.28 0.561 0.998 0.958 1.957 1.598 2.875 4.952 7.027 10.382 13.535 15.654 20.166 1.917 2.475 3.833 5.111 5.75 7.545a464.754 464.754 0 0 0 24.599 26.996c0.799 0.801 1.52 1.637 2.318 2.436 28.511 28.475 60.617 52.516 95.599 71.721 1.041 0.479 1.917 1.08 2.875 1.561 10.063 5.391 20.446 10.301 30.91 14.975 2.634 1.158 5.271 2.354 7.905 3.514 8.945 3.674 18.21 6.945 27.474 10.063 4.395 1.557 8.786 3.035 13.258 4.391 8.068 2.396 16.375 4.436 24.759 6.391 5.513 1.318 11.104 2.715 16.772 3.754 2.318 0.521 4.554 1.238 6.869 1.598 7.909 1.438 15.813 2.195 23.722 3.154 2.875 0.361 5.591 0.84 8.466 1.158 14.216 1.398 28.433 2.277 42.567 2.277 86.498 0 170.915-26.479 243.356-77.191 23.083-16.215 28.592-48.002 12.541-71.164-16.215-23.122-48.085-28.714-71.165-12.503M936.357 511.839c0-89.291-27.794-172.152-74.993-240.599-0.639-1.237-1.122-2.355-1.917-3.433-5.832-8.425-12.222-16.174-18.61-24.042-0.721-0.996-1.438-1.954-2.236-2.875-43.128-52.43-97.438-92.883-158.857-119.398-1.757-0.721-3.354-1.557-5.111-2.277-9.821-3.993-19.885-7.585-29.948-10.94-3.674-1.241-7.27-2.556-10.943-3.596-8.785-2.715-17.73-4.87-26.753-6.988-4.952-1.118-9.985-2.355-15.016-3.354-2.478-0.479-4.873-1.237-7.27-1.716-6.709-1.118-13.495-1.638-20.204-2.519-4.714-0.598-9.265-1.315-13.897-1.794-11.423-1.081-22.604-1.479-33.785-1.638-2.076 0-3.993-0.319-6.07-0.319-0.397 0-0.717 0.078-1.118 0.078-86.416 0.082-170.595 26.159-243.032 76.873-23.083 16.092-28.674 48.001-12.459 71.082 16.051 23.12 47.998 28.752 71.082 12.5 55.825-39.094 121.078-58.901 187.924-58.303 9.584 0.078 19.009 0.557 28.354 1.479 2.953 0.319 5.75 0.717 8.626 1.036 7.667 1 15.334 2.036 22.76 3.514 3.354 0.639 6.631 1.557 9.903 2.318 7.348 1.598 14.777 3.433 21.966 5.55 2.236 0.717 4.472 1.557 6.786 2.277a407.695 407.695 0 0 1 24.202 8.904c0.798 0.36 1.675 0.758 2.396 1.077 47.601 20.446 89.451 51.995 121.958 91.449 0.238 0.238 0.397 0.557 0.558 0.799 45.922 55.784 73.559 127.185 73.559 204.856H749.07l136.175 204.3 136.175-204.3h-85.063z"></path></svg>