<?xml version="1.0" standalone="no"?><!DOCTYPE svg PUBLIC " -//W3C//DTD SVG 1.1//EN" "http://www.w3.org/Graphics/SVG/1.1/DTD/svg11.dtd"><svg t="1637636643032" class="icon" viewBox="0 0 1024 1024" version="1.1" xmlns="http://www.w3.org/2000/svg" p-id="2537" xmlns:xlink="http://www.w3.org/1999/xlink" width="256" height="256"><defs><style type="text/css"></style></defs><path d="M590.97943758 330.34729357h192.1832981c10.53059168 0 21.06118335-10.53059168 21.06118336-21.06118335 0-13.16323961-10.53059168-21.06118335-21.06118336-21.06118336H590.97943758c-10.53059168 0-21.06118335 10.53059168-21.06118335 21.06118336-2.63264793 10.53059168 7.89794375 21.06118335 21.06118335 21.06118335z m255.36684818 60.55090215H669.95887516c-10.53059168 0-21.06118335 10.53059168-21.06118335 21.06118335 0 13.16323961 10.53059168 21.06118335 21.06118335 21.06118335h176.3874106c10.53059168 0 21.06118335-10.53059168 21.06118335-21.06118335s-10.53059168-21.06118335-21.06118335-21.06118335z m-239.57096067 0H590.97943758c-10.53059168 0-21.06118335 10.53059168-21.06118335 21.06118335 0 13.16323961 10.53059168 21.06118335 21.06118335 21.06118335h15.79588751c10.53059168 0 21.06118335-10.53059168 21.06118336-21.06118335s-10.53059168-21.06118335-21.06118336-21.06118335z m239.57096067 73.71414173H669.95887516c-10.53059168 0-21.06118335 10.53059168-21.06118335 21.06118335 0 13.16323961 10.53059168 21.06118335 21.06118335 21.06118336h176.3874106c10.53059168 0 21.06118335-10.53059168 21.06118335-21.06118336s-10.53059168-21.06118335-21.06118335-21.06118335z m-239.57096067 0H590.97943758c-10.53059168 0-21.06118335 10.53059168-21.06118335 21.06118335 0 13.16323961 10.53059168 21.06118335 21.06118335 21.06118336h15.79588751c10.53059168 0 21.06118335-10.53059168 21.06118336-21.06118336s-10.53059168-21.06118335-21.06118336-21.06118335z m239.57096067 73.71414175H669.95887516c-10.53059168 0-21.06118335 10.53059168-21.06118335 21.06118335 0 13.16323961 10.53059168 21.06118335 21.06118335 21.06118335h176.3874106c10.53059168 0 21.06118335-10.53059168 21.06118335-21.06118335s-10.53059168-21.06118335-21.06118335-21.06118335z m-239.57096067 0H590.97943758c-10.53059168 0-21.06118335 10.53059168-21.06118335 21.06118335 0 13.16323961 10.53059168 21.06118335 21.06118335 21.06118335h15.79588751c10.53059168 0 21.06118335-10.53059168 21.06118336-21.06118335s-10.53059168-21.06118335-21.06118336-21.06118335z m-194.81594602-102.67326885H354.04112484v-78.97943759c0-10.53059168-7.89794375-18.42853543-18.42853543-18.42853543-10.53059168 0-18.42853543 7.89794375-18.42853544 18.42853543V459.34704162l2.63264793 2.63264792v2.63264791c2.63264793 5.26529584 7.89794375 7.89794375 15.79588751 7.89794377h76.34678966c10.53059168 0 18.42853543-7.89794375 18.42853543-18.42853545 0-10.53059168-7.89794375-18.42853543-18.42853543-18.42853542zM335.61258941 275.06168726C293.4902227 275.06168726 254.00050391 293.4902227 222.40872887 322.44934981c-31.59177503 31.59177503-47.38766255 71.08149382-47.38766255 113.20386054 0 42.12236671 15.79588752 84.24473342 47.38766255 113.20386053 31.59177503 31.59177503 71.08149382 47.38766255 113.20386054 47.38766254 42.12236671 0 84.24473342-15.79588752 113.20386053-47.38766254 31.59177503-31.59177503 47.38766255-71.08149382 47.38766254-113.20386053s-15.79588752-84.24473342-47.38766254-113.20386054C419.85732282 293.4902227 377.73495612 275.06168726 335.61258941 275.06168726z m0 284.32597529c-34.22442295 0-63.18355006-13.16323961-86.87738134-36.85707088-23.69383127-23.69383127-36.85707088-55.2856063-36.85707087-86.87738132 0-34.22442295 13.16323961-63.18355006 36.85707087-86.87738134 23.69383127-23.69383127 55.2856063-36.85707088 86.87738134-36.85707088 34.22442295 0 63.18355006 13.16323961 86.87738133 36.85707088 23.69383127 23.69383127 36.85707088 55.2856063 36.85707088 86.87738134 0 34.22442295-13.16323961 63.18355006-36.85707088 86.87738132-21.06118335 23.69383127-52.65295838 36.85707088-86.87738133 36.85707088zM935.85631502 193.44960176c0-26.3264792-10.53059168-50.02031046-44.75501463-52.65295838-15.79588752-2.63264793-31.59177503-2.63264793-47.38766254-2.63264792H225.04137679c-31.59177503 0-63.18355006 0-94.77532509 2.63264792C109.20486834 143.42929129 96.04162875 161.85782674 93.40898083 182.91901008c0 15.79588752-2.63264793 28.9591271-2.63264793 44.75501463v497.57045675c0 23.69383127 15.79588752 36.85707088 36.85707087 42.12236672 15.79588752 2.63264793 28.9591271 2.63264793 44.75501464 2.63264791h265.89743986v44.75501463c0 13.16323961 0 18.42853543-10.53059169 21.06118336H314.55140606c-5.26529584 0-7.89794375 7.89794375-7.89794376 15.79588751v18.42853544c0 7.89794375 2.63264793 15.79588752 7.89794376 15.79588751h397.52983581c5.26529584 0 7.89794375-7.89794375 7.89794375-15.79588751v-18.42853544c0-7.89794375-2.63264793-15.79588752-7.89794375-15.79588751h-113.20386054c-13.16323961 0-10.53059168-2.63264793-10.53059168-23.69383127v-13.1632396-28.95912712h300.12186282c7.89794375 0 18.42853543-2.63264793 26.32647919-7.89794376 21.06118335-10.53059168 26.3264792-28.9591271 26.32647919-50.02031046v-231.6730169c-5.26529584-92.14267718-5.26529584-189.55065019-5.26529583-286.95862321zM490.93881665 709.44859394c0-13.16323961 10.53059168-21.06118335 21.06118335-21.06118335s21.06118335 10.53059168 21.06118335 21.06118335c0 13.16323961-10.53059168 21.06118335-21.06118335 21.06118336-10.53059168 2.63264793-21.06118335-7.89794375-21.06118335-21.06118336z m394.89718789-326.44834198v263.26479192c0 13.16323961-7.89794375 18.42853543-21.06118334 21.06118336H169.75577048c-23.69383127 0-31.59177503-5.26529584-31.59177502-28.95912711v-107.9385647-142.16298763-152.69357933c0-21.06118335 5.26529584-26.3264792 26.32647918-26.32647919h695.01905072c15.79588752 0 21.06118335 5.26529584 21.06118335 21.06118335v76.34678967c5.26529584 23.69383127 5.26529584 50.02031046 5.26529583 76.34678966z"></path></svg>