<?xml version="1.0" standalone="no"?><!DOCTYPE svg PUBLIC " -//W3C//DTD SVG 1.1//EN" "http://www.w3.org/Graphics/SVG/1.1/DTD/svg11.dtd"><svg t="1637636643032" class="icon" viewBox="0 0 1024 1024" version="1.1" xmlns="http://www.w3.org/2000/svg" p-id="2537" xmlns:xlink="http://www.w3.org/1999/xlink" width="256" height="256"><defs><style type="text/css"></style></defs><path d="M745.17811674 145.2636822C678.17397487 107.32388806 605.06111525 88.28550761 525.78475116 88.28550761c-79.30375744 0-152.41661706 19.03838045-219.36597222 56.9781746C239.49681713 183.23086971 186.43589203 234.83994709 147.40036376 299.95394759 108.39222884 365.06794807 88.77858797 436.18109292 88.77858797 513.26598876c0 77.11228919 19.61364087 148.22543403 58.62177579 213.33943452 39.03552827 65.11400051 92.09645337 116.69568452 159.04580853 154.69026539 66.94935515 37.93979414 140.06221478 56.97817461 219.36597222 56.97817459 79.27636409 0 152.38922371-19.03838045 219.33857887-56.97817459 66.94935515-37.9671875 120.01028026-89.57626489 159.04580854-154.69026539 39.03552827-65.11400051 58.6217758-136.22714534 58.62177579-213.33943452 0-77.08489584-19.58624752-148.19804068-58.62177579-213.31204117-39.17249505-65.11400051-92.26081349-116.72307787-159.04580854-154.69026539z m-90.39806549 241.71894843c35.83050596 34.84434523 53.69097222 76.7561756 53.69097223 125.87245783 0 49.11628224-17.86046627 91.0281126-53.69097223 125.87245784-35.8031126 34.84434523-78.89285714 52.1843378-129.40620039 52.1843378-50.51334326 0-93.6030878-17.33999255-129.43359375-52.1843378-35.8031126-34.84434523-53.66357887-76.7561756-53.66357887-125.87245784 0-49.11628224 17.86046627-91.0281126 53.69097222-125.87245784 35.8031126-34.81695188 78.89285714-52.1843378 129.4062004-52.18433779 50.51334326 0 93.6030878 17.36738591 129.40620039 52.1843378z"></path></svg>