<?xml version="1.0" standalone="no"?><!DOCTYPE svg PUBLIC " -//W3C//DTD SVG 1.1//EN" "http://www.w3.org/Graphics/SVG/1.1/DTD/svg11.dtd"><svg t="1637636643032" class="icon" viewBox="0 0 1024 1024" version="1.1" xmlns="http://www.w3.org/2000/svg" p-id="2537" xmlns:xlink="http://www.w3.org/1999/xlink" width="256" height="256"><defs><style type="text/css"></style></defs><path d="M512.00360205 204.40007674c-41.68332617 0-81.50213193 8.05133708-119.49173105 24.31645066-37.98959836 16.26511357-70.70345313 38.24385117-98.16981297 65.63958505-27.4734226 27.54404778-49.36740953 60.21552681-65.61133484 98.16275022-16.27923906 38.08847453-24.40826407 77.7942794-24.40826408 119.54823152 0 41.61270021 8.1290258 81.45975698 24.40826408 119.40698038 16.24392609 38.09553729 38.13791302 70.76701632 65.61133484 98.31106411 27.46635984 27.40279664 60.18021383 49.22615763 98.16981297 65.63252308a302.97040466 302.97040466 0 0 0 119.49173105 24.32351341c41.66920144 0 81.48800721-8.20671373 119.47760557-24.32351341 37.98959836-16.40636547 70.70345313-38.23678919 98.16981296-65.63252309 27.4734226-27.54404778 49.36740953-60.21552681 65.61133484-98.31106409 16.3074893-37.94722341 24.40826407-77.7942794 24.40826409-119.40698039 0-41.75395211-8.10077557-81.45975698-24.40826409-119.54823151-16.24392609-37.94722341-38.13791302-70.62576442-65.61133484-98.16981221-27.46635984-27.38867113-60.18021383-49.36740953-98.16981296-65.63252307C593.49160926 212.45847658 553.66574074 204.40007674 511.9965393 204.40007674m0-87.90788924c53.54845471 0 104.80863485 10.40317486 153.62516301 31.35783922 48.85184114 20.94760162 90.90948377 49.07784373 126.15880318 84.38366359 35.27756963 35.16456793 63.37956073 77.2151486 84.29891212 126.14467766 20.92641414 48.78827795 31.40021497 100.06964556 31.41434046 153.54041233 0.04237572 53.62614262-10.47380081 104.90751024-31.41434046 153.69578897-20.93347689 48.92952985-49.03546801 90.98010975-84.29891212 126.13761493-35.23519388 35.31288259-77.2645863 63.44312393-126.15880316 84.39778907C616.74161095 896.949261 565.53793126 907.50074975 512.00360205 907.50074975c-53.53432921 0-104.73800889-10.55148953-153.625163-31.35783922-48.9083416-20.94760162-90.9518595-49.07784373-126.17292867-84.38366358C196.93500351 756.594679 168.84007515 714.54409835 147.90659826 665.60750651 126.96605937 616.82629134 116.44988284 565.54492372 116.49225779 511.92584306c0.0141255-53.47782876 10.48792631-104.75919638 31.41434047-153.54041233 20.9193514-48.94365458 49.01428053-90.98717248 84.29891212-126.15174042 35.24225663-35.31288259 77.30696202-63.43606196 126.17292867-84.39072633C407.18790446 126.89536236 458.44102186 116.4921875 511.9965393 116.4921875"></path></svg>