<?xml version="1.0" standalone="no"?><!DOCTYPE svg PUBLIC " -//W3C//DTD SVG 1.1//EN" "http://www.w3.org/Graphics/SVG/1.1/DTD/svg11.dtd"><svg t="1637636643032" class="icon" viewBox="0 0 1024 1024" version="1.1" xmlns="http://www.w3.org/2000/svg" p-id="2537" xmlns:xlink="http://www.w3.org/1999/xlink" width="256" height="256"><defs><style type="text/css"></style></defs><path d="M670.16687259 142.8560791a26.36553955 26.36553955 0 1 1 0-52.7310791h154.02748205C884.78236536 90.125 933.82226893 139.16490357 933.82226893 199.75291428V353.78039634a26.36553955 26.36553955 0 1 1-52.73107911 0V199.75291428C881.09118982 168.32519031 855.62207862 142.8560791 824.19435464 142.8560791H670.16687259z m210.92431723 514.81352774a26.36553955 26.36553955 0 1 1 52.7310791 0v166.5247478C933.82226893 884.78236536 884.78236536 933.82226893 824.19435464 933.82226893h-104.09115015a26.36553955 26.36553955 0 1 1 0-52.73107911h104.09115015c31.42772315 0 56.89683435-25.4691112 56.89683518-56.89683518v-166.5247478zM366.27766208 881.09118982a26.36553955 26.36553955 0 1 1 0 52.73107911H199.75291428A109.62791428 109.62791428 0 0 1 90.125 824.19435464V670.16687259a26.36553955 26.36553955 0 1 1 52.73107911 0v154.02748205C142.8560791 855.62207862 168.32519031 881.09118982 199.75291428 881.09118982h166.5247478zM142.8560791 353.78039634a26.36553955 26.36553955 0 0 1-52.7310791 0V199.75291428C90.125 139.16490357 139.16490357 90.125 199.75291428 90.125H353.78039634a26.36553955 26.36553955 0 0 1 0 52.73107911H199.75291428C168.32519031 142.8560791 142.8560791 168.32519031 142.8560791 199.75291428V353.78039634zM511.97363445 643.80133303c90.3283385 0 174.38167942-46.87792932 254.05833994-145.01046835C686.35531387 400.65832566 602.30197296 353.78039634 511.97363445 353.78039634c-90.3283385 0-174.38167942 46.87792932-254.05833993 145.01046835C337.59195505 596.92340289 421.64529597 643.80133303 511.97363445 643.80133303z m1e-8 52.73107911c-107.62413327 0-205.9675958-54.84032227-294.97765731-164.52096762a52.73107911 52.73107911 0 0 1 0-66.44115968C306.00603867 355.8896395 404.34950119 301.04931723 511.97363445 301.04931723c107.62413327 0 205.9675958 54.84032227 294.97765733 164.52096762a52.73107911 52.73107911 0 0 1 0 66.44115967C717.94123025 641.69208987 619.59776772 696.53241214 511.97363445 696.53241214z"></path><path d="M511.968002 575.964002a79.995 79.995 0 1 0 0-159.99A79.995 79.995 0 0 0 511.968002 575.964002z m0 63.996a143.991001 143.991001 0 1 1 0-287.982001A143.991001 143.991001 0 0 1 511.968002 639.960002z"></path></svg>