<?xml version="1.0" standalone="no"?><!DOCTYPE svg PUBLIC " -//W3C//DTD SVG 1.1//EN" "http://www.w3.org/Graphics/SVG/1.1/DTD/svg11.dtd"><svg t="1637636643032" class="icon" viewBox="0 0 1024 1024" version="1.1" xmlns="http://www.w3.org/2000/svg" p-id="2537" xmlns:xlink="http://www.w3.org/1999/xlink" width="256" height="256"><defs><style type="text/css"></style></defs><path d="M838.89669706 936.90190071h-653.79339412a98.1649767 98.1649767 0 0 1-98.00520365-98.00520365v-653.79339412a98.1649767 98.1649767 0 0 1 98.00520365-98.11102735h653.79339412a98.1649767 98.1649767 0 0 1 98.11102735 98.11102735v653.79339412a98.1649767 98.1649767 0 0 1-98.11102735 98.00520365z m-653.79339412-784.46699899a32.72235056 32.72235056 0 0 0-32.66840122 32.66840122v653.79339412a32.72235056 32.72235056 0 0 0 32.66840122 32.66840122h653.79339412a32.72235056 32.72235056 0 0 0 32.66840122-32.66840122v-653.79339412a32.72235056 32.72235056 0 0 0-32.66840122-32.66840122z"></path></svg>