<?xml version="1.0" standalone="no"?><!DOCTYPE svg PUBLIC " -//W3C//DTD SVG 1.1//EN" "http://www.w3.org/Graphics/SVG/1.1/DTD/svg11.dtd"><svg t="1637636643032" class="icon" viewBox="0 0 1024 1024" version="1.1" xmlns="http://www.w3.org/2000/svg" p-id="2537" xmlns:xlink="http://www.w3.org/1999/xlink" width="256" height="256"><defs><style type="text/css"></style></defs><path d="M778.752 143.872H249.856c-56.832 0-103.424 46.08-103.424 103.424v528.896c0 56.832 46.08 103.424 103.424 103.424h166.912a34.304 34.304 0 0 0 0-68.608H249.856c-18.944 0-34.304-15.36-34.304-34.304V247.296c0-18.944 15.36-34.304 34.304-34.304h528.896c18.944 0 34.304 15.36 34.304 34.304v189.44a34.304 34.304 0 0 0 68.608 0v-189.44c0.512-56.832-46.08-103.424-102.912-103.424z"></path><path d="M862.208 591.872L444.416 392.704c-12.8-6.144-28.16-4.608-39.424 4.096-10.752 8.192-15.872 22.528-12.288 35.328l120.832 421.376c4.096 14.336 17.408 24.576 32.768 25.088 15.36 1.024 29.696-7.168 35.84-20.992l72.192-164.864 198.144-36.864c14.848-2.56 26.624-14.336 28.672-29.184 2.56-14.336-5.632-28.672-18.944-34.816z"></path></svg>