<?xml version="1.0" standalone="no"?><!DOCTYPE svg PUBLIC " -//W3C//DTD SVG 1.1//EN" "http://www.w3.org/Graphics/SVG/1.1/DTD/svg11.dtd"><svg t="1637636643032" class="icon" viewBox="0 0 1024 1024" version="1.1" xmlns="http://www.w3.org/2000/svg" p-id="2537" xmlns:xlink="http://www.w3.org/1999/xlink" width="256" height="256"><defs><style type="text/css"></style></defs><path d="M766.25596386 907.5078125H257.74591944A141.90472621 141.90472621 0 0 1 116.49312914 765.09602518V258.90397482A141.90472621 141.90472621 0 0 1 257.74591944 116.4921875h314.16069259a25.0633154 25.0633154 0 0 1 24.84600395 24.84600394 24.77356653 24.77356653 0 0 1-7.24373332 17.52983322 25.78768873 25.78768873 0 0 1-17.52983322 7.24373255H257.74591944A91.99540687 91.99540687 0 0 0 166.18513626 258.17960148v507.06129853a91.99540687 91.99540687 0 0 0 91.56078318 92.06784428h508.51004442a91.99540687 91.99540687 0 0 0 91.56078319-92.06784428V482.08338351a24.70112912 24.70112912 0 0 1 24.84600316-24.84600394 25.0633154 25.0633154 0 0 1 24.84600393 24.84600394v283.08507909a141.90472621 141.90472621 0 0 1-141.25279028 142.3393499"></path><path d="M528.95127636 498.45421972L366.25703732 296.13676202a24.91844058 24.91844058 0 1 1 38.97128276-31.07561428l128.28650773 158.78262351L840.28691382 127.21291187a24.78805355 24.78805355 0 0 1 35.05966644 35.05966722L529.02371377 498.45421972m109.59767751 197.17440773H256.58692242a15.21183918 15.21183918 0 0 1-14.48746586-14.48746585v-7.24373253a15.21183918 15.21183918 0 0 1 14.48746586-14.48746585h381.96203144a15.21183918 15.21183918 0 0 1 14.12527957 14.48746585v7.24373253a13.03871918 13.03871918 0 0 1-14.12527957 14.48746585z m96.05189797 97.71795533h-478.08636683a15.21183918 15.21183918 0 0 1-14.48746585-14.48746507v-7.24373332a15.21183918 15.21183918 0 0 1 14.48746585-14.48746507h478.08636683a15.21183918 15.21183918 0 0 1 14.48746508 14.48746507v7.24373332a14.48746585 14.48746585 0 0 1-14.48746508 14.48746507zM557.78133324 586.61044847H256.58692242a15.21183918 15.21183918 0 0 1-14.48746586-14.12527958v-7.24373253a15.21183918 15.21183918 0 0 1 14.48746586-14.12527881h300.61491231a15.21183918 15.21183918 0 0 1 14.48746584 14.12527881v7.24373253a14.48746585 14.48746585 0 0 1-13.54578105 14.12527958z m0 0"></path></svg>