<?xml version="1.0" standalone="no"?><!DOCTYPE svg PUBLIC " -//W3C//DTD SVG 1.1//EN" "http://www.w3.org/Graphics/SVG/1.1/DTD/svg11.dtd"><svg t="1637636643032" class="icon" viewBox="0 0 1024 1024" version="1.1" xmlns="http://www.w3.org/2000/svg" p-id="2537" xmlns:xlink="http://www.w3.org/1999/xlink" width="256" height="256"><defs><style type="text/css"></style></defs><path d="M888.875 73.25h-731.25c-16.875 0-28.125 11.25-28.125 28.125v793.125c0 16.875 11.25 28.125 28.125 28.125h731.25c16.875 0 28.125-11.25 28.125-28.125V107c0-16.875-11.25-33.75-28.125-33.75z m-421.875 450H377V455.75h90c16.875 0 28.125-11.25 28.125-28.125V354.5l168.75 135-168.75 129.375V557c0-16.875-11.25-33.75-28.125-33.75zM191.375 135.125h123.75v736.875H191.375V135.125z m663.75 736.875H377V585.125h61.875V680.75c0 11.25 5.625 22.5 16.875 28.125 5.625 0 11.25 5.625 11.25 5.625 5.625 0 11.25 0 16.875-5.625L737 517.625c5.625-5.625 11.25-16.875 11.25-22.5 0-11.25-5.625-16.875-11.25-22.5L483.875 270.125c-5.625-11.25-16.875-11.25-28.125-5.625s-16.875 16.875-16.875 28.125V399.5H377V135.125h483.75v736.875z"></path></svg>