<?xml version="1.0" standalone="no"?><!DOCTYPE svg PUBLIC " -//W3C//DTD SVG 1.1//EN" "http://www.w3.org/Graphics/SVG/1.1/DTD/svg11.dtd"><svg t="1637636643032" class="icon" viewBox="0 0 1024 1024" version="1.1" xmlns="http://www.w3.org/2000/svg" p-id="2537" xmlns:xlink="http://www.w3.org/1999/xlink" width="256" height="256"><defs><style type="text/css"></style></defs><path d="M300.72951083 281.12730807c-15.75639781 0.20732102-28.36151604 13.89050858-28.19565921 30.55911888-0.16585682 16.6893424 12.43926142 30.35179786 28.19565921 30.579851h338.14058958c15.75639781-0.20732102 28.36151604-13.89050858 28.19565921-30.579851 0.16585682-16.66861029-12.43926142-30.35179786-28.19565921-30.55911888H300.72951083z m169.09102689 183.39617752H300.72951083c-15.75639781 0.20732102-28.36151604 13.89050858-28.19565921 30.55911889-0.16585682 16.66861029 12.43926142 30.35179786 28.19565921 30.55911888h169.09102689c15.75639781-0.20732102 28.36151604-13.89050858 28.19565922-30.55911888a31.13961775 31.13961775 0 0 0-8.10625203-21.47845806 27.78101717 27.78101717 0 0 0-20.08940719-9.08066083z m47.39358601 366.81308713c15.61127308 0 28.19565922 13.66245546 28.19565921 30.57985099 0.16585682 16.66861029-12.43926142 30.35179786-28.19565921 30.5591189H263.5983155c-62.1963071 0-112.72044056-54.79494654-112.72044056-122.25720766V219.98833819C150.87787494 152.52607709 201.38127631 97.73113054 263.5983155 97.73113054h507.21088436c62.175575 0 112.69970845 54.79494654 112.69970844 122.25720765v152.83705863c0.16585682 16.66861029-12.43926142 30.35179786-28.19565921 30.55911889-15.73566571-0.22805313-28.32005183-13.89050858-28.1334629-30.55911889V219.98833819c0-33.77259475-25.18950438-61.11823777-56.37058633-61.11823777H263.5983155c-31.16034985 0-56.37058632 27.30417881-56.37058633 61.11823777v550.22999676c0 33.79332686 25.21023648 61.11823777 56.39131843 61.11823777h253.59507613z m226.02137998 95.11888566c-62.79753806-0.0414642-122.98283123-26.47489472-167.34953028-73.51603499-44.36669906-47.02040817-69.26595399-110.79235504-69.2244898-177.25947522-0.0414642-66.44638808 24.87852284-130.19760285 69.24522189-177.19727891 44.36669906-47.02040817 104.55199223-73.45383868 167.3080661-73.49530289 62.79753806 0.0414642 122.98283123 26.47489472 167.34953028 73.49530289 44.36669906 46.99967606 69.26595399 110.75089084 69.2452219 177.21801102 0.0414642 66.44638808-24.87852284 130.19760285-69.2452219 177.25947522-44.36669906 47.02040817-104.55199223 73.45383868-167.32879819 73.49530288z m0-49.13508261c50.44120505-0.08292842 98.78846778-21.35406543 134.40621964-59.19015225 35.61775186-37.7946226 55.56203433-89.04437965 55.49983803-142.42954324 0.12439261-111.18626498-84.89795918-201.41237448-189.90605767-201.5782313-105.02883057 0.16585682-190.05118237 90.3919663-189.90605766 201.5782313-0.08292842 53.38516358 19.88208617 104.63492063 55.49983803 142.42954324 35.61775186 37.81535471 83.96501457 59.08649174 134.40621963 59.19015225z m-20.13087139-111.64237125V587.25753158c0-12.81243926 12.89536767-20.31746032 22.28701005-12.91609976l113.1558147 89.21023646c3.77324262 3.10981536 5.99157758 7.87819889 5.99157758 12.93683188a16.73080661 16.73080661 0 0 1-6.01230969 12.95756398l-113.13508259 89.21023647c-9.32944606 7.40136055-22.28701005-0.10366052-22.28701005-12.91609977v-0.06219632z m-56.55717526-178.42047294c0-8.7696793 6.32329123-15.83932621 14.13929381-15.8393262 7.83673469 0 14.1392938 7.0696469 14.13929382 15.8393262v183.97667638c0 8.7696793-6.34402332 15.83932621-14.13929382 15.83932622a14.20149012 14.20149012 0 0 1-10.15873015-4.80984775 15.92225461 15.92225461 0 0 1-3.98056366-11.02947847V587.25753158z"></path></svg>