<?xml version="1.0" standalone="no"?><!DOCTYPE svg PUBLIC " -//W3C//DTD SVG 1.1//EN" "http://www.w3.org/Graphics/SVG/1.1/DTD/svg11.dtd"><svg t="1637636643032" class="icon" viewBox="0 0 1024 1024" version="1.1" xmlns="http://www.w3.org/2000/svg" p-id="2537" xmlns:xlink="http://www.w3.org/1999/xlink" width="256" height="256"><defs><style type="text/css"></style></defs><path d="M896.80195767 485.888a384 384 0 1 0-149.914 331.21300001 25.6 25.6 0 0 1 31.13000001 40.65299999 435.2 435.2 0 1 1 168.90799999-387.328l21.504-21.504a25.6 25.6 0 0 1 36.199 36.198l-72.397 72.39700001a25.498 25.498 0 0 1-36.198 0l-72.397-72.39700001a25.6 25.6 0 0 1 36.198-36.198l36.967 36.966z m-225.076-2.56a35.84 35.84 0 0 1 0 57.344l-177.51 133.12A35.84 35.84 0 0 1 436.87195767 645.12V378.88a35.84 35.84 0 0 1 57.344-28.672l177.51 133.12zM488.07195767 409.6v204.8L624.62195768 512 488.07195767 409.6z"></path></svg>