<?xml version="1.0" standalone="no"?><!DOCTYPE svg PUBLIC " -//W3C//DTD SVG 1.1//EN" "http://www.w3.org/Graphics/SVG/1.1/DTD/svg11.dtd"><svg t="1637636643032" class="icon" viewBox="0 0 1024 1024" version="1.1" xmlns="http://www.w3.org/2000/svg" p-id="2537" xmlns:xlink="http://www.w3.org/1999/xlink" width="256" height="256"><defs><style type="text/css"></style></defs><path d="M442.73142409 966.5247015C230.40348416 928.07681591 80.32450128 752.41676611 80.32450128 542.0213911c0-118.29336261 44.55072474-224.53361911 128.82075961-307.07451652 39.21074105-38.4478856 59.14668175-50.75527805 82.33746994-50.75527805 33.41304355 0 60.72324796 27.97134568 60.62153468 61.99467342 0 18.15594615-9.25597244 30.5141948-56.65468883 75.776917-63.01181253 60.01125049-93.78029276 131.46532381-93.78029366 217.66792541 0 135.07617002 90.5254453 257.18380721 220.8719158 297.76768698 48.05985767 15.00281285 131.41446671 15.00281285 179.52518058 0 47.60214476-14.7485274 107.8168227-52.99298552 140.61958296-89.25402073 30.31076733-33.46390064 61.74038796-92.15286948 72.92892622-136.04245293 9.4594008-37.07474684 9.40854371-108.3253927-0.10171418-145.04414082a324.36589395 324.36589395 0 0 0-110.81738472-169.76063813c-38.65131395-30.71762315-47.04271766-50.95870551-34.27761319-82.64261249a58.9432534 58.9432534 0 0 1 69.67407877-34.37932646c44.44901055 11.84967865 123.22649138 95.35685987 161.72523404 171.28634903 27.56448986 54.36612427 38.75302813 101.45969902 41.19416308 173.5749127 2.03428001 57.21411592 0.81371165 73.94606625-7.83197661 109.85110271-37.43074559 155.62239492-150.53669578 274.47518462-304.17566778 319.43276517-34.07418481 10.01882699-56.50211755 13.12110411-104.10426231 14.49424285-33.41304355 1.01714-71.25064585-0.15257126-84.16832159-2.49199292z m39.9735956-431.67414663c-29.09019898-15.71481031-28.63248605-12.10396411-28.63248607-234.19644737 0-182.83088515 0.81371165-204.54682131 8.28968954-217.05764034 8.84911662-14.85024158 32.65018899-28.58162896 49.63642386-28.58162987 17.74909032 0 41.60101889 12.56167701 51.5181326 27.10677694 8.9508308 13.12110411 9.56111408 24.66564111 10.88339663 210.03937627 1.57656711 217.7696387 1.06799709 221.88905492-28.98848568 240.14671524-18.66451615 11.23939536-44.60158182 12.30739244-62.70667088 2.54284913z"></path></svg>