<?xml version="1.0" standalone="no"?><!DOCTYPE svg PUBLIC " -//W3C//DTD SVG 1.1//EN" "http://www.w3.org/Graphics/SVG/1.1/DTD/svg11.dtd"><svg t="1637636643032" class="icon" viewBox="0 0 1024 1024" version="1.1" xmlns="http://www.w3.org/2000/svg" p-id="2537" xmlns:xlink="http://www.w3.org/1999/xlink" width="256" height="256"><defs><style type="text/css"></style></defs><path d="M658.853 701.023625c-7.938 0-14.387625-2.480625-19.845-6.94575-5.457375-4.96125-9.426375-10.91475-11.410875-18.85275l-35.224875-88.31025h-168.6825L397.89125 652.8995c-2.480625 5.457375-4.465125 10.91475-6.449625 16.372125-2.480625 5.457375-4.96125 10.418625-7.938 15.379875s-6.94575 8.93025-11.410875 11.907c-4.465125 2.97675-9.9225 4.96125-15.876 4.96125-10.418625 0-18.356625-2.97675-24.310125-8.93025-6.449625-6.449625-6.94575-17.364375-0.99225-32.74425l138.915-366.14025c2.480625-7.441875 6.94575-13.395375 13.395375-17.364375 6.449625-4.465125 14.387625-6.449625 24.310125-6.449625 10.418625 0 18.85275 1.9845 25.302375 6.449625 6.449625 4.465125 11.410875 10.418625 13.8915 17.8605l139.411125 366.636375c3.969 10.91475 3.969 20.341125 0.496125 28.279125-3.969 8.434125-12.89925 12.89925-26.294625 12.89925 0-0.99225-0.99225-0.99225-1.488375-0.99225z m-81.860625-165.70575L508.527125 349.271l-68.46525 186.046875h136.9305z"></path><path d="M508.031 273.86c9.426375 0 16.86825 1.9845 22.325625 5.457375 5.9535 3.969 9.9225 8.93025 11.907 15.379875l139.411125 367.1325c3.472875 9.426375 3.969 17.8605 0.496125 24.310125-2.97675 6.449625-10.418625 9.9225-21.8295 9.9225h-1.9845c-6.449625 0-11.907-1.9845-16.372125-5.9535s-7.938-9.426375-10.418625-16.372125l-36.217125-91.783125H420.713L393.426125 650.915c-1.9845 5.457375-4.465125 10.91475-6.449625 16.372125-1.9845 4.96125-4.96125 9.9225-7.441875 14.387625-2.97675 4.465125-5.9535 7.938-9.9225 10.418625s-7.938 3.969-12.89925 3.969c-8.93025 0-15.876-2.480625-20.341125-7.441875-4.96125-4.96125-4.96125-14.387625 0-27.783l138.915-365.644125c1.9845-6.449625 5.9535-11.410875 11.410875-15.379875 4.96125-3.969 12.403125-5.9535 21.333375-5.9535m-74.914875 266.419125h150.822L508.527125 334.883375l-75.411 205.39575M508.031 263.9375c-10.91475 0-19.845 2.480625-27.286875 7.441875s-12.403125 11.907-15.379875 19.845l-138.915 365.644125c-2.480625 6.449625-9.426375 26.294625 1.9845 38.201625 6.94575 6.94575 15.876 10.418625 27.783 10.418625 6.94575 0 12.89925-1.9845 18.356625-5.457375 4.96125-3.472875 8.93025-7.938 12.403125-13.395375 2.97675-4.96125 5.9535-10.418625 8.434125-15.876 1.9845-4.96125 4.465125-10.418625 6.94575-16.372125l24.80625-62.51175h161.73675l33.7365 84.837375c2.97675 8.434125 6.94575 15.379875 12.89925 20.341125 5.9535 5.457375 13.8915 8.434125 22.82175 8.434125h1.9845c19.348875 0 27.286875-8.434125 30.75975-15.379875 4.465125-8.93025 3.969-19.845-0.496125-31.752l-139.411125-367.1325c-2.97675-8.434125-8.434125-15.379875-15.876-20.341125-6.94575-4.465125-16.372125-6.94575-27.286875-6.94575zM447.50375 530.356625l61.023375-166.698 61.023375 166.698H447.50375z"></path><path d="M512 950.5745c-132.9615 0-256.99275-59.535-340.837875-162.729-1.488375-1.488375-2.480625-3.472875-3.969-4.96125C106.16975 704.992625 73.921625 611.225 73.921625 512v-6.449625l4.96125-0.496125h-4.96125c0.99225-65.984625 17.364375-130.977 48.62025-193.48875 3.472875-9.426375 11.907-15.876 22.325625-15.876 13.395375 0 24.310125 10.91475 24.310125 24.310125 0 2.480625-0.496125 4.465125-1.488375 6.449625 0 0.99225 0 1.488375-0.496125 1.9845-29.271375 54.57375-44.155125 115.597125-44.155125 181.085625 0 62.015625 13.8915 121.0545 42.170625 175.62825 65.984625 133.95375 199.44225 217.30275 348.27975 217.30275 69.4575 0 137.426625-18.85275 197.45775-54.57375l-23.317875-40.186125c-0.99225-1.488375-0.99225-3.969 0.496125-5.457375 0.99225-1.488375 2.480625-1.9845 3.969-1.9845h1.488375l95.256 25.302375c1.488375 0.496125 2.480625 0.99225 2.97675 2.480625s0.99225 2.480625 0.496125 3.969l-25.302375 95.256c-0.496125 1.9845-1.9845 3.472875-3.969 3.472875h-0.496125c-1.9845 0-3.472875-0.99225-4.465125-2.480625l-22.82175-39.69c-65.4885 38.69775-138.915 60.031125-212.837625 61.5195h-0.99225c-3.472875 0.496125-6.449625 0.496125-9.426375 0.496125z m367.1325-221.767875c-13.395375 0-24.310125-10.91475-24.310125-24.310125 0-2.480625 0.496125-4.465125 1.488375-6.449625 0-0.99225 0-1.488375 0.496125-1.9845 29.271375-54.57375 44.155125-115.597125 44.155125-181.085625 0-62.015625-13.8915-121.0545-42.170625-175.62825-65.984625-133.95375-199.44225-217.30275-348.27975-217.30275-69.4575 0-137.426625 18.85275-197.45775 54.57375l23.317875 40.186125c0.99225 1.9845 0.99225 3.969-0.496125 5.457375-0.99225 1.488375-2.480625 1.9845-3.969 1.9845h-1.488375l-95.256-25.302375c-1.488375-0.496125-2.480625-0.99225-2.97675-2.480625s-0.99225-2.480625-0.496125-3.969l25.302375-95.256c0.496125-1.9845 1.9845-3.472875 3.969-3.472875h0.496125c1.9845 0 3.472875 0.99225 4.465125 2.480625l22.82175 39.69c65.4885-38.69775 138.915-60.031125 212.837625-61.5195h9.9225c132.9615 0 256.99275 59.535 340.837875 162.729 1.488375 1.488375 2.480625 3.472875 3.969 4.96125 61.023375 77.891625 93.2715 171.163125 93.2715 270.388125v6.449625l-4.96125 0.496125h4.96125c-0.99225 65.984625-17.364375 130.977-48.62025 193.48875-2.480625 9.426375-11.410875 15.876-21.8295 15.876z"></path><path d="M512 78.882875c135.93825 0 257.488875 62.51175 336.868875 160.7445 1.488375 1.488375 2.480625 2.97675 3.969 4.96125 58.046625 73.4265 92.775375 166.698 92.775375 267.9075V519.441875c-0.99225 68.961375-19.348875 133.95375-48.62025 192.000375-2.480625 7.441875-9.426375 12.89925-17.8605 12.89925-10.418625 0-19.348875-8.434125-19.348875-19.348875 0-1.9845 0.496125-3.969 1.488375-5.9535v-0.496125c29.271375-54.57375 44.65125-117.0855 44.65125-183.56625 0-64.000125-15.379875-124.527375-42.66675-177.61275-64.000125-129.98475-197.953875-219.783375-352.744875-219.783375-74.41875 0-144.372375 21.333375-203.907375 57.5505l25.7985 44.155125-95.256-25.302375 25.302375-95.256 25.302375 44.155125C351.2555 103.689125 424.185875 80.37125 502.573625 78.882875h9.426375M144.8675 300.65075c10.418625 0 19.348875 8.434125 19.348875 19.348875 0 1.9845-0.496125 3.969-1.488375 5.9535v0.496125c-29.271375 54.57375-44.65125 117.0855-44.65125 183.56625 0 64.000125 15.379875 124.527375 42.66675 177.61275 64.000125 129.98475 197.953875 219.783375 352.744875 219.783375 74.41875 0 144.372375-21.333375 203.907375-57.5505l-25.7985-44.155125 95.256 25.302375-25.302375 95.256-25.302375-44.155125c-63.007875 38.201625-135.93825 61.5195-214.326 63.504h-9.426375c-135.93825 0-257.488875-62.51175-336.868875-160.7445-1.488375-1.488375-2.480625-2.97675-3.969-4.96125-58.046625-73.4265-92.775375-166.698-92.775375-267.9075V505.05425c0.99225-68.961375 19.348875-133.95375 48.62025-192.000375 1.9845-7.441875 9.426375-12.403125 17.364375-12.403125m367.1325-231.690375h-9.9225c-72.930375 1.488375-145.86075 22.325625-210.853125 59.535l-20.341125-35.224875c-1.9845-2.97675-4.96125-4.96125-8.434125-4.96125h-1.488375c-3.969 0.496125-7.441875 3.472875-8.434125 7.441875l-25.302375 95.256c-1.488375 5.457375 1.9845 10.91475 6.94575 11.907l95.256 25.302375c0.99225 0 1.488375 0.496125 2.480625 0.496125 2.97675 0 5.9535-1.488375 7.938-3.969 2.480625-2.97675 2.480625-7.441875 0.496125-10.91475l-20.83725-35.721c58.046625-33.7365 123.535125-51.100875 190.512-51.100875 72.930375 0 143.87625 20.83725 204.899625 59.535 59.535 37.7055 107.659125 91.287 138.915 154.791 27.783 54.077625 41.6745 112.620375 41.6745 173.64375 0 64.992375-14.387625 125.0235-43.659 179.101125-0.496125 0.99225-0.99225 2.480625-0.99225 3.472875-0.496125 1.9845-1.488375 4.465125-1.488375 7.441875 0 15.876 12.89925 29.271375 29.271375 29.271375 11.907 0 22.82175-7.441875 26.79075-18.85275 31.255875-63.007875 48.124125-128.9925 49.116375-195.47325v-0.496125-6.449625c0-100.21725-32.74425-194.977125-94.26375-273.364875-1.488375-1.488375-2.480625-3.472875-3.969-4.96125-84.34125-105.674625-209.860875-165.70575-344.31075-165.70575zM144.8675 290.72825c-11.907 0-22.82175 7.441875-26.79075 18.85275-31.255875 63.007875-48.124125 128.9925-49.116375 195.47325V512c0 100.21725 32.74425 194.977125 94.26375 273.364875 1.488375 1.488375 2.480625 3.472875 3.969 4.96125 84.837375 104.682375 210.357 164.7135 344.806875 164.7135h9.9225c72.930375-1.488375 145.86075-22.325625 210.853125-59.535l20.341125 35.224875c1.9845 2.97675 4.96125 4.96125 8.434125 4.96125h1.488375c3.969-0.496125 7.441875-3.472875 8.434125-7.441875l25.302375-95.256c1.488375-5.457375-1.9845-10.91475-6.94575-11.907l-95.256-25.302375c-0.99225 0-1.488375-0.496125-2.480625-0.496125-2.97675 0-5.9535 1.488375-7.938 3.969-2.480625 2.97675-2.480625 7.441875-0.496125 10.91475l20.83725 35.721c-58.046625 33.7365-123.535125 51.100875-190.512 51.100875-72.930375 0-143.87625-20.83725-204.899625-59.535-59.535-37.7055-107.659125-91.287-138.915-154.791-27.783-54.077625-41.6745-112.620375-41.6745-173.64375 0-64.992375 14.387625-125.0235 43.659-179.101125 0.496125-0.99225 0.99225-2.480625 0.99225-3.472875 0.496125-1.9845 1.488375-4.465125 1.488375-7.441875-0.496125-15.379875-13.395375-28.279125-29.7675-28.279125z"></path></svg>