<?xml version="1.0" standalone="no"?><!DOCTYPE svg PUBLIC " -//W3C//DTD SVG 1.1//EN" "http://www.w3.org/Graphics/SVG/1.1/DTD/svg11.dtd"><svg t="1637636643032" class="icon" viewBox="0 0 1024 1024" version="1.1" xmlns="http://www.w3.org/2000/svg" p-id="2537" xmlns:xlink="http://www.w3.org/1999/xlink" width="256" height="256"><defs><style type="text/css"></style></defs><path d="M512 853.333333a341.333333 341.333333 0 1 0 0-682.666666 341.333333 341.333333 0 0 0 0 682.666666z m0 85.333334C276.352 938.666667 85.333333 747.648 85.333333 512S276.352 85.333333 512 85.333333s426.666667 191.018667 426.666667 426.666667-191.018667 426.666667-426.666667 426.666667z"></path><path d="M600.576 574.208H423.424L380.672 675.84a42.666667 42.666667 0 0 1-78.677333-33.066667l133.12-316.416a83.413333 83.413333 0 0 1 153.770666 0l133.12 316.416a42.666667 42.666667 0 0 1-78.677333 33.066667l-42.752-101.632z m-35.882667-85.333333L512 363.690667l-52.693333 125.184h105.386666z"></path></svg>