<?xml version="1.0" standalone="no"?><!DOCTYPE svg PUBLIC " -//W3C//DTD SVG 1.1//EN" "http://www.w3.org/Graphics/SVG/1.1/DTD/svg11.dtd"><svg t="1637636643032" class="icon" viewBox="0 0 1024 1024" version="1.1" xmlns="http://www.w3.org/2000/svg" p-id="2537" xmlns:xlink="http://www.w3.org/1999/xlink" width="256" height="256"><defs><style type="text/css"></style></defs><path d="M918.81132354 402.31003568L753.18607046 567.93528963l-35.90406581-35.90406665L882.90725774 366.4059699a50.20483779 50.20483779 0 0 0 14.70646808-35.9040658 50.80070333 50.80070333 0 0 0-14.70646807-35.90406666l-153.40367161-153.40367159A50.20483779 50.20483779 0 0 0 693.54880856 126.53841043a50.80070333 50.80070333 0 0 0-35.90406666 14.70646722L408.16726661 390.84913288a50.20483779 50.20483779 0 0 0-14.70646724 35.90406664A50.80070333 50.80070333 0 0 0 408.16726661 462.63190899l52.43616452 52.43616454L424.64865269 550.99749565l-52.43616369-52.43616454a101.67747478 101.67747478 0 0 1 0-143.413416l249.62961154-249.60425522a101.67747478 101.67747478 0 0 1 143.41341602 0l153.40367159 153.40367159c39.55532713 39.30176729 39.55532713 103.85808888 0.10142359 143.26128061z m-266.74489639 123.23005681l-92.80288298-92.80288214-35.9040658 35.9040658 92.80288299 92.80288212a50.20483779 50.20483779 0 0 1 14.70646723 35.90406665 50.80070333 50.80070333 0 0 1-14.70646723 35.9040658L366.65952973 882.6536979a50.20483779 50.20483779 0 0 1-35.90406578 14.70646808 50.80070333 50.80070333 0 0 1-35.90406666-14.70646808l-153.4036716-153.4036716a50.20483779 50.20483779 0 0 1-14.70646722-35.90406578 50.80070333 50.80070333 0 0 1 14.70646722-35.9040658l159.74266671-159.64124312-35.90406581-35.9040658-159.7426667 159.74266671a101.67747478 101.67747478 0 0 0 0 143.41341601l153.40367159 153.40367159a101.67747478 101.67747478 0 0 0 143.41341601 0l249.70567967-249.60425522c39.45390269-39.30176729 39.45390269-103.85808888-1e-8-143.26128062z"></path></svg>