<?xml version="1.0" standalone="no"?><!DOCTYPE svg PUBLIC " -//W3C//DTD SVG 1.1//EN" "http://www.w3.org/Graphics/SVG/1.1/DTD/svg11.dtd"><svg t="1637636643032" class="icon" viewBox="0 0 1024 1024" version="1.1" xmlns="http://www.w3.org/2000/svg" p-id="2537" xmlns:xlink="http://www.w3.org/1999/xlink" width="256" height="256"><defs><style type="text/css"></style></defs><path d="M20.49536 507.71968l165.51424 133.03808V545.4336h198.2464V470.00064H186.0352V374.62528L20.49536 507.71968zM1008.84992 507.71968l-165.50912-133.0944v95.34464h-198.2464v75.46368h198.2464v95.37536l165.50912-133.08928z"></path><path d="M459.32032 94.84288v830.85824c0 25.216-15.872 45.6192-35.49184 45.6192-19.6096 0-35.48672-20.4032-35.48672-45.6192V94.84288c0-25.20576 15.87712-45.61408 35.48672-45.61408 19.61984 0 35.49184 20.4032 35.49184 45.61408zM644.44416 94.84288v830.85824c0 25.216-15.87712 45.6192-35.48672 45.6192-19.61472 0-35.49184-20.4032-35.49184-45.6192V94.84288c0-25.20576 15.87712-45.61408 35.49184-45.61408 19.61472 0 35.48672 20.4032 35.48672 45.61408z"></path></svg>